<?xml version="1.0" encoding="utf-8"?>
<!-- Generator: Adobe Illustrator 16.0.0, SVG Export Plug-In . SVG Version: 6.00 Build 0)  -->
<!DOCTYPE svg PUBLIC "-//W3C//DTD SVG 1.1//EN" "http://www.w3.org/Graphics/SVG/1.1/DTD/svg11.dtd">
<svg version="1.1" xmlns="http://www.w3.org/2000/svg" xmlns:xlink="http://www.w3.org/1999/xlink" x="0px" y="0px" width="1000px"
	 height="1000px" viewBox="0 0 1000 1000" enable-background="new 0 0 1000 1000" xml:space="preserve">
<g id="Layer_1">
	<path opacity="0.3" fill="#010101" enable-background="new    " d="M506.923,887.086c178.551,0,323.328,22.359,323.328,49.955
		s-144.777,49.955-323.328,49.955c-178.55,0-323.31-22.359-323.31-49.955S328.373,887.086,506.923,887.086z"/>
	<g id="Layer_1_1_" display="none">
		<g display="inline">
			<g>
				<path opacity="0.2" fill="#010101" enable-background="new    " d="M883.458,650.888H122.486c0,0-103.073-15.01-108.374-120.368
					c0,0-36.849-156.295,149.288-184.388c0,0-73.77-219.514,166.818-309.066c0,0,201.926-59.704,300.292,151.029
					c0,0,87.796-64.99,187.869-1.749c0,0,87.813,59.68,59.729,173.843c0,0,112.384,15.799,115.896,151.029
					C994.02,511.201,1004.671,604.444,883.458,650.888z"/>
				<path fill="#FFFFFF" d="M878.026,634.626H117.071c0,0-103.09-15.025-108.35-120.368c0,0-36.864-156.289,149.264-184.371
					c0,0-73.746-219.506,166.819-309.075c0,0,201.942-59.695,300.291,151.029c0,0,87.78-64.973,187.901-1.748
					c0,0,87.765,59.696,59.697,173.86c0,0,112.383,15.806,115.895,151.004C988.588,494.924,999.239,588.199,878.026,634.626z"/>
				<path opacity="0.2" fill="#010101" enable-background="new    " d="M159.05,623.438h675.103c0,0,91.455-13.334,96.139-106.789
					c0,0,32.717-138.662-132.434-163.573c0,0,65.437-194.74-148.013-274.217c0,0-179.161-52.972-266.411,133.995
					c0,0-77.885-57.648-166.688-1.562c0,0-77.908,52.964-52.964,154.241c0,0-99.715,14.042-102.829,133.961
					C60.969,499.494,51.513,582.232,159.05,623.438z"/>
				<path fill="#FFFFFF" d="M163.88,609.047H839c0,0,91.421-13.058,96.104-104.479c0,0,32.701-135.636-132.434-160.012
					c0,0,65.436-190.495-147.995-268.226c0,0-179.145-51.809-266.412,131.06c0,0-77.917-56.396-166.721-1.512
					c0,0-77.893,51.809-52.98,150.882c0,0-99.715,13.708-102.813,131.061C65.783,487.801,56.31,568.751,163.88,609.047z"/>
				<path fill="#E4E6ED" d="M337.293,675.508c25,0,45.271,20.262,45.271,45.272c0,25.01-20.271,45.271-45.271,45.271
					c-25.002,0-45.281-20.261-45.281-45.271C292.012,695.77,312.291,675.508,337.293,675.508z"/>
				<path fill="#C2C4CE" d="M356.708,683.247c9.726,7.563,16.035,19.4,16.035,32.687c0,22.831-18.53,41.369-41.361,41.369
					c-7.408,0-14.351-1.951-20.384-5.382c6.992,5.431,15.773,8.666,25.328,8.666c22.847,0,41.345-18.521,41.345-41.337
					C377.686,703.818,369.246,690.338,356.708,683.247z"/>
				<path fill="#E4E6ED" d="M501.932,716.665c25.012,0,45.272,20.278,45.272,45.288c0,24.994-20.262,45.271-45.272,45.271
					c-25.01,0-45.279-20.276-45.279-45.271C456.651,736.943,476.921,716.665,501.932,716.665z"/>
				<path fill="#C2C4CE" d="M521.348,724.39c9.741,7.609,16.019,19.448,16.019,32.719c0,22.831-18.538,41.353-41.369,41.353
					c-7.407,0-14.334-1.936-20.359-5.35c6.992,5.415,15.767,8.65,25.32,8.65c22.863,0,41.351-18.538,41.351-41.337
					C542.308,744.943,533.854,731.48,521.348,724.39z"/>
				<path fill="#E4E6ED" d="M666.514,689.248c24.994,0,45.272,20.278,45.272,45.271c0,24.994-20.278,45.272-45.272,45.272
					c-24.992,0-45.288-20.278-45.288-45.272C621.226,709.526,641.521,689.248,666.514,689.248z"/>
				<path fill="#C2C4CE" d="M685.962,696.956c9.74,7.578,16.019,19.416,16.019,32.687c0,22.848-18.507,41.354-41.368,41.354
					c-7.399,0-14.344-1.936-20.359-5.334c6.976,5.398,15.789,8.651,25.303,8.651c22.896,0,41.386-18.508,41.386-41.337
					C706.924,717.527,698.469,704.046,685.962,696.956z"/>
			</g>
			<path opacity="0.3" fill="#010101" enable-background="new    " d="M506.923,887.086c178.551,0,323.328,22.359,323.328,49.955
				s-144.777,49.955-323.328,49.955c-178.55,0-323.31-22.359-323.31-49.955S328.373,887.086,506.923,887.086z"/>
		</g>
	</g>
</g>
<g id="Layer_4">
	<g>
		<path fill-rule="evenodd" clip-rule="evenodd" fill="#F9A337" d="M103.795,385.601c-5.471-6.56-8.669-13.996-9.984-22.526
			c-12.158-78.869,17.604-139.126,81.554-184.244c56.512-39.871,120.402-61.564,187.512-74.453
			c113.22-21.744,225.813-20,336.821,13.321c56.685,17.017,108.676,43.134,150.515,86.343
			c27.972,28.887,48.037,62.681,54.959,102.397c4.451,25.546,5.064,51.97-9.975,75.604c-16.203,11.8-35.247,11.633-53.789,11.653
			c-231.072,0.23-462.144,0.205-693.217,0.054C133.035,393.745,117.623,393.568,103.795,385.601z M367.014,148.271
			c-1.657-7.627-0.772-18.578-12.905-18.681c-10.727-0.089-12.935,10.281-13.124,18.098c-0.205,8.441,1.885,19.134,13.18,19.454
			C365.294,167.462,365.502,157.291,367.014,148.271z M848.099,300.108c0.076-10.508-3.553-19.143-12.963-19.549
			c-10.716-0.464-12.772,10.529-12.737,18.286c0.038,8.333,2.04,19.394,13.834,18.935
			C847.169,317.355,847.236,307.247,848.099,300.108z M180.466,242.411c0.995,6.401,1.221,16.599,12.414,16.316
			c11.477-0.291,13.223-11.16,13.15-19.624c-0.065-7.37-2.315-17.781-11.944-17.617C183.67,221.662,180.11,230.613,180.466,242.411z
			 M502.612,236.98c-0.17-9.702-3.902-18.376-13.353-18.454c-10.445-0.083-12.644,10.826-12.411,18.667
			c0.245,8.288,2.227,19.458,14.188,18.586C501.805,254.994,501.936,244.997,502.612,236.98z M340.187,237.672
			c-1.67-8.729-2.984-19.439-14.063-19.073c-10.146,0.337-11.788,11.201-12.114,19.191c-0.349,8.536,3.25,17.741,13.347,18.018
			C338.557,256.117,338.887,246.049,340.187,237.672z M573.579,299.076c0.137-8.738-0.442-18.606-11.424-18.736
			c-11.854-0.142-12.617,10.379-12.481,19.405c0.128,8.53,1.298,18.361,12.409,18.026
			C573.121,317.442,573.72,307.819,573.579,299.076z M281.186,189.972c-0.033-5.44,0.13-15.987-12.025-15.996
			c-10.915-0.008-11.852,10.019-11.934,18.537c-0.085,8.55,0.785,18.398,11.595,18.895
			C279.974,211.92,281.216,202.497,281.186,189.972z M253.885,308.378c1.132,8.256,1.509,18.635,12.514,18.064
			c11.462-0.598,11.501-11.248,11.733-20.179c0.219-8.417-1.43-17.178-11.377-17.239C254.697,288.95,254.925,299.58,253.885,308.378
			z M724.218,308.894c0.099-10.542-0.914-19.968-11.959-19.863c-10.95,0.101-11.826,9.914-11.989,18.398
			c-0.164,8.567,0.82,18.629,11.337,19.013C723.574,326.878,723.392,315.907,724.218,308.894z M132.965,299.721
			c1.936,8.124,3.599,18.324,13.899,17.755c9.724-0.536,12.782-10.257,12.456-18.952c-0.319-8.518-3.222-18.441-13.438-17.939
			C136.036,281.069,134.247,290.99,132.965,299.721z M806.812,240.24c-1.46-8.603-3.324-18.609-13.249-18.765
			c-9.977-0.156-13.027,9.666-13.133,18.3c-0.104,8.677,2.926,18.445,12.768,18.672C803.347,258.684,805.069,248.547,806.812,240.24
			z M741.758,192.274c-1.898-8.21-3.529-18.422-13.763-18.049c-9.801,0.354-12.804,10.07-12.629,18.779
			c0.172,8.628,3.15,18.427,13.225,18.156C738.527,210.891,740.275,200.867,741.758,192.274z M578.978,192.253
			c-2.874-7.575-2.789-18.883-13.576-18.021c-10.045,0.805-13.229,9.946-12.805,19.731c0.404,9.285,4.271,17.576,13.819,17.178
			C576.713,210.715,576.61,199.901,578.978,192.253z M659.129,236.472c-1.884-8.195-3.603-18.398-13.842-17.891
			c-9.681,0.479-12.818,10.18-12.523,18.912c0.288,8.55,3.196,18.416,13.368,18.003
			C656.039,255.096,657.779,245.138,659.129,236.472z M431.99,192.704c-1.162-7.716-0.804-18.243-11.584-18.676
			c-11.874-0.473-12.418,10.125-12.721,19.103c-0.296,8.761,0.729,18.219,11.764,18.306
			C430.588,211.525,430.749,201.458,431.99,192.704z M647.646,148.144c-1.239-7.518-0.809-17.81-11.615-18.479
			c-11.061-0.687-12.411,9.162-12.605,17.614c-0.201,8.861,0.264,19.471,11.874,19.78
			C646.255,167.35,646.437,157.014,647.646,148.144z M404.511,298.284c1.028,8.782,0.713,19.452,12.669,19.466
			c9.945,0.015,11.288-9.333,11.471-17.299c0.203-8.888-0.17-19.466-11.607-20.086C406.02,279.765,405.705,290.118,404.511,298.284z
			 M508.604,138.601c0.059-8.87-1.069-18.28-12.181-18.003c-10.952,0.274-11.606,10.157-11.835,18.649
			c-0.238,8.899,1.748,18.479,12.265,18.197C507.266,157.165,508.566,147.402,508.604,138.601z"/>
		<path fill-rule="evenodd" clip-rule="evenodd" fill="#F9A337" d="M905.46,648.875c-7.269,50.603-47.015,85.938-98.27,85.991
			c-205.17,0.223-410.34,0.196-615.508,0.013c-45.02-0.041-81.992-27.814-95.099-70.182c-1.875-6.061-4.007-12.133-1.902-18.618
			c25.918,18.093,53.721,17.44,83.09,10.076c46.657-11.7,92.949-25.119,140.659-32.316c51.073-7.704,100.766-6.863,147.62,19.367
			c19.059,10.67,40.544,14.334,62.506,15.062c35.316,1.172,69.436-6.202,103.399-14.155c78.407-18.358,156.447-22.599,234.195,3.33
			C878.967,651.714,892.235,651.716,905.46,648.875z"/>
		<path fill-rule="evenodd" clip-rule="evenodd" fill="#E09038" d="M886.396,696.467c-18.615,20.103-32.018,32.016-57.227,38.485
			c-93.994,0.102-187.987,0.089-281.98,0.006c-20.625-0.02,93.505-15.41,125.52-26.579c8.19-1.489,17.869-5.956,28.812-8.519
			c16.178,0.537,31.81-2.843,47.369-6.485c35.921-8.41,71.673-10.353,107.292,1.525
			C862.052,696.858,880.336,697.769,886.396,696.467z"/>
		<path fill-rule="evenodd" clip-rule="evenodd" fill="#945429" d="M76.827,589.133c-19.713-18.319-18.521-41.615-13.209-64.472
			c3.881-16.702,17.827-25.157,34.124-29.155c2.015,0.076,4.033,0.145,6.049,0.217c4.836,2.248,9.572,4.753,14.523,6.707
			c49.515,19.523,99.118,38.894,137.197,78.378c4.784,4.962,9.707,2.883,14.986,1.645c58.82-13.788,117.602-27.737,176.531-41.045
			c15.612-3.528,30.732-9.474,47.708-6.701c79.057,12.911,157.544,28.504,235.214,48.113c6.431,1.623,10.957,1.004,15.742-4.011
			c21.397-22.407,47.498-38.157,75.382-50.928c24.503-11.218,49.444-21.482,74.193-32.167c1.954-0.148,3.909-0.295,5.864-0.442
			c41.82,15.043,51.419,60.181,20.129,94.669c-11.321,6.738-23.535,8.606-36.674,8.599c-256.623-0.199-513.248-0.202-769.872,0.006
			C101.038,598.558,88.368,596.674,76.827,589.133z"/>
		<path fill-rule="evenodd" clip-rule="evenodd" fill="#2DE22D" d="M920.64,445.529c-23.098,17.407-48.789,13.633-73.404,6.483
			c-48.863-14.196-97.865-25.183-149.227-21.541c-41.328,2.932-81.412,12.724-121.57,21.826
			c-50.469,11.44-98.216,9.895-145.548-15.448c-41.566-22.256-87.693-17.931-132.791-10.896
			c-39.366,6.145-77.273,18.024-115.031,30.488c-24.743,8.167-50.164,8.695-75.645,3.434c-11.385-2.352-21.107-7.711-28.175-17.256
			c-8.831-26.329,7.127-41.986,24.545-57.019c13.828,7.967,29.24,8.144,44.396,8.151c231.073,0.151,462.145,0.176,693.217-0.054
			c18.542-0.021,37.586,0.147,53.789-11.653c11.235,5.408,19.856,13.796,26.192,24.317
			C929.236,419.396,930.593,432.661,920.64,445.529z"/>
		<path fill-rule="evenodd" clip-rule="evenodd" fill="#2DE22D" d="M76.827,589.133c11.541,7.541,24.211,9.425,37.889,9.413
			c256.624-0.208,513.249-0.205,769.872-0.006c13.139,0.008,25.353-1.86,36.674-8.599c1.545,10.586,3.824,20.986,2.082,31.95
			c-1.906,12.012-7.851,20.694-17.887,26.983c-13.221,2.841-26.489,2.839-39.306-1.433c-77.748-25.929-155.788-21.688-234.195-3.33
			c-33.964,7.953-68.083,15.327-103.399,14.155c-21.962-0.728-43.448-4.392-62.506-15.062
			c-46.854-26.23-96.546-27.071-147.62-19.367c-47.709,7.197-94.001,20.616-140.659,32.316c-29.369,7.364-57.171,8.017-83.09-10.076
			l0.087,0.153c-0.71-1.111-1.421-2.221-2.133-3.332C81.502,626.703,71.533,610.163,76.827,589.133z"/>
		<path fill-rule="evenodd" clip-rule="evenodd" fill="#F9A337" d="M92.636,642.9c0.711,1.111,1.422,2.221,2.133,3.332
			C92.373,646.2,92.467,644.576,92.636,642.9z"/>
		<path fill-rule="evenodd" clip-rule="evenodd" fill="#FDD32A" d="M103.791,495.723c67.924-0.087,135.847-0.259,203.771-0.249
			c195.901,0.041,391.8,0.152,587.703,0.237c-24.746,10.687-49.688,20.952-74.19,32.169c-27.884,12.771-53.984,28.521-75.382,50.928
			c-4.785,5.015-9.312,5.634-15.742,4.011c-77.67-19.609-156.157-35.202-235.214-48.113c-16.977-2.772-32.096,3.173-47.708,6.701
			c-58.929,13.308-117.711,27.257-176.531,41.045c-5.279,1.238-10.202,3.317-14.986-1.645
			c-38.079-39.484-87.682-58.854-137.197-78.378C113.362,500.476,108.627,497.971,103.791,495.723z"/>
		<path fill-rule="evenodd" clip-rule="evenodd" fill="#D3B32D" d="M880.81,494.32c0,0-135.311,45.212-150.859,88.499
			c0,0,5.711,4.534,15.742-4.011c0,0,38.943-41.501,149.572-83.097L880.81,494.32z"/>
		<path fill-rule="evenodd" clip-rule="evenodd" fill="#D3B32D" d="M568.097,494.32c0,0-129.465,31.002-318.296,81.528
			c0,0,12.285,17.869,32.388,3.351c0,0,194.329-33.505,304.895-83.762L568.097,494.32z"/>
		<path fill-rule="evenodd" clip-rule="evenodd" fill="#FD292A" d="M103.791,495.723c-2.016-0.072-4.034-0.142-6.049-0.217
			c-19.64-11.329-23.677-22.872-18.492-52.887c7.068,9.545,16.791,14.904,28.175,17.256c25.481,5.261,50.901,4.733,75.645-3.434
			c37.757-12.464,75.665-24.343,115.031-30.488c45.097-7.035,91.224-11.36,132.791,10.896
			c47.332,25.342,95.079,26.888,145.548,15.448c40.158-9.103,80.242-18.895,121.57-21.826
			c51.361-3.643,100.363,7.344,149.227,21.541c24.615,7.15,50.307,10.924,73.404-6.483c-0.06,9.247,0.595,18.566-0.357,27.719
			c-1.183,11.372-9.328,17.651-19.146,22.024c-1.959,0.147-3.914,0.294-5.871,0.439c-195.902-0.084-391.802-0.196-587.703-0.237
			C239.638,495.464,171.714,495.636,103.791,495.723z"/>
		<path fill-rule="evenodd" clip-rule="evenodd" fill="#E09038" d="M907.613,335.73c0,0,11.169-159.707-225.6-223.366
			c0,0,277.796,109.425,159.394,281.333c0,0,40.255,0.039,53.789-11.653C895.196,382.044,911.522,354.158,907.613,335.73z"/>
		<path fill-rule="evenodd" clip-rule="evenodd" fill="#2AD82A" d="M901.398,597.956c0,0,14.591-8.705,18.499-9.264
			c0,0,16.195,45.231-14.441,60.183c0,0-29.114,4.035-31.906,0.685C873.55,649.56,862.237,590.466,901.398,597.956z"/>
		<path fill-rule="evenodd" clip-rule="evenodd" fill="#7F4B28" d="M939.258,556.49c-8.188,21.593-12.648,34.996-37.859,41.466
			c-93.992,0.102-187.986,0.089-281.979,0.005c-20.624-0.019,93.504-15.41,125.519-26.578c8.191-1.49,17.87-5.957,28.813-8.52
			c16.179,0.536,31.81-2.842,47.369-6.484c35.921-8.412,53.482-16.234,89.101-4.355C916.092,553.981,933.2,557.793,939.258,556.49z"
			/>
		<path fill-rule="evenodd" clip-rule="evenodd" fill="#DB2C34" d="M841.162,450.206c0,0-21.778,44.114-16.194,45.231
			c0,0,62.988-0.33,76.168-0.165c0,0,24.348-3.186,19.879-28.873v-26.804L841.162,450.206z"/>
		<path fill-rule="evenodd" clip-rule="evenodd" fill="#2AD82A" d="M841.162,450.206c0,0,13.961-61.984,69.243-57.517
			c0,0,19.545,15.077,16.752,37.414c0,0,3.352,20.661-36.297,27.362C890.86,457.465,868.524,460.815,841.162,450.206z"/>
		<g>
			<path fill-rule="evenodd" clip-rule="evenodd" fill="#FEDD61" d="M178.598,240.431c1.336-9.099,3.2-19.437,13.461-19.941
				c10.645-0.522,13.67,9.817,14.003,18.693c0.339,9.061-2.847,19.19-12.979,19.749
				C182.348,259.523,180.615,248.895,178.598,240.431z"/>
			<path fill-rule="evenodd" clip-rule="evenodd" fill="#C6A852" d="M202.179,223.443c1.789,4.074,1.847,9.404,1.735,14.255
				c-0.19,8.3-1.589,18.042-11.953,18.026c-3.919-0.005-6.572-1.109-8.402-2.905c1.643,3.754,4.673,6.391,10.731,6.397
				c10.363,0.016,11.762-9.727,11.953-18.026C206.39,234.774,206.245,227.513,202.179,223.443z"/>
		</g>
		<g>
			<path fill-rule="evenodd" clip-rule="evenodd" fill="#FEDD61" d="M131.369,298.639c1.359-9.257,3.255-19.773,13.694-20.286
				c10.83-0.532,13.907,9.987,14.246,19.017c0.345,9.217-2.896,19.522-13.205,20.091
				C135.184,318.062,133.421,307.25,131.369,298.639z"/>
			<path fill-rule="evenodd" clip-rule="evenodd" fill="#C6A852" d="M155.358,281.357c1.82,4.144,1.879,9.567,1.766,14.502
				c-0.194,8.443-1.618,18.354-12.16,18.338c-3.987-0.005-6.686-1.128-8.548-2.955c1.671,3.82,4.754,6.501,10.917,6.508
				c10.542,0.017,11.965-9.894,12.16-18.338C159.643,292.884,159.495,285.497,155.358,281.357z"/>
		</g>
		<g>
			<path fill-rule="evenodd" clip-rule="evenodd" fill="#FEDD61" d="M251.667,308.115c1.321-8.994,3.163-19.212,13.305-19.711
				c10.523-0.517,13.514,9.705,13.842,18.478c0.336,8.956-2.814,18.968-12.83,19.521
				C255.374,326.989,253.661,316.482,251.667,308.115z"/>
			<path fill-rule="evenodd" clip-rule="evenodd" fill="#C6A852" d="M274.978,291.324c1.769,4.026,1.826,9.296,1.715,14.091
				c-0.188,8.204-1.571,17.833-11.815,17.818c-3.874-0.004-6.496-1.096-8.305-2.871c1.624,3.711,4.619,6.316,10.607,6.324
				c10.244,0.016,11.627-9.614,11.815-17.819C279.14,302.524,278.996,295.347,274.978,291.324z"/>
		</g>
		<g>
			<path fill-rule="evenodd" clip-rule="evenodd" fill="#FEDD61" d="M255.018,193.08c1.32-8.994,3.163-19.212,13.306-19.711
				c10.522-0.517,13.513,9.704,13.842,18.478c0.336,8.956-2.814,18.969-12.831,19.521
				C258.725,211.953,257.012,201.447,255.018,193.08z"/>
			<path fill-rule="evenodd" clip-rule="evenodd" fill="#C6A852" d="M278.329,176.289c1.768,4.026,1.825,9.296,1.715,14.091
				c-0.189,8.204-1.571,17.834-11.816,17.818c-3.874-0.004-6.496-1.096-8.305-2.871c1.625,3.711,4.619,6.317,10.608,6.324
				c10.244,0.016,11.626-9.614,11.815-17.819C282.49,187.489,282.347,180.312,278.329,176.289z"/>
		</g>
		<g>
			<path fill-rule="evenodd" clip-rule="evenodd" fill="#FEDD61" d="M339.099,148.983c1.36-9.256,3.255-19.773,13.693-20.286
				c10.83-0.532,13.908,9.987,14.246,19.017c0.345,9.217-2.896,19.522-13.205,20.091
				C342.914,168.407,341.151,157.595,339.099,148.983z"/>
			<path fill-rule="evenodd" clip-rule="evenodd" fill="#C6A852" d="M363.089,131.702c1.82,4.144,1.879,9.567,1.766,14.502
				c-0.194,8.444-1.617,18.354-12.16,18.338c-3.987-0.005-6.685-1.128-8.547-2.955c1.671,3.82,4.753,6.501,10.917,6.508
				c10.542,0.017,11.965-9.894,12.16-18.338C367.373,143.229,367.226,135.842,363.089,131.702z"/>
		</g>
		<g>
			<path fill-rule="evenodd" clip-rule="evenodd" fill="#FEDD61" d="M312.295,238.33c1.36-9.256,3.255-19.773,13.694-20.286
				c10.83-0.532,13.907,9.987,14.246,19.017c0.345,9.217-2.896,19.521-13.205,20.091C316.11,257.753,314.348,246.94,312.295,238.33z
				"/>
			<path fill-rule="evenodd" clip-rule="evenodd" fill="#C6A852" d="M336.285,221.048c1.82,4.144,1.879,9.567,1.766,14.501
				c-0.194,8.443-1.618,18.354-12.16,18.338c-3.988-0.004-6.686-1.127-8.548-2.955c1.671,3.821,4.754,6.501,10.917,6.508
				c10.542,0.017,11.965-9.895,12.16-18.338C340.569,232.576,340.421,225.188,336.285,221.048z"/>
		</g>
		<g>
			<path fill-rule="evenodd" clip-rule="evenodd" fill="#FEDD61" d="M401.642,299.755c1.359-9.256,3.255-19.773,13.694-20.286
				c10.83-0.532,13.907,9.987,14.245,19.017c0.345,9.217-2.896,19.521-13.204,20.09
				C405.456,319.179,403.693,308.366,401.642,299.755z"/>
			<path fill-rule="evenodd" clip-rule="evenodd" fill="#C6A852" d="M425.631,282.474c1.821,4.144,1.879,9.567,1.766,14.501
				c-0.194,8.444-1.617,18.354-12.159,18.338c-3.987-0.004-6.686-1.128-8.548-2.954c1.672,3.82,4.753,6.501,10.917,6.508
				c10.542,0.016,11.966-9.895,12.16-18.339C429.915,294.001,429.768,286.614,425.631,282.474z"/>
		</g>
		<g>
			<path fill-rule="evenodd" clip-rule="evenodd" fill="#FEDD61" d="M404.992,193.657c1.359-9.257,3.255-19.773,13.694-20.287
				c10.83-0.531,13.907,9.987,14.245,19.017c0.345,9.217-2.896,19.521-13.204,20.091
				C408.807,213.08,407.044,202.267,404.992,193.657z"/>
			<path fill-rule="evenodd" clip-rule="evenodd" fill="#C6A852" d="M428.981,176.375c1.82,4.144,1.879,9.567,1.766,14.501
				c-0.194,8.444-1.617,18.355-12.159,18.338c-3.988-0.005-6.686-1.128-8.548-2.955c1.672,3.82,4.753,6.501,10.917,6.508
				c10.542,0.017,11.966-9.894,12.16-18.338C433.266,187.902,433.119,180.515,428.981,176.375z"/>
		</g>
		<g>
			<path fill-rule="evenodd" clip-rule="evenodd" fill="#FEDD61" d="M474.235,238.33c1.359-9.256,3.255-19.773,13.694-20.286
				c10.829-0.532,13.909,9.987,14.247,19.017c0.345,9.217-2.897,19.521-13.206,20.091C478.05,257.753,476.288,246.94,474.235,238.33
				z"/>
			<path fill-rule="evenodd" clip-rule="evenodd" fill="#C6A852" d="M498.225,221.048c1.819,4.144,1.879,9.567,1.766,14.501
				c-0.194,8.443-1.617,18.354-12.159,18.338c-3.988-0.004-6.687-1.127-8.549-2.955c1.671,3.821,4.754,6.501,10.917,6.508
				c10.543,0.017,11.966-9.895,12.16-18.338C502.51,232.576,502.362,225.188,498.225,221.048z"/>
		</g>
		<g>
			<path fill-rule="evenodd" clip-rule="evenodd" fill="#FEDD61" d="M483.17,141.166c1.359-9.257,3.255-19.773,13.693-20.287
				c10.831-0.532,13.908,9.987,14.246,19.017c0.346,9.217-2.896,19.521-13.204,20.09
				C486.985,160.589,485.222,149.776,483.17,141.166z"/>
			<path fill-rule="evenodd" clip-rule="evenodd" fill="#C6A852" d="M507.16,123.884c1.82,4.144,1.88,9.567,1.766,14.501
				c-0.194,8.444-1.617,18.355-12.161,18.338c-3.987-0.004-6.685-1.128-8.548-2.954c1.672,3.82,4.754,6.501,10.918,6.508
				c10.542,0.016,11.965-9.895,12.16-18.338C511.443,135.411,511.297,128.024,507.16,123.884z"/>
		</g>
		<g>
			<path fill-rule="evenodd" clip-rule="evenodd" fill="#FEDD61" d="M546.83,299.755c1.359-9.256,3.255-19.773,13.693-20.286
				c10.83-0.532,13.908,9.987,14.247,19.017c0.344,9.217-2.897,19.521-13.206,20.09C550.645,319.179,548.882,308.366,546.83,299.755
				z"/>
			<path fill-rule="evenodd" clip-rule="evenodd" fill="#C6A852" d="M570.819,282.474c1.82,4.144,1.88,9.567,1.766,14.501
				c-0.193,8.444-1.617,18.354-12.16,18.338c-3.986-0.004-6.685-1.128-8.549-2.954c1.673,3.82,4.755,6.501,10.918,6.508
				c10.543,0.016,11.966-9.895,12.16-18.339C575.104,294.001,574.956,286.614,570.819,282.474z"/>
		</g>
		<g>
			<path fill-rule="evenodd" clip-rule="evenodd" fill="#FEDD61" d="M551.297,194.773c1.359-9.256,3.255-19.773,13.693-20.286
				c10.83-0.532,13.909,9.987,14.247,19.017c0.345,9.217-2.897,19.521-13.206,20.091
				C555.111,214.197,553.35,203.384,551.297,194.773z"/>
			<path fill-rule="evenodd" clip-rule="evenodd" fill="#C6A852" d="M575.286,177.492c1.82,4.144,1.88,9.567,1.767,14.501
				c-0.194,8.444-1.617,18.354-12.159,18.338c-3.988-0.004-6.687-1.127-8.549-2.955c1.671,3.821,4.754,6.501,10.917,6.508
				c10.542,0.017,11.965-9.895,12.159-18.338C579.571,189.019,579.423,181.632,575.286,177.492z"/>
		</g>
		<g>
			<path fill-rule="evenodd" clip-rule="evenodd" fill="#FEDD61" d="M620.54,148.983c1.359-9.256,3.256-19.773,13.694-20.286
				c10.831-0.532,13.908,9.987,14.246,19.017c0.345,9.217-2.897,19.521-13.206,20.091
				C624.355,168.407,622.593,157.594,620.54,148.983z"/>
			<path fill-rule="evenodd" clip-rule="evenodd" fill="#C6A852" d="M644.529,131.702c1.82,4.144,1.88,9.567,1.767,14.501
				c-0.194,8.444-1.617,18.355-12.159,18.338c-3.988-0.004-6.687-1.127-8.549-2.955c1.671,3.82,4.754,6.501,10.917,6.508
				c10.543,0.017,11.966-9.894,12.16-18.338C648.814,143.229,648.667,135.842,644.529,131.702z"/>
		</g>
		<g>
			<path fill-rule="evenodd" clip-rule="evenodd" fill="#FEDD61" d="M631.708,238.33c1.36-9.256,3.256-19.773,13.695-20.286
				c10.83-0.532,13.907,9.987,14.245,19.017c0.345,9.217-2.896,19.521-13.205,20.091C635.523,257.753,633.761,246.94,631.708,238.33
				z"/>
			<path fill-rule="evenodd" clip-rule="evenodd" fill="#C6A852" d="M655.698,221.048c1.821,4.144,1.879,9.567,1.766,14.501
				c-0.194,8.443-1.617,18.354-12.159,18.338c-3.987-0.004-6.687-1.127-8.549-2.955c1.673,3.821,4.754,6.501,10.917,6.508
				c10.543,0.017,11.967-9.895,12.161-18.338C659.982,232.576,659.836,225.188,655.698,221.048z"/>
		</g>
		<g>
			<path fill-rule="evenodd" clip-rule="evenodd" fill="#FEDD61" d="M714.354,194.773c1.36-9.256,3.256-19.773,13.694-20.286
				c10.83-0.532,13.908,9.987,14.246,19.017c0.345,9.217-2.896,19.521-13.206,20.091
				C718.169,214.197,716.406,203.384,714.354,194.773z"/>
			<path fill-rule="evenodd" clip-rule="evenodd" fill="#C6A852" d="M738.344,177.492c1.82,4.144,1.879,9.567,1.766,14.501
				c-0.193,8.444-1.617,18.354-12.159,18.338c-3.987-0.004-6.687-1.127-8.549-2.955c1.672,3.821,4.754,6.501,10.917,6.508
				c10.542,0.017,11.967-9.895,12.159-18.338C742.628,189.019,742.481,181.632,738.344,177.492z"/>
		</g>
		<g>
			<path fill-rule="evenodd" clip-rule="evenodd" fill="#FEDD61" d="M698.719,307.573c1.359-9.256,3.255-19.773,13.693-20.286
				c10.83-0.532,13.908,9.987,14.247,19.017c0.344,9.217-2.897,19.521-13.206,20.091
				C702.533,326.997,700.771,316.184,698.719,307.573z"/>
			<path fill-rule="evenodd" clip-rule="evenodd" fill="#C6A852" d="M722.708,290.292c1.82,4.144,1.88,9.567,1.766,14.501
				c-0.193,8.444-1.617,18.355-12.16,18.338c-3.986-0.004-6.685-1.128-8.548-2.955c1.672,3.82,4.755,6.501,10.918,6.508
				c10.542,0.017,11.965-9.894,12.159-18.338C726.992,301.819,726.845,294.432,722.708,290.292z"/>
		</g>
		<g>
			<path fill-rule="evenodd" clip-rule="evenodd" fill="#FEDD61" d="M779.13,239.447c1.36-9.256,3.256-19.773,13.694-20.286
				c10.831-0.532,13.908,9.987,14.246,19.016c0.345,9.217-2.897,19.522-13.206,20.091
				C782.944,258.87,781.183,248.057,779.13,239.447z"/>
			<path fill-rule="evenodd" clip-rule="evenodd" fill="#C6A852" d="M803.12,222.166c1.819,4.144,1.879,9.567,1.766,14.501
				c-0.194,8.444-1.617,18.354-12.159,18.338c-3.988-0.004-6.687-1.128-8.549-2.955c1.671,3.82,4.754,6.501,10.917,6.508
				c10.543,0.016,11.966-9.895,12.159-18.338C807.404,233.692,807.257,226.305,803.12,222.166z"/>
		</g>
		<g>
			<path fill-rule="evenodd" clip-rule="evenodd" fill="#FEDD61" d="M821.569,299.755c1.36-9.256,3.255-19.773,13.694-20.286
				c10.83-0.532,13.907,9.987,14.246,19.017c0.345,9.217-2.896,19.521-13.205,20.09
				C825.384,319.179,823.622,308.366,821.569,299.755z"/>
			<path fill-rule="evenodd" clip-rule="evenodd" fill="#C6A852" d="M845.56,282.474c1.82,4.144,1.879,9.567,1.766,14.501
				c-0.193,8.444-1.617,18.354-12.16,18.338c-3.986-0.004-6.686-1.128-8.548-2.954c1.672,3.82,4.755,6.501,10.917,6.508
				c10.542,0.016,11.966-9.895,12.16-18.339C849.844,294.001,849.696,286.614,845.56,282.474z"/>
		</g>
	</g>
</g>
</svg>
