<?xml version="1.0" encoding="utf-8"?>
<!-- Generator: Adobe Illustrator 16.0.0, SVG Export Plug-In . SVG Version: 6.00 Build 0)  -->
<!DOCTYPE svg PUBLIC "-//W3C//DTD SVG 1.1//EN" "http://www.w3.org/Graphics/SVG/1.1/DTD/svg11.dtd">
<svg version="1.1" xmlns="http://www.w3.org/2000/svg" xmlns:xlink="http://www.w3.org/1999/xlink" x="0px" y="0px" width="1000px"
	 height="1000px" viewBox="0 0 1000 1000" enable-background="new 0 0 1000 1000" xml:space="preserve">
<g id="Layer_1">
	<path opacity="0.3" fill="#010101" enable-background="new    " d="M506.923,887.086c178.551,0,323.328,22.359,323.328,49.955
		s-144.777,49.955-323.328,49.955c-178.55,0-323.31-22.359-323.31-49.955S328.373,887.086,506.923,887.086z"/>
	<g id="Layer_1_1_" display="none">
		<g display="inline">
			<g>
				<path opacity="0.2" fill="#010101" enable-background="new    " d="M883.458,650.888H122.486c0,0-103.073-15.01-108.374-120.368
					c0,0-36.849-156.295,149.288-184.388c0,0-73.77-219.514,166.818-309.066c0,0,201.926-59.704,300.292,151.029
					c0,0,87.796-64.99,187.869-1.749c0,0,87.813,59.68,59.729,173.843c0,0,112.384,15.799,115.896,151.029
					C994.02,511.201,1004.671,604.444,883.458,650.888z"/>
				<path fill="#FFFFFF" d="M878.026,634.626H117.071c0,0-103.09-15.025-108.35-120.368c0,0-36.864-156.289,149.264-184.371
					c0,0-73.746-219.506,166.819-309.075c0,0,201.942-59.695,300.291,151.029c0,0,87.78-64.973,187.901-1.748
					c0,0,87.765,59.696,59.697,173.86c0,0,112.383,15.806,115.895,151.004C988.588,494.924,999.239,588.199,878.026,634.626z"/>
				<path opacity="0.2" fill="#010101" enable-background="new    " d="M159.05,623.438h675.103c0,0,91.455-13.334,96.139-106.789
					c0,0,32.717-138.662-132.434-163.573c0,0,65.437-194.74-148.013-274.217c0,0-179.161-52.972-266.411,133.995
					c0,0-77.885-57.648-166.688-1.562c0,0-77.908,52.964-52.964,154.241c0,0-99.715,14.042-102.829,133.961
					C60.969,499.494,51.513,582.232,159.05,623.438z"/>
				<path fill="#FFFFFF" d="M163.88,609.047H839c0,0,91.421-13.058,96.104-104.479c0,0,32.701-135.636-132.434-160.012
					c0,0,65.436-190.495-147.995-268.226c0,0-179.145-51.809-266.412,131.06c0,0-77.917-56.396-166.721-1.512
					c0,0-77.893,51.809-52.98,150.882c0,0-99.715,13.708-102.813,131.061C65.783,487.801,56.31,568.751,163.88,609.047z"/>
				<path fill="#E4E6ED" d="M337.293,675.508c25,0,45.271,20.262,45.271,45.272c0,25.01-20.271,45.271-45.271,45.271
					c-25.002,0-45.281-20.261-45.281-45.271C292.012,695.77,312.291,675.508,337.293,675.508z"/>
				<path fill="#C2C4CE" d="M356.708,683.247c9.726,7.563,16.035,19.4,16.035,32.687c0,22.831-18.53,41.369-41.361,41.369
					c-7.408,0-14.351-1.951-20.384-5.382c6.992,5.431,15.773,8.666,25.328,8.666c22.847,0,41.345-18.521,41.345-41.337
					C377.686,703.818,369.246,690.338,356.708,683.247z"/>
				<path fill="#E4E6ED" d="M501.932,716.665c25.012,0,45.272,20.278,45.272,45.288c0,24.994-20.262,45.271-45.272,45.271
					c-25.01,0-45.279-20.276-45.279-45.271C456.651,736.943,476.921,716.665,501.932,716.665z"/>
				<path fill="#C2C4CE" d="M521.348,724.39c9.741,7.609,16.019,19.448,16.019,32.719c0,22.831-18.538,41.353-41.369,41.353
					c-7.407,0-14.334-1.936-20.359-5.35c6.992,5.415,15.767,8.65,25.32,8.65c22.863,0,41.351-18.538,41.351-41.337
					C542.308,744.943,533.854,731.48,521.348,724.39z"/>
				<path fill="#E4E6ED" d="M666.514,689.248c24.994,0,45.272,20.278,45.272,45.271c0,24.994-20.278,45.272-45.272,45.272
					c-24.992,0-45.288-20.278-45.288-45.272C621.226,709.526,641.521,689.248,666.514,689.248z"/>
				<path fill="#C2C4CE" d="M685.962,696.956c9.74,7.578,16.019,19.416,16.019,32.687c0,22.848-18.507,41.354-41.368,41.354
					c-7.399,0-14.344-1.936-20.359-5.334c6.976,5.398,15.789,8.651,25.303,8.651c22.896,0,41.386-18.508,41.386-41.337
					C706.924,717.527,698.469,704.046,685.962,696.956z"/>
			</g>
			<path opacity="0.3" fill="#010101" enable-background="new    " d="M506.923,887.086c178.551,0,323.328,22.359,323.328,49.955
				s-144.777,49.955-323.328,49.955c-178.55,0-323.31-22.359-323.31-49.955S328.373,887.086,506.923,887.086z"/>
		</g>
	</g>
</g>
<g id="Layer_4">
	<path fill-rule="evenodd" clip-rule="evenodd" fill="#F7DF5B" d="M898.903,236.817c-9.183-5.667-14.291-17.63-27.17-17.579
		c0.2-12.174,0.055-24.369,0.726-36.519c0.404-7.337-3.446-8.666-9.275-8.507c-0.786-1.09-1.592-1.121-2.42-0.051
		c-5.176,0.088-10.351,0.249-15.525,0.249c-227.813,0.014-455.627,0.01-683.441,0.023c-8.36,0.002-16.719,0.18-25.079,0.274
		c-1.807,0.333-2.155,1.204-0.973,2.639c-0.323,31.645-0.645,63.292-0.968,94.939c-14.006,0.267-23.243,9.903-33.697,17.15
		c-0.156-59.677-0.546-119.357-0.304-179.032c0.06-14.698,15.761-25.924,35.037-26.139c23.478-0.262,46.96-0.059,70.441-0.059
		c81.983,0.002,163.966,0.008,245.95-0.009c7.156-0.002,14.195,0.33,21.306,1.746c14.772,2.943,26.129,13.135,25.912,27.909
		c-0.187,12.617,5.118,13.646,15.514,13.616c105.462-0.316,210.928-0.161,316.392-0.138c10.347,0.002,20.693,0.054,31.041,0.007
		c22.995-0.101,37.266,12.259,37.118,37.883C899.347,189.087,899.103,212.951,898.903,236.817z"/>
	<path fill-rule="evenodd" clip-rule="evenodd" fill="#FEFEFD" d="M132.736,170.73c8.437-0.098,16.872-0.282,25.309-0.285
		c229.905-0.014,459.81-0.009,689.714-0.024c5.222,0,10.444-0.167,15.668-0.257c0.813,0.017,1.628,0.034,2.441,0.051
		c5.884-0.166,9.769,1.217,9.361,8.851c-0.678,12.642-0.53,25.33-0.732,37.997c-115.362,0.053-230.723,0.114-346.083,0.167
		c-29.068,0.012-36.656,5.631-45.909,34.038c-7.082,21.743-7.082,21.729-29.814,21.729c-102.096,0-204.194,0.021-306.29-0.015
		c-5.209-0.002-10.417-0.471-15.625-0.724c0.326-32.928,0.651-65.856,0.982-98.782C132.088,172.56,132.412,171.645,132.736,170.73z"
		/>
	<path fill-rule="evenodd" clip-rule="evenodd" fill="#FEE27E" d="M863.184,174.213c-0.807-0.017-1.614-0.033-2.42-0.049
		C861.592,173.092,862.397,173.123,863.184,174.213z"/>
	<path fill-rule="evenodd" clip-rule="evenodd" fill="#FDE9AF" d="M136.718,174.708c-0.321,0.879-0.642,1.759-0.968,2.639
		C134.563,175.912,134.911,175.041,136.718,174.708z"/>
	<g>
		<path d="M148.631,127.582c0,3.027-0.83,5.298-2.485,6.811c-1.655,1.515-4.031,2.271-7.131,2.271h-5.608v-4.061h6.143
			c1.317,0,2.385-0.391,3.204-1.174c0.819-0.783,1.229-1.727,1.229-2.832v-25.321h-8.601V99.27h13.249V127.582z"/>
		<path d="M179.933,128.117c0,2.991-0.739,5.164-2.216,6.517c-1.479,1.353-3.766,2.03-6.864,2.03h-1.763
			c-3.098,0-5.387-0.677-6.864-2.03c-1.477-1.353-2.217-3.526-2.217-6.517V118.5c0-2.991,0.74-5.163,2.217-6.517
			c1.477-1.354,3.766-2.031,6.864-2.031h1.763c3.098,0,5.385,0.677,6.864,2.031c1.477,1.354,2.216,3.525,2.216,6.517V128.117z
			 M175.394,129.184v-11.751c0-2.315-1.336-3.472-4.007-3.472h-2.831c-2.67,0-4.006,1.157-4.006,3.472v11.751
			c0,2.317,1.336,3.472,4.006,3.472h2.831C174.057,132.656,175.394,131.5,175.394,129.184z"/>
		<path d="M193.608,136.663h-4.541V99.27h4.541v11.752c1.07-0.713,2.405-1.069,4.007-1.069h2.457c2.885,0,5.029,0.677,6.437,2.031
			c1.406,1.354,2.109,3.525,2.109,6.517v18.163h-4.539v-19.231c0-1.068-0.314-1.914-0.936-2.537
			c-0.624-0.622-1.469-0.935-2.537-0.935h-3.526c-1.139,0-1.994,0.293-2.563,0.881c-0.571,0.587-0.872,1.219-0.909,1.896V136.663z"
			/>
		<path d="M222.456,136.663h-4.542v-26.71h4.273v1.283c1.105-0.854,2.529-1.283,4.275-1.283h2.456c2.885,0,5.03,0.677,6.438,2.031
			c1.405,1.354,2.109,3.525,2.109,6.517v18.163h-4.54v-19.231c0-1.068-0.313-1.914-0.936-2.537
			c-0.624-0.622-1.469-0.935-2.537-0.935h-3.526c-1.175,0-2.047,0.313-2.618,0.935c-0.568,0.624-0.853,1.291-0.853,2.002V136.663z"
			/>
		<path d="M295.423,128.223c0,3.062-0.703,5.235-2.11,6.517c-1.407,1.281-3.731,1.923-6.971,1.923h-11.005V99.27h10.364
			c3.206,0,5.626,0.65,7.266,1.95c1.637,1.301,2.457,3.43,2.457,6.383V128.223z M290.776,128.757v-21.634
			c0-1.175-0.356-2.111-1.069-2.805c-0.712-0.695-1.656-1.042-2.831-1.042h-6.892v29.38h6.838c1.353,0,2.352-0.311,2.991-0.933
			C290.455,131.099,290.776,130.11,290.776,128.757z"/>
		<path d="M324.162,128.117c0,2.991-0.74,5.164-2.219,6.517c-1.477,1.353-3.764,2.03-6.863,2.03h-1.762
			c-3.099,0-5.388-0.677-6.866-2.03c-1.478-1.353-2.216-3.526-2.216-6.517V118.5c0-2.991,0.738-5.163,2.216-6.517
			c1.479-1.354,3.768-2.031,6.866-2.031h1.762c3.099,0,5.386,0.677,6.863,2.031c1.479,1.354,2.219,3.525,2.219,6.517V128.117z
			 M319.622,129.184v-11.751c0-2.315-1.335-3.472-4.007-3.472h-2.832c-2.67,0-4.006,1.157-4.006,3.472v11.751
			c0,2.317,1.335,3.472,4.006,3.472h2.832C318.287,132.656,319.622,131.5,319.622,129.184z"/>
		<path d="M350.71,136.663h-7.958c-3.135,0-5.431-0.669-6.892-2.003c-1.46-1.335-2.189-3.516-2.189-6.543V118.5
			c0-3.063,0.658-5.252,1.977-6.57c1.315-1.316,3.505-1.977,6.57-1.977h2.511c5.126,0,7.691,2.761,7.691,8.281v6.944h-14.21v4.006
			c0,2.317,1.336,3.472,4.008,3.472h8.493V136.663z M338.209,117.432v3.74h9.777v-4.008c0-0.925-0.303-1.691-0.909-2.297
			c-0.604-0.605-1.37-0.908-2.297-0.908h-3.098c-1.281,0-2.181,0.293-2.696,0.881C338.468,115.428,338.209,116.293,338.209,117.432z
			"/>
	</g>
	<path fill-rule="evenodd" clip-rule="evenodd" fill="#F2F2F2" d="M153.459,198.625c8.36-0.093,16.718-0.271,25.078-0.273
		c227.814-0.014,455.63-0.009,683.442-0.023c5.176,0,10.349-0.161,15.525-0.248c0.805,0.017,1.612,0.033,2.42,0.049
		c5.827-0.159,9.68,1.169,9.274,8.507c-0.67,12.15-0.524,24.345-0.726,36.518c-114.313,0.052-228.623,0.11-342.935,0.161
		c-28.805,0.012-36.323,5.413-45.491,32.714c-7.018,20.897-7.018,20.883-29.544,20.883c-101.168,0-202.336,0.021-303.504-0.013
		c-5.162-0.003-10.323-0.453-15.483-0.696c0.323-31.647,0.646-63.294,0.973-94.939C152.817,200.385,153.138,199.505,153.459,198.625
		z"/>
	<path fill-rule="evenodd" clip-rule="evenodd" fill="#F3CC30" d="M112.572,741.506c-8.194-6.746-12.293-15.465-12.292-26.187
		c0.03-141.048,0.049-282.097,0.109-423.145c0.001-3.223,0.451-6.443,0.69-9.663c10.454-7.358,19.691-17.142,33.697-17.413
		c5.16,0.247,10.321,0.705,15.483,0.707c101.167,0.035,202.336,0.015,303.504,0.015c22.525,0,22.525,0.014,29.542-21.204
		c9.169-27.719,16.688-33.203,45.492-33.214c114.312-0.052,228.623-0.112,342.933-0.167c12.882-0.05,17.99,12.097,27.173,17.851
		c0.235,53.773,0.524,107.547,0.675,161.323c0.054,18.998-0.236,218.136-0.367,237.133
		c-5.091-0.069-748.232,105.459-780.086,108.588C115.445,736.494,113.008,737.504,112.572,741.506z M388.441,293.314
		c-1.398-0.379-2.794-1.09-4.192-1.09c-77.159-0.063-154.321-0.217-231.48,0.057c-13.994,0.049-25.202,12.158-25.583,26.575
		c-0.416,15.737-0.066,31.494-0.111,47.245c-0.016,5.867-0.115,9.207,7.756,5.164c19.012-9.763,37.631-20.466,57.71-27.993
		c29.655-11.119,59.659-21.199,90.521-28.192c18.06-4.089,36.23-7.793,54.444-11.257
		C354.456,300.599,371.906,300.486,388.441,293.314z"/>
	<path fill-rule="evenodd" clip-rule="evenodd" fill="#F8D73A" d="M405.168,291.234c-17.744,10.414-36.472,10.579-54.659,15.264
		c-19.545,5.031-39.045,10.412-58.424,16.351c-33.12,10.157-65.317,24.798-97.142,40.945c-21.548,10.93-41.527,26.476-61.929,40.655
		c-8.447,5.873-8.341,1.023-8.324-7.499c0.048-22.875-0.327-45.764,0.119-68.619c0.408-20.938,12.436-38.525,27.453-38.597
		c82.802-0.399,165.605-0.177,248.406-0.083C402.169,289.651,403.667,290.682,405.168,291.234z"/>
	<path fill-rule="evenodd" clip-rule="evenodd" fill="#EDBC30" d="M110.57,735.249c0.436-4.102,4.875-5.137,8.555-5.509
		c31.854-3.207,63.793-5.802,95.501-10.189c30.506-4.221,60.652-11.274,91.172-15.357c24.391-3.262,48.376-9.045,71.96-15.071
		c31.764-8.113,63.982-14.568,95.272-25.366c31.504-10.869,63.856-19.294,95.065-31.25c24.796-9.495,49.568-19.238,73.692-30.406
		c28.872-13.367,57.699-26.864,85.539-42.643c47.293-26.805,91.678-58.001,133.801-92.761c9.613-7.933,18.296-17.087,27.422-25.661
		c3.181-2.99,5.57-7.267,10.661-7.196c0.163,30.23,0.435,60.463,0.467,90.693c0.062,60.072,0.067,120.146-0.066,180.218
		c-0.051,22.937-13.389,36.958-35.307,36.962c-244.067,0.065-503.149,0.017-747.217,0.14
		C109.66,741.854,116.284,740.006,110.57,735.249z"/>
</g>
</svg>
