<?xml version="1.0" encoding="utf-8"?>
<!-- Generator: Adobe Illustrator 16.0.0, SVG Export Plug-In . SVG Version: 6.00 Build 0)  -->
<!DOCTYPE svg PUBLIC "-//W3C//DTD SVG 1.1//EN" "http://www.w3.org/Graphics/SVG/1.1/DTD/svg11.dtd">
<svg version="1.1" xmlns="http://www.w3.org/2000/svg" xmlns:xlink="http://www.w3.org/1999/xlink" x="0px" y="0px" width="1000px"
	 height="1000px" viewBox="0 0 1000 1000" enable-background="new 0 0 1000 1000" xml:space="preserve">
<g id="Layer_1">
	<path opacity="0.3" fill="#010101" enable-background="new    " d="M506.923,887.086c178.551,0,323.328,22.359,323.328,49.955
		s-144.777,49.955-323.328,49.955c-178.55,0-323.31-22.359-323.31-49.955S328.373,887.086,506.923,887.086z"/>
	<g id="Layer_1_1_" display="none">
		<g display="inline">
			<g>
				<path opacity="0.2" fill="#010101" enable-background="new    " d="M883.458,650.888H122.486c0,0-103.073-15.01-108.374-120.368
					c0,0-36.849-156.295,149.288-184.388c0,0-73.77-219.514,166.818-309.066c0,0,201.926-59.704,300.292,151.029
					c0,0,87.796-64.99,187.869-1.749c0,0,87.813,59.68,59.729,173.843c0,0,112.384,15.799,115.896,151.029
					C994.02,511.201,1004.671,604.444,883.458,650.888z"/>
				<path fill="#FFFFFF" d="M878.026,634.626H117.071c0,0-103.09-15.025-108.35-120.368c0,0-36.864-156.289,149.264-184.371
					c0,0-73.746-219.506,166.819-309.075c0,0,201.942-59.695,300.291,151.029c0,0,87.78-64.973,187.901-1.748
					c0,0,87.765,59.696,59.697,173.86c0,0,112.383,15.806,115.895,151.004C988.588,494.924,999.239,588.199,878.026,634.626z"/>
				<path opacity="0.2" fill="#010101" enable-background="new    " d="M159.05,623.438h675.103c0,0,91.455-13.334,96.139-106.789
					c0,0,32.717-138.662-132.434-163.573c0,0,65.437-194.74-148.013-274.217c0,0-179.161-52.972-266.411,133.995
					c0,0-77.885-57.648-166.688-1.562c0,0-77.908,52.964-52.964,154.241c0,0-99.715,14.042-102.829,133.961
					C60.969,499.494,51.513,582.232,159.05,623.438z"/>
				<path fill="#FFFFFF" d="M163.88,609.047H839c0,0,91.421-13.058,96.104-104.479c0,0,32.701-135.636-132.434-160.012
					c0,0,65.436-190.495-147.995-268.226c0,0-179.145-51.809-266.412,131.06c0,0-77.917-56.396-166.721-1.512
					c0,0-77.893,51.809-52.98,150.882c0,0-99.715,13.708-102.813,131.061C65.783,487.801,56.31,568.751,163.88,609.047z"/>
				<path fill="#E4E6ED" d="M337.293,675.508c25,0,45.271,20.262,45.271,45.272c0,25.01-20.271,45.271-45.271,45.271
					c-25.002,0-45.281-20.261-45.281-45.271C292.012,695.77,312.291,675.508,337.293,675.508z"/>
				<path fill="#C2C4CE" d="M356.708,683.247c9.726,7.563,16.035,19.4,16.035,32.687c0,22.831-18.53,41.369-41.361,41.369
					c-7.408,0-14.351-1.951-20.384-5.382c6.992,5.431,15.773,8.666,25.328,8.666c22.847,0,41.345-18.521,41.345-41.337
					C377.686,703.818,369.246,690.338,356.708,683.247z"/>
				<path fill="#E4E6ED" d="M501.932,716.665c25.012,0,45.272,20.278,45.272,45.288c0,24.994-20.262,45.271-45.272,45.271
					c-25.01,0-45.279-20.276-45.279-45.271C456.651,736.943,476.921,716.665,501.932,716.665z"/>
				<path fill="#C2C4CE" d="M521.348,724.39c9.741,7.609,16.019,19.448,16.019,32.719c0,22.831-18.538,41.353-41.369,41.353
					c-7.407,0-14.334-1.936-20.359-5.35c6.992,5.415,15.767,8.65,25.32,8.65c22.863,0,41.351-18.538,41.351-41.337
					C542.308,744.943,533.854,731.48,521.348,724.39z"/>
				<path fill="#E4E6ED" d="M666.514,689.248c24.994,0,45.272,20.278,45.272,45.271c0,24.994-20.278,45.272-45.272,45.272
					c-24.992,0-45.288-20.278-45.288-45.272C621.226,709.526,641.521,689.248,666.514,689.248z"/>
				<path fill="#C2C4CE" d="M685.962,696.956c9.74,7.578,16.019,19.416,16.019,32.687c0,22.848-18.507,41.354-41.368,41.354
					c-7.399,0-14.344-1.936-20.359-5.334c6.976,5.398,15.789,8.651,25.303,8.651c22.896,0,41.386-18.508,41.386-41.337
					C706.924,717.527,698.469,704.046,685.962,696.956z"/>
			</g>
			<path opacity="0.3" fill="#010101" enable-background="new    " d="M506.923,887.086c178.551,0,323.328,22.359,323.328,49.955
				s-144.777,49.955-323.328,49.955c-178.55,0-323.31-22.359-323.31-49.955S328.373,887.086,506.923,887.086z"/>
		</g>
	</g>
</g>
<g id="Layer_5">
	<path fill-rule="evenodd" clip-rule="evenodd" fill="#302829" d="M677.626,324.673C492.01,78.539,451.999,0.833,235.06,123.759
		c-115.99,65.725-85.286,294.397,51.013,483.352c136.299,188.957,316.256,246.063,434.87,185.205
		C923.177,688.559,850.34,553.702,677.626,324.673z M650.893,705.554c-37.232,26.103-187.983-42.977-285.33-181.857
		c-97.349-138.881-102.894-291.833-65.661-317.932c37.236-26.1,146.337,65.329,243.687,204.209
		C640.938,548.852,688.131,679.458,650.893,705.554z"/>
</g>
<g id="Layer_6">
	<path fill-rule="evenodd" clip-rule="evenodd" fill="#262021" d="M648.713,704.316c0,0,76.305,131.932-195.898,60.934
		c0,0,163.299,102.939,282.801,17.153c0,0,145.002-49.626,96.241-204.78L648.713,704.316z"/>
	<path fill-rule="evenodd" clip-rule="evenodd" fill="#262021" d="M501.108,113.002c0,0-75.727-106.917-239.111-7.418
		c0,0-93.368,43.793-94.867,132.103c0,0-10.982,100.738,22.721,185.426c0,0-6.683-331.456,107.258-214.069
		C297.11,209.044,356.203,150.904,501.108,113.002z"/>
</g>
<g id="Layer_7">
	<path fill-rule="evenodd" clip-rule="evenodd" fill="#262021" d="M189.593,390.805c0,0,59.528,240.698,292.082,381.716
		l-0.842,7.551c0,0-225.949-120.254-298.851-382.294L189.593,390.805z"/>
</g>
<g id="Layer_3">
	<path fill-rule="evenodd" clip-rule="evenodd" fill="#2D2D2D" d="M777.631,624.451c1.248,2.012,0.737,3.42-1.474,4.244
		C776.646,627.283,777.138,625.865,777.631,624.451z"/>
	<path fill-rule="evenodd" clip-rule="evenodd" fill="#191A1B" d="M738.05,779.771c0.409-0.016,0.963-0.196,1.18,0
		c0.209,0.189,0.075,0.761,0.093,1.167c-0.404,0.018-0.962,0.199-1.177,0.003C737.935,780.749,738.067,780.177,738.05,779.771z"/>
	<path fill-rule="evenodd" clip-rule="evenodd" fill="#191A1B" d="M651.014,809.857c0.092,0.482-0.084,0.796-0.528,0.928
		C650.604,810.438,650.78,810.13,651.014,809.857z"/>
	<path fill-rule="evenodd" clip-rule="evenodd" fill="#EAF0F3" d="M727.654,859.596c-0.281-0.068-0.563-0.139-0.848-0.21
		c0.169-0.646,0.491-0.879,1.083-0.408C727.806,859.177,727.728,859.385,727.654,859.596z"/>
</g>
<g id="Layer_4">
	<path fill-rule="evenodd" clip-rule="evenodd" fill="#EAF0F3" d="M628.383,350.815c0.572,0.16,1.142,0.32,1.715,0.481
		c3.412,4.936,6.704,9.963,10.275,14.78c2.545,3.431,4.711,6.665,2.506,11.174c-1.324,2.707,0.15,4.577,2.85,4.643
		c6.831,0.167,9.784,5.058,13.03,9.843c3.103,4.565,6.285,9.092,9.683,13.437c2.708,3.467,2.55,5.474-1.729,7.595
		c-9.826,4.874-19.488,10.098-29.043,15.486c-3.258,1.837-5.023,1.491-7.069-1.638c-4.039-6.172-8.382-12.15-12.761-18.093
		c-2.224-3.015-3.751-5.961-1.897-9.706c1.157-2.333,1.037-5.178-1.743-5.292c-9.051-0.375-11.704-7.844-15.914-13.514
		c-7.104-9.558-6.963-9.579,3.418-14.983C610.64,360.373,619.493,355.558,628.383,350.815z M647.588,414.965
		c2.287-1.121,4.045-2.104,5.899-2.861c2.606-1.064,2.64-2.559,1.146-4.625c-4.576-6.31-9.116-12.646-13.629-19.002
		c-1.026-1.443-2.289-2.333-3.934-1.401c-4.22,2.392-9.531,4.114-12.09,7.74c-1.62,2.3,3.345,6.031,5.381,9.1
		c1.726,2.598,3.781,5.004,5.265,7.724C638.726,417.321,642.058,421.173,647.588,414.965z M626.672,385.474
		c8.844-4.736,8.847-4.737,3.666-12.185c-1.651-2.378-3.536-4.625-4.943-7.139c-2.177-3.884-4.736-4.921-8.514-2.112
		c-1.416,1.056-2.99,2.04-4.647,2.608c-5.65,1.936-5.896,4.705-1.898,8.795c1.844,1.887,3.475,4.163,4.586,6.549
		C617.944,388.472,621.771,390.461,626.672,385.474z"/>
	<path fill-rule="evenodd" clip-rule="evenodd" fill="#EAF0F3" d="M532.534,305.021c0.34,0.328,0.68,0.656,1.024,0.983
		c11.113,16.207,22.169,32.451,33.362,48.601c4.93,7.108,5.041,6.994-2.409,10.829c-8.741,4.501-17.631,8.756-26.108,13.713
		c-4.119,2.41-5.841,1.057-8.018-2.249c-10.81-16.403-21.683-32.765-32.738-49.004c-2.026-2.983-1.893-4.717,1.269-6.275
		C510.126,316.094,521.328,310.556,532.534,305.021z M547.51,367.248c9.477-5.068,9.436-5.04,3.908-13.017
		c-6.752-9.738-13.448-19.516-20.123-29.306c-6.534-9.591-6.404-9.397-17.116-4.077c-3.898,1.937-4.212,3.375-1.801,6.833
		c8.304,11.908,16.554,23.867,24.347,36.112C540.074,369.054,543.13,371.608,547.51,367.248z"/>
	<path fill-rule="evenodd" clip-rule="evenodd" fill="#EAF0F3" d="M563.076,384.826c4.417-2.164,8.814-4.366,13.259-6.472
		c1.791-0.848,3.917-4.128,5.479-1.218c1.172,2.188,0.166,5.565-2.955,7.167c-5.769,2.962-11.434,6.127-17.235,9.024
		c-2.798,1.397-3.732,2.558-1.301,5.382c4.075,4.726,5.729,13.148,11.043,14.572c5.32,1.427,11.064-4.68,16.593-7.522
		c10.391-5.344,10.327-5.455,16.771,3.887c5.081,7.365,10.053,14.811,15.321,22.039c2.313,3.179,1.885,4.767-1.614,6.553
		c-10.161,5.184-20.186,10.633-30.202,16.093c-2.655,1.448-5.134,2.31-6.728-1.005c-1.697-3.524,1.65-3.989,3.646-5.06
		c6.114-3.281,12.188-6.648,18.448-9.631c3.344-1.592,3.741-2.975,1.48-5.971c-4.306-5.708-8.388-11.603-12.243-17.625
		c-1.747-2.732-3.113-2.958-5.881-1.363c-6.201,3.573-12.756,6.526-18.943,10.116c-3.561,2.064-5.477,1.32-7.565-2.02
		c-4.74-7.581-9.63-15.086-14.853-22.34c-2.262-3.145-1.714-4.526,1.508-6.007c5.488-2.525,10.869-5.28,16.296-7.938
		C563.291,385.266,563.184,385.047,563.076,384.826z"/>
	<path fill-rule="evenodd" clip-rule="evenodd" fill="#EAF0F3" d="M566.602,328.572c-3.947-3.082-3.957-5.292,1.042-7.431
		c5.116-2.184,9.889-5.148,14.892-7.609c2.793-1.375,4.72-2.407,1.562-5.627c-4.855-4.953-6.639-14.971-13.198-15.341
		c-6.175-0.346-12.709,5.653-19.082,8.867c-3.562,1.797-7.466,4.946-8.662-2.268c5.521-3.043,11.047-6.087,16.569-9.131
		c6.3-3.154,12.603-6.308,18.903-9.46l0.4-0.103c0.484,0.247,0.968,0.495,1.449,0.742c2.958,5.687,6.653,10.855,10.718,15.807
		c2.572,3.137,4.677,6.479,2.6,10.964c-1.151,2.487-0.023,4.548,2.891,4.604c5.964,0.115,8.989,3.918,11.702,8.483
		c3.279,5.512,8.254,9.943,10.392,16.197c-10.921,5.648-21.901,11.188-32.72,17.027c-2.546,1.374-4.56,2.103-6.253-0.611
		c-2.212-3.545,1.129-4,3.146-5.062c5.732-3.024,11.365-6.277,17.272-8.913c4.237-1.891,3.899-3.797,1.436-6.904
		c-3.997-5.041-6.87-13.107-11.828-14.614c-4.399-1.34-10.987,4.49-16.604,7.167C571.009,326.412,568.811,327.499,566.602,328.572z"
		/>
	<path fill-rule="evenodd" clip-rule="evenodd" fill="#EAF0F3" d="M655.197,541.177c-8.196,4.464-8.196,4.464-13.184-3.303
		c-0.36-0.564-0.703-1.138-1.07-1.696c-7.075-10.813-6.938-10.569,4.653-17.04c4.379-2.444,6.835-1.809,9.078,2.275
		c1.068,1.946,2.249,3.851,3.541,5.661C665.675,537.542,664.945,535.393,655.197,541.177z M654.044,532.565
		c-3.761-1.39-2.123-10.077-9.423-8.201c-2.178,0.56-2.471,3.167-0.662,4.211c3.952,2.279,2.358,10.707,9.693,8.779
		C655.799,536.789,656,534.876,654.044,532.565z"/>
	<path fill-rule="evenodd" clip-rule="evenodd" fill="#EAF0F3" d="M674.268,530.254c-5.768,5.96-8.861,2.442-12.665-3.445
		c-7.888-12.213-8.263-12.02,4.882-18.482c1.723-0.848,4.065-3.683,5.54-0.43c1.041,2.306-1.993,2.924-3.683,3.828
		c-1.18,0.633-2.322,1.344-3.527,1.917c-1.583,0.748-2.747,1.623-1.545,3.53c0.876,1.388,1.898,2.597,3.788,1.689
		c1.007-0.481,1.946-1.1,2.944-1.598c6.041-3.026,11.56-0.301,12.993,6.355c0.344,1.606-0.359,2.533-1.686,3.187
		C679.102,527.89,676.893,528.968,674.268,530.254z M674.55,523.068c-1.116-1.404-2.21-2.761-4.294-1.498
		c-1.368,0.827-2.766,1.651-1.75,3.503c1.028,1.873,2.519,3.09,4.743,1.686C674.59,525.913,675.65,524.833,674.55,523.068z"/>
	<path fill-rule="evenodd" clip-rule="evenodd" fill="#EAF0F3" d="M680.826,486.864c-4.319,4.214-8.088,2.272-11.226-3.701
		c-1.648-3.137-3.985-5.916-6.032-8.844c-1.327-1.896-1.757-3.603,0.695-5c2.134-1.213,3.696-0.872,5.063,1.262
		c2.168,3.381,4.514,6.65,6.777,9.972c1.233,1.816,2.555,3.045,4.942,1.614c2.876-1.727,1.125-3.233-0.052-4.829
		c-2.247-3.051-4.462-6.127-6.738-9.153c-1.303-1.728-1.484-3.204,0.643-4.389c1.601-0.896,3.191-1.859,4.658,0.221
		c3.343,4.744,6.675,9.496,10.058,14.209c1.389,1.933,0.826,3.306-1.058,4.37C686.414,483.807,684.251,484.975,680.826,486.864z"/>
	<path fill-rule="evenodd" clip-rule="evenodd" fill="#EAF0F3" d="M702.069,475.002c-6.145,5.541-9.509,3.139-13.482-2.992
		c-8.051-12.429-8.47-12.172,4.9-18.48c1.682-0.792,3.798-2.764,5.071,0.039c1.081,2.375-1.672,2.631-3.037,3.525
		c-0.746,0.488-1.66,0.734-2.353,1.276c-1.501,1.18-5.091,1.215-3.108,4.512c1.586,2.635,3.605,1.085,5.764,0.259
		c2.626-1.003,6.063-5.435,7.894-1.894c1.785,3.458-3.906,3.606-6.13,5.384c-1.378,1.101-3.507,1.557-2.062,3.862
		c1.005,1.601,2.47,2.658,4.477,1.281c0.184-0.125,0.367-0.286,0.574-0.34c3.09-0.8,6.708-6.302,8.795-2.119
		C711.062,472.705,704.326,472.845,702.069,475.002z"/>
	<path fill-rule="evenodd" clip-rule="evenodd" fill="#EAF0F3" d="M690.692,495.059c3.691-1.385,7.018-6.203,11.095,0.178
		c4.328,6.769,4.742,6.476-2.313,10.701c-1.551,0.93-4.418,1.29-2.973,4.104c1.323,2.576,3.318,1.794,5.663,0.826
		c2.792-1.152,6.501-5.908,8.439-2.222c1.972,3.758-4.343,3.544-6.536,5.66c-0.777,0.75-1.898,1.15-2.879,1.679
		c-5.224,2.805-11.999-0.462-12.953-6.395c-0.624-3.867,3.403-3.417,5.177-5.076c1.414-1.324,5.054-1.074,3.552-4.415
		c-1.552-3.463-3.788-1.325-6.096-0.548c-2.629,0.889-5.846,5.536-7.792,1.896c-1.873-3.509,3.827-3.505,5.87-5.411
		C689.421,495.598,690.103,495.379,690.692,495.059z"/>
	<path fill-rule="evenodd" clip-rule="evenodd" fill="#EAF0F3" d="M715.772,497c0.409-4.234-2.509-5.826-3.843-8.162
		c-0.986-1.727-3.066-3.1-0.652-4.996c1.941-1.526,3.815-1.743,5.79,0.526c2.577,2.96,3.287,8.232,8.904,7.703
		c-0.668,3.325,2.495,6.77,0.643,9.627c-1.841,2.846-4.567,1.909-6.429-0.914c-1.166-1.769-2.85-1.308-4.071-0.268
		c-4.541,3.866-7.042,1.232-9.352-2.644c-1.024-1.717-2.119-3.449-3.477-4.893c-1.744-1.851-2.051-3.475,0.153-4.968
		c1.95-1.321,3.6-0.959,5.182,1.003C710.698,491.588,711.859,495.15,715.772,497z"/>
	<path fill-rule="evenodd" clip-rule="evenodd" fill="#EAF0F3" d="M650.92,476.792c0.942-0.606,1.825-1.332,2.829-1.786
		c1.89-0.854,3.843-3.656,5.864-1.43c2.371,2.606-1.333,2.785-2.381,4.05c-1.301,1.57-0.313,2.74,0.689,4.067
		c2.285,3.025,4.294,6.265,6.609,9.262c1.573,2.029,1.515,3.598-0.594,5.037c-2.052,1.401-3.828,0.926-5.175-1.025
		c-2.154-3.116-4.333-6.224-6.267-9.477c-1.409-2.374-2.655-4.17-5.668-2.068c-1.359,0.947-3.183,1.262-3.873-0.72
		c-0.678-1.943,1.164-2.577,2.557-3.26C647.316,478.562,649.121,477.678,650.92,476.792z"/>
	<path fill-rule="evenodd" clip-rule="evenodd" fill="#020202" d="M654.044,532.565c1.956,2.311,1.755,4.224-0.392,4.789
		c-7.335,1.928-5.741-6.5-9.693-8.779c-1.809-1.044-1.516-3.651,0.662-4.211C651.921,522.488,650.283,531.176,654.044,532.565z"/>
	<path fill-rule="evenodd" clip-rule="evenodd" fill="#131313" d="M674.557,523.068c1.094,1.765,0.033,2.845-1.308,3.69
		c-2.225,1.404-3.715,0.188-4.743-1.686c-1.016-1.852,0.382-2.676,1.75-3.503C672.34,520.308,673.434,521.664,674.557,523.068z"/>
	<g>
		<path fill-rule="evenodd" clip-rule="evenodd" fill="#020202" d="M641.004,388.476c-1.026-1.443-2.289-2.333-3.934-1.401
			c-4.22,2.392-9.531,4.114-12.09,7.74c-1.62,2.3,3.345,6.031,5.381,9.1c1.726,2.598,3.781,5.004,5.265,7.724
			c3.1,5.683,6.432,9.536,11.962,3.327c2.287-1.121,4.045-2.104,5.899-2.861c2.606-1.064,2.64-2.559,1.146-4.625
			C650.057,401.169,645.517,394.832,641.004,388.476z"/>
		<path fill-rule="evenodd" clip-rule="evenodd" fill="#020202" d="M626.672,385.474c8.844-4.736,8.847-4.737,3.666-12.185
			c-1.651-2.378-3.536-4.625-4.943-7.139c-2.177-3.884-4.736-4.921-8.514-2.112c-1.416,1.056-2.99,2.04-4.647,2.608
			c-5.65,1.936-5.896,4.705-1.898,8.795c1.844,1.887,3.475,4.163,4.586,6.549C617.944,388.472,621.771,390.461,626.672,385.474z"/>
		<path fill-rule="evenodd" clip-rule="evenodd" fill="#020202" d="M823.059,552.359c-14.184-27.388-28.423-54.333-44.336-80.538
			c-11.778-19.402-23.669-38.785-36.601-57.416c-7.746-11.16-186.077-249.975-204.833-270.721
			c-12.295-12.96-24.035-26.654-42.226-31.775c-9.531-0.964-18.503,0.659-27.66,3.795c-21.481,7.355-42.625,15.486-63.497,24.376
			c-0.212,1.644-1.03,2.019-2.431,1.151c-9.772,3.361-19.058,7.808-28.238,12.505c-22.757,10.233-44.478,22.42-65.852,35.234
			c-2.8,1.679-12.441,13.199-8.285,17.752c155.128,169.922,341.411,489.173,346.587,497.035c6.802,0.577,13.736,2.765,20.138-1.626
			c4.155-1.839,158.143-111.92,159.751-112.717C826.067,588.002,838.967,583.068,823.059,552.359z M698.559,453.568
			c1.081,2.375-1.672,2.631-3.037,3.525c-0.746,0.488-1.66,0.734-2.353,1.276c-1.501,1.18-5.091,1.215-3.108,4.512
			c1.586,2.635,3.605,1.085,5.764,0.259c2.626-1.003,6.063-5.435,7.894-1.894c1.785,3.458-3.906,3.606-6.13,5.384
			c-1.378,1.101-3.507,1.557-2.062,3.862c1.005,1.601,2.47,2.658,4.477,1.281c0.184-0.125,0.367-0.286,0.574-0.34
			c3.09-0.8,6.708-6.302,8.795-2.119c1.689,3.389-5.046,3.53-7.303,5.687c-6.145,5.541-9.509,3.139-13.482-2.992
			c-8.051-12.429-8.47-12.172,4.9-18.48C695.169,452.737,697.285,450.766,698.559,453.568z M543.154,299.163
			c5.521-3.043,11.047-6.087,16.569-9.131c-0.608-1.24,19.304-9.563,19.304-9.563c1.079-2.479,2.477-2.653,4.188-0.583
			c-0.911,0.442,3.915,12.18,7.979,17.132c2.572,3.137,4.677,6.479,2.6,10.964c-1.151,2.487-0.023,4.548,2.891,4.604
			c5.964,0.115,8.989,3.918,11.702,8.483c3.279,5.512,8.254,9.943,10.392,16.197c-10.921,5.648-21.901,11.188-32.72,17.027
			c-2.546,1.374-4.56,2.103-6.253-0.611c-2.212-3.545,1.129-4,3.146-5.062c5.732-3.024,11.365-6.277,17.272-8.913
			c4.237-1.891,3.899-3.797,1.436-6.904c-3.997-5.041-6.87-13.107-11.828-14.614c-4.399-1.34-10.987,4.49-16.604,7.167
			c-2.219,1.057-4.417,2.144-6.626,3.217c-3.947-3.082-3.957-5.292,1.042-7.431c5.116-2.184,9.889-5.148,14.892-7.609
			c2.793-1.375,4.72-2.407,1.562-5.627c-4.855-4.953-6.639-14.971-13.198-15.341c-6.175-0.346-12.709,5.653-19.082,8.867
			C548.255,303.228,544.351,306.377,543.154,299.163z M530.386,376.899c-10.81-16.403-21.683-32.765-32.738-49.004
			c-2.026-2.983-1.893-4.717,1.269-6.275c11.209-5.526,22.412-11.064,33.618-16.599c0.34,0.328,0.68,0.656,1.024,0.983
			c11.113,16.207,22.169,32.451,33.362,48.601c4.93,7.108,5.041,6.994-2.409,10.829c-8.741,4.501-17.631,8.756-26.108,13.713
			C534.284,381.557,532.563,380.205,530.386,376.899z M581.506,453.326c-1.697-3.524,1.65-3.989,3.646-5.06
			c6.114-3.281,12.188-6.648,18.448-9.631c3.344-1.592,3.741-2.975,1.48-5.971c-4.306-5.708-8.388-11.603-12.243-17.625
			c-1.747-2.732-3.113-2.958-5.881-1.363c-6.201,3.573-12.756,6.526-18.943,10.116c-3.561,2.064-5.477,1.32-7.565-2.02
			c-4.74-7.581-9.63-15.086-14.853-22.34c-2.262-3.145-1.714-4.526,1.508-6.007c5.488-2.525,10.869-5.28,16.296-7.938
			c-0.108-0.222-0.216-0.44-0.323-0.661c4.417-2.164,8.814-4.366,13.259-6.472c1.791-0.848,3.917-4.128,5.479-1.218
			c1.172,2.188,0.166,5.565-2.955,7.167c-5.769,2.962-11.434,6.127-17.235,9.024c-2.798,1.397-3.732,2.558-1.301,5.382
			c4.075,4.726,5.729,13.148,11.043,14.572c5.32,1.427,11.064-4.68,16.593-7.522c10.391-5.344,10.327-5.455,16.771,3.887
			c5.081,7.365,10.053,14.811,15.321,22.039c2.313,3.179,1.885,4.767-1.614,6.553c-10.161,5.184-20.186,10.633-30.202,16.093
			C585.578,455.779,583.1,456.64,581.506,453.326z M655.197,541.177c-8.196,4.464-8.196,4.464-13.184-3.303
			c-0.36-0.564-0.703-1.138-1.07-1.696c-7.075-10.813-6.938-10.569,4.653-17.04c4.379-2.444,6.835-1.809,9.078,2.275
			c1.068,1.946,2.249,3.851,3.541,5.661C665.675,537.542,664.945,535.393,655.197,541.177z M682.995,523.619
			c0.344,1.606-0.359,2.533-1.686,3.187c-2.208,1.084-4.417,2.162-7.042,3.448c-5.768,5.96-8.861,2.442-12.665-3.445
			c-7.888-12.213-8.263-12.02,4.882-18.482c1.723-0.848,4.065-3.683,5.54-0.43c1.041,2.306-1.993,2.924-3.683,3.828
			c-1.18,0.633-2.322,1.344-3.527,1.917c-1.583,0.748-2.747,1.623-1.545,3.53c0.876,1.388,1.898,2.597,3.788,1.689
			c1.007-0.481,1.946-1.1,2.944-1.598C676.043,514.237,681.562,516.963,682.995,523.619z M657.232,477.627
			c-1.301,1.57-0.313,2.74,0.689,4.067c2.285,3.025,4.294,6.265,6.609,9.262c1.573,2.029,1.515,3.598-0.594,5.037
			c-2.052,1.401-3.828,0.926-5.175-1.025c-2.154-3.116-4.333-6.224-6.267-9.477c-1.409-2.374-2.655-4.17-5.668-2.068
			c-1.359,0.947-3.183,1.262-3.873-0.72c-0.678-1.943,1.164-2.577,2.557-3.26c1.805-0.882,3.609-1.766,5.409-2.65
			c0.941-0.607,1.824-1.333,2.828-1.787c1.89-0.854,3.843-3.656,5.864-1.43C661.984,476.183,658.28,476.361,657.232,477.627z
			 M630.601,426.616c-4.039-6.172-8.382-12.15-12.761-18.093c-2.224-3.015-3.751-5.961-1.897-9.706
			c1.157-2.333,1.037-5.178-1.743-5.292c-9.051-0.375-11.704-7.844-15.914-13.514c-7.104-9.558-6.963-9.579,3.418-14.983
			c8.937-4.654,17.79-9.469,26.68-14.211c0.572,0.16,1.142,0.32,1.715,0.481c3.412,4.936,6.704,9.963,10.275,14.78
			c2.545,3.431,4.711,6.665,2.506,11.174c-1.324,2.707,0.15,4.577,2.85,4.643c6.831,0.167,9.784,5.058,13.03,9.843
			c3.103,4.565,6.285,9.092,9.683,13.437c2.708,3.467,2.55,5.474-1.729,7.595c-9.826,4.874-19.488,10.098-29.043,15.486
			C634.412,430.091,632.646,429.745,630.601,426.616z M680.994,477.338c-2.247-3.051-4.462-6.127-6.738-9.153
			c-1.303-1.728-1.484-3.204,0.643-4.389c1.601-0.896,3.191-1.859,4.658,0.221c3.343,4.744,6.675,9.496,10.058,14.209
			c1.389,1.933,0.826,3.306-1.058,4.37c-2.143,1.211-4.306,2.38-7.73,4.269c-4.319,4.214-8.088,2.272-11.226-3.701
			c-1.648-3.137-3.985-5.916-6.032-8.844c-1.327-1.896-1.757-3.603,0.695-5c2.134-1.213,3.696-0.872,5.063,1.262
			c2.168,3.381,4.514,6.65,6.777,9.972c1.233,1.816,2.555,3.045,4.942,1.614C683.922,480.44,682.171,478.934,680.994,477.338z
			 M689.813,522.428c-2.486,1.423-4.134,0.411-5.491-1.816c-1.146-1.879-0.961-3.323,0.937-4.493
			c2.601-1.598,4.114,0.004,5.226,1.437C692.07,519.829,691.735,521.327,689.813,522.428z M704.068,514.307
			c-0.777,0.75-1.898,1.15-2.879,1.679c-5.224,2.805-11.999-0.462-12.953-6.395c-0.624-3.867,3.403-3.417,5.177-5.076
			c1.414-1.324,5.054-1.074,3.552-4.415c-1.552-3.463-3.788-1.325-6.096-0.548c-2.629,0.889-5.846,5.536-7.792,1.896
			c-1.873-3.509,3.827-3.505,5.87-5.411c0.474-0.439,1.155-0.657,1.744-0.979c3.692-1.384,7.019-6.202,11.096,0.179
			c4.328,6.769,4.742,6.476-2.313,10.701c-1.551,0.93-4.418,1.29-2.973,4.104c1.323,2.576,3.318,1.794,5.663,0.826
			c2.792-1.152,6.501-5.908,8.439-2.222C712.576,512.404,706.262,512.19,704.068,514.307z M726.614,501.699
			c-1.841,2.846-4.567,1.909-6.429-0.914c-1.166-1.769-2.85-1.308-4.071-0.268c-4.541,3.866-7.042,1.232-9.352-2.644
			c-1.024-1.717-2.119-3.449-3.477-4.893c-1.744-1.851-2.051-3.475,0.153-4.968c1.95-1.321,3.6-0.959,5.182,1.003
			c2.077,2.572,3.238,6.135,7.151,7.984c0.409-4.234-2.509-5.826-3.843-8.162c-0.986-1.727-3.066-3.1-0.652-4.996
			c1.941-1.526,3.815-1.743,5.79,0.526c2.577,2.96,3.287,8.232,8.904,7.703C725.304,495.396,728.467,498.842,726.614,501.699z"/>
		<path fill-rule="evenodd" clip-rule="evenodd" fill="#020202" d="M536.725,363.792c3.35,5.262,6.405,7.816,10.785,3.456
			c9.477-5.068,9.436-5.04,3.908-13.017c-6.752-9.738-13.448-19.516-20.123-29.306c-6.534-9.591-6.404-9.397-17.116-4.077
			c-3.898,1.937-4.212,3.375-1.801,6.833C520.682,339.589,528.932,351.548,536.725,363.792z"/>
	</g>
	<g>
		<path fill-rule="evenodd" clip-rule="evenodd" fill="#EC0C0D" d="M506.974,212.159c2.32,4.544,4.565,9.208,7.137,13.844
			c0.839,1.509,0.461,2.22-0.905,2.961c-2.963,1.61-5.925,3.244-8.874,4.914c-1.342,0.763-2.194,0.552-3.132-0.684
			c-0.902-1.186-0.444-1.786,0.632-2.387c0.354-0.196,0.692-0.416,1.033-0.628c6.421-4.021,6.421-4.021,3.138-10.223
			c-2.93-5.537-5.847-10.951-8.58-16.295c-0.499-0.982-1.77-2.048,0.117-3.195c2.074-1.259,2.943,0.108,3.983,0.993
			c8.575,7.294,17.367,14.852,26.37,22.566c1.022-0.178,0.792-0.644,0.623-1.109c-2.134-5.945-2.13-5.942,3.562-9.099
			c2.838-1.573,5.688-3.118,8.458-4.741c1.2-0.702,2.058-0.823,3.128,0.395c1.124,1.278,0.425,1.827-0.729,2.463
			c-2.845,1.566-5.548,3.314-8.487,4.784c-1.998,1-2.459,2.084-1.531,4.045c1.521,3.198,2.746,6.526,4.069,9.865
			c0.587,1.481,1.814,2.991-0.627,4.132c-2.375,1.109-3.169-0.69-4.288-1.649c-8.446-7.205-16.584-14.269-24.52-21.122
			C507.357,212.046,507.164,212.104,506.974,212.159z"/>
		<g>
			<path fill-rule="evenodd" clip-rule="evenodd" fill="#EC0C0D" d="M445.151,261.337c-4.612-1.7-7.097-1.705-7.164,3.383
				c-0.048,3.509-10.798,7.541-14.123,5.754c-8.647-4.634-12.09-12.183-9.285-19.876c2.506-6.88,10.018-12.456,17.708-11.79
				c5.354,0.461,7.477-0.375,9.667-5.111c3.215-6.953,13.298-10.041,21.086-7.628c8.197,2.538,13.927,11.126,12.036,18.374
				c-0.654,2.505-7.289,5.795-10.354,4.79c-3.184-1.046-4.88-0.681-4.886,2.699c-0.001,2.842-3.724,3.393-4.568,6.015
				c-0.464,1.442-1.908,0.036-2.634-0.779c-2.986-3.359-5.926-6.685-8.835-9.965c-0.69-0.779-1.229-2.126-2.606-1.541
				c-1.82,0.777-0.692,2.122-0.346,3.173C442.094,252.617,443.449,256.418,445.151,261.337z"/>
			<path fill-rule="evenodd" clip-rule="evenodd" fill="#EC0C0D" d="M474.995,248.637c-0.981,10.238-4.107,19.593-8.635,28.899
				c-0.882,1.818-1.782,2.496-3.998,2.38c-11.121-0.58-21.809-2.33-31.947-6.366c3.299-4.115,11.298-3.455,10.712-10.357
				c8.021,1.204,8.024,1.203,5.523-5.777c-0.422-1.176-0.897-2.329-0.717-3.936c3.255,3.74,6.524,7.56,9.934,11.359
				c0.826,0.921,1.526,2.705,3.052,2.157c1.97-0.709,1.213-2.677,0.652-3.815c-2.216-4.501,2.204-7.44,3-11.135
				c0.049-0.233,0.94-0.61,1.164-0.496C468.292,253.918,470.859,249.735,474.995,248.637z"/>
		</g>
	</g>
	<path fill-rule="evenodd" clip-rule="evenodd" fill="none" stroke="#EC0C0D" stroke-miterlimit="10" d="M307.384,188.971"/>
	<path fill-rule="evenodd" clip-rule="evenodd" fill="none" stroke="#EC0C0D" stroke-miterlimit="10" d="M495.063,111.909"/>
	<path fill="none" d="M200.407,182.464c0,0,40.743-12.174,168.396,149.093c0,0,206.1,222.089,132.467,337.951"/>
</g>
</svg>
