<?xml version="1.0" encoding="utf-8"?>
<!--Generator: Adobe Illustrator 16.0.0, SVG Export Plug-In . SVG Version: 6.00 Build 0)-->
<!DOCTYPE svg PUBLIC "-//W3C//DTD SVG 1.1//EN" "http://www.w3.org/Graphics/SVG/1.1/DTD/svg11.dtd">
<svg version="1.1" id="Layer_1" xmlns="http://www.w3.org/2000/svg" xmlns:xlink="http://www.w3.org/1999/xlink" x="0px" y="0px" width="1000px" height="1000px" viewBox="0 0 1000 1000" enable-background="new 0 0 1000 1000" xml:space="preserve">
    <g id="Layer_1_2_">
        <path opacity="0.3" fill="#010101" enable-background="new    " d="M506.923,887.086c178.551,0,323.328,22.359,323.328,49.955
		s-144.777,49.955-323.328,49.955c-178.55,0-323.31-22.359-323.31-49.955S328.373,887.086,506.923,887.086z"/>
        <g id="Layer_1_1_" display="none">
            <g display="inline">
                <g>
                    <path opacity="0.2" fill="#010101" enable-background="new    " d="M883.458,650.888H122.486c0,0-103.073-15.01-108.374-120.368
					c0,0-36.849-156.294,149.288-184.388c0,0-73.77-219.514,166.818-309.066c0,0,201.926-59.704,300.292,151.029
					c0,0,87.796-64.99,187.869-1.749c0,0,87.813,59.68,59.729,173.843c0,0,112.384,15.799,115.896,151.029
					C994.02,511.201,1004.671,604.444,883.458,650.888z"/>
                    <path fill="#FFFFFF" d="M878.026,634.626H117.071c0,0-103.09-15.025-108.35-120.368c0,0-36.864-156.289,149.264-184.371
					c0,0-73.746-219.506,166.819-309.075c0,0,201.942-59.695,300.291,151.029c0,0,87.78-64.973,187.901-1.748
					c0,0,87.765,59.696,59.697,173.86c0,0,112.383,15.806,115.895,151.004C988.588,494.924,999.239,588.199,878.026,634.626z"/>
                    <path opacity="0.2" fill="#010101" enable-background="new    " d="M159.05,623.438h675.104c0,0,91.455-13.334,96.139-106.788
					c0,0,32.717-138.663-132.434-163.573c0,0,65.437-194.74-148.014-274.217c0,0-179.161-52.972-266.411,133.995
					c0,0-77.885-57.648-166.688-1.562c0,0-77.908,52.964-52.964,154.241c0,0-99.715,14.042-102.829,133.961
					C60.969,499.494,51.513,582.232,159.05,623.438z"/>
                    <path fill="#FFFFFF" d="M163.88,609.047H839c0,0,91.421-13.058,96.104-104.479c0,0,32.701-135.636-132.434-160.012
					c0,0,65.436-190.495-147.995-268.226c0,0-179.145-51.809-266.412,131.06c0,0-77.917-56.396-166.721-1.512
					c0,0-77.893,51.809-52.98,150.882c0,0-99.715,13.708-102.813,131.062C65.783,487.801,56.31,568.751,163.88,609.047z"/>
                    <path fill="#E4E6ED" d="M337.293,675.508c25,0,45.271,20.262,45.271,45.272c0,25.01-20.271,45.271-45.271,45.271
					c-25.002,0-45.281-20.261-45.281-45.271C292.012,695.77,312.291,675.508,337.293,675.508z"/>
                    <path fill="#C2C4CE" d="M356.708,683.247c9.726,7.563,16.035,19.4,16.035,32.687c0,22.831-18.53,41.369-41.361,41.369
					c-7.408,0-14.351-1.951-20.384-5.382c6.992,5.431,15.773,8.666,25.328,8.666c22.847,0,41.345-18.521,41.345-41.337
					C377.686,703.818,369.246,690.338,356.708,683.247z"/>
                    <path fill="#E4E6ED" d="M501.932,716.665c25.013,0,45.272,20.278,45.272,45.288c0,24.994-20.262,45.271-45.272,45.271
					c-25.01,0-45.278-20.275-45.278-45.271C456.651,736.943,476.921,716.665,501.932,716.665z"/>
                    <path fill="#C2C4CE" d="M521.348,724.39c9.741,7.609,16.02,19.448,16.02,32.72c0,22.831-18.538,41.353-41.369,41.353
					c-7.407,0-14.334-1.936-20.359-5.35c6.992,5.415,15.768,8.649,25.32,8.649c22.863,0,41.351-18.538,41.351-41.337
					C542.308,744.943,533.854,731.48,521.348,724.39z"/>
                    <path fill="#E4E6ED" d="M666.514,689.248c24.994,0,45.272,20.278,45.272,45.271c0,24.994-20.278,45.272-45.272,45.272
					c-24.992,0-45.288-20.278-45.288-45.272C621.226,709.526,641.521,689.248,666.514,689.248z"/>
                    <path fill="#C2C4CE" d="M685.962,696.956c9.74,7.578,16.019,19.416,16.019,32.687c0,22.849-18.507,41.354-41.367,41.354
					c-7.399,0-14.345-1.937-20.359-5.334c6.977,5.397,15.789,8.651,25.303,8.651c22.896,0,41.387-18.509,41.387-41.338
					C706.924,717.527,698.469,704.046,685.962,696.956z"/>
                </g>
                <path opacity="0.3" fill="#010101" enable-background="new    " d="M506.923,887.086c178.551,0,323.328,22.359,323.328,49.955
				s-144.777,49.955-323.328,49.955c-178.55,0-323.31-22.359-323.31-49.955S328.373,887.086,506.923,887.086z"/>
            </g>
        </g>
    </g>
    <g>
        <path fill-rule="evenodd" clip-rule="evenodd" fill="#CD6428" d="M986.668,323.256c-0.682,0.334-1.367,0.667-2.05,1
		c-10.196-5.213-19.314-12.271-29.777-17.097c-4.563-2.103-10.05-3.591-12.205-9.162l0.236-0.254
		C957.831,305.626,972.793,313.513,986.668,323.256z"/>
        <path fill-rule="evenodd" clip-rule="evenodd" fill="#CD6428" d="M986.98,348.102c0.054-8.021,0.108-16.042,0.161-24.062
		C988.872,332.074,989.169,340.096,986.98,348.102z"/>
        <path fill-rule="evenodd" clip-rule="evenodd" fill="#CD6428" d="M829.21,232.063c18.332,9.419,35.88,20.218,53.749,30.454
		c18.919,10.838,37.747,21.835,56.598,32.792c1.181,0.685,2.215,1.62,3.315,2.437l-0.236,0.254c-3.369-0.677-7.439-0.412-9.94-2.265
		c-3.453-2.559-6.793-4.877-10.63-6.995c-12.964-7.164-25.315-15.437-38.029-23.069c-4.636-2.782-9.477-4.694-15.055-5.939
		c-5.388-1.201-9.229-7.715-14.832-10.502c-4.819-2.398-9.333-6.391-14.366-7.154c-6.545-0.992-8.598-5.024-10.745-9.836
		L829.21,232.063z"/>
        <path fill-rule="evenodd" clip-rule="evenodd" fill="#CD6428" d="M549.287,99.362c-3.895,6.158-9.813,8.776-16.769,9.591
		C537.753,105.14,543.369,101.986,549.287,99.362z"/>
        <path fill-rule="evenodd" clip-rule="evenodd" fill="#CD6428" d="M551.685,98.107c-0.444,1.116-1.381,1.292-2.425,1.278
		C550.067,98.959,550.876,98.534,551.685,98.107z"/>
        <path fill-rule="evenodd" clip-rule="evenodd" fill="#CD6428" d="M152.015,328.573c0,0-0.39,0.31-0.386,0.307
		c0.006-0.003,0.063-0.335,0.063-0.335L152.015,328.573z"/>
        <path fill-rule="evenodd" clip-rule="evenodd" fill="#863C1D" d="M50.051,539.354c-4.445,0.28-5.882-1.712-6.216-6.073
		c-2.484-32.319-0.481-64.677-1.04-97.008c-0.033-1.761,0.532-3.542,0.886-5.298c1.47-7.335,2.714-8.173,9.025-3.692
		c4.495,3.194,11.344,3.228,13.592,9.428c-3.029,0.757-3.455,2.535-2.957,5.425c0.981,5.675,3.494,11.791,1.264,17.097
		c-2.504,5.956-2.575,11.874-1.767,17.574c1.497,10.597,0.678,21.158,0.961,31.727c0.187,6.937,0.258,13.847,2.637,20.494
		C62.892,535.714,55.511,535.91,50.051,539.354z"/>
        <path fill-rule="evenodd" clip-rule="evenodd" fill="#CD6428" d="M49.415,539.39c5.274-3.405,12.457-5.746,17.023-10.257
		c1.11-0.176,2.221-0.348,3.332-0.515c7.628,4.721,15.257,9.442,22.886,14.161c0.109,1.533,0.216,3.064,0.324,4.598
		c-0.125,5.318-0.249,10.636-0.374,15.952c-2.352,1.776-4.757,0.642-6.654-0.494c-10.496-6.262-20.916-12.638-31.735-18.35
		C52.368,543.508,49.475,541.898,49.415,539.39z"/>
        <path fill-rule="evenodd" clip-rule="evenodd" fill="#9B4923" d="M69.77,528.599c-1.297,0.174-2.599,0.354-3.896,0.534
		c-2.684-6.779-2.763-13.826-2.974-20.905c-0.323-10.784,0.605-21.56-1.088-32.373c-0.91-5.816-0.833-11.852,1.995-17.931
		c2.518-5.412-0.319-11.653-1.426-17.441c-0.565-2.95-0.082-4.766,3.34-5.537c1.176,0.159,4.675,0.494,5.187,1.562
		c-2.683,5.977-3.519,12.159-3.598,18.266c-0.939,21.875-0.493,43.746,0.369,65.609C67.788,523.123,67.567,526.165,69.77,528.599z"/>
        <path fill-rule="evenodd" clip-rule="evenodd" fill="#CFD7DE" d="M68.786,459.147c2.193,18.772,0.619,37.617,1.027,56.424
		c0.212,9.771,2.268,10.897,10.571,16.116c5.513,3.47,11.82,4.063,17.003,7.563c0,0-0.214,0.276-0.214,0.273
		c-2.612,0.155-2.276,1.912-1.979,3.646c-0.151,0.413-0.436,0.552-0.855,0.416c-0.562-0.271-1.122-0.539-1.683-0.807
		c-7.629-4.719-15.258-9.44-22.886-14.161c-1.882-2.363-1.508-5.327-1.79-7.972c-2.23-20.869-1.116-42.407-0.313-63.616
		C68.039,457.735,68.412,458.441,68.786,459.147z"/>
        <path fill-rule="evenodd" clip-rule="evenodd" fill="#CD6428" d="M611.581,111.377c-1.247,2.714-3.749,2.365-6.062,2.486
		C607.423,112.748,608.416,109.414,611.581,111.377z"/>
        <path fill-rule="evenodd" clip-rule="evenodd" fill="#9B4923" d="M92.587,590.888c-8.27-4.266-16.837-7.958-21.693-16.854
		c-1.67-3.059-4.887-5.371-9.069-3.245c-2.498,1.275-4.542-0.097-6.719-1.138c-14.045-6.712-23.15-17.742-28.609-32.131
		c-12.636-33.287-18.617-67.413-12.782-102.938c1.444-8.789,3.801-17.425,7.603-25.607c2.652-5.701,6.456-9.957,12.524-11.962
		c3.965,0.341,7.615,1.55,11.358,2.995c3.809,1.469,6.85,5.09,11.456,4.427c2.199,3.139,4.217,6.431,6.648,9.379
		c2.273,2.753,5.091,5.84,8.981,4.51c3.432-1.172,5.696,0.336,8.321,1.56c3.872,1.877,8.121,3.231,11.543,5.722
		c12.526,9.121,26.458,15.867,39.69,23.757c24.824,14.805,50.277,28.557,75.352,42.951c17.147,9.841,34.036,20.134,51.146,30.04
		c26.853,15.545,53.752,31.009,80.721,46.346c8.256,4.693,66.664,38.475,79.831,46.034c10.773,6.185,21.239,12.927,32.534,18.178
		c2.7,8.166,5.148,15.924-1.685,23.743c-2.963-0.925-14.556-7.301-15.2-7.678c-18.329-10.69-181.267-104.918-215.712-124.811
		c-46.5-26.854-92.921-53.839-139.508-80.542c-3.221-1.844-6.089-5.486-10.672-4.309c-0.44-1.033-1.335-1.359-2.343-1.512
		c-2.173-6.133-8.787-6.167-13.127-9.325c-6.094-4.435-7.299-3.604-8.714,3.65c-0.343,1.741-0.888,3.501-0.858,5.244
		c0.539,31.987-1.395,63.997,1.005,95.973c0.323,4.314,1.709,6.285,6.001,6.008c0.063,2.51,1.757,4.154,3.606,5.132
		c10.819,5.712,21.239,12.088,31.735,18.35c1.897,1.136,4.303,2.271,6.654,0.494C93.237,572.516,93.241,581.701,92.587,590.888z"/>
        <path fill-rule="evenodd" clip-rule="evenodd" fill="#CD6428" d="M56.656,404.435c-4.606,0.662-7.647-2.959-11.456-4.428
		c-3.743-1.445-7.393-2.654-11.358-2.995c13.104-7.778,26.143-15.668,39.325-23.308c25.044-14.511,50.169-28.88,75.267-43.295
		c1.024-0.588,2.135-1.025,3.196-1.53c-0.004,0.003,0.386-0.307,0.386-0.307c0.529-0.262,1.06-0.521,1.587-0.783
		c1.374-0.132,3.145,0.237,4.057-0.48c5.103-4.003,12.28-4.121,16.785-9.28c1.667-1.91,4.019-2.679,6.898-2.741
		c2.28-0.049,5.875,0.029,5.951-4.21c0.023-1.482,1.642-2.102,2.883-2.769c12.009-6.436,24.089-12.746,35.97-19.416
		c3.785-2.125,7.667-4.168,11.279-6.5c3.267-2.11,5.414-4.672,10.247-4.004c3.816,0.526,3.266-6.206,7.698-7.663
		c9.98-3.282,17.649-11.097,27.402-15.027c1.297-0.522,1.053-2,1.087-3.182c19.693-11.501,39.358-23.05,59.085-34.493
		c24.029-13.939,48.104-27.794,72.174-41.663c1.187-0.683,2.517-1.12,3.78-1.67c1.982,0.083,3.714-0.285,5.648-1.182
		c7.255-3.361,12.697-11.263,22.244-9.091c1.024,0.233,1.778-0.817,1.928-1.888c0.542-3.884,3.542-5.415,6.504-7.11
		c4.222-2.417,9.591-2.8,13.027-6.315c3.091-3.169,7.138-4.086,10.585-6.231c7.502-4.668,14.444-10.271,23.515-11.771
		c0.328-0.053,0.626-0.48,0.869-0.787c3.638-4.688,9.136-6.564,13.959-9.53c5.495-3.382,12.371-5.189,15.365-11.869l-0.026,0.035
		c6.955-0.814,12.874-3.433,16.769-9.591l-0.027,0.023c1.044,0.013,1.98-0.162,2.425-1.278l-0.08,0.053
		c5.224,0.198,9.279-2.828,13.226-5.426c8.059-5.308,18.513-2.443,23.97,5.461c-6.446,3.803-12.871,7.644-19.342,11.401
		c-22.934,13.315-45.88,26.605-68.826,39.896c-22.728,13.16-45.334,26.541-68.236,39.394c-23.56,13.222-46.81,26.966-70.184,40.508
		c-30.173,17.485-60.641,34.468-90.881,51.843c-22.41,12.877-44.615,26.108-66.987,39.054
		c-27.008,15.628-54.103,31.103-81.142,46.681c-20.569,11.852-41.125,23.729-61.625,35.702
		C59.978,403.609,58.515,404.448,56.656,404.435z"/>
        <path fill-rule="evenodd" clip-rule="evenodd" fill="#BD986E" d="M762.24,478.109c0.361-1.157,1.205-1.537,2.331-1.462
		c4.942,0.37,8.057-2.533,10.803-6.086l0.089-0.063c2.501-0.285,5.171-0.293,5.82-3.601c0,0,0.102-0.083,0.1-0.083
		c5.66,0.834,8.727-4.055,13.137-5.955c9.792-4.218,18.525-10.395,27.931-15.33c8.854-4.644,17.649-9.887,26.02-15.572
		c3.282-2.225,8.103-2.659,9.409-7.438l0.068-0.056c7.645-1.297,13.509-5.739,19-10.842l0.043-0.033
		c7.7-1.235,13.779-5.346,19.058-10.873l-0.022,0.028c3.557,0.292,6.462-0.457,7.279-4.566c0,0,0.201-0.138,0.198-0.138
		c0.889-0.103,1.734-0.285,2.141-1.237l0.027-0.017c2.74,0.446,4.721-1.283,7.05-2.223c5.669-2.289,10.222-7.153,16.767-7.372
		c0.103,2.788,0.204,5.578,0.306,8.366c-0.146,2.754-0.288,7.961-0.432,10.716c-21.686,12.499-412.669,236.608-435.746,249.954
		c-13.054,7.551-26.054,15.199-39.071,22.82c-2.225,1.302-4.55,1.798-6.757,0.297c-3.937-2.676-8.586-4.197-12.084-7.565
		c0.364-4.142-0.583-8.328,0.759-12.465c1.213-3.737,3.314-4.193,6.198-2.101c6.743,4.896,10.665,4.416,18.088-0.231
		c11.833-7.406,24.211-16.38,36.098-23.706c5.603-3.451,30.155-16.875,30.155-16.875s62.97-35.129,63.084-36.568
		c0.073-0.278,0.248-0.427,0.532-0.457c4.483-0.679,11.348-6.109,11.348-6.109c5.32-1.866,36.544-21.67,40.648-23.885l0.103-0.087
		c2.884,0.443,4.865-0.648,5.832-3.459c0.261-0.23,0.563-0.307,0.902-0.234c3.408-0.097,7.568-4.729,7.568-4.729
		c0.366-0.277,0.737-0.551,1.103-0.825c0.441-0.114,0.885-0.23,1.324-0.348c1.288-0.077,14.376-8.397,14.376-8.397
		c3.118,0.202,5.752-0.494,7-3.785l-0.092,0.063c0.393-0.031,0.822,0.024,1.178-0.109c14.699-5.516,26.771-15.87,40.892-22.47
		c0.628-0.295,0.731-1.721,1.077-2.621l-0.028,0.034c2.222,0.16,4.408-0.031,6.277-1.343c8.082-5.661,16.842-10.117,25.371-14.998
		C757.729,482.794,761.641,481.887,762.24,478.109z"/>
        <path fill-rule="evenodd" clip-rule="evenodd" fill="#9B4923" d="M455.664,794.777c-0.833,0.798-0.664-0.403-1.5,0.389
		c-3.083,1.258-7.209,2.271-9.496,0.717c-14.134-9.605-28.98-18.032-43.743-26.586c-51.317-29.732-102.655-59.423-153.988-89.125
		c-26.695-15.449-60.748-33.345-87.446-48.791c2.408-7.48,0.072-17.67,1.23-25.217c4.93,1.02,16.116,9.08,20.33,11.527
		c22.64,13.141,45.295,26.253,68.016,39.258c5.415,3.096,30.322,18.62,31.065,18.477c9.617,4.15,18.417,9.806,27.421,15.061
		c16.251,9.484,32.638,18.722,48.755,28.449c19.23,11.599,38.94,22.412,58.563,33.351c12.192,6.798,24.536,15.107,37.529,20.465
		c-0.042,5.526,0.081,11.061-0.188,16.577C452.047,792.742,452.181,794.592,455.664,794.777z"/>
        <path fill-rule="evenodd" clip-rule="evenodd" fill="#CD6428" d="M588.8,98.193c-5.457-7.903-15.911-10.768-23.97-5.46
		c-3.946,2.599-8.002,5.625-13.226,5.426c4.386-3.811,9.568-6.394,14.661-9.001c4.815-2.465,10.111-2.421,15.086-0.264
		c7.652,3.322,15.306,6.57,19.357,14.902c1.699,3.49,5.11,5.602,9.53,4.155c3.194-1.044,5.81,0.451,8.428,1.961
		c28.612,16.509,57.23,33.008,85.842,49.52c39.625,22.868,79.246,45.737,118.851,68.637c2.039,1.177,3.905,2.655,5.851,3.993
		c0,0-0.172,0.176-0.172,0.175c-1.976-0.101-3.779-0.318-5.629-1.461c-6.271-3.873-12.83-6.778-20.422-3.547
		c-0.624,0.266-1.603,0.082-1.905-1.064c0.484-1.757,2.752-1.124,3.633-2.485c0.53-0.814,1.498-1.411,1.246-2.549
		c-0.3-1.345-1.405-2.209-2.587-2.002c-4.543,0.797-8.93,1.633-10.269-4.637c-0.065-0.308-1.046-0.471-1.621-0.61
		c-9.711-2.337-15.168-12.408-25.333-13.955c-0.476-0.072-0.908-0.71-1.28-1.157c-6.185-7.505-15.806-9.438-23.571-14.391
		c-2.559-1.631-5.817-1.841-8.038-4.625c-1.043-1.311-3.52-4.672-5.374-2.407c-2.823,3.45-3.036,0.367-3.679-0.942
		c-1.083-2.216-3.09-5.626-4.471-5.002c-5.536,2.511-5.205-3.575-8.036-4.788c-1.369-0.586-2.423-2.986-3.864-2.415
		c-6.765,2.685-9.111-2.012-11.824-6.468c-0.945-1.55-2.55-2.444-4.258-3.126c-10.08-4.034-18.293-11.376-28.136-15.906
		c-2.158-0.994-3.974-2.374-6.495-2.245c-2.156,0.111-3.759-1.531-5.397-2.163c-6.53-2.51-9.667-10.974-18.071-9.998
		c-1.72,0.201-2.692-2.094-3.965-3.303c-5.133-4.883-11.208-8.037-18.11-9.615c-3.165-1.963-4.158,1.371-6.062,2.487
		c-0.761,3.17-3.746,2.635-5.878,3.521c-0.024-2.584-0.142-5.171-0.043-7.75c0.129-3.377-1.007-4.99-4.585-3.751
		c-1.063,0.366-2.194,1.121-3.267-0.56C595.898,100.982,592.564,99.496,588.8,98.193z"/>
        <path fill-rule="evenodd" clip-rule="evenodd" fill="#CD6428" d="M283.86,252.518c-0.034,1.181,0.21,2.659-1.087,3.182
		c-9.753,3.93-17.422,11.745-27.402,15.027c-4.433,1.457-3.882,8.189-7.698,7.663c-4.833-0.668-6.98,1.894-10.247,4.004
		c-3.611,2.332-7.494,4.375-11.279,6.5c-11.881,6.67-23.961,12.98-35.97,19.416c-1.242,0.667-2.86,1.287-2.883,2.769
		c-0.077,4.239-3.671,4.162-5.951,4.21c-2.88,0.062-5.231,0.831-6.898,2.741c-4.505,5.16-11.683,5.277-16.785,9.28
		c-0.913,0.717-2.684,0.348-4.057,0.48c9.519-6.835,20.017-12.043,30.095-17.928c32.21-18.812,64.592-37.328,96.919-55.936
		C281.633,253.342,282.776,252.982,283.86,252.518z"/>
        <path fill-rule="evenodd" clip-rule="evenodd" fill="#CD6428" d="M532.545,108.918c-2.994,6.68-9.87,8.487-15.365,11.869
		c-4.823,2.965-10.321,4.842-13.959,9.53c-0.243,0.307-0.541,0.734-0.869,0.787c-9.071,1.499-16.013,7.103-23.515,11.771
		c-3.448,2.145-7.494,3.062-10.585,6.231c-3.436,3.516-8.805,3.898-13.027,6.315c-2.963,1.695-5.963,3.226-6.504,7.11
		c-0.15,1.071-0.903,2.121-1.928,1.888c-9.547-2.172-14.989,5.729-22.244,9.091c-1.934,0.897-3.667,1.265-5.648,1.182
		c15.045-9.994,31.096-18.286,46.609-27.485c21.493-12.745,43.175-25.178,64.792-37.711
		C530.943,109.122,531.791,109.102,532.545,108.918z"/>
        <path fill-rule="evenodd" clip-rule="evenodd" fill="#DCC4A6" d="M435.703,669.817c3.499,3.353,8.147,4.866,12.084,7.532
		c2.207,1.495,4.532,1.001,6.757-0.297c13.017-7.589,26.017-15.204,39.071-22.723c23.077-13.293,46.212-26.481,69.28-39.786
		c22.341-12.887,44.62-25.871,66.94-38.794c13.415-7.764,26.858-15.487,40.286-23.234c24.06-13.883,48.103-27.796,72.175-41.658
		c18.888-10.876,37.839-21.642,56.705-32.556c21.796-12.608,43.502-25.377,65.305-37.976c21.646-12.513,43.369-24.904,65.055-37.349
		c0.688,7.998,0.516,16.094,2.669,23.929c-0.325,4.262-1.718,8.564,0.094,12.769c2.888,6.694,4.827,13.881,9.429,19.709
		c2.394,3.029,2.34,4.688-1.289,6.767c-30.485,17.465-60.893,35.069-91.273,52.715c-22.634,13.147-45.197,26.424-67.794,39.642
		c-2.015,0.817-4.155,1.421-6.026,2.488c-14.303,8.185-28.53,16.493-42.821,24.694c-23.029,13.219-46.292,26.052-69.082,39.665
		c-24.688,14.75-49.946,28.494-74.695,43.12c-18.065,10.676-36.46,20.769-54.616,31.27c-14.899,8.617-29.357,17.984-44.764,25.722
		c-1.616,0.81-2.969,2.012-3.4,3.928l0.065-0.012c-2.295-0.098-4.075,1.049-6.025,2.109c-9.529,5.182-18.395,11.54-28.32,16.018
		c-1.187-1.347-2.739-2.003-4.451-2.356l-0.17,0.188c-3.229-3.849-5.036-8.271-6.46-13.122c-3.836-13.081-4.377-26.464-4.707-39.909
		c-0.185-7.515,0.665-15.083-1.196-22.507l0.588-0.007L435.703,669.817z"/>
        <path fill-rule="evenodd" clip-rule="evenodd" fill="#9B4923" d="M451.401,772.751c10.844-6.123,21.737-12.157,32.521-18.384
		c26.831-15.489,53.623-31.052,80.419-46.606c30.725-17.831,61.399-35.754,92.17-53.508c39.224-22.628,78.545-45.079,117.768-67.701
		c43.518-25.099,86.958-50.325,130.452-75.465c25.269-14.604,50.569-29.16,75.867-43.72c2.062-1.187,4.338-2.083,5.235-4.58
		c0.682,0.265,1.357,0.531,2.036,0.797l0.059,0.227c0.095,7.663,0.193,15.327,0.288,22.989c-2.498,3.341-6.437,4.558-9.828,6.521
		c-78.396,45.355-156.815,90.672-235.252,135.952c-94.126,54.332-188.272,108.629-282.415,162.93
		c-1.542,0.89-3.185,1.603-4.783,2.393c-0.125-0.145-0.242-0.293-0.36-0.439c0.102,0.143,0.201,0.284,0.299,0.422
		c0,0-0.223,0.2-0.218,0.2c-3.479-0.186-4.614-2.035-4.446-5.449C451.481,783.812,451.359,778.277,451.401,772.751z"/>
        <path fill-rule="evenodd" clip-rule="evenodd" fill="#CD6428" d="M455.877,794.577c-0.098-0.138-0.198-0.279-0.299-0.422
		c0.118,0.146,0.234,0.295,0.36,0.439C455.939,794.599,455.877,794.577,455.877,794.577z"/>
        <path fill-rule="evenodd" clip-rule="evenodd" fill="#CD6428" d="M942.636,297.998c2.155,5.57,7.643,7.059,12.205,9.162
		c10.463,4.826,19.581,11.883,29.777,17.097c-10.784,7.834-22.649,13.883-34.122,20.569c-32.624,19.014-65.327,37.899-98.04,56.764
		c-29.77,17.169-59.625,34.19-89.385,51.374c-40.088,23.152-80.087,46.456-120.185,69.586
		c-26.139,15.075-52.521,29.731-78.555,44.985c-35.489,20.792-70.975,41.588-106.897,61.623c-2.074,1.156-3.453,3.4-6.01,3.753
		c-11.295-5.25-21.761-11.992-32.534-18.177c-13.167-7.56-71.575-41.341-79.831-46.034c-26.969-15.337-53.868-30.801-80.721-46.346
		c-17.11-9.906-33.999-20.199-51.146-30.04c-25.075-14.394-50.528-28.146-75.352-42.951c-13.232-7.891-27.164-14.637-39.69-23.757
		c-3.422-2.49-7.671-3.845-11.541-5.722c2.713-5.816,8.887-6.677,13.678-9.474c27.445-16.013,54.911-31.996,82.42-47.896
		c23.397-13.524,46.915-26.845,70.292-40.4c27.223-15.784,54.314-31.8,81.543-47.575c27.669-16.029,55.425-31.906,83.167-47.806
		c10.096-5.786,20.32-11.347,30.383-17.185c13.622-7.904,27.09-16.074,40.726-23.955c12.803-7.397,25.973-14.183,38.552-21.935
		c14.941-9.208,30.394-17.5,45.529-26.358c11.027-6.454,22.423-12.301,32.742-19.915c2.132-0.886,5.117-0.35,5.878-3.521
		c2.313-0.121,4.814,0.228,6.062-2.486c6.902,1.579,12.978,4.732,18.11,9.615c1.272,1.209,2.245,3.504,3.965,3.303
		c8.404-0.976,11.541,7.488,18.071,9.998c1.639,0.631,3.241,2.273,5.397,2.163c2.521-0.129,4.337,1.25,6.495,2.245
		c9.843,4.53,18.056,11.873,28.136,15.906c1.708,0.682,3.313,1.576,4.258,3.126c2.713,4.456,5.06,9.153,11.824,6.468
		c1.441-0.571,2.495,1.829,3.864,2.415c2.831,1.213,2.5,7.298,8.036,4.788c1.381-0.625,3.388,2.786,4.471,5.002
		c0.643,1.309,0.855,4.392,3.679,0.942c1.854-2.265,4.331,1.096,5.374,2.407c2.221,2.784,5.479,2.993,8.038,4.625
		c7.766,4.953,17.387,6.885,23.571,14.391c0.372,0.447,0.805,1.085,1.28,1.157c10.165,1.546,15.622,11.618,25.333,13.955
		c0.575,0.14,1.556,0.303,1.621,0.61c1.339,6.271,5.726,5.435,10.269,4.637c1.182-0.208,2.287,0.657,2.587,2.002
		c0.252,1.138-0.716,1.735-1.246,2.549c-0.881,1.361-3.148,0.728-3.633,2.485c0.303,1.146,1.281,1.331,1.905,1.064
		c7.592-3.23,14.15-0.325,20.422,3.547c1.85,1.143,3.653,1.36,5.629,1.461c2.147,4.813,4.2,8.846,10.745,9.837
		c5.033,0.763,9.547,4.756,14.366,7.154c5.604,2.787,9.444,9.301,14.832,10.502c5.578,1.245,10.419,3.157,15.055,5.939
		c12.714,7.632,25.065,15.905,38.029,23.069c3.837,2.118,7.177,4.437,10.63,6.995C935.196,297.586,939.267,297.321,942.636,297.998z
		 M644.841,406.008c3.78,2.319,6.834,1.971,10.439-0.234c6.781-4.151,13.798-7.922,20.688-11.898
		c34.796-20.085,69.589-40.174,104.367-60.291c6.656-3.853,13.234-7.843,20.218-11.986c-1.166-0.948-1.707-1.523-2.365-1.901
		c-70.813-40.852-141.653-81.66-212.408-122.618c-2.79-1.616-4.514-1.171-6.941,0.236c-47.674,27.622-95.371,55.201-143.12,82.688
		c-3.379,1.943-4.299,2.898-0.254,5.22C479.622,310.578,636.367,400.814,644.841,406.008z"/>
        <path fill-rule="evenodd" clip-rule="evenodd" fill="#863C1D" d="M602.094,114.933c-10.32,7.614-24.167,15.913-35.194,22.367
		c-15.136,8.857-30.588,17.149-45.529,26.358c-12.579,7.751-25.749,14.537-38.552,21.935c-13.636,7.881-27.104,16.051-40.726,23.955
		c-10.063,5.838-20.287,11.398-30.383,17.185c-27.741,15.9-55.497,31.777-83.167,47.806c-27.229,15.775-54.321,31.791-81.543,47.575
		c-23.377,13.555-46.895,26.876-70.292,40.4c-27.509,15.9-54.975,31.884-82.42,47.896c-4.791,2.797-10.964,3.658-13.678,9.474
		c-2.628-1.224-4.892-2.732-8.324-1.56c-3.89,1.33-6.708-1.757-8.981-4.51c-2.432-2.948-4.449-6.24-6.648-9.379
		c1.859,0.014,3.322-0.825,4.921-1.76c20.501-11.973,41.057-23.851,61.625-35.702c27.04-15.578,54.134-31.053,81.142-46.681
		c22.372-12.946,44.578-26.177,66.987-39.054c30.24-17.375,60.708-34.358,90.881-51.843c23.374-13.542,46.624-27.286,70.184-40.508
		c22.902-12.853,45.508-26.234,68.236-39.394c22.946-13.29,45.893-26.581,68.826-39.896c6.471-3.757,12.896-7.599,19.342-11.401
		c3.765,1.302,7.099,2.788,2.947,7.13c1.072,1.681,2.203,0.926,3.267,0.56c3.578-1.239,4.714,0.374,4.585,3.751
		C599.5,112.214,602.071,112.348,602.094,114.933z"/>
        <path fill-rule="evenodd" clip-rule="evenodd" fill="#C7AB83" d="M435.703,669.817l-0.588-0.021l-0.588,0.007
		c-7.011-4.113-14.004-8.261-21.035-12.338c-22.492-13.047-288.097-166.356-308.916-178.239
		c-11.884-6.775-23.419-14.174-35.79-20.08c-0.374-0.706-0.747-1.412-1.12-2.117c0.066-5.922-1.318-11.917,0.981-17.71
		c4.583-1.182,7.451,2.459,10.672,4.304c46.587,26.703,93.008,53.688,139.508,80.542c34.446,19.893,68.938,39.695,103.41,59.538
		c14.249,9.508,93.974,54.582,112.303,65.272c0.644,0.377,1.507,0.377,2.27,0.551c0.437,0.386,0.875,0.767,1.311,1.147
		c0.268,0.238,0.575,0.34,0.932,0.304c0.73,0.997,1.788,1.092,2.897,1.04c3.603-0.146,4.828,3.711,7.791,4.636
		c1.392,0.5,2.742,0.345,3.996-0.396c13.625-7.996,27.241-16.007,40.856-24.021c1.876-0.481,3.787-0.903,4.65-2.969
		c0,0,0.046,0.076,0.046,0.073c5.255-0.84,8.671-5.746,14.034-6.36c-4.392,5.286-10.873,7.497-16.476,10.936
		c-11.887,7.292-24.265,13.79-36.098,21.164c-7.423,4.628-11.345,5.105-18.088,0.229c-2.884-2.083-4.985-1.628-6.198,2.093
		C435.12,661.521,436.066,665.691,435.703,669.817z"/>
        <path fill-rule="evenodd" clip-rule="evenodd" fill="#E8DAC0" d="M68.786,459.147c12.37,5.906,23.906,13.304,35.79,20.08
		c20.819,11.882,41.598,23.829,62.361,35.806c23.327,13.456,46.628,26.951,69.92,40.466c30.856,17.903,61.693,35.848,92.556,53.744
		c0.654,0.381,1.508,0.421,2.271,0.62c3.996,4.127,9.096,6.408,14.303,8.501c22.505,13.032,45.012,26.055,67.504,39.102
		c7.031,4.077,14.024,8.225,21.035,12.338c1.86,7.424,1.011,14.992,1.196,22.507c0.33,13.445,0.871,26.828,4.707,39.909
		c1.424,4.851,3.231,9.273,6.456,13.12c-1.109-0.331,6.225,3.223,5.194,2.737c-7.02,7.833-25.828-14.649-35.403-18.439
		c-0.347-0.115-239.132-137.635-239.132-137.635c-2.44-3.31-19.579-9.641-21.134-9.731c0.123-0.731,25.087-13.392,32.237-17.737
		c-23.083-13.223-45.235-25.917-67.398-38.596c-1.037-0.595-2.292-1.308-3.365-0.568c-6.314,4.351-14.065,6.607-18.998,12.97
		c-0.5,0.305-1,0.608-1.499,0.911c-5.183-3.5-11.491-4.094-17.003-7.563c-8.303-5.219-10.359-6.346-10.571-16.116
		C69.405,496.764,70.979,477.919,68.786,459.147z"/>
        <path fill-rule="evenodd" clip-rule="evenodd" fill="#E94C3F" d="M98.886,538.34c4.933-6.362,12.684-8.619,18.998-12.97
		c1.073-0.739,2.329-0.026,3.365,0.568c22.163,12.679,44.315,25.373,67.398,38.596c-7.15,4.346-12.676,9.064-19.296,12.142
		c-0.089-0.857-0.176-1.712-0.268-2.566c0.096-0.149,0.191-0.297,0.288-0.446c-0.086,0.158-0.17,0.318-0.256,0.476
		c-10.264-5.285-20.433-10.718-30.271-16.793c-10.553-6.518-21.337-12.665-32.062-18.896
		C104.256,536.982,101.537,537.01,98.886,538.34z"/>
        <path fill-rule="evenodd" clip-rule="evenodd" fill="#BFE5ED" d="M435.464,285.224c-4.044-2.322-3.125-3.277,0.254-5.22
		c47.749-27.486,95.446-55.065,143.12-82.688c2.428-1.407,4.151-1.853,6.941-0.236c70.755,40.958,141.595,81.766,212.408,122.618
		c0.658,0.378,1.199,0.953,2.365,1.901c-6.983,4.143-13.562,8.134-20.218,11.986c-34.778,20.117-69.571,40.206-104.367,60.291
		c-6.89,3.977-13.906,7.748-20.688,11.898c-3.605,2.205-6.659,2.553-10.439,0.234C636.367,400.814,479.622,310.578,435.464,285.224z
		"/>
        <g>
            <path fill="#CD6428" d="M949.832,437.847c0.006,0.009,0.013,0.014,0.017,0.024h0.003L949.832,437.847z"/>
            <path fill="#CD6428" d="M485.791,729.398c0.02,0.004,0.038,0.002,0.058,0.004c0-0.008,0.005-0.011,0.008-0.02
			C485.856,729.383,485.791,729.395,485.791,729.398z"/>
            <path fill="#CD6428" d="M933.203,426.969c-0.392,0.029-0.783,0.005-1.173-0.063c-0.325,4.262-1.718,8.564,0.094,12.769
			c2.888,6.694,4.827,13.881,9.429,19.709c2.394,3.029,2.34,4.688-1.289,6.767c-30.485,17.465-60.893,35.069-91.273,52.715
			c-22.634,13.147-400.469,228.911-401.255,228.739c-1.302,1.433-282.131-163.703-285.63-164.076
			c0.36,6.729-4.192,15.905-3.838,22.635c4.934,1.02,18.572,9.08,22.785,11.527c22.64,13.141,254.082,150.598,270.349,155.06
			c10.844-6.123,21.737-12.157,32.521-18.384c26.831-15.489,53.623-31.052,80.419-46.606c30.725-17.831,61.399-35.754,92.17-53.508
			c39.224-22.628,78.545-45.079,117.768-67.701c43.518-25.099,86.958-50.325,130.452-75.465
			c25.269-14.604,50.569-29.16,75.867-43.72c2.062-1.187,4.338-2.083,5.238-4.58C975.981,454.44,938.41,431.126,933.203,426.969z"/>
            <path fill="#CD6428" d="M260.051,639.759c-0.002,0.015,0,0.022,0,0.037c0.014,0,0.026,0.006,0.04,0.006L260.051,639.759z"/>
        </g>
        <path fill-rule="evenodd" clip-rule="evenodd" fill="#9B4923" d="M449.737,656.654c3.109-7.734,0.673-15.861,1.688-23.744
		c2.558-0.353,3.936-2.597,6.01-3.753c35.923-20.035,71.408-40.831,106.897-61.623c26.034-15.254,52.416-29.91,78.555-44.985
		c40.098-23.13,80.097-46.434,120.185-69.586c29.76-17.184,59.615-34.205,89.385-51.374c32.713-18.864,65.416-37.75,98.04-56.764
		c11.473-6.686,23.338-12.735,34.124-20.568c0.681-0.333,1.366-0.667,2.048-1.001c0.206,0.233,0.361,0.496,0.474,0.785
		c-0.053,8.02-0.107,20.946-0.161,28.968c-18.868,10.972-519.62,295.254-533.245,303.25
		C452.482,656.999,451.132,657.154,449.737,656.654z"/>
        <path fill-rule="evenodd" clip-rule="evenodd" fill="#CF3029" d="M92.587,590.888c0.654-9.187,0.65-18.372,0.02-27.559
		c0.125-5.316,0.248-10.634,0.374-15.956c1.348-0.938,1.229-2.409,1.358-3.787c0.419,0.136,0.704-0.003,0.855-0.416
		c2.754-0.078,2.113-1.997,1.979-3.643l0.214-0.276c0.499-0.303,0.999-0.606,1.499-0.911c2.651-1.33,5.37-1.357,7.896,0.109
		c10.725,6.231,21.509,12.379,32.062,18.896c9.837,6.075,20.007,11.508,30.271,16.793l-0.032-0.029
		c0.092,0.854,0.179,1.709,0.268,2.564c-0.575,0.749-1.15,1.493-1.729,2.24c-1.818-0.058-2.193,1.164-2.317,2.611
		c-0.122,0.731-0.247,1.466-0.369,2.197c-3.464,3.217-2.979,7.48-3.092,11.594c-0.334,12.154,0.278,39.457,0.278,41.044
		c-0.007,21.082-0.011,42.159-0.038,63.241c0,0.744-0.185,1.485-0.433,3.354c-9.051-14.878-17.559-28.87-26.076-42.855
		c-3.51-5.769-7.233-11.418-10.496-17.323c-2.04-3.701-3.572-4.313-6.883-1.146c-6.897,6.583-14.183,12.753-21.322,19.083
		c-0.861,0.764-1.791,1.45-3.795,3.062c0-4.361-0.001-7.639,0-10.911c0.005-19.095,0.025-38.188,0-57.277
		C93.075,594.021,92.759,592.456,92.587,590.888z"/>
        <g>
            <polygon fill-rule="evenodd" clip-rule="evenodd" fill="#BFE5ED" points="650.111,406.72 434.44,280.839 584.121,193.256 
			803.817,319.963 		"/>
            <path fill-rule="evenodd" clip-rule="evenodd" fill="#CD6428" d="M645.873,311.899c6.041,3.5,12.075,7.002,18.113,10.506
			c0.436,0.254,0.87,0.506,1.302,0.764c1.68,1.02,1.66,1.018,0.218,2.241c-3.844,3.25-8.807,5.862-14.255,8.155
			c-3.721,1.56-7.591,3-11.514,4.359c-1.846,0.641-3.991,0.958-6.007,1.42c-7.741,1.757-15.633,2.236-23.665,2.027
			c-4.89-0.125-9.6-0.6-14.139-1.424c-4.405-0.806-8.61-1.877-12.571-3.231c-6.521-2.225-12.136-5.069-17.087-8.313
			c-3.589-2.349-6.626-4.945-9.05-7.816c-2.752-3.251-4.777-6.647-5.969-10.228c-1.289-3.874-1.612-7.821-0.863-11.844
			c0.7-3.763,2.127-7.46,4.672-11.017c2.095-2.924,4.413-5.813,7.799-8.385c2.511-1.906,4.829-3.937,7.729-5.63
			c5.57-3.26,12.038-5.824,19.077-7.93c5.356-1.605,10.908-2.737,16.65-3.467c6.817-0.864,13.672-1.197,20.545-0.892
			c4.94,0.218,9.791,0.643,14.428,1.47c7.993,1.427,15.532,3.393,21.91,6.51c2.294,1.127,4.866,2.103,6.891,3.373
			c4.933,3.087,9.29,6.419,12.316,10.343c2.885,3.751,4.882,7.639,5.571,11.8c0.153,0.932,0.27,1.865,0.291,2.806
			c0.015,1.035-0.507,1.367-2.288,1.413c-4.5,0.115-8.984,0.203-13.473,0.263c-2.041,0.025-2.137-0.015-2.237-1.217
			c-0.262-3.25-1.505-6.327-3.479-9.299c-1.327-1.997-3.359-3.726-5.383-5.473c-2.828-2.44-6.571-4.369-10.522-6.12
			c-4.464-1.983-9.673-3.246-15.196-4.166c-7.023-1.171-14.227-1.353-21.551-0.602c-4.982,0.51-9.862,1.396-14.505,2.813
			c-5.13,1.561-9.946,3.385-14.041,5.739c-7.071,4.058-12.091,8.811-14.755,14.314c-1.804,3.733-2.342,7.473-1.615,11.17
			c0.905,4.564,3.42,8.776,7.978,12.501c4.772,3.895,10.737,6.98,17.985,9.265c6.299,1.982,13.218,2.872,20.599,2.911
			c4.282,0.022,8.507-0.295,12.554-1.274c2.646-0.644,5.19-1.484,7.717-2.302c1.516-0.491,2.947-1.079,4.37-1.669
			c1.201-0.5,1.355-0.867,0.719-1.564c-0.324-0.344-0.778-0.653-1.261-0.925c-4.537-2.572-9.12-5.113-13.638-7.686
			c-4.372-2.487-8.704-4.996-13.039-7.498c-0.293-0.165-0.532-0.361-0.785-0.546c-0.609-0.434-0.591-0.861,0.171-1.301
			c3.473-1.997,6.92-4.013,10.425-5.997c1.031-0.584,1.542-0.563,2.582-0.083c0.375,0.173,0.697,0.377,1.036,0.572
			c6.415,3.719,12.833,7.44,19.244,11.163C645.877,311.895,645.874,311.898,645.873,311.899z"/>
        </g>
    </g>
</svg>
