<?xml version="1.0" encoding="utf-8"?>
<!-- Generator: Adobe Illustrator 16.0.0, SVG Export Plug-In . SVG Version: 6.00 Build 0)  -->
<!DOCTYPE svg PUBLIC "-//W3C//DTD SVG 1.1//EN" "http://www.w3.org/Graphics/SVG/1.1/DTD/svg11.dtd">
<svg version="1.1" xmlns="http://www.w3.org/2000/svg" xmlns:xlink="http://www.w3.org/1999/xlink" x="0px" y="0px" width="1000px"
	 height="1000px" viewBox="0 0 1000 1000" enable-background="new 0 0 1000 1000" xml:space="preserve">
<g id="Layer_1">
	<path opacity="0.3" fill="#010101" enable-background="new    " d="M506.923,887.086c178.551,0,323.328,22.359,323.328,49.955
		s-144.777,49.955-323.328,49.955c-178.55,0-323.31-22.359-323.31-49.955S328.373,887.086,506.923,887.086z"/>
	<g id="Layer_1_1_" display="none">
		<g display="inline">
			<g>
				<path opacity="0.2" fill="#010101" enable-background="new    " d="M883.458,650.888H122.486c0,0-103.073-15.01-108.374-120.368
					c0,0-36.849-156.295,149.288-184.388c0,0-73.77-219.514,166.818-309.066c0,0,201.926-59.704,300.292,151.029
					c0,0,87.796-64.99,187.869-1.749c0,0,87.813,59.68,59.729,173.843c0,0,112.384,15.799,115.896,151.029
					C994.02,511.201,1004.671,604.444,883.458,650.888z"/>
				<path fill="#FFFFFF" d="M878.026,634.626H117.071c0,0-103.09-15.025-108.35-120.368c0,0-36.864-156.289,149.264-184.371
					c0,0-73.746-219.506,166.819-309.075c0,0,201.942-59.695,300.291,151.029c0,0,87.78-64.973,187.901-1.748
					c0,0,87.765,59.696,59.697,173.86c0,0,112.383,15.806,115.895,151.004C988.588,494.924,999.239,588.199,878.026,634.626z"/>
				<path opacity="0.2" fill="#010101" enable-background="new    " d="M159.05,623.438h675.103c0,0,91.455-13.334,96.139-106.789
					c0,0,32.717-138.662-132.434-163.573c0,0,65.437-194.74-148.013-274.217c0,0-179.161-52.972-266.411,133.995
					c0,0-77.885-57.648-166.688-1.562c0,0-77.908,52.964-52.964,154.241c0,0-99.715,14.042-102.829,133.961
					C60.969,499.494,51.513,582.232,159.05,623.438z"/>
				<path fill="#FFFFFF" d="M163.88,609.047H839c0,0,91.421-13.058,96.104-104.479c0,0,32.701-135.636-132.434-160.012
					c0,0,65.436-190.495-147.995-268.226c0,0-179.145-51.809-266.412,131.06c0,0-77.917-56.396-166.721-1.512
					c0,0-77.893,51.809-52.98,150.882c0,0-99.715,13.708-102.813,131.061C65.783,487.801,56.31,568.751,163.88,609.047z"/>
				<path fill="#E4E6ED" d="M337.293,675.508c25,0,45.271,20.262,45.271,45.272c0,25.01-20.271,45.271-45.271,45.271
					c-25.002,0-45.281-20.261-45.281-45.271C292.012,695.77,312.291,675.508,337.293,675.508z"/>
				<path fill="#C2C4CE" d="M356.708,683.247c9.726,7.563,16.035,19.4,16.035,32.687c0,22.831-18.53,41.369-41.361,41.369
					c-7.408,0-14.351-1.951-20.384-5.382c6.992,5.431,15.773,8.666,25.328,8.666c22.847,0,41.345-18.521,41.345-41.337
					C377.686,703.818,369.246,690.338,356.708,683.247z"/>
				<path fill="#E4E6ED" d="M501.932,716.665c25.012,0,45.272,20.278,45.272,45.288c0,24.994-20.262,45.271-45.272,45.271
					c-25.01,0-45.279-20.276-45.279-45.271C456.651,736.943,476.921,716.665,501.932,716.665z"/>
				<path fill="#C2C4CE" d="M521.348,724.39c9.741,7.609,16.019,19.448,16.019,32.719c0,22.831-18.538,41.353-41.369,41.353
					c-7.407,0-14.334-1.936-20.359-5.35c6.992,5.415,15.767,8.65,25.32,8.65c22.863,0,41.351-18.538,41.351-41.337
					C542.308,744.943,533.854,731.48,521.348,724.39z"/>
				<path fill="#E4E6ED" d="M666.514,689.248c24.994,0,45.272,20.278,45.272,45.271c0,24.994-20.278,45.272-45.272,45.272
					c-24.992,0-45.288-20.278-45.288-45.272C621.226,709.526,641.521,689.248,666.514,689.248z"/>
				<path fill="#C2C4CE" d="M685.962,696.956c9.74,7.578,16.019,19.416,16.019,32.687c0,22.848-18.507,41.354-41.368,41.354
					c-7.399,0-14.344-1.936-20.359-5.334c6.976,5.398,15.789,8.651,25.303,8.651c22.896,0,41.386-18.508,41.386-41.337
					C706.924,717.527,698.469,704.046,685.962,696.956z"/>
			</g>
			<path opacity="0.3" fill="#010101" enable-background="new    " d="M506.923,887.086c178.551,0,323.328,22.359,323.328,49.955
				s-144.777,49.955-323.328,49.955c-178.55,0-323.31-22.359-323.31-49.955S328.373,887.086,506.923,887.086z"/>
		</g>
	</g>
</g>
<g id="Layer_4">
	<path fill="#BC5858" d="M192.8,677.609l-4.655,2.438l17.181,36.713l-7.193,3.631l-16.528-37.743l-5.454,3.232l17.596,36.551
		l-6.526,3.498l-16.392-36.896l-4.551,2.7l-7.091-14.41l4.477-2.855l-19.141-38.908l-4.28,3.268l-7.117-14.459l4.207-3.429
		l-16.323-33.181l4.72-4.419l16.521,33.598l5.043-4.104l-16.722-34.023l4.962-4.647l16.93,34.466l4.632-3.772l7.538,15.353
		l-4.714,3.598l19.955,41.29l4.978-3.264L192.8,677.609z M174.265,667.715l-19.605-39.893l-5.131,3.915l19.37,39.396
		L174.265,667.715z"/>
	<path fill="#BC5858" d="M258.25,690.75L230.433,704L223,688.75l10.26-6.117l-57.536-114.777L167.5,591l-9.026-19.645l8.776-22.605
		l6.5-5.5l66.607,135.602l9.408-5.017L258.25,690.75z"/>
	<path fill="#BC5858" d="M299.904,621.312c6.695,13.88,9.923,24.494,9.702,31.809c-0.226,7.244-3.742,12.513-10.451,15.813
		l-21.753,10.702L200.057,520.27l17.99-15.612c5.814-5.043,11.719-5.978,17.659-2.698c6.004,3.32,12.303,11.777,18.843,25.336
		L299.904,621.312z M291.364,629.195l-46.9-97.076c-2.562-5.304-5.278-8.985-8.13-11.03c-2.845-2.036-5.35-2.157-7.516-0.375
		l-12.37,10.164l61.617,127.134l13.567-7.15c2.76-1.454,4.142-3.911,4.125-7.384C295.746,640.001,294.279,635.234,291.364,629.195z"
		/>
	<path fill="#BC5858" d="M393.052,623.71l-25.84,13.367c-3.03,1.494-6.289-1.397-10.49-4.396c-4.178-2.981-8.38-8.896-12.636-17.76
		l-64.969-135.419l-16.604,13.651l-9.125-18.963l26.26-22.788l74.847,156.268c1.33,2.771,2.639,4.582,3.928,5.416
		c1.292,0.844,23.186-11.764,23.186-11.764L393.052,623.71z"/>
	<path fill="#BC5858" d="M445.395,536.849c7.825,16.583,11.168,29.8,10.071,39.601c-1.092,9.68-6.702,16.961-16.647,21.854
		l-20.392,10.028l-12.845-16.984l23.777-11.176c4.137-2.18,7.104-9.698,7.478-14.166c0.38-4.479-1.188-10.453-4.71-17.901
		l-14.345-30.329c-3.071-6.488-6.59-10.977-10.542-13.435c-3.929-2.452-7.62-2.547-11.062-0.304l-16.281,10.607L368.7,499.619
		l17.777-16.127c3.172-2.195,2.754-6.249,3.077-11.694c0.327-5.478-1.053-11.49-4.137-18.014l-11.515-24.342
		c-3.563-7.533-7.034-12.276-10.392-14.216c-3.345-1.929-6.895-1.345-10.63,1.726l-18.28,15.018l-10.529-19.301l16.644-16.229
		c16.92-14.679,33.186-6.466,48.095,25.12l9.004,19.083c7.324,15.52,9.829,29.252,7.562,41.067
		c10.451,2.463,19.875,12.45,28.115,29.91L445.395,536.849z"/>
	<path fill="#BC5858" d="M484.256,312.081l-48.044,39.557l36.558,78.182l42.647-30.999l11.334,27.193l-42.879,27.551l47.565,101.728
		l-17.348,8.535l-104.48-222.867l60.98-56.821L484.256,312.081z"/>
	<path fill="#BC5858" d="M544.351,310.227c-9.269-20.14-12.954-38.488-11.015-55.231c1.982-17.042,8.406-30.381,19.466-39.982
		l8.736-7.582c11.576-10.042,24.108-12.695,37.539-7.705c13.649,5.083,25.641,18.842,35.772,41.181l66.116,145.761
		c20.593,45.402,12.763,76.904-21.585,93.797L648.2,495.797l-12.796-27.849l33.592-17.727c6.907-3.643,11.294-9.462,13.09-17.477
		c1.818-8.085,0.895-16.203-2.782-24.281l-19.46-42.729l-27.002,16.714c-15.123,9.358-28.136,11.38-39.296,6.333
		c-10.999-4.973-21.152-17.668-30.594-38.162L544.351,310.227z M617.083,355.508l29.313-19.292l-38.603-84.778
		c-3.866-8.494-9.012-14.167-15.387-17.005c-6.323-2.809-12.578-1.657-18.736,3.404l-6.323,5.197
		c-5.99,4.923-9.384,11.577-10.247,19.954c-0.854,8.313,0.571,16.474,4.269,24.522l25.544,55.674
		C594.477,359.664,604.446,363.823,617.083,355.508z"/>
	<path fill="#BC5858" d="M852.792,94.2l68.098,270.076l-37.597,17.881l-70.984-106.074l31.376,125.563L809.8,418.317L682.64,221.608
		l26.998-20.214l97.126,160.671L769.6,210.976l23.817-16.636l86.652,128.107l-60.228-203.575L852.792,94.2z"/>
	<g>
		<g>
			<path fill="#2F312E" d="M191.2,678.623l-5.469,3.164l17.625,35.939l-6.313,3.105l-17.429-35.508l-5.969,3.456l17.236,35.084
				l-6.019,2.964l-17.051-34.674l-4.995,2.89l-7.056-14.337l4.926-3.041l-19.056-38.749l-4.746,3.433l-7.101-14.425l4.678-3.589
				l-16.29-33.125l5.281-4.584l16.474,33.527l5.594-4.285l-16.658-33.936l5.539-4.806l16.848,34.355l5.127-3.93l7.486,15.277
				l-5.2,3.764l19.704,40.174l5.398-3.323L191.2,678.623z M172.332,670.488l-19.481-39.687l-5.675,4.104l19.266,39.216
				L172.332,670.488z"/>
			<path fill="#2F312E" d="M254.72,692.445l-29.6,14.57l-7.614-15.578l11.415-6.02l-56.945-116.682l-5.746,20.019l-8.327-17.023
				l4.98-19.32l7.613-6.604l66.089,135.57l10.142-5.353L254.72,692.445z"/>
			<path fill="#2F312E" d="M295.553,625.072c6.7,13.886,9.93,24.506,9.708,31.826c-0.226,7.246-3.746,12.521-10.462,15.826
				l-21.775,10.716l-77.401-159.434l18.007-15.629c5.82-5.047,11.731-5.985,17.675-2.704c6.011,3.319,12.314,11.778,18.86,25.344
				L295.553,625.072z M287.003,632.965L240.07,535.85c-2.564-5.306-5.282-8.988-8.137-11.035c-2.847-2.036-5.354-2.157-7.523-0.374
				l-12.381,10.177l61.661,127.186l13.581-7.159c2.763-1.456,4.146-3.916,4.129-7.389
				C291.387,643.776,289.921,639.007,287.003,632.965z"/>
			<path fill="#2F312E" d="M385.327,628.176l-23.331,11.479c-3.033,1.494-6.651,0.727-10.857-2.272
				c-4.182-2.98-8.389-8.897-12.648-17.768l-65.029-135.491l-16.626,13.667l-9.133-18.971l26.294-22.817l74.915,156.352
				c1.332,2.771,2.642,4.586,3.933,5.42c1.293,0.844,2.784,0.814,4.484-0.08l18.369-9.687L385.327,628.176z"/>
			<path fill="#2F312E" d="M440.835,542.601c7.832,16.588,11.176,29.814,10.077,39.62c-1.093,9.688-6.71,16.979-16.666,21.879
				l-20.414,10.047l-9.976-20.989l21.618-11.403c4.141-2.181,6.417-5.503,6.79-9.974c0.381-4.482-1.188-10.46-4.713-17.91
				l-14.355-30.343c-3.073-6.492-6.596-10.98-10.55-13.441c-3.934-2.45-7.628-2.543-11.073-0.295l-16.299,10.624l-10.143-21.346
				l14.551-10.072c3.176-2.197,4.941-6.015,5.264-11.464c0.327-5.481-1.053-11.499-4.141-18.023l-11.524-24.354
				c-3.565-7.537-7.04-12.28-10.401-14.22c-3.347-1.93-6.902-1.341-10.642,1.733l-18.3,15.037l-10.179-21.41l16.303-14.146
				c16.939-14.7,33.221-6.489,48.142,25.109l9.012,19.091c7.331,15.526,9.836,29.269,7.565,41.094
				c10.461,2.458,19.895,12.446,28.141,29.916L440.835,542.601z"/>
			<path fill="#2F312E" d="M475.498,317.106l-48.143,39.624l36.608,78.25l44.86-30.801l11.682,25.148l-45.422,29.42l47.63,101.813
				l-17.381,8.554L400.706,346.057l62.901-54.58L475.498,317.106z"/>
			<path fill="#2F312E" d="M534.772,317.701c-9.283-20.161-12.972-38.528-11.024-55.295c1.99-17.066,8.43-30.427,19.516-40.047
				l8.756-7.598c11.602-10.063,24.161-12.729,37.618-7.744c13.677,5.081,25.689,18.848,35.837,41.209l66.22,145.899
				c20.624,45.446,12.771,76.993-21.65,93.934l-31.249,15.376l-12.815-27.878l33.666-17.773c6.921-3.654,11.317-9.485,13.121-17.511
				c1.824-8.096,0.898-16.222-2.782-24.309l-19.493-42.77L623.43,389.95c-15.156,9.382-28.195,11.416-39.377,6.37
				c-11.021-4.97-21.192-17.674-30.648-38.189L534.772,317.701z M607.646,362.985l29.378-19.338l-38.663-84.859
				c-3.874-8.501-9.027-14.179-15.415-17.016c-6.335-2.808-12.604-1.649-18.775,3.422l-6.338,5.209
				c-6.004,4.933-9.405,11.598-10.272,19.986c-0.857,8.326,0.569,16.496,4.272,24.551l25.584,55.728
				C584.992,367.165,594.981,371.321,607.646,362.985z"/>
			<path fill="#2F312E" d="M839.906,104.071l68.795,266.539l-39.977,19.672l-69.476-103.955l29.735,123.514l-34.002,16.733
				L669.216,231.887l27.085-20.28l97.359,160.865l-37.226-151.328l23.892-16.692l86.865,128.25l-60.339-203.881L839.906,104.071z"/>
		</g>
	</g>
</g>
</svg>
