<?xml version="1.0" encoding="utf-8"?>
<!-- Generator: Adobe Illustrator 16.0.0, SVG Export Plug-In . SVG Version: 6.00 Build 0)  -->
<!DOCTYPE svg PUBLIC "-//W3C//DTD SVG 1.1//EN" "http://www.w3.org/Graphics/SVG/1.1/DTD/svg11.dtd">
<svg version="1.1" xmlns="http://www.w3.org/2000/svg" xmlns:xlink="http://www.w3.org/1999/xlink" x="0px" y="0px" width="1000px"
	 height="1000px" viewBox="0 0 1000 1000" enable-background="new 0 0 1000 1000" xml:space="preserve">
<g id="Layer_1">
	<path opacity="0.3" fill="#010101" enable-background="new    " d="M506.923,887.086c178.551,0,323.328,22.359,323.328,49.955
		s-144.777,49.955-323.328,49.955c-178.55,0-323.31-22.359-323.31-49.955S328.373,887.086,506.923,887.086z"/>
	<g id="Layer_1_1_" display="none">
		<g display="inline">
			<g>
				<path opacity="0.2" fill="#010101" enable-background="new    " d="M883.458,650.888H122.486c0,0-103.073-15.01-108.374-120.368
					c0,0-36.849-156.295,149.288-184.388c0,0-73.77-219.514,166.818-309.066c0,0,201.926-59.704,300.292,151.029
					c0,0,87.796-64.99,187.869-1.749c0,0,87.813,59.68,59.729,173.843c0,0,112.384,15.799,115.896,151.029
					C994.02,511.201,1004.671,604.444,883.458,650.888z"/>
				<path fill="#FFFFFF" d="M878.026,634.626H117.071c0,0-103.09-15.025-108.35-120.368c0,0-36.864-156.289,149.264-184.371
					c0,0-73.746-219.506,166.819-309.075c0,0,201.942-59.695,300.291,151.029c0,0,87.78-64.973,187.901-1.748
					c0,0,87.765,59.696,59.697,173.86c0,0,112.383,15.806,115.895,151.004C988.588,494.924,999.239,588.199,878.026,634.626z"/>
				<path opacity="0.2" fill="#010101" enable-background="new    " d="M159.05,623.438h675.103c0,0,91.455-13.334,96.139-106.789
					c0,0,32.717-138.662-132.434-163.573c0,0,65.437-194.74-148.013-274.217c0,0-179.161-52.972-266.411,133.995
					c0,0-77.885-57.648-166.688-1.562c0,0-77.908,52.964-52.964,154.241c0,0-99.715,14.042-102.829,133.961
					C60.969,499.494,51.513,582.232,159.05,623.438z"/>
				<path fill="#FFFFFF" d="M163.88,609.047H839c0,0,91.421-13.058,96.104-104.479c0,0,32.701-135.636-132.434-160.012
					c0,0,65.436-190.495-147.995-268.226c0,0-179.145-51.809-266.412,131.06c0,0-77.917-56.396-166.721-1.512
					c0,0-77.893,51.809-52.98,150.882c0,0-99.715,13.708-102.813,131.061C65.783,487.801,56.31,568.751,163.88,609.047z"/>
				<path fill="#E4E6ED" d="M337.293,675.508c25,0,45.271,20.262,45.271,45.272c0,25.01-20.271,45.271-45.271,45.271
					c-25.002,0-45.281-20.261-45.281-45.271C292.012,695.77,312.291,675.508,337.293,675.508z"/>
				<path fill="#C2C4CE" d="M356.708,683.247c9.726,7.563,16.035,19.4,16.035,32.687c0,22.831-18.53,41.369-41.361,41.369
					c-7.408,0-14.351-1.951-20.384-5.382c6.992,5.431,15.773,8.666,25.328,8.666c22.847,0,41.345-18.521,41.345-41.337
					C377.686,703.818,369.246,690.338,356.708,683.247z"/>
				<path fill="#E4E6ED" d="M501.932,716.665c25.012,0,45.272,20.278,45.272,45.288c0,24.994-20.262,45.271-45.272,45.271
					c-25.01,0-45.279-20.276-45.279-45.271C456.651,736.943,476.921,716.665,501.932,716.665z"/>
				<path fill="#C2C4CE" d="M521.348,724.39c9.741,7.609,16.019,19.448,16.019,32.719c0,22.831-18.538,41.353-41.369,41.353
					c-7.407,0-14.334-1.936-20.359-5.35c6.992,5.415,15.767,8.65,25.32,8.65c22.863,0,41.351-18.538,41.351-41.337
					C542.308,744.943,533.854,731.48,521.348,724.39z"/>
				<path fill="#E4E6ED" d="M666.514,689.248c24.994,0,45.272,20.278,45.272,45.271c0,24.994-20.278,45.272-45.272,45.272
					c-24.992,0-45.288-20.278-45.288-45.272C621.226,709.526,641.521,689.248,666.514,689.248z"/>
				<path fill="#C2C4CE" d="M685.962,696.956c9.74,7.578,16.019,19.416,16.019,32.687c0,22.848-18.507,41.354-41.368,41.354
					c-7.399,0-14.344-1.936-20.359-5.334c6.976,5.398,15.789,8.651,25.303,8.651c22.896,0,41.386-18.508,41.386-41.337
					C706.924,717.527,698.469,704.046,685.962,696.956z"/>
			</g>
			<path opacity="0.3" fill="#010101" enable-background="new    " d="M506.923,887.086c178.551,0,323.328,22.359,323.328,49.955
				s-144.777,49.955-323.328,49.955c-178.55,0-323.31-22.359-323.31-49.955S328.373,887.086,506.923,887.086z"/>
		</g>
	</g>
</g>
<g id="Layer_4">
	<path fill="#848181" d="M618.078,125.114l17.896-10.785c-0.626-6.339-1.783-12.711-3.517-19.062
		c-0.381-1.393-0.796-2.767-1.222-4.132l-20.681-2.935c1.604,3.833,2.982,7.812,4.108,11.929
		C616.942,108.474,618.043,116.86,618.078,125.114z"/>
	<path fill="#848181" d="M453.805,57.738l-20.218-5.01c-5.025,6.121-9.394,12.746-13.052,19.748l12.509,16.644
		C437.827,77.438,444.873,66.749,453.805,57.738z"/>
	<path fill="#848181" d="M521.675,29.361l-10.77-17.87c-6.339,0.625-12.711,1.783-19.063,3.518c-1.392,0.38-2.764,0.793-4.129,1.221
		l-2.928,20.632c3.818-1.597,7.777-2.967,11.874-4.086C505.013,30.493,513.408,29.393,521.675,29.361z"/>
	<path fill="#848181" d="M589.709,57.287l5.026-20.276c-6.121-5.025-12.748-9.395-19.749-13.051l-16.692,12.545
		C569.992,41.289,580.691,48.343,589.709,57.287z"/>
	<path fill="#848181" d="M467.756,274.17l14.705-8.862c-0.515-5.208-1.466-10.444-2.89-15.662c-0.313-1.144-0.653-2.274-1.003-3.396
		l-16.994-2.412c1.317,3.149,2.451,6.419,3.376,9.802C466.823,260.497,467.728,267.388,467.756,274.17z"/>
	<path fill="#848181" d="M309.836,274.748l-14.645,8.827c0.514,5.209,1.465,10.444,2.891,15.663
		c0.311,1.143,0.652,2.273,1.001,3.395l16.922,2.4c-1.315-3.141-2.444-6.4-3.364-9.772
		C310.77,288.411,309.867,281.526,309.836,274.748z"/>
	<path fill="#848181" d="M332.773,218.808l-16.613-4.116c-4.13,5.03-7.719,10.473-10.726,16.227l10.279,13.676
		C319.644,234.995,325.434,226.212,332.773,218.808z"/>
	<path fill="#848181" d="M417.017,364.183l2.407-16.963c-3.155,1.322-6.429,2.459-9.818,3.385
		c-6.841,1.868-13.716,2.773-20.486,2.804l8.84,14.667c5.208-0.514,10.443-1.465,15.662-2.891
		C414.766,364.874,415.896,364.533,417.017,364.183z"/>
	<path fill="#848181" d="M388.542,195.491l-8.849-14.684c-5.209,0.514-10.444,1.465-15.665,2.891
		c-1.143,0.312-2.271,0.651-3.393,1.003l-2.406,16.953c3.137-1.313,6.391-2.438,9.756-3.358
		C374.851,196.42,381.75,195.516,388.542,195.491z"/>
	<path fill="#848181" d="M333.19,330.508l-4.116,16.601c5.033,4.128,10.475,7.719,16.23,10.724l13.681-10.283
		C349.385,343.627,340.597,337.843,333.19,330.508z"/>
	<path fill="#848181" d="M444.843,330.066l16.65,4.126c4.129-5.03,7.719-10.475,10.724-16.229l-10.313-13.721
		C457.978,313.854,452.188,322.65,444.843,330.066z"/>
	<path fill="#848181" d="M444.446,218.437l4.13-16.661c-5.03-4.129-10.475-7.72-16.228-10.725l-13.716,10.309
		C428.244,205.292,437.036,211.088,444.446,218.437z"/>
	<path fill="#212120" d="M419.423,347.22c9.735-4.083,18.305-9.969,25.419-17.154c7.345-7.416,13.135-16.212,17.061-25.824
		c3.844-9.417,5.896-19.615,5.853-30.072c-0.029-6.783-0.933-13.673-2.806-20.53c-0.925-3.382-2.059-6.652-3.376-9.802
		c-4.077-9.723-9.955-18.29-17.128-25.402c-7.41-7.349-16.202-13.145-25.814-17.077c-9.42-3.853-19.625-5.91-30.09-5.87
		c-6.792,0.025-13.691,0.93-20.557,2.806c-3.365,0.92-6.619,2.045-9.756,3.358c-9.746,4.077-18.329,9.965-25.457,17.153
		c-7.339,7.404-13.129,16.188-17.06,25.787c-3.864,9.439-5.923,19.667-5.877,30.154c0.031,6.778,0.934,13.663,2.806,20.513
		c0.92,3.372,2.049,6.631,3.364,9.772c4.085,9.756,9.983,18.347,17.185,25.475c7.407,7.335,16.194,13.119,25.794,17.042
		c9.434,3.856,19.655,5.91,30.135,5.86c6.77-0.031,13.645-0.936,20.486-2.804C412.994,349.68,416.269,348.542,419.423,347.22z
		 M341.756,287.304c-7.103-25.996,8.213-52.829,34.208-59.932c25.996-7.104,52.829,8.212,59.933,34.207
		c7.104,25.996-8.212,52.83-34.208,59.931C375.693,328.615,348.858,313.3,341.756,287.304z"/>
	<path fill="#848181" d="M435.896,261.58c-7.104-25.995-33.937-41.312-59.933-34.207c-25.995,7.103-41.311,33.936-34.208,59.932
		c7.102,25.996,33.937,41.311,59.932,34.206C427.684,314.409,443,287.575,435.896,261.58z M364.456,281.101
		c-3.678-13.458,4.252-27.351,17.711-31.028c13.46-3.678,27.352,4.251,31.03,17.709c3.678,13.459-4.252,27.351-17.712,31.03
		C382.027,302.49,368.133,294.56,364.456,281.101z"/>
	<path opacity="0.4" fill="#FFFFFF" d="M478.568,246.25l-8.683-1.232l-8.311-1.18c-2.516-6.878-7.762-14.197-7.762-14.197
		l-44.152,30.408c2.796,4.071,4.436,8.999,4.436,14.31c0,13.978-11.33,25.307-25.308,25.307c-8.627,0-16.242-4.319-20.811-10.91
		l-44.227,30.46c0,0,1.26,1.814,2.965,4.042c0.08,0.105,3.564,4.623,6.474,7.249l-4.116,16.601l9.327,6.735l142.601-98.189
		L478.568,246.25z"/>
	<path fill="#848181" d="M669.741,303.539l13.642-8.223c-0.478-4.831-1.36-9.688-2.683-14.529c-0.289-1.061-0.605-2.109-0.932-3.149
		l-15.763-2.237c1.223,2.922,2.274,5.955,3.132,9.092C668.875,290.854,669.714,297.246,669.741,303.539z"/>
	<path fill="#848181" d="M523.241,304.074l-13.585,8.188c0.477,4.833,1.359,9.689,2.683,14.53c0.288,1.06,0.604,2.109,0.931,3.149
		l15.697,2.227c-1.22-2.914-2.266-5.937-3.12-9.065C524.109,316.749,523.272,310.361,523.241,304.074z"/>
	<path fill="#848181" d="M544.521,252.18l-15.411-3.818c-3.83,4.666-7.16,9.715-9.948,15.053l9.535,12.688
		C532.341,267.196,537.712,259.049,544.521,252.18z"/>
	<path fill="#848181" d="M622.671,387.041l2.232-15.736c-2.926,1.227-5.963,2.282-9.107,3.14
		c-6.346,1.733-12.724,2.572-19.003,2.602l8.201,13.605c4.829-0.477,9.686-1.359,14.528-2.681
		C620.585,387.68,621.63,387.366,622.671,387.041z"/>
	<path fill="#848181" d="M596.257,230.549l-8.21-13.621c-4.833,0.478-9.689,1.359-14.53,2.681c-1.061,0.29-2.106,0.605-3.148,0.932
		l-2.232,15.727c2.911-1.217,5.928-2.262,9.05-3.115C583.555,231.412,589.954,230.573,596.257,230.549z"/>
	<path fill="#5E5A5A" d="M544.908,355.801l-3.819,15.4c4.67,3.83,9.718,7.161,15.057,9.949l12.69-9.54
		C559.932,367.971,551.779,362.604,544.908,355.801z"/>
	<path fill="#848181" d="M648.483,355.391l15.446,3.828c3.83-4.667,7.162-9.716,9.949-15.055l-9.567-12.729
		C660.669,340.352,655.299,348.511,648.483,355.391z"/>
	<path fill="#848181" d="M648.116,251.835l3.83-15.456c-4.666-3.831-9.716-7.161-15.052-9.949l-12.727,9.563
		C633.086,239.642,641.242,245.019,648.116,251.835z"/>
	<path fill="#212120" d="M624.903,371.304c9.03-3.788,16.979-9.248,23.58-15.914c6.815-6.879,12.186-15.039,15.828-23.956
		c3.567-8.736,5.469-18.196,5.43-27.896c-0.027-6.293-0.866-12.686-2.604-19.046c-0.857-3.137-1.909-6.17-3.132-9.092
		c-3.782-9.02-9.234-16.967-15.89-23.565c-6.874-6.816-15.03-12.194-23.948-15.841c-8.737-3.574-18.205-5.482-27.911-5.445
		c-6.303,0.024-12.702,0.863-19.071,2.604c-3.122,0.853-6.139,1.897-9.05,3.115c-9.04,3.782-17.004,9.244-23.615,15.913
		c-6.809,6.869-12.18,15.017-15.824,23.922c-3.586,8.755-5.497,18.244-5.455,27.972c0.031,6.288,0.868,12.675,2.605,19.029
		c0.854,3.128,1.9,6.151,3.12,9.065c3.79,9.05,9.26,17.019,15.941,23.633c6.871,6.804,15.023,12.17,23.928,15.809
		c8.752,3.578,18.234,5.484,27.957,5.437c6.279-0.03,12.657-0.869,19.003-2.602C618.94,373.586,621.978,372.531,624.903,371.304z
		 M552.855,315.722c-6.591-24.116,7.618-49.008,31.731-55.597c24.116-6.59,49.007,7.618,55.6,31.733
		c6.59,24.115-7.62,49.007-31.735,55.596C584.336,354.044,559.442,339.838,552.855,315.722z"/>
	<path fill="#848181" d="M640.187,291.858c-6.593-24.115-31.483-38.323-55.6-31.733c-24.113,6.589-38.322,31.481-31.731,55.597
		c6.587,24.116,31.48,38.322,55.596,31.731C632.566,340.865,646.776,315.973,640.187,291.858z M573.912,309.968
		c-3.411-12.486,3.945-25.373,16.43-28.784c12.486-3.412,25.372,3.943,28.785,16.429c3.412,12.485-3.944,25.373-16.431,28.785
		C590.213,329.81,577.323,322.453,573.912,309.968z"/>
	<path opacity="0.4" fill="#FFFFFF" d="M679.769,277.638l-8.054-1.143l-7.709-1.095c-2.335-6.381-7.201-13.17-7.201-13.17
		l-40.958,28.208c2.595,3.777,4.116,8.349,4.116,13.275c0,12.967-10.511,23.477-23.478,23.477c-8.003,0-15.067-4.007-19.306-10.121
		l-41.028,28.257c0,0,1.169,1.683,2.752,3.75c0.074,0.098,3.304,4.288,6.005,6.725l-3.819,15.4l8.651,6.248l132.289-91.087
		L679.769,277.638z"/>
	<path fill="#848181" d="M425.891,125.816l-17.823,10.744c0.626,6.339,1.784,12.71,3.519,19.061
		c0.379,1.391,0.793,2.766,1.219,4.131l20.594,2.921c-1.6-3.822-2.974-7.789-4.095-11.893
		C427.027,142.444,425.928,134.066,425.891,125.816z"/>
	<path fill="#848181" d="M556.328,234.658l2.929-20.643c-3.839,1.609-7.823,2.994-11.947,4.12
		c-8.326,2.274-16.692,3.375-24.932,3.413l10.759,17.85c6.338-0.625,12.709-1.783,19.061-3.518
		C553.59,235.498,554.964,235.085,556.328,234.658z"/>
	<path fill="#848181" d="M454.313,193.676l-5.009,20.203c6.125,5.024,12.747,9.394,19.751,13.05l16.649-12.514
		C474.021,209.642,463.326,202.602,454.313,193.676z"/>
	<path fill="#848181" d="M590.193,193.139l20.262,5.021c5.024-6.122,9.394-12.747,13.051-19.75l-12.551-16.699
		C606.177,173.41,599.132,184.114,590.193,193.139z"/>
	<path fill="#212120" d="M559.257,214.015c11.847-4.969,22.277-12.132,30.937-20.876c8.938-9.025,15.983-19.729,20.762-31.427
		c4.68-11.46,7.175-23.871,7.123-36.597c-0.035-8.254-1.136-16.641-3.415-24.984c-1.126-4.117-2.505-8.096-4.108-11.929
		c-4.962-11.833-12.114-22.258-20.846-30.915c-9.018-8.943-19.717-15.998-31.415-20.782c-11.464-4.688-23.884-7.191-36.619-7.143
		c-8.267,0.031-16.662,1.132-25.017,3.415c-4.096,1.119-8.056,2.489-11.874,4.086c-11.859,4.962-22.306,12.128-30.98,20.876
		c-8.932,9.011-15.978,19.7-20.761,31.382c-4.702,11.487-7.208,23.934-7.153,36.696c0.037,8.25,1.137,16.628,3.414,24.964
		c1.121,4.104,2.495,8.07,4.095,11.893c4.972,11.873,12.149,22.327,20.913,31.003c9.014,8.926,19.708,15.966,31.392,20.74
		c11.481,4.693,23.921,7.193,36.674,7.132c8.239-0.038,16.605-1.139,24.932-3.413C551.434,217.008,555.418,215.624,559.257,214.015z
		 M464.737,141.098c-8.645-31.637,9.995-64.292,41.63-72.936c31.638-8.646,64.293,9.993,72.938,41.629
		c8.645,31.636-9.995,64.292-41.632,72.936C506.037,191.373,473.381,172.734,464.737,141.098z"/>
	<path fill="#848181" d="M579.306,109.791c-8.646-31.636-41.301-50.275-72.938-41.629c-31.635,8.644-50.274,41.299-41.63,72.936
		c8.644,31.636,41.3,50.274,72.937,41.628C569.311,174.083,587.95,141.427,579.306,109.791z M492.362,133.549
		c-4.475-16.38,5.175-33.286,21.554-37.761c16.38-4.476,33.287,5.173,37.763,21.552s-5.175,33.286-21.554,37.763
		C513.746,159.579,496.837,149.928,492.362,133.549z"/>
	<path opacity="0.4" fill="#FFFFFF" d="M631.235,91.136l-10.566-1.5l-10.114-1.435c-3.063-8.371-9.445-17.278-9.445-17.278
		l-53.734,37.006c3.404,4.954,5.399,10.951,5.399,17.416c0,17.009-13.788,30.798-30.798,30.798c-10.5,0-19.768-5.256-25.328-13.277
		l-53.823,37.069c0,0,1.533,2.208,3.608,4.919c0.099,0.127,4.338,5.625,7.878,8.821l-5.009,20.203l11.351,8.196L634.198,102.58
		L631.235,91.136z"/>
	<path fill="#212120" d="M822.264,438.8c0,4.331-8.308,7.841-18.557,7.841H219.999c-10.25,0-18.558-3.51-18.558-7.841v-11.407
		c0-4.331,8.308-7.842,18.558-7.842h583.708c10.249,0,18.557,3.511,18.557,7.842V438.8z"/>
	<path fill="#212120" d="M491.531,374.4c0-6.234,5.054-11.288,11.288-11.288l0,0c6.233,0,11.287,5.054,11.287,11.288v54.181
		c0,6.234-5.054,11.288-11.287,11.288l0,0c-6.234,0-11.288-5.054-11.288-11.288V374.4z"/>
	<path fill="#212120" d="M200.309,433.096c0-6.234,5.054-11.288,11.288-11.288l0,0c6.233,0,11.288,5.053,11.288,11.288v54.181
		c0,6.234-5.054,11.288-11.288,11.288l0,0c-6.234,0-11.288-5.054-11.288-11.288V433.096z"/>
	<path fill="#212120" d="M491.758,433.096c0-6.234,5.054-11.288,11.288-11.288l0,0c6.233,0,11.288,5.053,11.288,11.288v54.181
		c0,6.234-5.055,11.288-11.288,11.288l0,0c-6.234,0-11.288-5.054-11.288-11.288V433.096z"/>
	<path fill="#212120" d="M800.153,433.096c0-6.234,5.054-11.288,11.288-11.288l0,0c6.233,0,11.287,5.053,11.287,11.288v54.181
		c0,6.234-5.054,11.288-11.287,11.288l0,0c-6.234,0-11.288-5.054-11.288-11.288V433.096z"/>
	<path fill="#212120" d="M348.745,811.013c0,5.753-5.756,10.415-12.855,10.415H97.469c-7.1,0-12.856-4.662-12.856-10.415V532.648
		c0-5.75,5.756-10.415,12.856-10.415H335.89c7.099,0,12.855,4.665,12.855,10.415V811.013z"/>
	<path fill="#FFFFFF" d="M341.973,803.874c0,5.459-5.461,9.881-12.196,9.881H103.583c-6.736,0-12.197-4.422-12.197-9.881V539.786
		c0-5.457,5.46-9.88,12.197-9.88h226.194c6.735,0,12.196,4.423,12.196,9.88V803.874z"/>
	<path fill="#212120" d="M633.195,811.013c0,5.753-5.757,10.415-12.855,10.415H381.919c-7.1,0-12.856-4.662-12.856-10.415V532.648
		c0-5.75,5.756-10.415,12.856-10.415H620.34c7.099,0,12.855,4.665,12.855,10.415V811.013z"/>
	<path fill="#FFFFFF" d="M626.422,803.874c0,5.459-5.46,9.881-12.195,9.881H388.032c-6.735,0-12.197-4.422-12.197-9.881V539.786
		c0-5.457,5.461-9.88,12.197-9.88h226.194c6.735,0,12.195,4.423,12.195,9.88V803.874z"/>
	<path fill="#212120" d="M915.387,811.013c0,5.753-5.756,10.415-12.855,10.415H664.11c-7.099,0-12.855-4.662-12.855-10.415V532.648
		c0-5.75,5.757-10.415,12.855-10.415h238.421c7.1,0,12.855,4.665,12.855,10.415V811.013z"/>
	<path fill="#FFFFFF" d="M908.614,803.874c0,5.459-5.461,9.881-12.195,9.881H670.224c-6.735,0-12.195-4.422-12.195-9.881V539.786
		c0-5.457,5.46-9.88,12.195-9.88h226.195c6.734,0,12.195,4.423,12.195,9.88V803.874z"/>
	<g>
		<path fill-rule="evenodd" clip-rule="evenodd" d="M133.506,593.789c1.217,3.688,2.257,6.922,3.352,10.137
			c1.06,3.113,2.175,6.207,3.341,9.521c1.441-5.491,1.168-11.971-0.581-17.707c3.636,0,7.375,0,11.139,0
			c-3.156,5.383-1.09,11.42-0.579,17.499c2.164-6.32,4.328-12.64,6.648-19.414c5.988,2.465,11.946,4.771,17.745,7.423
			c1.285,0.586,2.386,2.252,2.922,3.665c1.34,3.527,2.397,7.172,3.403,10.813c1.342,4.863-1.088,8.094-6.112,8.104
			c-19.753,0.034-39.507,0.034-59.261-0.003c-4.946-0.007-7.47-3.34-6.151-8.124c1.03-3.737,2.074-7.496,3.536-11.071
			c0.618-1.511,2.092-3.076,3.572-3.755C121.974,598.358,127.633,596.199,133.506,593.789z"/>
		<path fill-rule="evenodd" clip-rule="evenodd" d="M160.577,566.467c3.401-0.215,3.794,1.813,3.345,4.104
			c-0.505,2.573-0.287,5.66-3.878,6.568c-0.525,0.133-0.807,1.382-1.127,2.145c-1.854,4.406-4.622,7.974-8.888,10.354
			c-3.282,1.832-6.374,1.854-9.667,0.028c-4.267-2.371-7.016-5.932-8.985-10.293c-0.471-1.043-1.439-1.988-2.402-2.657
			c-1.824-1.264-3.614-7.361-2.293-9.104c0.602-0.794,1.836-1.104,3.08-1.799c-0.523-6.009-0.343-12.106,5.052-16.627
			c3.301-2.764,7.05-3.867,11.311-3.677c5.233,0.234,9.159,2.671,12.151,6.835C161.277,556.523,160.645,561.348,160.577,566.467z"/>
	</g>
	<g>
		<path fill-rule="evenodd" clip-rule="evenodd" d="M702.854,594.037c1.217,3.688,2.258,6.922,3.352,10.137
			c1.062,3.113,2.175,6.207,3.341,9.521c1.441-5.491,1.168-11.972-0.581-17.707c3.636,0,7.376,0,11.139,0
			c-3.154,5.383-1.089,11.42-0.579,17.499c2.164-6.319,4.33-12.641,6.648-19.414c5.989,2.465,11.947,4.771,17.745,7.423
			c1.285,0.586,2.385,2.251,2.923,3.665c1.34,3.527,2.397,7.172,3.402,10.813c1.342,4.863-1.088,8.094-6.112,8.103
			c-19.752,0.035-39.508,0.035-59.261-0.001c-4.945-0.008-7.469-3.341-6.15-8.125c1.03-3.737,2.075-7.496,3.536-11.071
			c0.617-1.511,2.092-3.076,3.572-3.755C691.321,598.606,696.98,596.447,702.854,594.037z"/>
		<path fill-rule="evenodd" clip-rule="evenodd" d="M729.923,566.715c3.401-0.215,3.794,1.813,3.345,4.104
			c-0.504,2.573-0.286,5.66-3.878,6.568c-0.524,0.133-0.808,1.382-1.127,2.145c-1.854,4.406-4.623,7.974-8.888,10.354
			c-3.282,1.832-6.374,1.855-9.666,0.028c-4.268-2.371-7.017-5.933-8.986-10.294c-0.471-1.041-1.438-1.987-2.402-2.656
			c-1.822-1.264-3.613-7.362-2.293-9.104c0.602-0.794,1.837-1.104,3.08-1.799c-0.522-6.009-0.342-12.106,5.054-16.627
			c3.3-2.764,7.049-3.867,11.311-3.677c5.233,0.234,9.158,2.671,12.149,6.834C730.624,556.771,729.991,561.597,729.923,566.715z"/>
	</g>
	<g>
		<path fill-rule="evenodd" clip-rule="evenodd" d="M461.641,599.712c-4.317-2.584-9.368-3.938-14.094-5.837
			c-0.231,0.292-0.463,0.586-0.696,0.876c3.817,3.425,5.843,7.373,4.271,12.798c-1.008-0.799-1.734-1.396-2.485-1.96
			c-3.599-2.705-3.762-2.566-6.389,1.057c-2.963,4.087-6.177,7.991-9.853,12.712c-0.227-0.288-0.445-0.564-0.668-0.849v6.166
			c9.227,0.021,18.455,0.001,27.68-0.086c3.311-0.033,6.132-1.478,7.597-4.771C469.656,613.85,467.201,603.036,461.641,599.712z"/>
		<path fill-rule="evenodd" clip-rule="evenodd" d="M407.45,582.921c4.435,4.732,10.453,4.548,15.224,5.777
			c0,3.878-0.595,7.524,0.152,10.874c0.907,4.056,3.476,8.844,7.553,8.777c0.314-0.004,0.617-0.056,0.913-0.124
			c0.297,0.068,0.599,0.12,0.914,0.124c4.079,0.066,6.646-4.722,7.553-8.777c0.747-3.35,0.152-6.996,0.152-10.874
			c4.771-1.229,10.788-1.045,15.224-5.777c-3.432-3.882-1.571-7.792-0.675-11.989c0.993-4.637,1.858-9.759,0.896-14.269
			c-2.529-11.85-12.986-19.355-24.063-18.788c-11.077-0.567-21.534,6.938-24.062,18.788c-0.963,4.51-0.097,9.632,0.895,14.269
			C409.021,575.129,410.881,579.039,407.45,582.921z"/>
		<path fill-rule="evenodd" clip-rule="evenodd" d="M421.069,606.646c-2.627-3.623-2.791-3.762-6.389-1.057
			c-0.751,0.563-1.478,1.161-2.485,1.96c-1.572-5.425,0.454-9.373,4.271-12.798c-0.232-0.29-0.465-0.584-0.696-0.876
			c-4.726,1.899-9.777,3.253-14.094,5.837c-5.561,3.324-8.015,14.138-5.361,20.106c1.465,3.293,4.286,4.737,7.597,4.771
			c9.226,0.087,18.454,0.106,27.68,0.086v-6.166c-0.224,0.284-0.442,0.561-0.668,0.849
			C427.246,614.637,424.032,610.732,421.069,606.646z"/>
	</g>
	<g>
		<polygon fill-rule="evenodd" clip-rule="evenodd" points="126.968,668.999 134.88,663.383 142.791,668.999 148.167,672.816 
			151.016,672.816 143.104,667.199 135.193,661.584 127.281,667.199 119.37,672.816 121.591,672.816 		"/>
		<polygon fill-rule="evenodd" clip-rule="evenodd" points="156.56,668.546 164.473,662.929 172.384,668.546 177.76,672.362 
			180.609,672.362 172.697,666.745 164.785,661.13 156.874,666.745 148.962,672.362 151.184,672.362 		"/>
		<polygon fill-rule="evenodd" clip-rule="evenodd" points="185.818,668.546 193.73,662.929 201.642,668.546 207.018,672.362 
			209.866,672.362 201.955,666.745 194.044,661.13 186.132,666.745 178.221,672.362 180.443,672.362 		"/>
		<polygon fill-rule="evenodd" clip-rule="evenodd" points="215.077,668.546 222.989,662.929 230.899,668.546 236.276,672.362 
			239.125,672.362 231.213,666.745 223.302,661.13 215.391,666.745 207.479,672.362 209.701,672.362 		"/>
		<polygon fill-rule="evenodd" clip-rule="evenodd" points="244.334,667.88 252.246,662.264 260.158,667.88 265.534,671.696 
			268.383,671.696 260.471,666.081 252.56,660.464 244.648,666.081 236.736,671.696 238.958,671.696 		"/>
		<polygon fill-rule="evenodd" clip-rule="evenodd" points="273.593,668.546 281.504,662.929 289.416,668.546 294.792,672.362 
			297.641,672.362 289.729,666.745 281.818,661.13 273.906,666.745 265.995,672.362 268.216,672.362 		"/>
	</g>
	<g>
		<polygon fill-rule="evenodd" clip-rule="evenodd" points="128.621,694.967 136.533,689.351 144.444,694.967 149.821,698.784 
			152.669,698.784 144.758,693.167 136.847,687.552 128.935,693.167 121.023,698.784 123.245,698.784 		"/>
		<polygon fill-rule="evenodd" clip-rule="evenodd" points="158.214,694.514 166.126,688.896 174.037,694.514 179.414,698.33 
			182.262,698.33 174.351,692.713 166.439,687.098 158.527,692.713 150.616,698.33 152.838,698.33 		"/>
		<polygon fill-rule="evenodd" clip-rule="evenodd" points="187.472,694.514 195.383,688.896 203.295,694.514 208.672,698.33 
			211.52,698.33 203.609,692.713 195.698,687.098 187.785,692.713 179.874,698.33 182.096,698.33 		"/>
		<polygon fill-rule="evenodd" clip-rule="evenodd" points="216.73,694.514 224.642,688.896 232.553,694.514 237.93,698.33 
			240.778,698.33 232.867,692.713 224.955,687.098 217.043,692.713 209.132,698.33 211.354,698.33 		"/>
		<polygon fill-rule="evenodd" clip-rule="evenodd" points="245.988,693.848 253.899,688.231 261.812,693.848 267.188,697.664 
			270.036,697.664 262.125,692.049 254.213,686.432 246.302,692.049 238.39,697.664 240.612,697.664 		"/>
		<polygon fill-rule="evenodd" clip-rule="evenodd" points="275.246,694.514 283.158,688.896 291.069,694.514 296.446,698.33 
			299.294,698.33 291.383,692.713 283.472,687.098 275.559,692.713 267.648,698.33 269.87,698.33 		"/>
	</g>
	<g>
		<polygon fill-rule="evenodd" clip-rule="evenodd" points="130.878,724.315 138.791,718.699 146.702,724.315 152.079,728.133 
			154.927,728.133 147.016,722.515 139.104,716.9 131.192,722.515 123.281,728.133 125.502,728.133 		"/>
		<polygon fill-rule="evenodd" clip-rule="evenodd" points="160.471,723.861 168.383,718.244 176.294,723.861 181.671,727.678 
			184.52,727.678 176.608,722.061 168.696,716.445 160.785,722.061 152.874,727.678 155.095,727.678 		"/>
		<polygon fill-rule="evenodd" clip-rule="evenodd" points="189.729,723.861 197.641,718.244 205.553,723.861 210.929,727.678 
			213.777,727.678 205.866,722.061 197.955,716.445 190.043,722.061 182.132,727.678 184.354,727.678 		"/>
		<polygon fill-rule="evenodd" clip-rule="evenodd" points="218.987,723.861 226.9,718.244 234.811,723.861 240.188,727.678 
			243.036,727.678 235.125,722.061 227.213,716.445 219.302,722.061 211.39,727.678 213.612,727.678 		"/>
		<polygon fill-rule="evenodd" clip-rule="evenodd" points="248.245,723.196 256.157,717.579 264.069,723.196 269.445,727.012 
			272.293,727.012 264.382,721.396 256.471,715.779 248.56,721.396 240.647,727.012 242.869,727.012 		"/>
		<polygon fill-rule="evenodd" clip-rule="evenodd" points="277.504,723.861 285.416,718.244 293.327,723.861 298.703,727.678 
			301.552,727.678 293.64,722.061 285.729,716.445 277.817,722.061 269.906,727.678 272.127,727.678 		"/>
	</g>
	<g>
		<polygon fill-rule="evenodd" clip-rule="evenodd" points="130.878,752.531 138.791,746.915 146.702,752.531 152.079,756.349 
			154.927,756.349 147.016,750.731 139.104,745.116 131.192,750.731 123.281,756.349 125.502,756.349 		"/>
		<polygon fill-rule="evenodd" clip-rule="evenodd" points="160.471,752.077 168.383,746.46 176.294,752.077 181.671,755.894 
			184.52,755.894 176.608,750.276 168.696,744.662 160.785,750.276 152.874,755.894 155.095,755.894 		"/>
		<polygon fill-rule="evenodd" clip-rule="evenodd" points="189.729,752.077 197.641,746.46 205.553,752.077 210.929,755.894 
			213.777,755.894 205.866,750.276 197.955,744.662 190.043,750.276 182.132,755.894 184.354,755.894 		"/>
		<polygon fill-rule="evenodd" clip-rule="evenodd" points="218.987,752.077 226.9,746.46 234.811,752.077 240.188,755.894 
			243.036,755.894 235.125,750.276 227.213,744.662 219.302,750.276 211.39,755.894 213.612,755.894 		"/>
		<polygon fill-rule="evenodd" clip-rule="evenodd" points="248.245,751.412 256.157,745.796 264.069,751.412 269.445,755.229 
			272.293,755.229 264.382,749.613 256.471,743.996 248.56,749.613 240.647,755.229 242.869,755.229 		"/>
		<polygon fill-rule="evenodd" clip-rule="evenodd" points="277.504,752.077 285.416,746.46 293.327,752.077 298.703,755.894 
			301.552,755.894 293.64,750.276 285.729,744.662 277.817,750.276 269.906,755.894 272.127,755.894 		"/>
	</g>
	<g>
		<polygon fill-rule="evenodd" clip-rule="evenodd" points="419.547,668.999 427.458,663.383 435.37,668.999 440.747,672.816 
			443.595,672.816 435.684,667.199 427.772,661.584 419.86,667.199 411.949,672.816 414.171,672.816 		"/>
		<polygon fill-rule="evenodd" clip-rule="evenodd" points="449.14,668.546 457.051,662.929 464.963,668.546 470.339,672.362 
			473.188,672.362 465.276,666.745 457.365,661.13 449.453,666.745 441.542,672.362 443.764,672.362 		"/>
		<polygon fill-rule="evenodd" clip-rule="evenodd" points="478.397,668.546 486.309,662.929 494.221,668.546 499.598,672.362 
			502.445,672.362 494.535,666.745 486.624,661.13 478.711,666.745 470.8,672.362 473.021,672.362 		"/>
		<polygon fill-rule="evenodd" clip-rule="evenodd" points="507.656,668.546 515.568,662.929 523.479,668.546 528.855,672.362 
			531.704,672.362 523.793,666.745 515.881,661.13 507.969,666.745 500.058,672.362 502.279,672.362 		"/>
		<polygon fill-rule="evenodd" clip-rule="evenodd" points="536.913,667.88 544.826,662.264 552.737,667.88 558.113,671.696 
			560.963,671.696 553.05,666.081 545.139,660.464 537.228,666.081 529.316,671.696 531.537,671.696 		"/>
		<polygon fill-rule="evenodd" clip-rule="evenodd" points="566.173,668.546 574.084,662.929 581.995,668.546 587.371,672.362 
			590.221,672.362 582.309,666.745 574.397,661.13 566.485,666.745 558.574,672.362 560.796,672.362 		"/>
	</g>
	<g>
		<polygon fill-rule="evenodd" clip-rule="evenodd" points="421.2,694.967 429.112,689.351 437.023,694.967 442.4,698.784 
			445.249,698.784 437.337,693.167 429.426,687.552 421.514,693.167 413.603,698.784 415.824,698.784 		"/>
		<polygon fill-rule="evenodd" clip-rule="evenodd" points="450.793,694.514 458.705,688.896 466.616,694.514 471.993,698.33 
			474.842,698.33 466.93,692.713 459.018,687.098 451.106,692.713 443.195,698.33 445.417,698.33 		"/>
		<polygon fill-rule="evenodd" clip-rule="evenodd" points="480.051,694.514 487.962,688.896 495.875,694.514 501.251,698.33 
			504.1,698.33 496.188,692.713 488.277,687.098 480.365,692.713 472.454,698.33 474.675,698.33 		"/>
		<polygon fill-rule="evenodd" clip-rule="evenodd" points="509.309,694.514 517.223,688.896 525.132,694.514 530.509,698.33 
			533.357,698.33 525.446,692.713 517.535,687.098 509.623,692.713 501.711,698.33 503.934,698.33 		"/>
		<polygon fill-rule="evenodd" clip-rule="evenodd" points="538.566,693.848 546.479,688.231 554.391,693.848 559.767,697.664 
			562.616,697.664 554.703,692.049 546.792,686.432 538.881,692.049 530.97,697.664 533.19,697.664 		"/>
		<polygon fill-rule="evenodd" clip-rule="evenodd" points="567.826,694.514 575.737,688.896 583.648,694.514 589.025,698.33 
			591.874,698.33 583.962,692.713 576.051,687.098 568.139,692.713 560.228,698.33 562.449,698.33 		"/>
	</g>
	<g>
		<polygon fill-rule="evenodd" clip-rule="evenodd" points="423.458,724.315 431.37,718.699 439.281,724.315 444.658,728.133 
			447.506,728.133 439.595,722.515 431.684,716.9 423.771,722.515 415.86,728.133 418.082,728.133 		"/>
		<polygon fill-rule="evenodd" clip-rule="evenodd" points="453.05,723.861 460.963,718.244 468.874,723.861 474.25,727.678 
			477.099,727.678 469.188,722.061 461.276,716.445 453.364,722.061 445.453,727.678 447.674,727.678 		"/>
		<polygon fill-rule="evenodd" clip-rule="evenodd" points="482.309,723.861 490.22,718.244 498.132,723.861 503.509,727.678 
			506.356,727.678 498.445,722.061 490.534,716.445 482.622,722.061 474.711,727.678 476.933,727.678 		"/>
		<polygon fill-rule="evenodd" clip-rule="evenodd" points="511.566,723.861 519.479,718.244 527.39,723.861 532.767,727.678 
			535.615,727.678 527.704,722.061 519.793,716.445 511.881,722.061 503.969,727.678 506.191,727.678 		"/>
		<polygon fill-rule="evenodd" clip-rule="evenodd" points="540.824,723.196 548.736,717.579 556.647,723.196 562.024,727.012 
			564.873,727.012 556.961,721.396 549.05,715.779 541.139,721.396 533.228,727.012 535.448,727.012 		"/>
		<polygon fill-rule="evenodd" clip-rule="evenodd" points="570.083,723.861 577.994,718.244 585.905,723.861 591.283,727.678 
			594.131,727.678 586.22,722.061 578.309,716.445 570.396,722.061 562.485,727.678 564.707,727.678 		"/>
	</g>
	<g>
		<polygon fill-rule="evenodd" clip-rule="evenodd" points="423.458,752.531 431.37,746.915 439.281,752.531 444.658,756.349 
			447.506,756.349 439.595,750.731 431.684,745.116 423.771,750.731 415.86,756.349 418.082,756.349 		"/>
		<polygon fill-rule="evenodd" clip-rule="evenodd" points="453.05,752.077 460.963,746.46 468.874,752.077 474.25,755.894 
			477.099,755.894 469.188,750.276 461.276,744.662 453.364,750.276 445.453,755.894 447.674,755.894 		"/>
		<polygon fill-rule="evenodd" clip-rule="evenodd" points="482.309,752.077 490.22,746.46 498.132,752.077 503.509,755.894 
			506.356,755.894 498.445,750.276 490.534,744.662 482.622,750.276 474.711,755.894 476.933,755.894 		"/>
		<polygon fill-rule="evenodd" clip-rule="evenodd" points="511.566,752.077 519.479,746.46 527.39,752.077 532.767,755.894 
			535.615,755.894 527.704,750.276 519.793,744.662 511.881,750.276 503.969,755.894 506.191,755.894 		"/>
		<polygon fill-rule="evenodd" clip-rule="evenodd" points="540.824,751.412 548.736,745.796 556.647,751.412 562.024,755.229 
			564.873,755.229 556.961,749.613 549.05,743.996 541.139,749.613 533.228,755.229 535.448,755.229 		"/>
		<polygon fill-rule="evenodd" clip-rule="evenodd" points="570.083,752.077 577.994,746.46 585.905,752.077 591.283,755.894 
			594.131,755.894 586.22,750.276 578.309,744.662 570.396,750.276 562.485,755.894 564.707,755.894 		"/>
	</g>
	<g>
		<polygon fill-rule="evenodd" clip-rule="evenodd" points="422.629,775.802 430.541,770.186 438.453,775.802 443.829,779.619 
			446.678,779.619 438.767,774.002 430.855,768.387 422.943,774.002 415.032,779.619 417.253,779.619 		"/>
		<polygon fill-rule="evenodd" clip-rule="evenodd" points="452.222,775.349 460.134,769.731 468.045,775.349 473.422,779.165 
			476.271,779.165 468.359,773.548 460.447,767.933 452.536,773.548 444.625,779.165 446.846,779.165 		"/>
		<polygon fill-rule="evenodd" clip-rule="evenodd" points="481.48,775.349 489.392,769.731 497.304,775.349 502.68,779.165 
			505.528,779.165 497.617,773.548 489.706,767.933 481.794,773.548 473.883,779.165 476.104,779.165 		"/>
		<polygon fill-rule="evenodd" clip-rule="evenodd" points="510.738,775.349 518.65,769.731 526.562,775.349 531.938,779.165 
			534.787,779.165 526.876,773.548 518.964,767.933 511.052,773.548 503.141,779.165 505.362,779.165 		"/>
		<polygon fill-rule="evenodd" clip-rule="evenodd" points="539.996,774.683 547.908,769.066 555.82,774.683 561.196,778.499 
			564.045,778.499 556.134,772.884 548.223,767.267 540.311,772.884 532.398,778.499 534.62,778.499 		"/>
		<polygon fill-rule="evenodd" clip-rule="evenodd" points="569.255,775.349 577.166,769.731 585.078,775.349 590.454,779.165 
			593.304,779.165 585.391,773.548 577.479,767.933 569.568,773.548 561.656,779.165 563.879,779.165 		"/>
	</g>
	<g>
		<polygon fill-rule="evenodd" clip-rule="evenodd" points="700.829,668.999 708.742,663.383 716.653,668.999 722.029,672.816 
			724.878,672.816 716.967,667.199 709.056,661.584 701.145,667.199 693.232,672.816 695.454,672.816 		"/>
		<polygon fill-rule="evenodd" clip-rule="evenodd" points="730.422,668.546 738.334,662.929 746.246,668.546 751.622,672.362 
			754.472,672.362 746.559,666.745 738.647,661.13 730.736,666.745 722.825,672.362 725.047,672.362 		"/>
		<polygon fill-rule="evenodd" clip-rule="evenodd" points="759.681,668.546 767.592,662.929 775.503,668.546 780.881,672.362 
			783.729,672.362 775.817,666.745 767.906,661.13 759.994,666.745 752.083,672.362 754.306,672.362 		"/>
		<polygon fill-rule="evenodd" clip-rule="evenodd" points="788.938,668.546 796.851,662.929 804.761,668.546 810.139,672.362 
			812.986,672.362 805.075,666.745 797.164,661.13 789.253,666.745 781.342,672.362 783.563,672.362 		"/>
		<polygon fill-rule="evenodd" clip-rule="evenodd" points="818.196,667.88 826.108,662.264 834.02,667.88 839.396,671.696 
			842.245,671.696 834.333,666.081 826.422,660.464 818.511,666.081 810.6,671.696 812.82,671.696 		"/>
		<polygon fill-rule="evenodd" clip-rule="evenodd" points="847.455,668.546 855.366,662.929 863.277,668.546 868.654,672.362 
			871.503,672.362 863.592,666.745 855.681,661.13 847.769,666.745 839.857,672.362 842.079,672.362 		"/>
	</g>
	<g>
		<polygon fill-rule="evenodd" clip-rule="evenodd" points="702.483,694.967 710.396,689.351 718.307,694.967 723.683,698.784 
			726.531,698.784 718.62,693.167 710.709,687.552 702.798,693.167 694.887,698.784 697.107,698.784 		"/>
		<polygon fill-rule="evenodd" clip-rule="evenodd" points="732.076,694.514 739.988,688.896 747.899,694.514 753.275,698.33 
			756.125,698.33 748.213,692.713 740.302,687.098 732.391,692.713 724.479,698.33 726.7,698.33 		"/>
		<polygon fill-rule="evenodd" clip-rule="evenodd" points="761.334,694.514 769.245,688.896 777.156,694.514 782.534,698.33 
			785.383,698.33 777.471,692.713 769.561,687.098 761.647,692.713 753.736,698.33 755.959,698.33 		"/>
		<polygon fill-rule="evenodd" clip-rule="evenodd" points="790.592,694.514 798.504,688.896 806.414,694.514 811.792,698.33 
			814.64,698.33 806.729,692.713 798.817,687.098 790.906,692.713 782.995,698.33 785.217,698.33 		"/>
		<polygon fill-rule="evenodd" clip-rule="evenodd" points="819.85,693.848 827.762,688.231 835.673,693.848 841.05,697.664 
			843.898,697.664 835.986,692.049 828.075,686.432 820.164,692.049 812.253,697.664 814.474,697.664 		"/>
		<polygon fill-rule="evenodd" clip-rule="evenodd" points="849.108,694.514 857.02,688.896 864.931,694.514 870.309,698.33 
			873.156,698.33 865.245,692.713 857.334,687.098 849.422,692.713 841.511,698.33 843.732,698.33 		"/>
	</g>
	<g>
		<polygon fill-rule="evenodd" clip-rule="evenodd" points="704.741,724.315 712.653,718.699 720.564,724.315 725.939,728.133 
			728.789,728.133 720.878,722.515 712.966,716.9 705.055,722.515 697.144,728.133 699.364,728.133 		"/>
		<polygon fill-rule="evenodd" clip-rule="evenodd" points="734.334,723.861 742.246,718.244 750.157,723.861 755.532,727.678 
			758.383,727.678 750.47,722.061 742.559,716.445 734.647,722.061 726.736,727.678 728.957,727.678 		"/>
		<polygon fill-rule="evenodd" clip-rule="evenodd" points="763.593,723.861 771.504,718.244 779.415,723.861 784.791,727.678 
			787.641,727.678 779.729,722.061 771.817,716.445 763.904,722.061 755.994,727.678 758.216,727.678 		"/>
		<polygon fill-rule="evenodd" clip-rule="evenodd" points="792.85,723.861 800.762,718.244 808.672,723.861 814.049,727.678 
			816.898,727.678 808.986,722.061 801.074,716.445 793.163,722.061 785.252,727.678 787.474,727.678 		"/>
		<polygon fill-rule="evenodd" clip-rule="evenodd" points="822.107,723.196 830.02,717.579 837.931,723.196 843.307,727.012 
			846.156,727.012 838.244,721.396 830.332,715.779 822.421,721.396 814.51,727.012 816.731,727.012 		"/>
		<polygon fill-rule="evenodd" clip-rule="evenodd" points="851.366,723.861 859.277,718.244 867.188,723.861 872.565,727.678 
			875.414,727.678 867.503,722.061 859.591,716.445 851.679,722.061 843.768,727.678 845.989,727.678 		"/>
	</g>
	<g>
		<polygon fill-rule="evenodd" clip-rule="evenodd" points="704.741,752.531 712.653,746.915 720.564,752.531 725.939,756.349 
			728.789,756.349 720.878,750.731 712.966,745.116 705.055,750.731 697.144,756.349 699.364,756.349 		"/>
		<polygon fill-rule="evenodd" clip-rule="evenodd" points="734.334,752.077 742.246,746.46 750.157,752.077 755.532,755.894 
			758.383,755.894 750.47,750.276 742.559,744.662 734.647,750.276 726.736,755.894 728.957,755.894 		"/>
		<polygon fill-rule="evenodd" clip-rule="evenodd" points="763.593,752.077 771.504,746.46 779.415,752.077 784.791,755.894 
			787.641,755.894 779.729,750.276 771.817,744.662 763.904,750.276 755.994,755.894 758.216,755.894 		"/>
		<polygon fill-rule="evenodd" clip-rule="evenodd" points="792.85,752.077 800.762,746.46 808.672,752.077 814.049,755.894 
			816.898,755.894 808.986,750.276 801.074,744.662 793.163,750.276 785.252,755.894 787.474,755.894 		"/>
		<polygon fill-rule="evenodd" clip-rule="evenodd" points="822.107,751.412 830.02,745.796 837.931,751.412 843.307,755.229 
			846.156,755.229 838.244,749.613 830.332,743.996 822.421,749.613 814.51,755.229 816.731,755.229 		"/>
		<polygon fill-rule="evenodd" clip-rule="evenodd" points="851.366,752.077 859.277,746.46 867.188,752.077 872.565,755.894 
			875.414,755.894 867.503,750.276 859.591,744.662 851.679,750.276 843.768,755.894 845.989,755.894 		"/>
	</g>
	<g>
		<polygon fill-rule="evenodd" clip-rule="evenodd" points="703.913,775.802 711.824,770.186 719.735,775.802 725.112,779.619 
			727.961,779.619 720.049,774.002 712.138,768.387 704.226,774.002 696.314,779.619 698.537,779.619 		"/>
		<polygon fill-rule="evenodd" clip-rule="evenodd" points="733.506,775.349 741.417,769.731 749.328,775.349 754.705,779.165 
			757.554,779.165 749.642,773.548 741.729,767.933 733.818,773.548 725.907,779.165 728.129,779.165 		"/>
		<polygon fill-rule="evenodd" clip-rule="evenodd" points="762.764,775.349 770.675,769.731 778.587,775.349 783.963,779.165 
			786.812,779.165 778.899,773.548 770.988,767.933 763.077,773.548 755.166,779.165 757.387,779.165 		"/>
		<polygon fill-rule="evenodd" clip-rule="evenodd" points="792.022,775.349 799.934,769.731 807.845,775.349 813.221,779.165 
			816.07,779.165 808.159,773.548 800.246,767.933 792.335,773.548 784.424,779.165 786.646,779.165 		"/>
		<polygon fill-rule="evenodd" clip-rule="evenodd" points="821.279,774.683 829.191,769.066 837.104,774.683 842.479,778.499 
			845.328,778.499 837.417,772.884 829.505,767.267 821.594,772.884 813.681,778.499 815.903,778.499 		"/>
		<polygon fill-rule="evenodd" clip-rule="evenodd" points="850.538,775.349 858.449,769.731 866.36,775.349 871.736,779.165 
			874.587,779.165 866.673,773.548 858.762,767.933 850.851,773.548 842.939,779.165 845.161,779.165 		"/>
	</g>
	<g>
		<polygon fill-rule="evenodd" clip-rule="evenodd" points="130.878,775.124 138.791,769.508 146.702,775.124 152.079,778.941 
			154.927,778.941 147.016,773.323 139.104,767.709 131.192,773.323 123.281,778.941 125.502,778.941 		"/>
		<polygon fill-rule="evenodd" clip-rule="evenodd" points="160.471,774.671 168.383,769.054 176.294,774.671 181.671,778.487 
			184.52,778.487 176.608,772.87 168.696,767.254 160.785,772.87 152.874,778.487 155.095,778.487 		"/>
		<polygon fill-rule="evenodd" clip-rule="evenodd" points="189.729,774.671 197.641,769.054 205.553,774.671 210.929,778.487 
			213.777,778.487 205.866,772.87 197.955,767.254 190.043,772.87 182.132,778.487 184.354,778.487 		"/>
		<polygon fill-rule="evenodd" clip-rule="evenodd" points="218.987,774.671 226.9,769.054 234.811,774.671 240.188,778.487 
			243.036,778.487 235.125,772.87 227.213,767.254 219.302,772.87 211.39,778.487 213.612,778.487 		"/>
		<polygon fill-rule="evenodd" clip-rule="evenodd" points="248.245,774.005 256.157,768.389 264.069,774.005 269.445,777.821 
			272.293,777.821 264.382,772.206 256.471,766.589 248.56,772.206 240.647,777.821 242.869,777.821 		"/>
		<polygon fill-rule="evenodd" clip-rule="evenodd" points="277.504,774.671 285.416,769.054 293.327,774.671 298.703,778.487 
			301.552,778.487 293.64,772.87 285.729,767.254 277.817,772.87 269.906,778.487 272.127,778.487 		"/>
	</g>
</g>
</svg>
