<?xml version="1.0" encoding="utf-8"?>
<!-- Generator: Adobe Illustrator 16.0.0, SVG Export Plug-In . SVG Version: 6.00 Build 0)  -->
<!DOCTYPE svg PUBLIC "-//W3C//DTD SVG 1.1//EN" "http://www.w3.org/Graphics/SVG/1.1/DTD/svg11.dtd">
<svg version="1.1" xmlns="http://www.w3.org/2000/svg" xmlns:xlink="http://www.w3.org/1999/xlink" x="0px" y="0px" width="512px"
	 height="512px" viewBox="0 0 512 512" enable-background="new 0 0 512 512" xml:space="preserve">
<g id="Layer_1" display="none">
	<g display="inline">
		<path fill="#FFFFFF" d="M370.701,0H141.29C63.383,0,0,63.386,0,141.292v229.412c0,77.91,63.383,141.293,141.29,141.293h229.412
			c77.913,0,141.296-63.386,141.296-141.293V141.292C512,63.386,448.614,0,370.701,0z M466.573,370.704
			c0,52.862-43.007,95.866-95.869,95.866H141.29c-52.858,0.003-95.863-43.004-95.863-95.866V141.292
			c0-52.858,43.004-95.866,95.863-95.866h229.412c52.86,0,95.869,43.007,95.869,95.866v229.412H466.573z"/>
		<path fill="#FFFFFF" d="M255.999,124.076c-72.747,0-131.929,59.182-131.929,131.929c0,72.744,59.182,131.922,131.929,131.922
			s131.929-59.179,131.929-131.922C387.928,183.258,328.745,124.076,255.999,124.076z M255.999,342.497
			c-47.695,0-86.502-38.8-86.502-86.496c0-47.698,38.804-86.502,86.502-86.502c47.699,0,86.501,38.804,86.501,86.502
			C342.5,303.697,303.693,342.497,255.999,342.497z"/>
		<path fill="#FFFFFF" d="M393.46,85.557c-8.752,0-17.35,3.543-23.53,9.751c-6.212,6.178-9.783,14.779-9.783,23.562
			c0,8.755,3.574,17.353,9.783,23.561c6.179,6.178,14.778,9.752,23.53,9.752c8.782,0,17.354-3.574,23.562-9.752
			c6.209-6.208,9.753-14.809,9.753-23.561c0-8.783-3.544-17.383-9.753-23.562C410.844,89.1,402.242,85.557,393.46,85.557z"/>
	</g>
</g>
<g id="Layer_2">
	<path fill="#FFFFFF" d="M256.932,513.136c-140.688,0-255.069-114.608-255.069-255.621c0-141.211,114.382-255.82,255.069-255.82
		C397.618,1.694,512,116.304,512,257.315C512,398.326,397.618,513.136,256.932,513.136L256.932,513.136z M471.945,292.317
		c-7.373-2.399-67.354-20.202-135.705-9.401c28.498,78.407,40.055,142.412,42.247,155.613
		C427.509,405.527,462.381,353.122,471.945,292.317z M342.021,458.732c-3.188-19.203-15.941-86.008-46.431-165.615
		c-0.398,0.201-0.997,0.401-1.395,0.401c-122.952,43.004-166.992,128.41-170.977,136.41c36.865,28.804,83.296,46.005,133.713,46.005
		C287.021,476.132,315.915,469.934,342.021,458.732L342.021,458.732z M95.121,403.728c4.982-8.402,64.764-107.61,177.154-144.212
		c2.79-1.001,5.778-1.801,8.568-2.601c-5.381-12.401-11.359-24.802-17.735-37.003c-108.803,32.603-214.417,31.202-223.982,31.003
		c0,2.2-0.199,4.4-0.199,6.6C39.126,313.719,60.249,364.925,95.121,403.728z M43.709,212.911c9.764,0.2,99.436,0.601,201.464-26.603
		c-36.068-64.405-75.126-118.41-80.705-126.209C103.292,88.9,57.858,145.306,43.709,212.911z M205.917,45.297
		c5.978,8.001,45.633,62.005,81.304,127.811c77.518-29.203,110.197-73.206,114.184-78.807
		c-38.46-34.202-89.077-55.004-144.473-55.004C239.396,39.297,222.258,41.497,205.917,45.297z M425.516,119.503
		c-4.585,6.2-41.051,53.204-121.556,86.208c4.981,10.4,9.964,21.001,14.546,31.602c1.595,3.8,3.188,7.601,4.783,11.2
		c72.534-9.2,144.472,5.602,151.646,7.001C474.338,204.11,456.004,156.707,425.516,119.503z"/>
</g>
</svg>
