<?xml version="1.0" encoding="utf-8"?>
<!-- Generator: Adobe Illustrator 16.0.0, SVG Export Plug-In . SVG Version: 6.00 Build 0)  -->
<!DOCTYPE svg PUBLIC "-//W3C//DTD SVG 1.1//EN" "http://www.w3.org/Graphics/SVG/1.1/DTD/svg11.dtd">
<svg version="1.1" id="Layer_2" xmlns="http://www.w3.org/2000/svg" xmlns:xlink="http://www.w3.org/1999/xlink" x="0px" y="0px"
	 width="512px" height="512px" viewBox="0 0 512 512" enable-background="new 0 0 512 512" xml:space="preserve">
<g>
	<path fill="#FFFFFF" d="M256.501,8.092C115.339,8.092,0.9,122.53,0.9,263.692c0,110.674,70.374,204.809,168.791,240.321
		c0,0,6.382,2.23,15.97,0.019c7.933-1.825,7.64-11.323,7.64-11.323c1.827-11.891-0.923-47.625-0.923-47.625
		c-32.366,8.867-43.06,3.674-43.06,3.674c-30.235-9.172-37.562-25.67-37.562-25.67c-3.653-4.566-6.098-11.892-6.098-11.892
		c-3.359-13.108-26.877-33.908-26.877-33.908c-12.824-8.239-9.172-11.911-9.172-11.911c25.66-9.152,43.974,13.738,43.974,13.738
		c11.922,19.257,26.583,31.169,26.583,31.169c21.063,12.804,53.135,0.892,53.135,0.892c2.74-20.149,15.575-34.801,15.575-34.801
		c-67.797-6.393-87.034-37.541-87.034-37.541c-59.558-79.707-0.913-155.758-0.913-155.758c-11.922-43.065,2.738-65.965,2.738-65.965
		c33.909-2.754,67.797,24.731,67.797,24.731c70.536-18.318,129.159,0.918,129.159,0.918c50.386-32.067,67.797-26.562,67.797-26.562
		c17.41,33.892,3.672,67.791,3.672,67.791c49.473,52.217,13.738,131.001,13.738,131.001c-23.822,58.624-103.51,61.384-103.51,61.384
		c16.477,14.651,17.41,40.301,17.41,40.301v72.382c-1.622,18.425,14.266,15.827,18.304,14.894
		c-2.922-1.399,160.33-39.021,174.067-240.259C521.72,122.859,397.675,8.092,256.501,8.092z"/>
	<path fill="#FFFFFF" d="M179.046,422.175c0-2.009,2.709-3.633,6.067-3.633c3.348,0,6.068,1.624,6.068,3.633
		s-2.72,3.651-6.068,3.651C181.755,425.826,179.046,424.184,179.046,422.175z"/>
	<path fill="#FFFFFF" d="M160.245,425.198c0-2.01,2.709-3.632,6.077-3.632c3.339,0,6.047,1.622,6.047,3.632
		c0,2.029-2.708,3.652-6.047,3.652C162.955,428.851,160.245,427.228,160.245,425.198z"/>
	<path fill="#FFFFFF" d="M139.74,420.978c0.405-1.968,3.388-3.024,6.676-2.374c3.277,0.69,5.61,2.82,5.215,4.788
		c-0.406,1.969-3.389,3.024-6.666,2.354C141.688,425.076,139.354,422.946,139.74,420.978z"/>
	<path fill="#FFFFFF" d="M121.984,407.706c1.177-1.623,4.323-1.339,7.041,0.609c2.719,1.969,3.957,4.891,2.78,6.514
		c-1.187,1.622-4.343,1.339-7.061-0.609C122.045,412.252,120.797,409.33,121.984,407.706z"/>
	<path fill="#FFFFFF" d="M113.279,392.893c1.694-1.075,4.525,0.325,6.33,3.166c1.787,2.821,1.868,6.007,0.163,7.062
		c-1.684,1.075-4.504-0.346-6.311-3.146C111.656,397.113,111.585,393.969,113.279,392.893z"/>
	<path fill="#FFFFFF" d="M103.782,380.068c1.298-0.832,3.469,0.243,4.85,2.414c1.38,2.172,1.441,4.607,0.132,5.419
		c-1.288,0.812-3.459-0.265-4.839-2.436C102.544,383.315,102.484,380.88,103.782,380.068z"/>
	<path fill="#FFFFFF" d="M93.555,371.424c1.096-0.689,2.932,0.223,4.099,2.049s1.218,3.897,0.111,4.606
		c-1.095,0.69-2.932-0.243-4.099-2.069C92.5,374.184,92.449,372.114,93.555,371.424z"/>
</g>
</svg>
