<?xml version="1.0" encoding="utf-8"?>
<!-- Generator: Adobe Illustrator 16.0.0, SVG Export Plug-In . SVG Version: 6.00 Build 0)  -->
<!DOCTYPE svg PUBLIC "-//W3C//DTD SVG 1.1//EN" "http://www.w3.org/Graphics/SVG/1.1/DTD/svg11.dtd">
<svg version="1.1" id="Layer_1" xmlns="http://www.w3.org/2000/svg" xmlns:xlink="http://www.w3.org/1999/xlink" x="0px" y="0px"
	 width="49.68px" height="49.68px" viewBox="0 0 49.68 49.68" enable-background="new 0 0 49.68 49.68" xml:space="preserve">
<path fill="#FFFFFF" d="M39.32,0H10.348C4.634,0,0,4.634,0,10.348v28.974c0,5.714,4.634,10.348,10.348,10.348H39.32
	c5.716,0,10.348-4.634,10.348-10.348V10.348C49.668,4.634,45.036,0,39.32,0z M16.557,39.321h-6.209V16.557h6.209V39.321z
	 M13.452,13.932c-1.999,0-3.622-1.635-3.622-3.651c0-2.014,1.623-3.65,3.622-3.65c1.999,0,3.622,1.636,3.622,3.65
	C17.073,12.297,15.453,13.932,13.452,13.932z M41.389,39.321h-6.208V27.725c0-6.972-8.276-6.443-8.276,0v11.597h-6.208V16.557h6.208
	v3.653c2.89-5.352,14.484-5.748,14.484,5.124V39.321z"/>
</svg>
