<?xml version="1.0" encoding="utf-8"?>
<!-- Generator: Adobe Illustrator 16.0.0, SVG Export Plug-In . SVG Version: 6.00 Build 0)  -->
<!DOCTYPE svg PUBLIC "-//W3C//DTD SVG 1.1//EN" "http://www.w3.org/Graphics/SVG/1.1/DTD/svg11.dtd">
<svg version="1.1" id="Layer_1" xmlns="http://www.w3.org/2000/svg" xmlns:xlink="http://www.w3.org/1999/xlink" x="0px" y="0px"
	 width="1200px" height="825.958px" viewBox="0 0 1200 825.958" enable-background="new 0 0 1200 825.958" xml:space="preserve">
<path fill="#29282A" d="M858.454,519.054c0,0-16.543,144.458-36.91,189C821.544,708.054,862.272,600.913,858.454,519.054z"/>
<polygon fill="#34404D" points="442.752,812.786 451.089,569.614 441.563,543.128 360.561,514.237 317.677,504.609 286.707,812.786 
	"/>
<path fill="#29282A" d="M106.839,525.073c0,0-27.396,9.635-25.014,65.006c0,0-9.527,13.243-11.912,45.745
	c0,0-15.484,43.338-14.292,69.823c0,0,0,21.67-5.953,43.338c0,0-9.533,56.577-7.151,63.801h115.545l9.527-86.674l-36.925-170.943
	L106.839,525.073z"/>
<path fill="#29282A" d="M927.561,812.786c0,0,0-19.26-1.192-42.133c0,0-2.383-43.336-8.337-55.374c0,0-19.062-68.62-22.633-83.064
	c0,0-14.294-44.541-14.294-52.97c0,0,0-43.337-4.766-50.559c0,0-3.573-14.449-16.677-8.429l-34.547,4.815l-40.497,182.981
	l-8.338,87.879l-4.767,16.853H927.561z"/>
<polyline fill="#29323B" points="437.987,547.342 451.089,578.042 457.046,572.024 442.158,543.128 "/>
<path fill="#29323B" d="M442.026,543.406c0,0-19.345,16.064-17.603,33.001c0,0-94.792-50.446-108.975-92.773
	c0,0,2.698-34.969,7.892-43.731L442.026,543.406z"/>
<path fill="#34404D" d="M430.756,542.537c0,0-12.421,11.389-10.962,25.114c0,0-83.465-43.46-94.911-77.82
	c0,0-0.27-32.016,3.818-39.094L430.756,542.537z"/>
<path fill="#29282A" d="M299.81,454.046l-164.382,62.601l-26.204,4.814c0,0-29.781,86.676,38.116,231.136l-8.337,60.188h188.207
	c0,0-1.19-256.113,20.251-289.82C350.681,517.901,299.81,454.046,299.81,454.046z"/>
<path fill="#29282A" d="M604.75,442.008c0,0,135.793,28.89,210.841,65.007c0,0,36.924,7.222,44.071,12.039
	c0,0-16.679,146.864-51.221,231.134c0,0,5.956,48.152,0,62.598H640.485L604.75,442.008z"/>
<path fill="#29323B" d="M427.266,812.786c0,0-2.38-70.917,0-79.479c0,0,4.764-56.248,1.196-72.146c0,0-3.577-55.021,17.865-80.695
	c0,0,16.673-20.787,16.673-30.569c0,0,34.545-18.346,36.929-24.456c0,0,3.573-3.666,30.97-53.799c0,0,23.822-31.792,28.589-47.69
	l17.868,57.469l35.732,331.365H427.266z"/>
<path fill="#34404D" d="M433.225,812.786c0,0-2.383-69.818,0-78.249c0,0,4.766-55.377,1.19-71.024c0,0-3.573-54.174,17.869-79.452
	c0,0,16.678-20.464,16.678-30.097c0,0,34.542-18.056,36.928-24.072c0,0,3.572-3.616,30.967-52.972c0,0,23.823-31.297,28.589-46.948
	l17.866,56.58l35.738,326.234H433.225z"/>
<path fill="#2D2C2D" d="M248.591,812.786l-9.532-284.1l44.075-12.039l-15.487-49.358l86.961-54.47c0,0,6.55,37.918,8.932,45.145
	c0,0-8.338,28.89-10.721,36.11c0,0-25.611,93.599-25.611,318.712H248.591z"/>
<path fill="#29323B" d="M464.189,549.152c0,0,22.632,10.831,25.018,27.683c0,0,86.361-77.642,89.937-122.186
	c0,0-11.322-23.473-18.467-30.697L464.189,549.152z"/>
<path fill="#34404D" d="M474.911,545.539c0,0,14.791,7.994,16.677,21.668c0,0,81.745-75.213,84.576-111.353
	c0,0-8.033-20.023-13.696-25.883L474.911,545.539z"/>
<g>
	<path fill="#8E8D8D" d="M465.502,756.412c3.949,3.864,4.055,10.221,0.238,14.204c-3.818,3.986-10.113,4.084-14.056,0.222
		c-3.949-3.86-4.054-10.219-0.239-14.202C455.261,752.647,461.557,752.552,465.502,756.412z"/>
	<path fill="#3A373B" d="M464.042,757.936c3.108,3.044,3.2,8.063,0.186,11.202c-3.012,3.141-7.974,3.218-11.087,0.175
		c-3.111-3.045-3.195-8.062-0.186-11.201C455.967,754.967,460.931,754.889,464.042,757.936z"/>
	<g>
		<path fill="#969795" d="M463.417,758.588c2.755,2.695,2.829,7.141,0.167,9.92c-2.667,2.782-7.061,2.85-9.817,0.153
			c-2.757-2.695-2.83-7.141-0.169-9.918C456.265,755.957,460.661,755.895,463.417,758.588z"/>
		<path fill="#242126" d="M457.865,764.386c0.469,0.452,0.478,1.203,0.026,1.673s-1.191,0.479-1.658,0.025
			c-0.465-0.454-0.481-1.205-0.03-1.674C456.656,763.94,457.399,763.926,457.865,764.386z"/>
		<path fill="#242126" d="M460.947,761.167c0.465,0.456,0.476,1.203,0.029,1.671c-0.454,0.469-1.195,0.486-1.66,0.028
			c-0.464-0.455-0.481-1.206-0.032-1.676C459.74,760.721,460.478,760.711,460.947,761.167z"/>
		<path fill="#242126" d="M460.998,764.333c0.461,0.455,0.477,1.205,0.028,1.676c-0.447,0.468-1.191,0.483-1.657,0.024
			c-0.465-0.452-0.474-1.201-0.024-1.672C459.792,763.891,460.532,763.881,460.998,764.333z"/>
		<path fill="#242126" d="M457.811,761.216c0.466,0.457,0.482,1.203,0.031,1.677c-0.453,0.465-1.191,0.478-1.659,0.02
			c-0.466-0.455-0.479-1.198-0.029-1.672C456.607,760.775,457.346,760.762,457.811,761.216z"/>
	</g>
</g>
<g>
	<path fill="#8E8D8D" d="M469.305,601.28c-2.139,3.359-7.615,3.646-12.225,0.645c-4.616-3.006-6.614-8.164-4.473-11.521
		c2.14-3.361,7.614-3.643,12.223-0.646C469.451,592.764,471.449,597.924,469.305,601.28z"/>
	<path fill="#3A373B" d="M467.542,600.131c-1.687,2.65-6.006,2.877-9.641,0.507c-3.637-2.369-5.215-6.436-3.529-9.084
		c1.688-2.648,6.007-2.876,9.641-0.507C467.653,593.413,469.23,597.482,467.542,600.131z"/>
	<g>
		<path fill="#969795" d="M466.785,599.638c-1.495,2.347-5.318,2.547-8.54,0.447c-3.218-2.097-4.615-5.698-3.12-8.045
			c1.494-2.341,5.319-2.546,8.54-0.444C466.887,593.694,468.282,597.296,466.785,599.638z"/>
		<path fill="#242126" d="M460.076,595.267c-0.246,0.398-0.896,0.433-1.44,0.079c-0.542-0.355-0.775-0.964-0.528-1.361
			c0.253-0.392,0.898-0.429,1.44-0.074C460.093,594.263,460.331,594.875,460.076,595.267z"/>
		<path fill="#242126" d="M463.802,597.692c-0.249,0.401-0.897,0.432-1.44,0.078c-0.546-0.353-0.78-0.962-0.526-1.357
			c0.256-0.395,0.896-0.43,1.439-0.08C463.818,596.689,464.055,597.297,463.802,597.692z"/>
		<path fill="#242126" d="M461.076,597.841c-0.252,0.393-0.897,0.428-1.439,0.074c-0.547-0.355-0.785-0.966-0.53-1.358
			c0.253-0.399,0.898-0.433,1.44-0.074C461.095,596.836,461.326,597.44,461.076,597.841z"/>
		<path fill="#242126" d="M462.802,595.125c-0.253,0.397-0.893,0.434-1.438,0.08c-0.546-0.36-0.781-0.965-0.527-1.36
			c0.255-0.398,0.898-0.434,1.44-0.078C462.817,594.12,463.057,594.726,462.802,595.125z"/>
	</g>
</g>
<path fill="#C8AA9F" d="M348.354,358.346c0,0,8.408,103.828,10.717,114.06l95.103,100.216L555.952,429.37
	c0,0-1.16-60.79,1.151-67.415c0,0-0.577-24.074-0.577-30.098c0,0-3.466,36.72-47.414,61.997c0,0-36.432,27.092-99.462,15.049
	C409.65,408.903,365.701,396.867,348.354,358.346z"/>
<path fill="#C3A39B" d="M569.466,304.72"/>
<path fill="#C3A39B" d="M565.099,309.233c0,0,2.037-4.513,9.148-0.898c0,0,9.006,3.608,17.063-4.965c0,0,3.792-5.874,8.055-31.602
	c0,0,9.483-60.043,8.061-65.911c0,0-13.273-13.994-23.226,7.674C584.2,213.532,572.681,220.755,565.099,309.233z"/>
<path fill="#BA9893" d="M578.845,268.605c0,0-2.681,7.675,0,10.838c0,0,2.68-1.358,3.128-8.129c0,0,4.465-3.612,7.592,1.354
	c0,0,2.678-1.354,2.678-4.51C592.244,268.157,589.117,259.126,578.845,268.605z"/>
<path fill="#BA9893" d="M594.925,280.795h-2.681c0,0,3.127-6.32,4.916-5.868C597.159,274.928,596.712,278.989,594.925,280.795z"/>
<path fill="#BA9893" d="M600.731,249.195c0,0-8.932-19.864-8.04-24.828c0,0,3.573-10.835,8.488-10.383
	C601.18,213.984,602.52,236.558,600.731,249.195z"/>
<path fill="#C3A39B" d="M330.578,322.48c0,0-6.433-5.111-13.133-1.499c0,0-8.484,3.614-16.078-4.964c0,0-3.574-5.869-7.594-31.603
	c0,0-8.936-60.038-7.594-65.906c0,0,12.508-13.998,21.885,7.673C308.063,226.181,323.431,233.995,330.578,322.48z"/>
<path fill="#BA9893" d="M314.768,281.256c0,0,2.677,7.674,0,10.833c0,0-2.681-1.354-3.128-8.124c0,0-4.466-3.615-7.595,1.354
	c0,0-2.678-1.354-2.678-4.517C301.367,280.802,304.493,271.776,314.768,281.256z"/>
<path fill="#BA9893" d="M298.687,293.442h2.68c0,0-3.129-6.318-4.913-5.865C296.454,287.578,296.901,291.638,298.687,293.442z"/>
<path fill="#BA9893" d="M292.878,261.847c0,0,8.934-19.869,8.043-24.832c0,0-3.575-10.834-8.487-10.384
	C292.434,226.631,291.092,249.205,292.878,261.847z"/>
<path fill="#BC9E9A" d="M317.287,260.036c0,0,16.702,86.481,24.613,96.458c0,0,26.369,49.061,74.707,53.222
	c0,0,58.012,9.145,81.745-9.148c0,0,41.314-15.8,57.132-50.722c0,0,8.79-49.896,12.304-54.054c0,0,14.063-83.985,19.338-84.816
	c0,0-7.91-73.178-21.973-90.639c0,0-19.338-54.882-63.286-53.22c0,0-95.807-14.967-137.116,6.653
	C364.751,73.77,302.346,88.738,317.287,260.036z"/>
<path fill="#C7A6A1" d="M315.299,254.887c0,0,16.971,88.3,25.014,98.489c0,0,26.801,50.088,75.935,54.338
	c0,0,58.965,9.335,83.086-9.343c0,0,41.988-16.131,58.07-51.79c0,0,8.932-50.941,12.505-55.188c0,0,14.292-85.751,19.655-86.601
	c0,0-8.041-74.716-22.335-92.542c0,0-19.654-56.036-64.323-54.338c0,0-97.377-15.282-139.367,6.793
	C363.54,64.705,300.112,79.988,315.299,254.887z"/>
<path fill="#C4A39F" d="M371.581,390.423c0,0-31.716-20.719-39.755-62.579c0,0-4.915-20.288-5.361-24.603c0,0,29.48,0,51.369,54.811
	C377.834,358.052,378.283,388.697,371.581,390.423z"/>
<path fill="#C4A39F" d="M519.436,389.368c0,0,31.714-13.38,40.649-58.265c0,0,5.36-23.737,5.807-28.057
	c0,0-32.051-0.001-53.938,54.813C511.954,357.859,512.735,387.643,519.436,389.368z"/>
<path fill="#A27A66" d="M314.661,250.537c0,0,9.83-18.057,12.508-32.503c0,0,3.575-55.975,0-67.712c0,0,28.59-67.715,66.111-77.649
	c0,0,30.749-16.744,126.341,17.563c0,0,41.691,10.476,40.802,45.688c0,0,2.6,55.025,7.958,69.471c0,0,10.723,42.434,8.936,55.077
	l9.823-6.321c0,0,1.791-41.534,10.723-46.046c0,0,9.828,6.319,10.72,9.929c0.893,3.612,1.791-25.278-1.787-46.043
	c0,0-4.464-53.269-39.308-102.026c0,0-35.734-54.171-109.883-59.589c0,0-67.897-11.735-100.955,45.145l-7.144,7.222
	c0,0-37.524,9.93-51.818,54.171c0,0-11.612,51.464-10.72,71.327l3.573,6.322l-5.361,21.668l9.828,27.987
	C295.009,244.219,310.196,236.995,314.661,250.537z"/>
<path fill="#A77D6E" d="M368.939,63.246c0,0,6.153-37.752,52.186-48.822C417.274,15.595,381.685,29.345,368.939,63.246z"/>
<path fill="#A77D6E" d="M375.064,65.548c0,0,9.668-42.414,62.718-51.636C437.782,13.912,393.587,24.332,375.064,65.548z"/>
<path fill="#A77D6E" d="M382.485,66.263c0,0,13.217-45.629,71.646-52.272C454.132,13.991,405.283,22.508,382.485,66.263z"/>
<path fill="#A77D6E" d="M390.226,67.586c0,0,19.268-50.289,85.931-52.144C476.156,15.443,420.143,20.344,390.226,67.586z"/>
<path fill="#A77D6E" d="M403.429,67c0,0,21.26-48.922,87.329-47.792C490.758,19.208,435.097,21.567,403.429,67z"/>
<path fill="#A77D6E" d="M420.838,62.342c0,0,23.39-42.788,83.492-36.208C504.33,26.134,453.425,23.608,420.838,62.342z"/>
<path fill="#A77D6E" d="M435.215,61.702c0,0,27.866-39.958,86.898-26.804C522.113,34.898,471.784,26.784,435.215,61.702z"/>
<path fill="#A77D6E" d="M452.958,61.304c0,0,29.638-35.266,84.173-17.78C537.131,43.524,490.377,31.54,452.958,61.304z"/>
<path fill="#A77D6E" d="M470.38,63.298c0,0,27.912-29.5,75.041-11.241C545.421,52.058,504.859,39.053,470.38,63.298z"/>
<path fill="#A77D6E" d="M491.409,65.255c0,0,27.761-21.689,65.907,0.17C557.316,65.425,524.136,48.939,491.409,65.255z"/>
<path fill="#A77D6E" d="M519.222,70.823c0,0,23.769-11.485,48.352,10.654C567.573,81.478,545.801,64.077,519.222,70.823z"/>
<path fill="#A77D6E" d="M360.26,63.8c0,0,2.083-32.891,39.017-44.384C399.277,19.416,369.702,32.729,360.26,63.8z"/>
<path fill="#A77D6E" d="M300.132,122.686c0,0,2.557-41.4,47.772-55.876C347.904,66.809,311.703,83.574,300.132,122.686z"/>
<path fill="#A77D6E" d="M301.626,138.037c0,0,2.713-48.428,50.308-65.385C351.934,72.652,313.824,92.278,301.626,138.037z"/>
<path fill="#A77D6E" d="M303.685,155.542c0,0,2.935-57.716,54.06-77.951C357.745,77.591,316.803,101.007,303.685,155.542z"/>
<path fill="#A77D6E" d="M307.089,180.748c0,0-2.047-67.865,55.891-96.524C362.979,84.223,317.27,115.612,307.089,180.748z"/>
<path fill="#7E6856" d="M435.988,295.193c0,0-6.973-5.811-19.354-0.727C416.634,294.466,429.792,296.282,435.988,295.193z"/>
<path fill="#7E6856" d="M468.641,291.692c0,0-7.829-3.866-19.044,3.109C449.596,294.801,462.773,293.877,468.641,291.692z"/>
<path fill="#705048" d="M462.706,196.378c0,0,18.762-8.127,29.479-6.321c0,0,33.951-13.542,50.926,8.127
	c0,0-0.893-18.06-17.87-26.184c0,0-45.56-3.61-63.428,2.708C461.813,174.708,468.068,190.057,462.706,196.378z"/>
<path fill="#72544E" d="M475.637,189.358c0,0-0.28-10.307,11.347-15.612C486.983,173.746,477.459,178.794,475.637,189.358z"/>
<path fill="#72544E" d="M480.995,189.358c0,0-0.244-9.218,10.152-13.965C491.147,175.393,482.63,179.905,480.995,189.358z"/>
<path fill="#72544E" d="M486.804,189.812c0,0-0.247-9.223,10.148-13.968C496.952,175.844,488.438,180.359,486.804,189.812z"/>
<path fill="#72544E" d="M491.425,188.748c0,0,1.435-9.109,12.52-11.84C503.944,176.908,494.75,179.762,491.425,188.748z"/>
<path fill="#72544E" d="M499.51,186.931c0,0,2.051-8.872,13.151-10.773C512.661,176.157,503.409,178.314,499.51,186.931z"/>
<path fill="#72544E" d="M507.703,185.345c0,0,3.043-6.854,12.328-6.616C520.03,178.729,512.205,178.995,507.703,185.345z"/>
<path fill="#72544E" d="M516.012,183.667c0,0,4-5.032,11.668-2.801C527.68,180.866,521.117,179.372,516.012,183.667z"/>
<path fill="#72544E" d="M521.668,184.107c0,0,5.304-3.602,11.968,0.832C533.636,184.939,527.806,181.542,521.668,184.107z"/>
<path fill="#C3A39B" d="M424.258,228.88c0,0,3.612,17.716-15.681,49.656c0,0,11.054-12.639,14.731-6.32
	c0,0,6.629-18.053,5.893-25.281c0,0,0.938-16.403-1.47-23.469L424.258,228.88z"/>
<path fill="#EBE1DC" d="M478.489,218.349c0,0,21.74-26.939,40.5,0.6c0,0-9.38,14.896-37.525,4.816
	C481.463,223.765,474.32,221.958,478.489,218.349z"/>
<path fill="#EBE1DC" d="M403.445,224.967c0,0,3.277-2.826,0.446-6.759c0,0-22.483-20.025-39.753,2.544c0,0,5.657,9.376,27.99,8.128
	C392.127,228.88,398.982,227.647,403.445,224.967z"/>
<path fill="#48503D" d="M394.138,220.3c0,5.362-4.297,9.708-9.602,9.708c-5.307,0-9.605-4.346-9.605-9.708
	c0-5.358,4.298-9.706,9.605-9.706C389.84,210.594,394.138,214.942,394.138,220.3z"/>
<path fill="#0E0E14" d="M387.102,220.3c0,1.437-1.15,2.596-2.566,2.596c-1.421,0-2.569-1.159-2.569-2.596
	c0-1.432,1.148-2.595,2.569-2.595C385.952,217.705,387.102,218.868,387.102,220.3z"/>
<ellipse fill="#EEE9E8" cx="382.525" cy="217.819" rx="1.674" ry="1.691"/>
<ellipse fill="#48503D" cx="499.783" cy="217.368" rx="9.603" ry="9.706"/>
<ellipse fill="#0E0E14" cx="499.781" cy="217.368" rx="2.568" ry="2.597"/>
<path fill="#EEE9E8" d="M499.445,214.885c0,0.936-0.75,1.694-1.674,1.694c-0.925,0-1.675-0.759-1.675-1.694
	c0-0.933,0.75-1.694,1.675-1.694C498.695,213.191,499.445,213.953,499.445,214.885z"/>
<path fill="#C3A39B" d="M415.353,219.852c0,0,2.683-8.127,6.258-7.224c3.572,0.904-3.575-0.903-3.575-0.903
	s-7.148-15.346-22.333-14.445C395.703,197.279,418.036,211.725,415.353,219.852z"/>
<path fill="#C3A39B" d="M418.119,296.596c0,0,33.948,4.512,42.881,0C461,296.596,442.243,305.626,418.119,296.596z"/>
<path fill="#BC9E9A" d="M477.892,210.822c0,0,17.87-20.462,45.565,6.624l-4.021,1.956c0,0-18.016-24.229-42.732,1.054
	L477.892,210.822z"/>
<path fill="#BB9B95" d="M365.922,384.329c0,0,11.314,40.929,37.523,46.947c0,0,66.706,4.813,77.427-1.203
	c0,0,16.672-4.212,19.057-7.825c0,0,8.931,1.205,19.648-32.5c0,0-27.987,16.249-41.686,17.453c0,0-58.367,3.608-73.85,0
	C404.042,407.201,376.047,399.98,365.922,384.329z"/>
<path fill="#BB9B95" d="M400.467,454.649c0,0,11.91,34.312,21.442,37.321c0,0,11.316,1.203,12.506-3.614
	c0,0-30.374-24.673-28.587-37.921L400.467,454.649z"/>
<path fill="#BC9E9A" d="M405.53,222.56c0,0-20.25,13.243-41.096-0.904C364.434,221.656,387.661,245.13,405.53,222.56z"/>
<path fill="#BC9E9A" d="M519.584,219.251c0,0-20.115,11.054-41.38,3.126C478.204,222.377,501.718,237.907,519.584,219.251z"/>
<g>
	<path fill="#705048" d="M418.835,198.184c0,0-18.762-8.124-29.485-6.318c0,0-33.947-13.543-50.922,8.125
		c0,0,0.896-18.058,17.869-26.183c0,0,45.564-3.613,63.431,2.71C419.728,176.519,413.472,191.866,418.835,198.184z"/>
	<path fill="#72544E" d="M400.543,191.168c0,0,0.249-9.222-10.151-13.97C390.392,177.198,398.91,181.715,400.543,191.168z"/>
	<path fill="#72544E" d="M394.735,191.622c0,0,0.25-9.226-10.15-13.971C384.585,177.65,393.106,182.166,394.735,191.622z"/>
	<path fill="#72544E" d="M390.113,190.555c0,0-1.434-9.109-12.519-11.839C377.595,178.716,386.789,181.566,390.113,190.555z"/>
	<path fill="#72544E" d="M382.03,188.737c0,0-2.052-8.869-13.151-10.77C368.878,177.967,378.129,180.125,382.03,188.737z"/>
	<path fill="#72544E" d="M373.837,187.153c0,0-3.045-6.852-12.327-6.615C361.51,180.538,369.333,180.803,373.837,187.153z"/>
	<path fill="#72544E" d="M365.531,185.474c0,0-4.003-5.033-11.671-2.803C353.859,182.67,360.423,181.181,365.531,185.474z"/>
	<path fill="#72544E" d="M359.87,185.912c0,0-5.303-3.599-11.966,0.837C347.904,186.749,353.73,183.349,359.87,185.912z"/>
</g>
<path fill="#BC9E9A" d="M405.146,213.533c0,0-17.869-20.461-45.564,6.624l4.021,1.955c0,0,16.912-24.53,41.632,0.75L405.146,213.533
	z"/>
<path fill="#2D2C2D" d="M672.169,812.786l9.533-284.1l-44.075-12.039l15.485-49.358l-97.496-58.985c0,0-11.911,36.111-14.294,43.336
	c0,0,20.069,34.912,22.451,42.136c0,0,29.78,93.897,29.78,319.011H672.169z"/>
<g>
	<path fill="#BF7D81" d="M392.079,326.495c0,0,37.808-5.18,53.289-1.594c0,0,29.741-3.981,54.367,2.389
		C499.734,327.29,441.333,366.325,392.079,326.495z"/>
	<path fill="#842F31" d="M398.482,327.823c0,0-1.584-1.982-4.797-1.485c0,0-1.619,1.437,3.985,2.727c0,0,44.55,9.675,97.057,0.731
		c0,0,5.359-0.792,3.771-2.358c0,0-2.399-0.744-4.825,1.106C493.673,328.543,444.641,337.411,398.482,327.823z"/>
</g>
<path fill="#C3A39B" d="M459.323,228.88c0,0-3.613,17.716,15.679,49.656c0,0-11.053-12.639-14.73-6.32
	c0,0-6.629-18.053-5.894-25.281c0,0-0.938-16.403,1.471-23.469L459.323,228.88z"/>
<path fill="#C3A39B" d="M469.058,219.852c0,0-2.684-8.127-6.257-7.224c-3.571,0.904,3.574-0.903,3.574-0.903
	s7.148-15.346,22.334-14.445C488.708,197.279,466.374,211.725,469.058,219.852z"/>
<rect x="-0.427" y="786.955" fill="#9A9B72" width="1200.827" height="25.831"/>
<rect x="-0.427" y="803.356" fill="#8E8E6C" width="1200.827" height="22.602"/>
<path fill="#7C8081" d="M1105.636,322.969l8.302,0.854c0,0,11.619,17.965,0.829,53.038h-8.3L1105.636,322.969z"/>
<g>
	<path fill="#8D3030" d="M1115.131,764.326c-7.091-6.124-27.354-10.588-52.162-13.837c-0.373,0.17-145.909,66.897-209.693-58.547
		c0,0,23.947,41.906,68.946,49.403c-137.744-37.198-104.074-271.874-104.074-271.874c-36.191-31.936-81.963-4.259-81.963-4.259
		c-2.129,0-50.03,223.536-50.03,223.536c-10.644,47.899-39.385,55.353-39.385,55.353c-13.839,10.645-24.482,43.643-24.482,43.643
		c15.095,9.664,19.512,9.664,19.512,9.664c53.893,14.136,390.305,5.238,390.305,5.238c91.545-1.065,92.607-13.839,92.607-13.839
		C1123.648,776.033,1115.131,764.326,1115.131,764.326z"/>
	<path fill="#8D3030" d="M928.071,742.028c10.325,0.437,77.851,3.346,113.454,6.035C995.03,743.511,941.969,742.282,928.071,742.028
		z"/>
</g>
<path fill="#782F30" d="M853.275,691.942c0,0,25.547,44.706,73.447,50.028c0,0,127.735,5.323,136.25,8.518
	C1062.973,750.488,917.142,817.548,853.275,691.942z"/>
<path fill="#7C8081" d="M1075.145,757.824c-0.132,7.075-36.428,12.139-81.067,11.31c-44.64-0.828-64.258-6.182-86.64-17.665
	c-6.294-3.231,42.476-8.781,87.116-7.954C1039.193,744.343,1075.275,750.75,1075.145,757.824z"/>
<path fill="#DDD9D4" d="M836.244,512.048c0,0-3.189,125.637,58.545,190.537c11.617,12.216,29.804,22.354,30.869,30.87l1.064,18.096
	c0,0,60.673,21.289,133.058,3.193l-1.065-20.225c0,0,59.61-40.45,75.576-93.673c0,0,26.611-71.318,19.16-127.733L836.244,512.048z"
	/>
<path fill="#74716C" d="M1149.292,511.156c-21.206,2.779-82.805,4.789-155.499,4.789c-72.696,0-134.294-2.01-155.502-4.789
	c-5.116,0.67-7.893,1.387-7.893,2.129c0,3.821,73.153,6.92,163.395,6.92c90.239,0,163.394-3.099,163.394-6.92
	C1157.187,512.542,1154.41,511.826,1149.292,511.156z"/>
<path fill="#9F9F9D" d="M715.13,438.708c0,0-2.651-163.447,0-166.981c2.649-3.534-3.534-0.883-3.534-0.883
	s-102.487,20.32-53.894,119.272c0,0-1.767,22.088,0,29.155C657.702,419.27,697.46,439.591,715.13,438.708z"/>
<path fill="#DDD9D4" d="M715.13,440.474c0,0-5.302-167.864,1.766-174.933c0,0,223.77-0.123,263.266,0.786
	c1.434,0.033,2.623,0.065,3.552,0.096c26.506,0.883,64.496,19.438,89.233,53.012c0,0,5.302,3.535,8.835,3.535
	c3.535,0-3.533,0-3.533,0h32.688c0,0,7.952,37.991-0.883,53.893c0,0-27.389-0.883-35.34,1.768l-1.768,74.213
	c0,0-121.039-7.952-150.193,1.767l-1.768-13.252c0,0-92.768-7.95-102.486,22.972c0,0-36.224-29.155-83.932,0
	C734.567,464.329,736.333,451.076,715.13,440.474z"/>
<path fill="#74716C" d="M1144.204,516.101c-20.633-2.432-80.564-4.19-151.295-4.19c-70.732,0-130.663,1.759-151.297,4.19
	c-4.978-0.587-7.681-1.214-7.681-1.864c0-3.342,71.177-6.053,158.978-6.053c87.8,0,158.977,2.711,158.977,6.053
	C1151.886,514.887,1149.184,515.514,1144.204,516.101z"/>
<path fill="#E5E5E5" d="M1056.16,547.377c0,0,16.793-30.922,31.039-19.81c5.132,4.005-2.811,109.351-32.321,138.612
	c0,0,33.089-79.929,1.282-122.337"/>
<path fill="#E2E0DE" d="M995.084,303.253c0,0,45.008-0.964,52.33,24.347c0.433,1.492,0.733,3.074,0.886,4.755
	C1051.047,362.537,1001.948,320.186,995.084,303.253z"/>
<path fill="#E2E0DE" d="M1080.961,328.915c0,0,13.92,8.957,10.951,18.179c-0.176,0.543-0.408,1.088-0.707,1.633
	C1085.84,358.493,1079.573,335.489,1080.961,328.915z"/>
<path fill="#A9A8A8" d="M663.886,307.949c0,0,25.621-19.437,45.059-15.02l1.768-20.32c0,0-37.106,5.301-56.544,41.523
	L663.886,307.949z"/>
<path fill="#E2E0DE" d="M718.663,267.309c0,0,254.447,2.648,257.982,2.648c0,0,11.489,19.437,7.955,21.204
	c0,0-262.403-5.3-266.821,0.885C717.779,292.046,714.246,273.494,718.663,267.309z"/>
<path fill="#CFCECE" d="M836.168,516.456c0,0-3.532,153.729,91.002,213.807c0,0,98.067,17.67,133.408,0
	c0,0,24.738-14.137,7.068-23.855c-17.671-9.718-3.535-1.767-3.535-1.767s-90.117-19.437-98.952-24.737
	c0,0-44.174-18.553-60.077-50.359c0,0-11.486-6.186-11.486-1.768c0,0-35.34-47.708-22.087-109.554
	C871.509,518.222,844.119,517.339,836.168,516.456z"/>
<path fill="#7D3132" d="M761.954,459.028c0,0-36.222,151.962-23.854,181.117c0,0,37.105,42.409,34.456,68.029
	c0,0-6.185,43.293-20.319,54.777c-14.137,11.485-1.768,3.534-1.768,3.534s55.66,30.041,68.029,37.992
	c0,0-130.759,0.882-156.38-4.415c0,0-29.155-0.004-29.155-10.606c0,0,1.767-25.621,22.972-29.154c0,0,28.272-31.807,40.64-94.535
	l40.641-198.788C737.216,466.979,754.004,450.192,761.954,459.028z"/>
<path fill="#BCBFC4" d="M1074.715,379.512c0,0-8.836-3.533-61.846-4.417l-298.623,0.001v30.038l296.856,0.884l62.728,0.884
	L1074.715,379.512z"/>
<path fill="#9F9F9D" d="M1073.535,432.817c0,0-118.685-6.626-153.139,2.65l1.768,18.849c0,0,146.443-4.501,151.077,0
	L1073.535,432.817z"/>
<ellipse fill="#74716C" cx="997.961" cy="454.477" rx="75.574" ry="3.092"/>
<circle fill="#C1C1C0" cx="777.416" cy="521.316" r="8.393"/>
<circle fill="#C1C1C0" cx="886.97" cy="343.291" r="12.369"/>
<path fill="#9F9F9D" d="M770.789,523.083c0-4.636,3.758-8.395,8.395-8.395c1.753,0,3.38,0.541,4.727,1.461
	c-1.511-2.216-4.054-3.669-6.937-3.669c-4.634,0-8.393,3.757-8.393,8.394c0,2.881,1.452,5.42,3.665,6.934
	C771.329,526.46,770.789,524.834,770.789,523.083z"/>
<path fill="#7C8081" d="M991.665,412.203c0,0-24.738,6.185-30.923,15.02c0,0-9.719-2.65-11.485,5.302c0,0-27.388,5.299-28.271,8.833
	c0,0-45.943-0.883-67.147,3.534c0,0-27.83,5.743-35.781,24.297c0,0-41.083-31.365-83.489-2.209c0,0-2.651-20.321-20.323-26.505
	c0,0-0.882-18.553-0.882-30.038L991.665,412.203z"/>
<g>
	<path fill="none" d="M880.397,332.868l16.553,16.553c0.92-3.262-0.833-8.027-4.68-11.874
		C888.425,333.702,883.659,331.949,880.397,332.868z"/>
	<path fill="none" d="M881.67,348.149c3.845,3.847,8.61,5.598,11.872,4.68l-16.552-16.553
		C876.071,339.538,877.823,344.303,881.67,348.149z"/>
	<path fill="#7C8081" d="M878.224,334.102c-0.596,0.597-0.998,1.339-1.233,2.174l16.552,16.553c0.835-0.236,1.577-0.638,2.174-1.234
		c0.598-0.597,0.998-1.338,1.234-2.174l-16.553-16.553C879.563,333.104,878.82,333.504,878.224,334.102z"/>
</g>
<path fill="#74716C" d="M818.057,467.421c0,0,9.572-27.683,103.224-25.475c0,0,18.7-9.423,27.535-9.423
	c0,0-68.472,1.767-85.258,0.883C863.558,433.407,829.542,444.45,818.057,467.421z"/>
<ellipse fill="#C1C1C0" cx="993.873" cy="513.805" rx="117.063" ry="3.534"/>
<path fill="#C1C0BF" d="M1116.83,678.725c0,0,20.318-28.271,53.007-22.088c0,0,25.622,2.651,22.972-15.902
	c0,0,3.535-74.509,1.178-92.768c0,0,0.59-11.191-28.271-11.781c0,0-9.278,1.031-12.371-22.822c0,0-4.712,17.522,4.714,24.59
	c0,0,5.89,4.124,22.971,3.534c0,0,4.122,1.769,4.122,9.425s0,2.356,0,2.356l-2.355,87.171c0,0,3.534,11.192-10.014,12.368
	c0,0-30.038-5.302-46.53,6.48c0,0-16.195,15.313-15.017,17.669C1112.413,679.315,1116.83,678.725,1116.83,678.725z"/>
<path fill="#A9A8A8" d="M1192.902,637.495c0.486-10.781,2.641-61.034,1.623-83.637h-9.422l-2.261,83.637H1192.902z"/>
<path fill="#8E8E8E" d="M1049.093,516.966c0,0.594-19.438,0.89-19.438,0.296c0-6.043,0-31.729,0-31.729h19.438
	C1049.093,485.533,1049.093,509.951,1049.093,516.966z"/>
<path fill="#9F9F9D" d="M943.071,457.26c0,0-0.883,11.485,10.603,15.021h25.622c0,0,2.651,0,2.651,5.3l0.883,7.069
	c0,0-4.418,0.883,5.301,1.766c0,0,63.612,0,67.146,0c0,0,2.651,0.884,2.651-7.951s0-22.087,0-22.087L943.071,457.26z"/>
<path fill="#8E8E8E" d="M944.839,465.8c0,0,3.24,5.007,10.308,5.007l23.266,0.589c0,0,69.208,0.885,79.516-0.883v-5.301
	C1057.928,465.212,978.411,467.273,944.839,465.8z"/>
<path fill="#A9A8A8" d="M1192.661,637.274c0,0,4.196,20.982-18.774,15.682c0,0,10.822-1.104,9.276-12.59v-4.639
	C1183.163,635.727,1192.071,634.329,1192.661,637.274z"/>
<path fill="#A9A8A8" d="M1194.428,554.004c0,0,0.441-8.395-2.209-10.382c0,0-5.301-4.858-12.147-5.964
	c0,0,17.008,7.951,5.079,15.904l-0.221,2.87L1194.428,554.004z"/>
<rect x="829.984" y="395.418" fill="#3A3A3A" width="111.321" height="6.185"/>
<rect x="842.374" y="396.4" transform="matrix(0.9992 0.0403 -0.0403 0.9992 16.764 -34.286)" fill="#7C8081" width="30.885" height="3.57"/>
<path fill="#9F9F9D" d="M852.957,391c0,0-21.646-14.136-26.063,6.185c0,0,0.44,21.203,26.063,7.067
	C852.957,404.252,836.171,396.743,852.957,391z"/>
<path fill="#74716C" d="M838.82,386.141c0,0,8.006-0.884,12.371,4.417c0,0-8.368,8.395,0,13.252c0,0-3.641,5.304-6.55,2.653
	c0,0-3.638-8.837,0-14.138C844.642,392.326,843.914,388.792,838.82,386.141z"/>
<text transform="matrix(1 0 0 1 852.0742 393.6538)" font-family="'JerseyM54'" font-size="10.602">Stir   2   4   6   8   10</text>
</svg>
