<?xml version="1.0" encoding="utf-8"?>
<!-- Generator: Adobe Illustrator 16.0.0, SVG Export Plug-In . SVG Version: 6.00 Build 0)  -->
<!DOCTYPE svg PUBLIC "-//W3C//DTD SVG 1.1//EN" "http://www.w3.org/Graphics/SVG/1.1/DTD/svg11.dtd">
<svg version="1.1" xmlns="http://www.w3.org/2000/svg" xmlns:xlink="http://www.w3.org/1999/xlink" x="0px" y="0px" width="864px"
	 height="864px" viewBox="0 0 864 864" enable-background="new 0 0 864 864" xml:space="preserve">
<g id="Layer_2">
	<g>
		<path fill="#C1AF30" d="M853.83,724.5c-18.787-39.645-198.878-70.74-418.272-70.74S36.071,684.855,17.286,724.5h-1.62v6.842
			c0,0.006-0.001,0.011-0.001,0.017c0,0.005,0.001,0.011,0.001,0.015v22.979c0,0.006-0.001,0.012-0.001,0.017
			c0,0.006,0.001,0.011,0.001,0.016v2.879h0.289c8.238,41.516,192.947,74.703,419.603,74.703s411.364-33.188,419.604-74.703h0.289
			V724.5H853.83z"/>
		<path fill="#B19D32" d="M15.666,727.889c0,0,420.755,129.392,838.164-3.389l1.331,32.764c0,0-16.953,63.804-403.221,74.15
			c0,0-336.259,0-436.848-68.978L15.666,727.889z"/>
	</g>
</g>
<g id="Layer_1" display="none">
	
		<image display="inline" overflow="visible" width="1198" height="799" xlink:href="41017F02.jpg"  transform="matrix(0.8356 0 0 0.8356 -111.0581 119.7476)">
	</image>
</g>
<g id="Layer_9">
	<path fill="#7C8081" d="M742.836,122.665l10.801,1.112c0,0,15.122,23.376,1.082,69.016h-10.802L742.836,122.665z"/>
</g>
<g id="Mixer_Base">
	<g>
		<path fill="#8D3030" d="M755.192,696.982c-9.227-7.967-35.596-13.777-67.878-18.005c-0.485,0.224-189.864,87.053-272.866-76.184
			c0,0,31.165,54.532,89.718,64.286C324.925,618.677,368.74,313.3,368.74,313.3c-47.095-41.554-106.655-5.541-106.655-5.541
			c-2.771,0-65.102,290.878-65.102,290.878c-13.851,62.33-51.25,72.027-51.25,72.027c-18.006,13.853-31.858,56.79-31.858,56.79
			c19.641,12.577,25.39,12.577,25.39,12.577c70.129,18.395,507.887,6.814,507.887,6.814
			c119.123-1.385,120.507-18.007,120.507-18.007C766.274,712.218,755.192,696.982,755.192,696.982z"/>
		<path fill="#8D3030" d="M511.778,667.969c13.438,0.569,101.305,4.354,147.632,7.854
			C598.91,669.898,529.863,668.299,511.778,667.969z"/>
	</g>
	<path fill="#782F30" d="M414.449,602.794c0,0,33.244,58.174,95.575,65.101c0,0,166.216,6.926,177.297,11.081
		C687.32,678.976,497.558,766.239,414.449,602.794z"/>
	<path fill="#7C8081" d="M703.158,688.522c-0.172,9.206-47.401,15.795-105.489,14.718c-58.088-1.079-83.614-8.044-112.739-22.989
		c-8.191-4.204,55.271-11.426,113.359-10.348C656.377,670.98,703.328,679.316,703.158,688.522z"/>
	<path fill="#782F30" d="M876.133,647.084"/>
	<path fill="#DDD9D4" d="M392.287,368.706c0,0-4.149,163.487,76.183,247.939c15.118,15.895,38.782,29.087,40.169,40.168
		l1.385,23.548c0,0,78.953,27.704,173.142,4.156l-1.386-26.317c0,0,77.568-52.637,98.345-121.894c0,0,34.628-92.803,24.933-166.215
		L392.287,368.706z"/>
	<path fill="#74716C" d="M799.644,367.544c-27.596,3.616-107.749,6.232-202.345,6.232c-94.597,0-174.75-2.616-202.346-6.232
		c-6.659,0.873-10.272,1.804-10.272,2.77c0,4.973,95.192,9.004,212.618,9.004c117.425,0,212.617-4.031,212.617-9.004
		C809.916,369.348,806.303,368.417,799.644,367.544z"/>
	<path fill="#9F9F9D" d="M234.688,273.271c0,0-3.45-212.688-0.001-217.287s-4.599-1.149-4.599-1.149S96.727,81.277,159.958,210.039
		c0,0-2.299,28.741,0,37.938C159.958,247.978,211.694,274.421,234.688,273.271z"/>
	<path fill="#DDD9D4" d="M234.687,275.57c0,0-6.898-218.436,2.299-227.633c0,0,291.18-0.161,342.574,1.022
		c1.866,0.043,3.416,0.085,4.624,0.125c34.489,1.149,83.925,25.294,116.115,68.981c0,0,6.897,4.599,11.497,4.599
		c4.599,0-4.6,0-4.6,0h42.538c0,0,10.347,49.435-1.15,70.128c0,0-35.639-1.149-45.986,2.3l-2.299,96.571
		c0,0-157.503-10.349-195.442,2.297l-2.299-17.242c0,0-120.715-10.347-133.361,29.891c0,0-47.136-37.939-109.218,0
		C259.979,306.61,262.278,289.365,234.687,275.57z"/>
	<path fill="#74716C" d="M793.022,373.98c-26.849-3.165-104.836-5.454-196.874-5.454c-92.039,0-170.024,2.289-196.875,5.454
		c-6.479-0.765-9.994-1.579-9.994-2.425c0-4.35,92.619-7.877,206.869-7.877s206.87,3.528,206.87,7.877
		C803.019,372.401,799.503,373.215,793.022,373.98z"/>
</g>
<g id="Layer_25">
	<path fill="#E5E5E5" d="M678.455,414.678c0,0,21.852-40.238,40.39-25.776c6.678,5.209-3.657,142.292-42.057,180.37
		c0,0,43.056-104.009,1.667-159.191"/>
</g>
<g id="Layer_24">
	<path fill="#E2E0DE" d="M598.98,97.01c0,0,58.565-1.254,68.096,31.68c0.561,1.941,0.952,4.001,1.151,6.188
		C671.801,174.152,607.912,119.043,598.98,97.01z"/>
	<path fill="#E2E0DE" d="M710.727,130.401c0,0,18.115,11.655,14.25,23.656c-0.228,0.707-0.53,1.416-0.919,2.124
		C717.074,168.89,708.921,138.955,710.727,130.401z"/>
</g>
<g id="Layer_23">
	<path fill="#A9A8A8" d="M168.006,103.121c0,0,33.34-25.292,58.632-19.544l2.299-26.442c0,0-48.286,6.897-73.578,54.034
		L168.006,103.121z"/>
	<path fill="#E2E0DE" d="M239.285,50.236c0,0,331.102,3.446,335.7,3.446c0,0,14.951,25.293,10.354,27.593
		c0,0-341.455-6.896-347.203,1.152C238.136,82.426,233.537,58.284,239.285,50.236z"/>
</g>
<g id="Layer_22">
	<path fill="#CFCECE" d="M392.188,374.441c0,0-4.597,200.04,118.417,278.217c0,0,127.612,22.993,173.599,0
		c0,0,32.19-18.395,9.196-31.041c-22.992-12.646-4.598-2.299-4.598-2.299s-117.266-25.293-128.763-32.19
		c0,0-57.482-24.144-78.177-65.531c0,0-14.945-8.048-14.945-2.3c0,0-45.987-62.08-28.742-142.556
		C438.176,376.741,402.536,375.591,392.188,374.441z"/>
</g>
<g id="Layer_21">
	<path fill="#7D3132" d="M295.619,299.712c0,0-47.136,197.742-31.041,235.68c0,0,48.286,55.185,44.836,88.524
		c0,0-8.047,56.333-26.441,71.278c-18.395,14.945-2.3,4.599-2.3,4.599s72.428,39.093,88.524,49.438c0,0-170.149,1.146-203.49-5.744
		c0,0-37.939-0.007-37.939-13.804c0,0,2.299-33.34,29.891-37.938c0,0,36.79-41.388,52.884-123.014l52.885-258.673
		C263.428,310.059,285.272,288.216,295.619,299.712z"/>
</g>
<g id="Layer_13">
	<path fill="#BCBFC4" d="M702.599,196.243c0,0-11.497-4.598-80.477-5.748l-388.585,0.001v39.087l386.285,1.15l81.627,1.149
		L702.599,196.243z"/>
</g>
<g id="Layer_11">
	<path fill="#9F9F9D" d="M701.065,265.606c0,0-154.439-8.622-199.274,3.449l2.3,24.526c0,0,190.561-5.856,196.593,0L701.065,265.606
		z"/>
</g>
<g id="Layer_12">
	<ellipse fill="#74716C" cx="602.724" cy="293.792" rx="98.342" ry="4.023"/>
</g>
<g id="Layer_8">
	<circle fill="#C1C1C0" cx="315.738" cy="380.765" r="10.922"/>
	<circle fill="#C1C1C0" cx="458.295" cy="149.106" r="16.095"/>
	<path fill="#9F9F9D" d="M307.115,383.064c0-6.033,4.89-10.922,10.922-10.922c2.282,0,4.4,0.703,6.152,1.9
		c-1.967-2.882-5.276-4.775-9.027-4.775c-6.031,0-10.921,4.89-10.921,10.922c0,3.75,1.89,7.055,4.769,9.022
		C307.816,387.459,307.115,385.344,307.115,383.064z"/>
	<path fill="#7C8081" d="M594.53,238.78c0,0-32.191,8.048-40.238,19.544c0,0-12.646-3.448-14.945,6.898
		c0,0-35.64,6.898-36.789,11.497c0,0-59.783-1.149-87.374,4.598c0,0-36.215,7.473-46.562,31.616c0,0-53.459-40.813-108.643-2.875
		c0,0-3.449-26.442-26.445-34.489c0,0-1.147-24.143-1.147-39.089L594.53,238.78z"/>
	<g>
		<path fill="none" d="M449.743,135.546l21.539,21.539c1.196-4.246-1.084-10.446-6.089-15.45
			C460.189,136.629,453.988,134.35,449.743,135.546z"/>
		<path fill="none" d="M451.397,155.43c5.004,5.004,11.205,7.284,15.45,6.089l-21.539-21.539
			C444.113,144.225,446.393,150.426,451.397,155.43z"/>
		<path fill="#7C8081" d="M446.915,137.151c-0.777,0.776-1.3,1.742-1.606,2.829l21.539,21.539c1.086-0.307,2.053-0.829,2.83-1.605
			c0.775-0.776,1.298-1.742,1.604-2.829l-21.539-21.539C448.656,135.852,447.691,136.374,446.915,137.151z"/>
	</g>
</g>
<g id="Layer_10">
	<path fill="#74716C" d="M368.622,310.634c0,0,12.455-36.022,134.319-33.148c0,0,24.333-12.263,35.83-12.263
		c0,0-89.099,2.299-110.941,1.149C427.83,266.372,383.567,280.743,368.622,310.634z"/>
</g>
<g id="Layer_7">
	<ellipse fill="#C1C1C0" cx="597.404" cy="370.991" rx="152.33" ry="4.599"/>
</g>
<g id="Layer_6">
	<path fill="#C1C0BF" d="M681.67,617.667c0,0,22.997-32,59.997-25c0,0,29,3,26-18c0,0,4.001-84.333,1.334-105
		c0,0,0.667-12.666-32-13.333c0,0-10.501,1.166-14.001-25.834c0,0-5.333,19.834,5.334,27.834c0,0,6.667,4.667,26,4
		c0,0,4.667,2.001,4.667,10.667s0,2.666,0,2.666l-2.667,98.667c0,0,4.001,12.667-11.333,14c0,0-34-6.001-52.667,7.333
		c0,0-18.33,17.333-16.997,20S681.67,617.667,681.67,617.667z"/>
	<path fill="#A9A8A8" d="M767.773,570.999c0.55-12.202,2.987-69.081,1.838-94.665h-10.665l-2.56,94.665H767.773z"/>
</g>
<g id="Layer_20">
	<path fill="#8E8E8E" d="M669.258,375.106c0,0.771-25.292,1.157-25.292,0.385c0-7.862,0-41.289,0-41.289h25.292
		C669.258,334.202,669.258,365.977,669.258,375.106z"/>
</g>
<g id="Layer_18">
	<path fill="#9F9F9D" d="M531.299,297.413c0,0-1.149,14.945,13.796,19.544h33.34c0,0,3.449,0,3.449,6.897l1.149,9.197
		c0,0-5.748,1.15,6.898,2.299c0,0,82.775,0,87.374,0c0,0,3.449,1.15,3.449-10.347s0-28.741,0-28.741L531.299,297.413z"/>
</g>
<g id="Layer_19">
	<path fill="#8E8E8E" d="M533.597,308.525c0,0,4.218,6.515,13.414,6.515l30.274,0.767c0,0,90.056,1.151,103.47-1.148v-6.898
		C680.755,307.76,577.284,310.442,533.597,308.525z"/>
</g>
<g id="Layer_5">
	<path fill="#A9A8A8" d="M767.5,570.75c0,0,4.75,23.75-21.25,17.75c0,0,12.25-1.25,10.5-14.25V569
		C756.75,569,766.833,567.416,767.5,570.75z"/>
	<path fill="#A9A8A8" d="M769.5,476.5c0,0,0.5-9.5-2.5-11.75c0,0-6-5.5-13.75-6.75c0,0,19.25,9,5.75,18l-0.25,3.25L769.5,476.5z"/>
</g>
<g id="Layer_16">
	<rect x="384.143" y="216.939" fill="#3A3A3A" width="144.856" height="8.047"/>
</g>
<g id="Layer_15">
</g>
<g id="Layer_14">
	
		<rect x="400.264" y="218.217" transform="matrix(0.9992 0.0403 -0.0403 0.9992 9.2379 -16.7762)" fill="#7C8081" width="40.189" height="4.646"/>
	<path fill="#9F9F9D" d="M414.036,211.19c0,0-28.167-18.394-33.915,8.048c0,0,0.575,27.592,33.915,9.197
		C414.036,228.436,392.192,218.664,414.036,211.19z"/>
	<path fill="#74716C" d="M395.641,204.867c0,0,10.417-1.149,16.098,5.749c0,0-10.891,10.922,0,17.244c0,0-4.736,6.9-8.523,3.451
		c0,0-4.734-11.497,0-18.396C403.216,212.915,402.269,208.316,395.641,204.867z"/>
</g>
<g id="Layer_17">
	<text transform="matrix(1 0 0 1 412.8857 214.6372)" font-family="'JerseyM54'" font-size="13.7959">Stir   2   4   6   8   10</text>
</g>
</svg>
