<?xml version="1.0" encoding="utf-8"?>
<!-- Generator: Adobe Illustrator 16.0.0, SVG Export Plug-In . SVG Version: 6.00 Build 0)  -->
<!DOCTYPE svg PUBLIC "-//W3C//DTD SVG 1.1//EN" "http://www.w3.org/Graphics/SVG/1.1/DTD/svg11.dtd">
<svg version="1.1" id="Layer_3" xmlns="http://www.w3.org/2000/svg" xmlns:xlink="http://www.w3.org/1999/xlink" x="0px" y="0px"
	 width="512px" height="512px" viewBox="0 0 512 512" enable-background="new 0 0 512 512" xml:space="preserve">
<path fill="#FFFFFF" d="M469.563,1.56H43.436c-23.6,0-42.727,15.239-42.727,34.042v443.837c0,18.804,19.127,34.043,42.727,34.043
	h426.126c23.6,0,42.729-15.239,42.729-34.043V35.602C512.291,16.799,493.162,1.56,469.563,1.56z M256.045,40.519v-0.011
	c0.155,0,0.305,0.002,0.455,0.004c0.155-0.002,0.305-0.004,0.456-0.004v0.011c35.217,0.435,58.409,20.769,58.409,63.591
	c0,17.476-23.193,63.564-58.409,64.562v0.025c-0.151-0.005-0.301-0.015-0.456-0.015c-0.15,0-0.3,0.009-0.455,0.015v-0.025
	c-35.223-0.997-58.408-47.086-58.408-64.562C197.637,61.288,220.822,40.954,256.045,40.519z M188.835,185.684
	c0,0,24.846-3.015,25.2-18.533c0.098-4.227,1.938-6.18,1.938-6.18s21.191,39.898,40.527,41.68c19.336-1.782,40.53-41.68,40.53-41.68
	s2.206,2.538,1.938,6.18c-1.13,15.495,25.201,18.533,25.201,18.533c62.03,10.812,58.152,83.794,58.152,83.794l-125.454,0.021H256.5
	h-0.363l-125.46-0.021C130.677,269.479,126.795,196.495,188.835,185.684z M366.814,415.891H146.183
	c-5.439,0-9.849-4.763-9.849-10.635c0-5.877,4.409-10.638,9.849-10.638h220.63c5.44,0,9.853,4.761,9.853,10.638
	C376.665,411.128,372.254,415.891,366.814,415.891z M406.04,373.303H106.961c-7.376,0-13.353-4.76-13.353-10.635
	c0-5.877,5.977-10.638,13.353-10.638H406.04c7.376,0,13.354,4.761,13.354,10.638C419.393,368.543,413.416,373.303,406.04,373.303z
	 M406.04,327.882H106.961c-7.376,0-13.353-4.76-13.353-10.636c0-5.877,5.977-10.639,13.353-10.639H406.04
	c7.376,0,13.354,4.762,13.354,10.639C419.393,323.122,413.416,327.882,406.04,327.882z"/>
</svg>
