<?xml version="1.0" encoding="utf-8"?>
<!-- Generator: Adobe Illustrator 16.0.0, SVG Export Plug-In . SVG Version: 6.00 Build 0)  -->
<!DOCTYPE svg PUBLIC "-//W3C//DTD SVG 1.1//EN" "http://www.w3.org/Graphics/SVG/1.1/DTD/svg11.dtd">
<svg version="1.1" xmlns="http://www.w3.org/2000/svg" xmlns:xlink="http://www.w3.org/1999/xlink" x="0px" y="0px" width="512px"
	 height="512px" viewBox="0 0 512 512" enable-background="new 0 0 512 512" xml:space="preserve">
<g id="Layer_1" display="none">
	<g display="inline">
		<path fill="#FFFFFF" d="M370.701,0H141.29C63.383,0,0,63.386,0,141.292v229.412c0,77.91,63.383,141.293,141.29,141.293h229.412
			c77.913,0,141.296-63.386,141.296-141.293V141.292C512,63.386,448.614,0,370.701,0z M466.573,370.704
			c0,52.862-43.007,95.866-95.869,95.866H141.29c-52.858,0.003-95.863-43.004-95.863-95.866V141.292
			c0-52.858,43.004-95.866,95.863-95.866h229.412c52.86,0,95.869,43.007,95.869,95.866v229.412H466.573z"/>
		<path fill="#FFFFFF" d="M255.999,124.076c-72.747,0-131.929,59.182-131.929,131.929c0,72.744,59.182,131.922,131.929,131.922
			s131.929-59.179,131.929-131.922C387.928,183.258,328.745,124.076,255.999,124.076z M255.999,342.497
			c-47.695,0-86.502-38.8-86.502-86.496c0-47.698,38.804-86.502,86.502-86.502c47.699,0,86.501,38.804,86.501,86.502
			C342.5,303.697,303.693,342.497,255.999,342.497z"/>
		<path fill="#FFFFFF" d="M393.46,85.557c-8.752,0-17.351,3.543-23.53,9.751c-6.212,6.178-9.783,14.779-9.783,23.562
			c0,8.755,3.574,17.353,9.783,23.561c6.178,6.178,14.778,9.752,23.53,9.752c8.782,0,17.354-3.574,23.563-9.752
			c6.208-6.208,9.752-14.809,9.752-23.561c0-8.783-3.544-17.383-9.752-23.562C410.844,89.1,402.242,85.557,393.46,85.557z"/>
	</g>
</g>
<g id="Layer_2">
	<path fill="#FFFFFF" d="M474.088,116.69l-50.914-28.543C375.188,83.032,335.91,194.07,335.91,194.07
		c-11.255,29.542,28.136,68.934,28.136,68.934c29.545,26.731,29.545,40.798,29.545,40.798
		c-2.816,50.645-47.833,32.356-47.833,32.356c-19.695-11.255-16.881-37.982-16.881-37.982c-1.409-26.73-21.104-29.544-21.104-29.544
		c-30.951,8.44-40.799,81.597-40.799,81.597c14.068,25.323,2.813,37.982,2.813,37.982c-26.728,42.204-63.306,4.222-63.306,4.222
		c-16.881-40.799,18.289-54.866,18.289-54.866c5.626-9.847,30.949-109.733,30.949-109.733l-18.29,39.392l-5.625-7.035
		c-9.848,1.409-39.392,28.137-39.392,28.137c-5.625,22.511-22.51,26.73-22.51,26.73c-39.392,15.474-43.612-33.764-43.612-33.764
		c-2.813-19.696,30.952-29.544,30.952-29.544c16.881-2.813,98.477-67.528,98.477-67.528l-39.392,19.697l-21.102,2.813
		c-15.473-1.408-29.544,14.068-29.544,14.068c-42.204,8.442-40.796-32.357-40.796-32.357c16.881-33.764,42.204-21.102,42.204-21.102
		c64.715,8.442,85.816-14.068,85.816-14.068c30.953-14.069,52.055-70.342,52.055-70.342c25.323-32.357,5.626-57.681,5.626-57.681
		l-22.2-12.664c-4.449-2.967-10.81-4.54-17.188-5.337l-0.003-0.291c0,0-5.038-0.5-11.804-0.443
		c-6.766-0.057-11.804,0.443-11.804,0.443l-0.003,0.291c-6.378,0.797-12.739,2.37-17.188,5.337L44.697,116.69
		c0,0-15.475,18.289-16.883,42.205v203.99c0,0,8.442,28.136,26.731,35.17l177.259,98.479c0,0,11.721,10.146,27.588,9.5
		c15.867,0.646,27.588-9.5,27.588-9.5l177.261-98.479c18.289-7.034,26.729-35.17,26.729-35.17v-203.99
		C489.563,134.979,474.088,116.69,474.088,116.69z"/>
</g>
</svg>
