<?xml version="1.0" encoding="utf-8"?>
<!-- Generator: Adobe Illustrator 16.0.0, SVG Export Plug-In . SVG Version: 6.00 Build 0)  -->
<!DOCTYPE svg PUBLIC "-//W3C//DTD SVG 1.1//EN" "http://www.w3.org/Graphics/SVG/1.1/DTD/svg11.dtd">
<svg version="1.1" id="Layer_1" xmlns="http://www.w3.org/2000/svg" xmlns:xlink="http://www.w3.org/1999/xlink" x="0px" y="0px"
	 width="50px" height="49.68px" viewBox="0 0 50 49.68" enable-background="new 0 0 50 49.68" xml:space="preserve">
<path fill="#FFFFFF" d="M40.444,36.234l-0.198-0.141h-6.768c-0.316,0-0.331-0.966-0.339-1.286V22.994
	c0-0.116,0.093-0.208,0.21-0.208h7.898c0.114,0,0.208-0.093,0.208-0.209V10.655c0-0.114-0.094-0.207-0.208-0.207h-7.863
	c-0.114,0-0.207-0.093-0.207-0.209V0.281c0-0.113-0.094-0.207-0.208-0.207H18.185c-1.011,0-2.177,0.748-2.347,2.139
	c-0.705,5.743-3.89,8.528-8.84,10.182L6.446,12.58l-0.141,0.199v9.799c0,0.116,0.092,0.209,0.207,0.209h5.996v12.727
	c0,9.636,6.286,14.183,18.624,14.183c4.966,0,10.439-1.769,12.064-3.909l0.325-0.432L40.444,36.234z M41.147,45.039
	c-1.551,1.489-5.282,2.596-8.329,2.647l-0.342,0.004c-10.025,0-11.748-7.652-11.748-12.177V20.959c0-0.116-0.092-0.208-0.207-0.208
	h-5.753c-0.115,0-0.208-0.093-0.208-0.209l-0.05-6.327l0.133-0.19c5.181-2.018,8.073-5.366,8.834-11.564
	c0.043-0.346,0.326-0.354,0.328-0.354h7.127c0.114,0,0.21,0.093,0.21,0.209v9.957c0,0.116,0.094,0.209,0.206,0.209h7.863
	c0.117,0,0.21,0.092,0.21,0.207v7.858c0,0.116-0.093,0.209-0.21,0.209h-7.895c-0.118,0-0.202,0.092-0.202,0.208v13.863
	c0.048,2.974,1.478,4.482,4.269,4.482c1.126,0,2.31-0.263,3.484-0.713c0.109-0.043,0.231,0.014,0.27,0.128l2.058,6.097
	L41.147,45.039z"/>
</svg>
