<?xml version="1.0" encoding="utf-8"?>
<!--Generator: Adobe Illustrator 16.0.0, SVG Export Plug-In . SVG Version: 6.00 Build 0)-->
<!DOCTYPE svg PUBLIC "-//W3C//DTD SVG 1.1//EN" "http://www.w3.org/Graphics/SVG/1.1/DTD/svg11.dtd">
<svg version="1.1" id="Layer_1" xmlns="http://www.w3.org/2000/svg" xmlns:xlink="http://www.w3.org/1999/xlink" x="0px" y="0px" width="250px" height="250px" viewBox="0 0 250 250" enable-background="new 0 0 250 250" xml:space="preserve">
    <g>
        <path fill="#212529" d="M24.974,33.408c0,0,0.003,0.008,0.008,0.022v-0.022H24.974z"/>
        <path fill="#212529" d="M224.99,35.165c0.002-0.081,0.01-0.162,0.01-0.243C225,16.84,180.23,2.18,125,2.18
		c-53.96,0-97.929,13.995-99.921,31.502c-0.052-0.126-0.084-0.214-0.097-0.251V85.63c21.286,37.659,103.004,33.385,103.004,33.385
		c86.834-0.858,97.041-31.678,97.041-31.678V35.111C225.016,35.129,225.002,35.147,224.99,35.165z"/>
    </g>
    <path fill="#212529" d="M24.391,99.039c0,0,12.852,32.549,101.892,33.393c0,0,77.915,1.717,99.326-31.676v52.238
	c0,0-10.279,30.813-97.61,31.672c0,0-82.204,4.273-103.607-33.389L24.391,99.039L24.391,99.039z"/>
    <path fill="#212529" d="M24.401,164.389c0,0,12.843,32.555,101.885,33.396c0,0,77.911,1.716,99.313-31.682v52.244
	c0,0-10.281,30.81-97.613,31.649c0,0-82.193,4.292-103.585-33.367V164.389L24.401,164.389z"/>
</svg>
