<?xml version="1.0" encoding="utf-8"?>
<!--Generator: Adobe Illustrator 16.0.0, SVG Export Plug-In . SVG Version: 6.00 Build 0)-->
<!DOCTYPE svg PUBLIC "-//W3C//DTD SVG 1.1//EN" "http://www.w3.org/Graphics/SVG/1.1/DTD/svg11.dtd">
<svg version="1.1" xmlns="http://www.w3.org/2000/svg" xmlns:xlink="http://www.w3.org/1999/xlink" x="0px" y="0px" width="72px" height="72px" viewBox="0 0 72 72" enable-background="new 0 0 72 72" xml:space="preserve">
    <g id="Layer_1" display="none">
        <g id="Photoshop_Logo" display="inline">
            <g>
                <rect fill="#37C5F3" width="72" height="72"/>
                <rect x="2.852" y="2.853" fill="#0A1F26" width="66.461" height="66.461"/>
                <path fill="#37C5F3" d="M17.141,51.733l0.071-32.836l10.302-0.143c0,0,9.658,0.644,9.658,10.587c0,9.944-9.444,10.73-9.444,10.73
				l-5.079,0.071v11.662L17.141,51.733z"/>
                <path fill="#0A1F26" d="M22.793,23.689l-0.072,11.233c0,0,9.158,1.43,9.015-5.795C31.735,29.127,32.165,22.689,22.793,23.689z"/>
                <path fill="#37C5F3" d="M40.034,45.869v4.864c0,0,9.729,5.149,14.594-3.436c0,0,1.788-4.363-2.146-8.153
				c0,0-5.366-3.076-6.297-3.72c0,0-2.218-2.792,1.431-3.435c0,0,3.362-0.571,6.368,1.074l0.144-5.008c0,0-4.508-2.577-11.233,0.285
				c0,0-2.862,1.933-2.79,5.652c0,0-0.786,3.934,3.792,6.653c0,0,5.079,2.289,5.652,3.791c0,0,1.215,3.29-3.721,3.078
				C45.828,47.515,41.393,46.796,40.034,45.869z"/>
            </g>
        </g>
    </g>
    <g id="Layer_2" display="none">
        <g id="Illustrator_Logo" display="inline">
            <g>
                <rect fill="#F37D21" width="71.998" height="72"/>
                <rect x="2.852" y="2.852" fill="#281A11" width="66.46" height="66.463"/>
                <rect x="47.483" y="27.127" fill="#F37D21" width="5.15" height="25.752"/>
                <circle fill="#F37D21" cx="50.272" cy="17.469" r="3.219"/>
                <polygon fill="#F37D21" points="42.904,53.024 32.603,18.112 25.449,18.112 15.791,52.88 21.299,52.953 24.09,43.295 
				34.106,43.295 36.751,53.024 			"/>
                <polygon fill="#281A11" points="25.306,37.786 32.673,37.786 28.811,23.122 			"/>
            </g>
        </g>
    </g>
    <g id="Layer_3" display="none">
        <g id="After_Effects_Logo" display="inline">
            <g>
                <rect fill="#B894C5" width="72" height="71.999"/>
                <rect x="2.853" y="2.852" fill="#220C3F" width="66.462" height="66.461"/>
                <polygon fill="#B894C5" points="42.905,53.025 32.604,18.115 25.45,18.115 15.792,52.882 21.3,52.953 24.09,43.296 
				34.107,43.296 36.754,53.025 			"/>
                <polygon fill="#220C3F" points="25.308,37.787 32.675,37.787 28.812,23.121 			"/>
                <path fill="#B894C5" d="M61.375,46.579v4.828c0,0-9.228,4.509-15.772-2.786c0,0-5.903-9.446,0.857-19.212
				c0,0,6.01-7.188,14.166,0c0,0,4.186,4.294,2.254,10.839l-14.059,0.323c0,0-0.215,7.511,6.974,7.19
				C55.796,47.762,59.123,47.976,61.375,46.579z"/>
                <path fill="#220C3F" d="M49.036,36.171h8.583c0,0,1.074-5.258-4.077-5.258C53.543,30.913,49.895,30.377,49.036,36.171z"/>
            </g>
            <polygon fill="#B894C5" points="42.905,53.025 32.604,18.115 25.45,18.115 15.792,52.882 21.3,52.953 24.09,43.296 34.107,43.296 
			36.754,53.025 		"/>
            <polygon fill="#220C3F" points="25.308,37.787 32.675,37.787 28.812,23.121 		"/>
        </g>
    </g>
    <g id="Layer_4" display="none">
        <g id="Wordpress_Logo" display="inline">
            <g>
                <circle fill="#37C5F3" cx="35.941" cy="35.941" r="35.941"/>
                <path fill="#FFFFFF" d="M35.943,4.125c-17.57,0-31.816,14.245-31.816,31.816c0,17.57,14.247,31.815,31.816,31.815
				c17.572,0,31.817-14.245,31.817-31.815C67.759,18.37,53.515,4.125,35.943,4.125z M35.944,65.148
				c-16.131,0-29.208-13.078-29.208-29.208c0-16.13,13.076-29.209,29.208-29.209c16.132,0,29.209,13.079,29.209,29.209
				C65.153,52.07,52.076,65.148,35.944,65.148z"/>
                <path fill="#FFFFFF" d="M10.818,20.411c0,0,9.403-0.147,10.137-0.296c0,0,1.761,0.883,0.146,2.205l-3.674,0.735l10.577,31.291
				l6.465-18.802l-4.555-12.488l-3.673-0.588c0,0-1.468-1.764,0.883-2.352c0,0,12.779,0.588,15.571,0c0,0,2.939,0.442,0.294,2.352
				c0,0-2.057,0.588-3.673,0.293l10.725,31.292l4.701-15.132c0,0,0.881-5.289,0-7.493c0,0-2.056-4.994-3.966-7.932
				c0,0-3.674-7.491,4.406-8.667c0,0,5.288,1.176,6.024,7.787c0,0,0.879,4.995-0.736,9.842L50.188,61.839l-4.994,2.496
				l-9.403-24.974l-8.521,25.414l-4.995-1.908L8.614,24.669L10.818,20.411z"/>
            </g>
        </g>
    </g>
    <g id="Layer_5" display="none">
        <g id="HTML5_Logo" display="inline">
            <circle fill="#F15A30" cx="35.882" cy="35.882" r="35.882"/>
            <path fill="#F47A32" d="M35.826,0c-0.09,0-0.179,0.006-0.27,0.006v71.75c0.091,0.001,0.18,0.008,0.27,0.008
			c19.816,0,35.882-16.066,35.882-35.882C71.708,16.065,55.642,0,35.826,0z"/>
            <polygon fill="#FFFFFF" points="22.887,42.813 23.868,52.227 35.631,55.757 47.984,52.227 49.75,33.991 28.183,33.991 
			27.789,28.306 50.534,28.109 50.729,22.031 21.123,22.031 22.495,39.873 43.082,39.873 42.69,47.324 35.828,49.481 29.236,47.569 
			29.163,43.083 		"/>
            <path fill="#F15A30" d="M35.882,0.126c-19.816,0-35.881,16.066-35.881,35.88c0,19.816,16.065,35.882,35.881,35.882
			c19.816,0,35.881-16.065,35.881-35.882C71.764,16.192,55.697,0.126,35.882,0.126z M35.882,67.184
			c-17.217,0-31.177-13.96-31.177-31.177c0-17.216,13.959-31.175,31.177-31.175S67.058,18.79,67.058,36.007
			C67.058,53.225,53.1,67.184,35.882,67.184z"/>
            <g>
                <path fill="#FFFFFF" d="M28.073,19.471h-1.598v-3.262h-2.993v3.262h-1.603v-7.559h1.603v2.962h2.993v-2.962h1.598V19.471z"/>
                <path fill="#FFFFFF" d="M32.896,19.471h-1.602v-6.225h-2.053v-1.333h5.708v1.333h-2.052V19.471L32.896,19.471z"/>
                <path fill="#FFFFFF" d="M39.312,19.471l-1.819-5.93h-0.046c0.065,1.207,0.099,2.012,0.099,2.415v3.516h-1.433v-7.559h2.183
				l1.788,5.78h0.03l1.897-5.78h2.183v7.558h-1.494v-3.578c0-0.169,0.003-0.365,0.008-0.584c0.004-0.221,0.028-0.807,0.07-1.758
				h-0.046l-1.949,5.919h-1.471V19.471z"/>
                <path fill="#FFFFFF" d="M46.095,19.471v-7.559h1.603v6.234h3.065v1.324L46.095,19.471L46.095,19.471z"/>
            </g>
        </g>
    </g>
    <g id="Layer_6">
        <g id="CSS3_Logo">
            <g>
                <circle fill="#167EC2" cx="36.045" cy="36.045" r="36.045"/>
                <path fill="#1D90CE" d="M35.988,0c-0.091,0-0.18,0.006-0.271,0.007v72.075c0.091,0,0.179,0.008,0.271,0.008
				c19.906,0,36.044-16.139,36.044-36.044S55.895,0,35.988,0z"/>
                <polygon fill="#FFFFFF" points="20.95,21.335 50.57,21.335 50.57,27.095 37.2,32.708 49.608,32.857 48.279,50.731 36.166,54.72 
				23.831,50.955 23.24,42.015 28.779,42.091 29.075,46.299 36.166,48.147 42.813,46.672 43.33,38.692 22.87,38.545 22.575,33.079 
				35.648,27.243 21.91,27.022 			"/>
                <path fill="#167EC2" d="M36.045,0.004C16.139,0.004,0,16.142,0,36.048c0,19.907,16.139,36.045,36.045,36.045
				c19.905,0,36.045-16.139,36.045-36.045C72.09,16.142,55.95,0.004,36.045,0.004z M36.045,67.364
				c-17.296,0-31.318-14.021-31.318-31.317S18.748,4.729,36.045,4.729c17.296,0,31.317,14.023,31.317,31.318
				C67.362,53.341,53.34,67.364,36.045,67.364z"/>
                <path fill="#FFFFFF" d="M30.64,12.617c-0.606,0-1.076,0.228-1.407,0.683c-0.334,0.455-0.5,1.09-0.5,1.904
				c0,1.692,0.636,2.539,1.907,2.539c0.534,0,1.179-0.133,1.937-0.4v1.351c-0.624,0.26-1.319,0.39-2.088,0.39
				c-1.104,0-1.949-0.335-2.534-1.006c-0.585-0.668-0.878-1.631-0.878-2.884c0-0.789,0.144-1.48,0.432-2.075
				c0.287-0.594,0.699-1.049,1.238-1.366c0.54-0.317,1.169-0.476,1.894-0.476c0.738,0,1.478,0.178,2.223,0.535l-0.52,1.309
				c-0.285-0.135-0.569-0.253-0.856-0.354C31.199,12.668,30.916,12.617,30.64,12.617z"/>
                <path fill="#FFFFFF" d="M38.675,16.87c0,0.686-0.247,1.227-0.741,1.62c-0.492,0.395-1.179,0.593-2.059,0.593
				c-0.811,0-1.528-0.152-2.15-0.457v-1.496c0.513,0.229,0.946,0.39,1.303,0.483c0.353,0.093,0.679,0.14,0.972,0.14
				c0.354,0,0.625-0.067,0.813-0.202c0.19-0.135,0.284-0.336,0.284-0.603c0-0.149-0.041-0.281-0.125-0.397
				c-0.082-0.116-0.204-0.228-0.365-0.335c-0.162-0.107-0.488-0.278-0.984-0.513c-0.464-0.219-0.812-0.429-1.044-0.628
				c-0.232-0.2-0.417-0.435-0.555-0.702c-0.14-0.267-0.209-0.578-0.209-0.935c0-0.672,0.228-1.199,0.683-1.583
				c0.457-0.384,1.085-0.577,1.889-0.577c0.395,0,0.771,0.046,1.13,0.14c0.357,0.094,0.731,0.226,1.123,0.396l-0.52,1.251
				c-0.404-0.166-0.739-0.282-1.004-0.348c-0.265-0.066-0.525-0.099-0.782-0.099c-0.304,0-0.538,0.07-0.702,0.213
				c-0.162,0.142-0.243,0.327-0.243,0.556c0,0.142,0.032,0.266,0.1,0.371c0.066,0.105,0.17,0.208,0.313,0.307
				c0.143,0.099,0.483,0.277,1.019,0.532c0.71,0.34,1.198,0.68,1.461,1.021C38.542,15.957,38.675,16.375,38.675,16.87z"/>
                <path fill="#FFFFFF" d="M44.533,16.87c0,0.686-0.248,1.227-0.741,1.62c-0.492,0.395-1.18,0.593-2.059,0.593
				c-0.811,0-1.527-0.152-2.15-0.457v-1.496c0.513,0.229,0.945,0.39,1.3,0.483c0.356,0.093,0.681,0.14,0.975,0.14
				c0.354,0,0.624-0.067,0.813-0.202c0.188-0.135,0.282-0.336,0.282-0.603c0-0.149-0.041-0.281-0.124-0.397
				c-0.083-0.115-0.205-0.228-0.366-0.335c-0.161-0.107-0.489-0.278-0.984-0.513c-0.464-0.219-0.813-0.429-1.043-0.628
				c-0.232-0.2-0.419-0.435-0.557-0.702c-0.139-0.267-0.207-0.578-0.207-0.935c0-0.672,0.228-1.199,0.683-1.583
				c0.456-0.384,1.085-0.577,1.889-0.577c0.394,0,0.771,0.046,1.129,0.14s0.733,0.226,1.124,0.396l-0.52,1.251
				c-0.404-0.166-0.74-0.282-1.004-0.348c-0.266-0.066-0.526-0.099-0.782-0.099c-0.305,0-0.538,0.07-0.701,0.213
				c-0.164,0.142-0.244,0.327-0.244,0.556c0,0.142,0.033,0.266,0.099,0.371c0.065,0.105,0.171,0.208,0.314,0.307
				c0.143,0.099,0.483,0.277,1.02,0.532c0.71,0.34,1.197,0.68,1.46,1.021S44.533,16.375,44.533,16.87z"/>
            </g>
        </g>
    </g>
</svg>
