<?xml version="1.0" encoding="utf-8"?>
<!--Generator: Adobe Illustrator 16.0.0, SVG Export Plug-In . SVG Version: 6.00 Build 0)-->
<!DOCTYPE svg PUBLIC "-//W3C//DTD SVG 1.1//EN" "http://www.w3.org/Graphics/SVG/1.1/DTD/svg11.dtd">
<svg version="1.1" xmlns="http://www.w3.org/2000/svg" xmlns:xlink="http://www.w3.org/1999/xlink" x="0px" y="0px" width="250px" height="250px" viewBox="0 0 250 250" enable-background="new 0 0 250 250" xml:space="preserve">
    <g id="Layer_2" display="none">
        <image display="inline" overflow="visible" width="1600" height="900" xlink:href="E74AF542.jpg" transform="matrix(1 0 0 1 -1103.002 -268.7231)"/>
    </g>
    <g id="Layer_1">
        <g>
            <path fill="#4D5864" d="M100.275,144.206c0,0,12.562,21.537,35.893,26.919c0,0,7.18,78.962-75.371,78.962
			c0,0-59.223-7.183-55.634-80.758c0,0,8.973,8.974,17.946,16.15c0,0,19.741,10.769,23.33-12.559
			C46.439,172.921,50.025,140.619,100.275,144.206z"/>
            <path fill="#4D5864" d="M206.841,9.799c0,0,41.653-35.271,37.916,27.43c0,0-60.135,126.718-90.414,123.359
			c0,0-95.113,3.586-8.672-89.718L206.841,9.799z"/>
        </g>
    </g>
</svg>
