<?xml version="1.0" encoding="utf-8"?>
<!--Generator: Adobe Illustrator 16.0.0, SVG Export Plug-In . SVG Version: 6.00 Build 0)-->
<!DOCTYPE svg PUBLIC "-//W3C//DTD SVG 1.1//EN" "http://www.w3.org/Graphics/SVG/1.1/DTD/svg11.dtd">
<svg version="1.1" xmlns="http://www.w3.org/2000/svg" xmlns:xlink="http://www.w3.org/1999/xlink" x="0px" y="0px" width="250px" height="250px" viewBox="0 0 250 250" enable-background="new 0 0 250 250" xml:space="preserve">
    <g id="Layer_1" display="none">
        <g id="Layer_2"/>
    </g>
    <g id="Layer_2_1_">
        <g>
            <path fill="#FFFFFF" d="M250.463,95.067c0.174-6.646-4.955-2.656-4.955-2.656l-74.382,55.287
			c-26.779,23.175-42.015,23.423-44.705,23.254v-0.04c0,0-0.075,0.011-0.217,0.024c-0.143-0.014-0.217-0.024-0.217-0.024v0.04
			c-2.69,0.169-17.926-0.079-44.706-23.254L6.9,92.412c0,0-5.129-3.99-4.955,2.656l-0.877,98.602c0,0,1.754,23.676,23.676,24.553
			H126.03h0.348h101.286c21.922-0.877,23.675-24.553,23.675-24.553L250.463,95.067z"/>
            <path fill="#FFFFFF" d="M7.186,73.888l83.5,61.556c0,0,22.827,18.882,35.412,20.491v0.028c0.035-0.003,0.071-0.01,0.106-0.014
			c0.034,0.004,0.07,0.011,0.105,0.014v-0.028c12.585-1.609,35.412-20.491,35.412-20.491l83.5-61.556
			c5.13-4.275,5.7-10.83,5.7-10.83v-9.12c-1.14-22.229-23.653-23.083-23.653-23.083H126.311h-0.214H25.14
			c0,0-22.515,0.855-23.654,23.083v9.12C1.485,63.058,2.055,69.612,7.186,73.888z"/>
        </g>
    </g>
</svg>
