<?xml version="1.0" encoding="utf-8"?>
<!--Generator: Adobe Illustrator 16.0.0, SVG Export Plug-In . SVG Version: 6.00 Build 0)-->
<!DOCTYPE svg PUBLIC "-//W3C//DTD SVG 1.1//EN" "http://www.w3.org/Graphics/SVG/1.1/DTD/svg11.dtd">
<svg version="1.1" id="Layer_1" xmlns="http://www.w3.org/2000/svg" xmlns:xlink="http://www.w3.org/1999/xlink" x="0px" y="0px" width="250px" height="250px" viewBox="0 0 250 250" enable-background="new 0 0 250 250" xml:space="preserve">
    <g>
        <g id="Layer_2" display="none"/>
        <path fill="#212529" d="M124.97,249.803c-34.461,0.002-68.921,0.016-103.381-0.008c-14.513-0.01-19.808-5.313-19.813-19.84
		C1.758,160.438,1.758,90.922,1.771,21.408C1.773,6.879,6.993,1.68,21.626,1.677C91.142,1.66,160.654,1.66,230.171,1.68
		c14.634,0.004,19.815,5.187,19.819,19.77c0.014,69.515,0.014,139.028-0.004,208.546c-0.004,14.496-5.309,19.79-19.854,19.8
		C195.078,249.818,160.023,249.803,124.97,249.803z M233.236,233.195c0-56.614,0-112.534,0-168.334c-72.08,0-143.477,0-214.852,0
		c0,56.406,0,112.12,0,168.334C90.079,233.195,161.232,233.195,233.236,233.195z M18.326,47.443c72.256,0,143.593,0,215.07,0
		c0-10.084,0-19.449,0-29.222c-71.873,0-143.23,0-215.07,0C18.326,28.064,18.326,37.427,18.326,47.443z"/>
        <path fill="#212529" d="M137.777,91.686c5.518,2.064,9.869,3.693,15.029,5.623c-13.064,35.222-25.871,69.741-38.955,105.016
		c-5.047-1.907-9.365-3.541-14.921-5.644C111.826,161.829,124.586,127.337,137.777,91.686z"/>
        <path fill="#212529" d="M209.145,149.367c-12.592,12.818-25.668,26.126-39.312,40.009c-3.315-3.79-6.56-7.499-10.269-11.742
		c9.244-8.758,18.875-17.878,29.367-27.815c-10.94-10.229-20.785-19.43-30.789-28.783c4.922-4.723,8.465-8.121,11.623-11.15
		C182.859,123.013,196.158,136.35,209.145,149.367z"/>
        <path fill="#212529" d="M82.893,109.972c2.83,2.619,6.258,5.793,10.854,10.045c-10.396,9.793-20.223,19.051-30.824,29.04
		c10.576,10.051,20.206,19.205,30.034,28.547c-4.271,4.058-7.822,7.431-11.298,10.731c-12.794-13.063-25.809-26.354-38.322-39.132
		C55.828,136.814,69.187,123.566,82.893,109.972z"/>
        <circle fill="#212529" cx="33.687" cy="33.114" r="7.537"/>
        <circle fill="#212529" cx="53.719" cy="33.114" r="7.537"/>
        <circle fill="#212529" cx="73.75" cy="33.114" r="7.537"/>
    </g>
</svg>
