<?xml version="1.0" encoding="utf-8"?>
<!--Generator: Adobe Illustrator 16.0.0, SVG Export Plug-In . SVG Version: 6.00 Build 0)-->
<!DOCTYPE svg PUBLIC "-//W3C//DTD SVG 1.1//EN" "http://www.w3.org/Graphics/SVG/1.1/DTD/svg11.dtd">
<svg version="1.1" id="Layer_1" xmlns="http://www.w3.org/2000/svg" xmlns:xlink="http://www.w3.org/1999/xlink" x="0px" y="0px" width="72px" height="72px" viewBox="0 0 72 72" enable-background="new 0 0 72 72" xml:space="preserve">
    <path fill="#FFFFFF" d="M-571.5-186.5"/>
    <path fill="#F05133" d="M70.241,34.489L38.711,2.958c-1.678-1.75-3.756-0.406-4.163,0l-8.102,8.102l7.358,7.627
	c0.204,0.215,0.397,0.417,0.58,0.604c0.457-0.13,0.938-0.201,1.437-0.201c2.897,0,5.246,2.347,5.246,5.244
	c0,0.513-0.076,1.009-0.214,1.479c0.157,0.192,0.214,0.269,0.214,0.269l7.39,7.127c0.622-0.26,1.305-0.404,2.021-0.404
	c2.896,0,5.243,2.348,5.243,5.244s-2.348,5.243-5.243,5.243c-2.896,0-5.244-2.347-5.244-5.243c0-0.529,0.079-1.041,0.225-1.523
	l-7.351-7.352v18.688c1.895,0.791,3.227,2.66,3.227,4.843c0,2.895-2.348,5.243-5.245,5.243c-2.895,0-5.243-2.349-5.243-5.243
	c0-2.022,1.146-3.777,2.823-4.652l-0.132-18.997c-1.752-0.849-2.96-2.645-2.96-4.722c0-0.692,0.135-1.351,0.378-1.955
	c-0.07-0.21-0.109-0.331-0.109-0.331l-7.628-7.761L3.017,34.489c-0.406,0.406-1.481,2.62,0,4.163l31.531,31.529
	c0.407,0.406,2.351,1.616,4.163,0l31.53-31.529C71.722,36.84,70.647,34.895,70.241,34.489z"/>
</svg>
