<?xml version="1.0" encoding="utf-8"?>
<!--Generator: Adobe Illustrator 16.0.0, SVG Export Plug-In . SVG Version: 6.00 Build 0)-->
<!DOCTYPE svg PUBLIC "-//W3C//DTD SVG 1.1//EN" "http://www.w3.org/Graphics/SVG/1.1/DTD/svg11.dtd">
<svg version="1.1" xmlns="http://www.w3.org/2000/svg" xmlns:xlink="http://www.w3.org/1999/xlink" x="0px" y="0px" width="72px" height="72px" viewBox="0 0 72 72" enable-background="new 0 0 72 72" xml:space="preserve">
    <g id="Layer_2">
        <path fill="#0C6AAB" d="M69.926,22.778c0,0,0.733-3.632-2.924-6.356L38.973,1.439c0,0-3.168-1.816-6.824,0.682L7.288,15.514
		c0,0-4.63,1.814-4.63,6.81v26.785c0,0-0.836,5.266,4.56,7.465l24.667,13.301l-0.005-0.088l0.756,0.434c0,0,3.409,2.04,6.823,0.227
		l27.785-14.754c0,0,3.172-0.91,2.682-7.266V22.778z"/>
    </g>
    <g id="Layer_3">
        <g>
            <path fill="#FFFFFF" d="M47.159,18.618c-5.39-0.332-9.492-4.971-9.157-10.36c0.05-0.852,0.214-1.674,0.469-2.447
			c-0.826,1.283-1.348,2.788-1.447,4.421c-0.313,5.095,3.565,9.479,8.659,9.793c2.865,0.177,5.504-0.972,7.319-2.919
			C51.321,18.18,49.301,18.749,47.159,18.618z"/>
            <path fill="#FFFFFF" d="M44.578,26.125c-7.657-0.195-13.711-6.56-13.518-14.218c0.032-1.211,0.217-2.383,0.537-3.494
			c-1.102,1.861-1.762,4.022-1.821,6.342c-0.183,7.241,5.537,13.263,12.778,13.443c4.07,0.104,7.754-1.659,10.236-4.51
			C50.458,25.293,47.62,26.201,44.578,26.125z"/>
            <path fill="#FFFFFF" d="M42.737,32.981c-9.901,0.465-18.306-7.185-18.771-17.09c-0.071-1.567,0.061-3.094,0.364-4.559
			c-1.246,2.506-1.896,5.357-1.758,8.355c0.44,9.363,8.387,16.598,17.747,16.157c5.264-0.246,9.856-2.865,12.789-6.774
			C50.25,31.36,46.677,32.798,42.737,32.981z"/>
        </g>
        <g>
            <polygon fill="#FFFFFF" points="17.112,42.174 19.345,42.117 18.946,44.234 16.8,44.198 		"/>
            <path fill="#FFFFFF" d="M18.669,46.33l-1.815,7.852c0,0,0.084,1.631-3.605,1.114l0.257-2.06c0,0,1.658,0.634,2.172-1.651
			l1.086-5.214h2.233L18.669,46.33z"/>
            <path fill="#FFFFFF" d="M38.038,50.892l1.804-8.323l-2.062-0.085l-1.284,6.347c0,0-1.89,0.198-2.493-0.166
			c-0.667-1.167,0.583-6.167,0.583-6.167l-1.833-0.083c0,0-2.75,7.916,0.137,8.22C32.892,50.636,35.639,51.063,38.038,50.892z"/>
            <path fill="#FFFFFF" d="M48.423,50.805l1.804-8.323l6.003-0.087c0,0,0.771,0.602,0.857,2.062h-5.233l-1.287,6.349H48.423
			L48.423,50.805z"/>
            <path fill="#FFFFFF" d="M57.604,46.6c0,0-0.085-1.373-0.517-1.373h-2.229c0,0,1.458,3.604,0.515,5.665l2.317,0.085
			c0,0,3.433-7.208,6.264-9.697l-2.747-0.085L57.604,46.6z"/>
            <path fill="#FFFFFF" d="M30.662,43.34c0,0,0-3.086-4.376-3.174c0,0-4.375-0.686-5.579,5.664c0,0-0.944,4.717,2.489,4.975
			l7.034,0.087l0.345-1.975l-1.172-0.052C29.402,48.865,31.004,45.313,30.662,43.34z M28.372,44.685l-0.914,4.177l-3.204-0.051
			c0,0-1.488-0.063-1.488-1.722c0,0,0-4.92,3.318-4.92C26.084,42.166,28.66,41.995,28.372,44.685z"/>
            <path fill="#FFFFFF" d="M47.993,43.853c-1.028-2.831-4.978-1.2-4.978-1.2c-3.172,1.546-2.913,5.748-2.913,5.748
			c0.052,2.181,1.801,2.404,1.801,2.404l5.144-0.084l0.261-1.804H43.53c-1.801,0-1.11-1.632-1.11-1.632l5.317,0.087
			C48.796,46.75,47.993,43.853,47.993,43.853z M45.877,45.716h-3.375c0.571-1.719,1.89-1.546,1.89-1.546
			C46.108,44.062,45.877,45.716,45.877,45.716z"/>
        </g>
    </g>
</svg>
