<?xml version="1.0" encoding="utf-8"?>
<!--Generator: Adobe Illustrator 16.0.0, SVG Export Plug-In . SVG Version: 6.00 Build 0)-->
<!DOCTYPE svg PUBLIC "-//W3C//DTD SVG 1.1//EN" "http://www.w3.org/Graphics/SVG/1.1/DTD/svg11.dtd">
<svg version="1.1" xmlns="http://www.w3.org/2000/svg" xmlns:xlink="http://www.w3.org/1999/xlink" x="0px" y="0px" width="72px" height="72px" viewBox="0 0 72 72" enable-background="new 0 0 72 72" xml:space="preserve">
    <g id="Layer_4">
        <path fill="#F6DC3C" d="M69.926,22.778c0,0,0.733-3.632-2.924-6.356L38.973,1.439c0,0-3.168-1.816-6.824,0.682L7.288,15.514
		c0,0-4.63,1.814-4.63,6.81v26.785c0,0-0.836,5.266,4.56,7.465l24.667,13.301l-0.005-0.088l0.756,0.434c0,0,3.409,2.04,6.823,0.227
		l27.785-14.754c0,0,3.172-0.91,2.682-7.266V22.778z"/>
    </g>
    <g id="Layer_3_1_">
        <path fill="#2C2E2D" d="M41.673,33.059h4.624v16.35c0,0-0.495,6.275-7.267,5.615c0,0-4.128,0-6.275-3.964l3.798-2.313
		c0,0,3.964,5.285,5.12-0.578V33.059z"/>
        <path fill="#2C2E2D" d="M59.427,38.591l3.716-2.146c0,0-1.816-5.037-8.423-3.386c0,0-4.129,0.99-4.789,5.698
		c0,0-0.66,4.458,3.881,6.192c0,0,5.78,1.899,6.027,3.964c0,0-0.165,2.395-3.633,2.146c0,0-2.229,0.082-3.798-2.808l-3.634,2.395
		c0,0,3.634,7.019,12.717,3.386c0,0,8.009-4.376-0.083-10.486c0,0-3.386-2.313-5.532-2.891c0,0-2.313-0.743-0.743-3.139
		C55.133,37.517,57.279,34.957,59.427,38.591z"/>
    </g>
</svg>
