<?xml version="1.0" encoding="utf-8"?>
<!--Generator: Adobe Illustrator 22.0.1, SVG Export Plug-In . SVG Version: 6.00 Build 0)-->
<svg version="1.1" id="Layer_1" xmlns="http://www.w3.org/2000/svg" xmlns:xlink="http://www.w3.org/1999/xlink" x="0px" y="0px" viewBox="0 0 49.7 49.7" style="enable-background:new 0 0 49.7 49.7" xml:space="preserve">
    <path d="M39.3,0h-29C4.6,0,0,4.6,0,10.3v29C0,45,4.6,49.7,10.3,49.7h29c5.7,0,10.3-4.6,10.3-10.3v-29
	C49.7,4.6,45,0,39.3,0z M16.6,39.3h-6.2V16.6h6.2V39.3z M13.5,13.9c-2,0-3.6-1.6-3.6-3.7c0-2,1.6-3.7,3.6-3.7s3.6,1.6,3.6,3.7
	C17.1,12.3,15.5,13.9,13.5,13.9z M41.4,39.3h-6.2V27.7c0-7-8.3-6.4-8.3,0v11.6h-6.2V16.6h6.2v3.7c2.9-5.4,14.5-5.7,14.5,5.1V39.3z" style="fill:#fff"/>
</svg>
