<?xml version="1.0" encoding="utf-8"?>
<!--Generator: Adobe Illustrator 16.0.0, SVG Export Plug-In . SVG Version: 6.00 Build 0)-->
<!DOCTYPE svg PUBLIC "-//W3C//DTD SVG 1.1//EN" "http://www.w3.org/Graphics/SVG/1.1/DTD/svg11.dtd">
<svg version="1.1" id="Layer_1" xmlns="http://www.w3.org/2000/svg" xmlns:xlink="http://www.w3.org/1999/xlink" x="0px" y="0px" width="72px" height="72px" viewBox="0 0 72 72" enable-background="new 0 0 72 72" xml:space="preserve">
    <g id="Layer_1_1_" display="none">
        <g id="Photoshop_Logo" display="inline">
            <g>
                <rect fill="#37C5F3" width="72" height="72"/>
                <rect x="2.852" y="2.853" fill="#0A1F26" width="66.46" height="66.461"/>
                <path fill="#37C5F3" d="M17.141,51.732l0.071-32.835l10.302-0.143c0,0,9.658,0.644,9.658,10.587c0,9.944-9.444,10.73-9.444,10.73
				l-5.079,0.071v11.661L17.141,51.732z"/>
                <path fill="#0A1F26" d="M22.793,23.689l-0.072,11.233c0,0,9.158,1.43,9.015-5.795C31.735,29.127,32.165,22.689,22.793,23.689z"/>
                <path fill="#37C5F3" d="M40.034,45.869v4.863c0,0,9.729,5.149,14.594-3.436c0,0,1.788-4.363-2.146-8.152
				c0,0-5.366-3.076-6.297-3.721c0,0-2.219-2.792,1.431-3.435c0,0,3.362-0.571,6.368,1.074l0.144-5.008
				c0,0-4.508-2.577-11.233,0.285c0,0-2.861,1.933-2.789,5.652c0,0-0.787,3.934,3.791,6.652c0,0,5.08,2.289,5.652,3.791
				c0,0,1.215,3.291-3.721,3.078C45.828,47.515,41.393,46.796,40.034,45.869z"/>
            </g>
        </g>
    </g>
    <g id="Layer_2" display="none">
        <g id="Illustrator_Logo" display="inline">
            <g>
                <rect fill="#F37D21" width="71.998" height="72"/>
                <rect x="2.852" y="2.852" fill="#281A11" width="66.46" height="66.462"/>
                <rect x="47.482" y="27.127" fill="#F37D21" width="5.15" height="25.752"/>
                <circle fill="#F37D21" cx="50.271" cy="17.469" r="3.219"/>
                <polygon fill="#F37D21" points="42.904,53.023 32.603,18.112 25.449,18.112 15.791,52.88 21.299,52.953 24.09,43.295 
				34.106,43.295 36.751,53.023 			"/>
                <polygon fill="#281A11" points="25.306,37.786 32.673,37.786 28.811,23.122 			"/>
            </g>
        </g>
    </g>
    <g id="Layer_3" display="none">
        <g id="After_Effects_Logo" display="inline">
            <g>
                <rect fill="#B894C5" width="72" height="71.999"/>
                <rect x="2.853" y="2.852" fill="#220C3F" width="66.461" height="66.46"/>
                <polygon fill="#B894C5" points="42.904,53.025 32.604,18.115 25.45,18.115 15.792,52.882 21.3,52.953 24.09,43.296 
				34.107,43.296 36.754,53.025 			"/>
                <polygon fill="#220C3F" points="25.308,37.787 32.675,37.787 28.812,23.121 			"/>
                <path fill="#B894C5" d="M61.375,46.579v4.828c0,0-9.229,4.509-15.771-2.786c0,0-5.903-9.446,0.856-19.212
				c0,0,6.011-7.188,14.166,0c0,0,4.187,4.294,2.254,10.839l-14.06,0.323c0,0-0.215,7.511,6.975,7.189
				C55.796,47.762,59.123,47.977,61.375,46.579z"/>
                <path fill="#220C3F" d="M49.036,36.171h8.583c0,0,1.074-5.258-4.077-5.258C53.543,30.913,49.895,30.377,49.036,36.171z"/>
            </g>
            <polygon fill="#B894C5" points="42.904,53.025 32.604,18.115 25.45,18.115 15.792,52.882 21.3,52.953 24.09,43.296 34.107,43.296 
			36.754,53.025 		"/>
            <polygon fill="#220C3F" points="25.308,37.787 32.675,37.787 28.812,23.121 		"/>
        </g>
    </g>
    <g id="Layer_4" display="none">
        <g id="Wordpress_Logo" display="inline">
            <g>
                <circle fill="#37C5F3" cx="35.941" cy="35.941" r="35.941"/>
                <path fill="#FFFFFF" d="M35.943,4.125c-17.57,0-31.816,14.245-31.816,31.816c0,17.57,14.247,31.815,31.816,31.815
				c17.573,0,31.817-14.245,31.817-31.815C67.759,18.37,53.516,4.125,35.943,4.125z M35.944,65.148
				c-16.131,0-29.208-13.078-29.208-29.208c0-16.13,13.076-29.209,29.208-29.209c16.132,0,29.208,13.079,29.208,29.209
				C65.152,52.07,52.076,65.148,35.944,65.148z"/>
                <path fill="#FFFFFF" d="M10.818,20.411c0,0,9.403-0.147,10.137-0.296c0,0,1.761,0.883,0.146,2.205l-3.674,0.734l10.577,31.291
				l6.465-18.802l-4.555-12.488l-3.673-0.588c0,0-1.468-1.764,0.883-2.352c0,0,12.778,0.588,15.571,0c0,0,2.938,0.442,0.294,2.352
				c0,0-2.058,0.588-3.673,0.293l10.725,31.292l4.701-15.132c0,0,0.881-5.289,0-7.493c0,0-2.057-4.994-3.967-7.932
				c0,0-3.674-7.491,4.406-8.667c0,0,5.289,1.176,6.024,7.787c0,0,0.879,4.995-0.735,9.842L50.188,61.839l-4.994,2.496
				l-9.402-24.974L27.27,64.775l-4.995-1.908L8.614,24.669L10.818,20.411z"/>
            </g>
        </g>
    </g>
    <g id="Layer_5" display="none">
        <g id="HTML5_Logo" display="inline">
            <circle fill="#F15A30" cx="35.882" cy="35.882" r="35.882"/>
            <path fill="#F47A32" d="M35.826,0c-0.09,0-0.179,0.006-0.27,0.006v71.75c0.091,0.001,0.18,0.008,0.27,0.008
			c19.816,0,35.882-16.065,35.882-35.882C71.708,16.065,55.643,0,35.826,0z"/>
            <polygon fill="#FFFFFF" points="22.887,42.813 23.868,52.227 35.631,55.757 47.984,52.227 49.75,33.991 28.183,33.991 
			27.789,28.306 50.534,28.109 50.729,22.031 21.123,22.031 22.495,39.873 43.082,39.873 42.689,47.324 35.828,49.48 29.236,47.569 
			29.163,43.083 		"/>
            <path fill="#F15A30" d="M35.882,0.126c-19.816,0-35.881,16.066-35.881,35.88c0,19.816,16.065,35.882,35.881,35.882
			c19.816,0,35.882-16.064,35.882-35.882C71.764,16.192,55.697,0.126,35.882,0.126z M35.882,67.184
			c-17.217,0-31.177-13.959-31.177-31.177c0-17.216,13.959-31.175,31.177-31.175S67.059,18.79,67.059,36.007
			C67.059,53.225,53.1,67.184,35.882,67.184z"/>
            <g>
                <path fill="#FFFFFF" d="M28.073,19.471h-1.598v-3.262h-2.993v3.262h-1.603v-7.559h1.603v2.962h2.993v-2.962h1.598V19.471z"/>
                <path fill="#FFFFFF" d="M32.896,19.471h-1.602v-6.225h-2.053v-1.333h5.708v1.333h-2.052L32.896,19.471L32.896,19.471z"/>
                <path fill="#FFFFFF" d="M39.313,19.471l-1.819-5.93h-0.046c0.064,1.207,0.099,2.012,0.099,2.415v3.516h-1.433v-7.559h2.183
				l1.788,5.78h0.029l1.897-5.78h2.183v7.558H42.7v-3.578c0-0.169,0.003-0.365,0.008-0.584c0.004-0.221,0.028-0.807,0.069-1.758
				h-0.045l-1.949,5.919L39.313,19.471L39.313,19.471L39.313,19.471z"/>
                <path fill="#FFFFFF" d="M46.096,19.471v-7.559h1.603v6.234h3.065v1.324L46.096,19.471L46.096,19.471z"/>
            </g>
        </g>
    </g>
    <g id="Layer_6" display="none">
        <g id="CSS3_Logo" display="inline">
            <g>
                <circle fill="#167EC2" cx="36.045" cy="36.045" r="36.045"/>
                <path fill="#1D90CE" d="M35.988,0c-0.091,0-0.18,0.006-0.271,0.007v72.075c0.091,0,0.179,0.008,0.271,0.008
				c19.907,0,36.044-16.139,36.044-36.044C72.032,16.141,55.895,0,35.988,0z"/>
                <polygon fill="#FFFFFF" points="20.95,21.335 50.57,21.335 50.57,27.095 37.2,32.708 49.607,32.857 48.279,50.73 36.166,54.72 
				23.831,50.955 23.24,42.015 28.779,42.091 29.075,46.299 36.166,48.146 42.813,46.672 43.33,38.691 22.87,38.545 22.575,33.079 
				35.648,27.243 21.91,27.022 			"/>
                <path fill="#167EC2" d="M36.045,0.004C16.139,0.004,0,16.142,0,36.048c0,19.907,16.139,36.045,36.045,36.045
				c19.905,0,36.045-16.139,36.045-36.045C72.09,16.142,55.95,0.004,36.045,0.004z M36.045,67.364
				c-17.296,0-31.318-14.021-31.318-31.317S18.748,4.729,36.045,4.729c17.296,0,31.316,14.023,31.316,31.318
				C67.361,53.341,53.34,67.364,36.045,67.364z"/>
                <path fill="#FFFFFF" d="M30.64,12.617c-0.606,0-1.076,0.228-1.407,0.683c-0.334,0.455-0.5,1.09-0.5,1.904
				c0,1.692,0.636,2.539,1.907,2.539c0.534,0,1.179-0.133,1.937-0.4v1.352c-0.624,0.26-1.319,0.39-2.088,0.39
				c-1.104,0-1.949-0.335-2.534-1.006c-0.585-0.668-0.878-1.631-0.878-2.884c0-0.789,0.144-1.48,0.432-2.075
				c0.287-0.594,0.699-1.049,1.238-1.366c0.54-0.317,1.169-0.476,1.894-0.476c0.738,0,1.478,0.178,2.223,0.535l-0.521,1.309
				c-0.285-0.135-0.569-0.253-0.856-0.354C31.199,12.668,30.916,12.617,30.64,12.617z"/>
                <path fill="#FFFFFF" d="M38.675,16.87c0,0.686-0.247,1.227-0.741,1.62c-0.492,0.395-1.179,0.593-2.059,0.593
				c-0.811,0-1.528-0.152-2.15-0.457V17.13c0.513,0.229,0.946,0.39,1.303,0.483c0.353,0.093,0.679,0.14,0.972,0.14
				c0.354,0,0.625-0.067,0.813-0.202c0.19-0.135,0.285-0.336,0.285-0.603c0-0.149-0.041-0.281-0.125-0.397
				c-0.082-0.116-0.205-0.228-0.365-0.335c-0.163-0.107-0.488-0.278-0.984-0.513c-0.464-0.219-0.812-0.429-1.044-0.628
				c-0.232-0.2-0.417-0.436-0.555-0.702c-0.14-0.267-0.209-0.578-0.209-0.935c0-0.672,0.228-1.199,0.683-1.583
				c0.457-0.384,1.085-0.577,1.889-0.577c0.395,0,0.771,0.046,1.13,0.14c0.356,0.094,0.73,0.226,1.123,0.396l-0.521,1.251
				c-0.404-0.166-0.739-0.282-1.004-0.348c-0.265-0.065-0.525-0.099-0.782-0.099c-0.304,0-0.538,0.07-0.702,0.213
				c-0.162,0.142-0.243,0.327-0.243,0.556c0,0.143,0.032,0.267,0.1,0.371c0.066,0.105,0.17,0.208,0.313,0.307
				c0.143,0.099,0.483,0.277,1.019,0.532c0.711,0.34,1.199,0.681,1.462,1.021C38.542,15.957,38.675,16.375,38.675,16.87z"/>
                <path fill="#FFFFFF" d="M44.533,16.87c0,0.686-0.248,1.227-0.741,1.62c-0.492,0.395-1.181,0.593-2.06,0.593
				c-0.811,0-1.526-0.152-2.149-0.457V17.13c0.513,0.229,0.944,0.39,1.3,0.483c0.356,0.093,0.682,0.14,0.975,0.14
				c0.354,0,0.625-0.067,0.813-0.202c0.188-0.135,0.282-0.336,0.282-0.603c0-0.149-0.041-0.281-0.124-0.397
				c-0.083-0.115-0.205-0.228-0.366-0.335c-0.161-0.107-0.488-0.278-0.984-0.513c-0.463-0.219-0.813-0.429-1.043-0.628
				c-0.231-0.2-0.418-0.436-0.557-0.702c-0.139-0.267-0.207-0.578-0.207-0.935c0-0.672,0.229-1.199,0.684-1.583
				s1.084-0.577,1.889-0.577c0.395,0,0.771,0.046,1.129,0.14s0.732,0.226,1.124,0.396l-0.521,1.251
				c-0.403-0.166-0.74-0.282-1.004-0.348c-0.266-0.065-0.525-0.099-0.781-0.099c-0.306,0-0.539,0.07-0.701,0.213
				c-0.164,0.142-0.244,0.327-0.244,0.556c0,0.143,0.033,0.267,0.1,0.371c0.064,0.105,0.17,0.208,0.313,0.307
				c0.143,0.099,0.483,0.277,1.021,0.532c0.709,0.34,1.196,0.681,1.459,1.021C44.402,15.959,44.533,16.375,44.533,16.87z"/>
            </g>
        </g>
    </g>
    <g id="Layer_7" display="none">
        <g id="JS_Logo" display="inline">
            <circle fill="#F58231" cx="35.979" cy="35.982" r="35.982"/>
            <path fill="#F99F38" d="M35.923,0c-0.09,0-0.179,0.006-0.27,0.007v71.951c0.091,0,0.18,0.005,0.27,0.005
			c19.873,0,35.983-16.109,35.983-35.98S55.796,0,35.923,0z"/>
            <path fill="#F58231" d="M35.98,0.003c-19.873,0-35.982,16.11-35.982,35.982c0,19.87,16.109,35.982,35.982,35.982
			c19.872,0,35.981-16.112,35.981-35.982C71.962,16.114,55.854,0.003,35.98,0.003z M35.98,67.248
			c-17.266,0-31.264-13.998-31.264-31.264S18.715,4.721,35.98,4.721c17.267,0,31.264,13.998,31.264,31.263
			S53.246,67.248,35.98,67.248z"/>
            <polygon fill="#FFFFFF" points="33.016,17.49 33.016,56.102 20.201,52.515 19.347,41.75 23.789,42.434 23.959,46.021 
			28.06,47.218 27.206,17.319 		"/>
            <polygon fill="#FFFFFF" points="37.736,49.371 37.736,56.479 50.741,53.188 52.82,31.512 43.807,31.338 43.807,24.055 
			53.342,24.229 53.688,17.466 37.736,17.466 37.736,38.273 46.232,38.1 45.886,47.116 		"/>
        </g>
    </g>
    <g id="Layer_8" display="none">
        <g id="Bootstrap" display="inline">
            <circle fill="#573F7E" cx="35.92" cy="35.919" r="35.919"/>
            <path fill="#573F7E" d="M35.92,0.003C16.083,0.003,0,16.087,0,35.923c0,19.838,16.083,35.921,35.92,35.921
			s35.92-16.083,35.92-35.921C71.84,16.087,55.757,0.003,35.92,0.003z M35.92,67.132c-17.236,0-31.208-13.974-31.208-31.209
			c0-17.235,13.972-31.209,31.208-31.209c17.236,0,31.209,13.974,31.209,31.209C67.129,53.158,53.156,67.132,35.92,67.132z"/>
            <path fill="#FFFFFF" d="M44.813,44.038c5.996-3.688,4.151-10.147,4.151-10.147c-1.383-5.073-9.687-5.997-9.687-5.997H22.672
			v34.134l17.066,0.461c5.535-0.923,10.609-1.845,10.609-9.226C50.35,45.884,44.813,44.038,44.813,44.038z M27.284,31.584H39.27
			v0.001c0.01,0,0.02,0,0.027,0c2.791,0,5.053,2.26,5.053,5.051c0,2.789-2.262,5.052-5.053,5.052c-0.009,0-0.02-0.004-0.027-0.004
			v0.004H27.284V31.584z M40.07,58.02c-0.012,0-0.021-0.002-0.031-0.002v0.002H27.284V47.268h12.755v0.002
			c0.01,0,0.021-0.002,0.031-0.002c2.97,0,5.375,2.406,5.375,5.377C45.445,55.614,43.04,58.02,40.07,58.02z"/>
            <g>
                <path fill="#FFFFFF" d="M24.438,7.728h1.831c0.835,0,1.441,0.118,1.818,0.357c0.376,0.237,0.565,0.615,0.565,1.131
				c0,0.354-0.083,0.641-0.248,0.866c-0.165,0.226-0.384,0.362-0.658,0.406v0.042c0.372,0.082,0.641,0.239,0.808,0.466
				c0.164,0.227,0.248,0.53,0.248,0.909c0,0.537-0.193,0.956-0.582,1.256c-0.388,0.299-0.914,0.45-1.58,0.45h-2.202V7.728
				L24.438,7.728z M25.686,10.059h0.726c0.337,0,0.582-0.053,0.734-0.158c0.15-0.105,0.227-0.278,0.227-0.519
				c0-0.227-0.083-0.387-0.248-0.486S26.699,8.75,26.341,8.75h-0.655V10.059L25.686,10.059z M25.686,11.048v1.534H26.5
				c0.343,0,0.597-0.067,0.76-0.199c0.164-0.131,0.246-0.332,0.246-0.604c0-0.488-0.349-0.731-1.047-0.731H25.686z"/>
                <path fill="#FFFFFF" d="M35.319,10.662c0,0.974-0.24,1.722-0.726,2.247c-0.483,0.522-1.175,0.785-2.077,0.785
				s-1.593-0.263-2.077-0.785c-0.481-0.523-0.724-1.275-0.724-2.254c0-0.979,0.242-1.728,0.726-2.245
				c0.484-0.517,1.179-0.775,2.083-0.775c0.905,0,1.595,0.261,2.076,0.782C35.079,8.937,35.319,9.685,35.319,10.662z M31.024,10.662
				c0,0.657,0.126,1.153,0.375,1.485c0.249,0.333,0.622,0.5,1.117,0.5c0.997,0,1.494-0.661,1.494-1.985s-0.494-1.988-1.485-1.988
				c-0.496,0-0.871,0.167-1.123,0.501S31.024,10.004,31.024,10.662z"/>
                <path fill="#FFFFFF" d="M41.88,10.662c0,0.974-0.241,1.722-0.723,2.247c-0.484,0.522-1.177,0.785-2.078,0.785
				c-0.902,0-1.595-0.263-2.077-0.785c-0.482-0.523-0.725-1.275-0.725-2.254c0-0.979,0.243-1.728,0.727-2.245
				c0.484-0.517,1.18-0.775,2.085-0.775c0.903,0,1.595,0.261,2.072,0.782C41.643,8.937,41.88,9.685,41.88,10.662z M37.586,10.662
				c0,0.657,0.124,1.153,0.374,1.485c0.249,0.333,0.621,0.5,1.119,0.5c0.995,0,1.493-0.661,1.493-1.985s-0.495-1.988-1.485-1.988
				c-0.497,0-0.872,0.167-1.123,0.501C37.711,9.509,37.586,10.004,37.586,10.662z"/>
                <path fill="#FFFFFF" d="M45.371,13.612h-1.25V8.767h-1.596V7.728h4.445v1.039H45.37L45.371,13.612L45.371,13.612z"/>
                <path fill="#FFFFFF" d="M27.912,21.871c0,0.531-0.19,0.95-0.574,1.257c-0.383,0.305-0.915,0.459-1.595,0.459
				c-0.628,0-1.183-0.119-1.667-0.354v-1.16c0.397,0.178,0.733,0.301,1.009,0.375c0.275,0.072,0.526,0.107,0.754,0.107
				c0.275,0,0.484-0.052,0.631-0.158c0.146-0.104,0.219-0.26,0.219-0.466c0-0.116-0.032-0.219-0.096-0.309
				c-0.065-0.089-0.16-0.176-0.284-0.259c-0.126-0.083-0.38-0.216-0.763-0.399c-0.36-0.168-0.63-0.332-0.81-0.488
				c-0.18-0.154-0.323-0.336-0.432-0.542c-0.105-0.208-0.161-0.449-0.161-0.725c0-0.521,0.177-0.93,0.53-1.229
				c0.352-0.297,0.841-0.446,1.462-0.446c0.306,0,0.599,0.035,0.876,0.107c0.278,0.073,0.569,0.175,0.873,0.308l-0.403,0.968
				c-0.314-0.128-0.574-0.217-0.779-0.269c-0.206-0.051-0.407-0.077-0.606-0.077c-0.235,0-0.417,0.056-0.543,0.165
				c-0.126,0.108-0.189,0.253-0.189,0.431c0,0.11,0.024,0.205,0.076,0.288c0.051,0.082,0.132,0.16,0.243,0.237
				c0.112,0.077,0.375,0.215,0.791,0.413c0.551,0.263,0.928,0.526,1.131,0.79C27.811,21.163,27.912,21.487,27.912,21.871z"/>
                <path fill="#FFFFFF" d="M31.25,23.505h-1.248v-4.847h-1.597v-1.037h4.443v1.037H31.25V23.505L31.25,23.505z"/>
                <path fill="#FFFFFF" d="M35.001,21.246v2.259h-1.248v-5.886h1.715c0.799,0,1.392,0.145,1.775,0.438
				c0.383,0.29,0.575,0.732,0.575,1.326c0,0.346-0.096,0.653-0.285,0.925c-0.192,0.269-0.461,0.48-0.811,0.633
				c0.887,1.323,1.463,2.177,1.732,2.565H37.07l-1.405-2.259L35.001,21.246L35.001,21.246z M35.001,20.233h0.401
				c0.395,0,0.687-0.066,0.874-0.197c0.188-0.132,0.283-0.338,0.283-0.619c0-0.279-0.098-0.478-0.289-0.597
				c-0.19-0.117-0.49-0.177-0.893-0.177H35L35.001,20.233L35.001,20.233z"/>
                <path fill="#FFFFFF" d="M42.798,23.505l-0.427-1.4h-2.145l-0.429,1.4h-1.344l2.077-5.909h1.523l2.086,5.909H42.798z
				 M42.073,21.058c-0.396-1.27-0.616-1.986-0.666-2.152c-0.05-0.167-0.084-0.299-0.106-0.396c-0.09,0.344-0.343,1.192-0.76,2.548
				H42.073L42.073,21.058z"/>
                <path fill="#FFFFFF" d="M48.949,19.457c0,0.632-0.198,1.116-0.594,1.453c-0.396,0.335-0.961,0.502-1.689,0.502h-0.534v2.093
				h-1.248v-5.884h1.88c0.715,0,1.258,0.152,1.629,0.46C48.764,18.39,48.949,18.847,48.949,19.457z M46.132,20.391h0.41
				c0.384,0,0.67-0.077,0.86-0.229c0.189-0.151,0.285-0.373,0.285-0.662c0-0.293-0.08-0.508-0.237-0.648
				c-0.162-0.138-0.411-0.209-0.753-0.209h-0.566L46.132,20.391L46.132,20.391z"/>
            </g>
        </g>
    </g>
    <g>
        <path fill="#004D5F" d="M61.545,10.457C61.545,10.456,61.545,10.456,61.545,10.457C47.437-3.652,24.563-3.652,10.456,10.456
		c-14.107,14.108-14.108,36.981,0,51.088c0.001,0.001,0.001,0.001,0.001,0.001L61.545,10.457z"/>
        <path fill="#E77A01" d="M10.457,61.545c14.108,14.107,36.981,14.106,51.087-0.001c14.107-14.107,14.108-36.979,0.001-51.087
		L10.457,61.545z"/>
    </g>
    <circle fill="#FFFFFF" cx="36" cy="36" r="33.05"/>
    <path fill-rule="evenodd" clip-rule="evenodd" fill="#004D5F" d="M4.715,45.396h2.208v-8.702l3.408,7.59
	c0.405,0.908,0.944,1.23,2.024,1.23c1.079,0,1.619-0.322,2.024-1.23l3.406-7.59v8.702h2.193v-8.687c0-0.844-0.337-1.247-1.029-1.466
	c-1.669-0.522-2.798-0.067-3.305,1.062l-3.339,7.473l-3.238-7.473c-0.489-1.129-1.635-1.584-3.306-1.062
	c-0.708,0.22-1.045,0.623-1.045,1.466V45.396L4.715,45.396z"/>
    <path fill-rule="evenodd" clip-rule="evenodd" fill="#004D5F" d="M21.816,38.312h2.193v4.79c-0.018,0.268,0.084,0.877,1.298,0.895
	c0.607,0.017,4.739,0,4.773,0v-5.702h2.208c0.018,0,0,7.776,0,7.811c0.018,1.922-2.376,2.326-3.473,2.36h-6.948V46.98
	c0,0,6.931,0.018,6.948,0c1.417-0.136,1.248-0.84,1.248-1.08v-0.572h-4.67c-2.177-0.035-3.56-0.979-3.577-2.074
	C21.816,43.151,21.867,38.362,21.816,38.312L21.816,38.312z"/>
    <path fill-rule="evenodd" clip-rule="evenodd" fill="#004D5F" d="M58.79,22.909c-1.816,0.865-3.109,1.712-4.036,2.829
	c-0.27,0.31-0.78,0.567-0.637,1.029c0.272,0.09,0.464,0.361,0.725,0.537c0.518,0.301,1.296,0.667,1.886,0.768
	c0.63,0.131,1.281,0.252,1.932,0.318c1.172,0.08,2.308-0.127,3.409-0.011c0.676,0.056,1.373,0.21,2.046,0.318
	c0.317,0.07,0.635,0.245,0.983,0.208c0,0-0.01-0.021-0.022-0.045c-0.26-0.121-0.45-0.388-0.7-0.546
	c-0.34-0.113-0.675-0.222-1.014-0.333c-1.085-0.522-2.296-0.865-3.492-1.05c-0.944-0.144-2.868-0.041-3.568-0.702
	c-0.038-0.012-0.061-0.002-0.067-0.023c0.458-0.317,0.952-0.793,1.345-1.13c0.654-0.586,1.378-0.896,2.063-1.498
	c0.301-0.295,0.615-0.565,0.92-0.858c-0.038-0.066-0.07-0.138-0.106-0.203c-0.609-0.197-1.161-0.621-1.795-0.754
	c-1.643-0.409-3.387-0.74-5.077-0.897c-0.961-0.106-1.982,0.045-2.938,0.051c-0.3,0.012-0.785,0.172-1.078,0.039
	c-0.653-0.292-1.186-0.84-1.795-1.264c-1.286-0.927-2.598-1.958-3.817-2.976c-0.828-0.68-1.535-1.421-2.418-1.987
	c-4.27-2.634-7.932-3.684-12.955-3.988c-1.073-0.048-2.16,0.247-3.343,0.539c-0.583,0.237-1.154,0.5-1.739,0.737
	c-0.405,0.036-0.979-0.208-1.42-0.238c-1.689-0.16-5.88-0.267-5.646,2.548c0.135,1.766,2.364,2.439,3.281,2.905
	c0.642,0.325,1.406,0.671,1.974,1.116c0.369,0.292,0.59,0.663,0.952,0.985c0.892,0.816,1.762,1.758,2.698,2.438
	c0.483,0.346,1.005,0.706,1.537,0.973c0.304,0.157,0.695,0.098,0.95,0.477c-0.091,0.61,0.228,1.295,0.33,1.945
	c0.5,2.935,2.372,5.908,4.492,7.201c0.645,0.379,2.1,1.192,3.027,0.128c0.795-0.935-0.064-2.078-0.352-3.371
	c-0.059-0.279-0.195-0.437-0.149-0.686c0.011,0.023,0.021,0.045,0.021,0.045c0.609,0.482,1.23,0.928,1.852,1.375
	c1.231,0.758,3.032,1.312,4.449,1.552c0.721,0.143,1.504,0.621,2.312,0.499c0,0-0.013-0.027-0.022-0.047
	c-0.024,0.012-0.044,0.022-0.068,0.035c-0.237-0.135-0.484-0.124-0.722-0.204c-0.606-0.196-1.309-0.461-1.871-0.743
	c-1.555-0.792-3.093-1.759-4.582-2.811c-0.709-0.513-1.41-1.121-2.056-1.667c-0.25-0.213-0.452-0.616-0.78-0.647
	c-0.073,0.685-0.328,1.352-0.292,2.093c0.087,1.171,0.619,2.396,1.099,3.674c-0.067,0.091-0.057,0.059-0.08,0.122
	c-0.81,0.185-1.43-0.429-2.018-0.922c-1.462-1.26-2.891-3.751-3.241-5.888c-0.073-0.554-0.127-2.387-0.647-2.686
	c-0.356-0.358-0.919-0.411-1.334-0.622c-0.517-0.249-1.078-0.639-1.543-0.995c-1.179-0.985-2.126-2.254-3.347-3.215
	c-0.601-0.458-1.355-0.835-2-1.159c-0.73-0.389-1.417-0.58-2.116-1.128c-0.242-0.188-0.603-0.509-0.579-0.862
	c-0.027-0.213,0.003-0.313,0.151-0.47c0.177-0.374,1.171-0.48,1.54-0.53c0.988-0.049,1.844-0.087,2.782,0.03
	c0.45,0.056,1,0.314,1.462,0.22c0.156-0.078,0.313-0.158,0.449-0.227c0.8-0.208,1.554-0.729,2.327-0.869
	c1.368-0.238,2.729-0.225,4.017-0.086c3.903,0.365,7.644,1.796,10.907,4.12c0.53,0.379,0.881,0.792,1.378,1.22
	c1.029,0.859,2.202,1.676,3.21,2.489c0.997,0.855,2.008,1.694,3.104,2.237c0.595,0.292,2.072-0.144,2.804-0.206
	c0.513-0.034,1.316-0.187,1.84-0.145c1.014,0.054,2.04,0.239,3.04,0.384C57.104,22.465,58.508,22.459,58.79,22.909L58.79,22.909z"/>
    <path fill-rule="evenodd" clip-rule="evenodd" fill="#004D5F" d="M26.023,14.996c-0.359,0.182-0.604,0.361-0.863,0.578
	c0,0,0.012,0.021,0.022,0.045c0.021-0.011,0.045-0.022,0.069-0.034c0.362,0.268,0.799,0.357,1.18,0.558
	c0.342,0.278,0.703,0.546,1.042,0.826c0.011-0.033,0.021-0.068,0.031-0.1c0.213-0.364,0.165-0.788-0.121-1.351
	c-0.177-0.075-0.279-0.224-0.468-0.325C26.642,15.047,26.313,15.072,26.023,14.996L26.023,14.996z"/>
    <path fill-rule="evenodd" clip-rule="evenodd" fill="#E77A01" d="M33.993,45.396h6.324c0.742,0,1.467-0.153,2.04-0.422
	c0.947-0.438,1.417-1.028,1.417-1.807V41.55c0-0.624-0.539-1.23-1.568-1.617c-0.556-0.22-1.23-0.32-1.889-0.32h-2.665
	c-0.893,0-1.315-0.271-1.417-0.862c-0.016-0.067-0.016-0.135-0.016-0.201v-0.997c0-0.065,0-0.116,0.016-0.184
	c0.102-0.455,0.339-0.59,1.113-0.659c0.067,0,0.153-0.016,0.22-0.016h6.289v-1.465H37.67c-0.896,0-1.351,0.065-1.771,0.184
	c-1.315,0.421-1.889,1.061-1.889,2.19v1.282c0,0.995,1.13,1.839,3.003,2.041c0.218,0,0.422,0.017,0.64,0.017h2.276
	c0.085,0,0.171,0,0.238,0.018c0.707,0.068,0.993,0.184,1.21,0.438c0.121,0.136,0.172,0.253,0.172,0.405v1.283
	c0,0.15-0.102,0.354-0.32,0.521c-0.186,0.17-0.505,0.269-0.927,0.304c-0.087,0-0.154,0.018-0.238,0.018h-6.07V45.396L33.993,45.396z
	"/>
    <path fill-rule="evenodd" clip-rule="evenodd" fill="#E77A01" d="M57.504,42.831c0,1.519,1.114,2.36,3.39,2.532
	c0.201,0.017,0.423,0.032,0.623,0.032h5.735v-1.467h-5.769c-1.299,0-1.789-0.321-1.789-1.098v-7.603h-2.19V42.831L57.504,42.831z"/>
    <path fill-rule="evenodd" clip-rule="evenodd" fill="#E77A01" d="M45.175,42.918v-5.229c0-1.333,0.928-2.143,2.783-2.396
	c0.186-0.033,0.404-0.033,0.591-0.033h4.181c0.202,0,0.389,0,0.607,0.033c1.838,0.253,2.782,1.063,2.782,2.396v5.229
	c0,1.078-0.404,1.651-1.314,2.024l2.178,1.955h-2.566l-1.753-1.569l-1.771,0.103h-2.343c-0.405,0-0.827-0.051-1.299-0.188
	C45.848,44.873,45.175,44.132,45.175,42.918L45.175,42.918z M47.552,42.78c0,0.086,0.019,0.153,0.036,0.237
	c0.134,0.608,0.707,0.945,1.568,0.945h2.006l-1.836-1.654h2.561l1.603,1.434c0.286-0.151,0.488-0.388,0.558-0.69
	c0.016-0.083,0.016-0.152,0.016-0.221v-5.025c0-0.051,0-0.116-0.016-0.186c-0.138-0.573-0.71-0.893-1.551-0.893h-3.34
	c-0.979,0-1.604,0.421-1.604,1.078V42.78L47.552,42.78z"/>
</svg>
