<?xml version="1.0" encoding="utf-8"?>
<!--Generator: Adobe Illustrator 16.0.0, SVG Export Plug-In . SVG Version: 6.00 Build 0)-->
<!DOCTYPE svg PUBLIC "-//W3C//DTD SVG 1.1//EN" "http://www.w3.org/Graphics/SVG/1.1/DTD/svg11.dtd">
<svg version="1.1" id="Layer_1" xmlns="http://www.w3.org/2000/svg" xmlns:xlink="http://www.w3.org/1999/xlink" x="0px" y="0px" width="72px" height="72px" viewBox="0 0 72 72" enable-background="new 0 0 72 72" xml:space="preserve">
    <g id="Layer_2_1_" display="none"/>
    <g id="Layer_3_1_"/>
    <g id="Layer_4_1_"/>
    <g id="Layer_5_1_"/>
    <g>
        <path fill="#4F9443" d="M28.314,62.389l-5.474,2.383l9.488,5.449c0,0,3.403,2.04,6.811,0.227l27.732-14.754
		c0,0,3.168-0.91,2.678-7.266v-25.65c0,0,0.732-3.632-2.918-6.356L38.652,1.439c0,0-3.163-1.816-6.811,0.682L7.026,15.514
		c0,0-4.623,1.814-4.623,6.81v26.785c0,0-0.485,5.9,4.623,7.492l7.055,3.631c0,0,10.221,4.084,12.653-4.994l0.242-32.234
		l-5.11-0.226V52.74c0,0,0.732,5.676-6.081,3.181l-8.517-4.543V20.961L35.734,5.298l28.219,15.437v30.643L35.975,66.589
		L28.314,62.389z"/>
        <path fill="#4F9443" d="M34.762,40.709l-4.866-0.229c0,0-0.485,8.399,10.217,10.218c0,0,14.841,2.04,17.762-6.13
		c0,0,3.404-6.584-5.84-9.76c0,0-10.95-1.137-12.896-2.27c0,0-5.593-1.362-0.973-4.995c0,0,12.652-4.313,14.111,4.087l4.865,0.227
		c0,0,1.705-12.938-20.192-9.08c0,0-9.002,2.951-4.623,12.259c0,0,4.625,3.632,15.084,3.858c0,0,9.183,0.68,4.075,5.959
		c0,0-2.372,2.213-12.956,0.851C38.529,45.704,35.005,44.398,34.762,40.709z"/>
    </g>
</svg>
