<?xml version="1.0" encoding="utf-8"?>
<!--Generator: Adobe Illustrator 16.0.0, SVG Export Plug-In . SVG Version: 6.00 Build 0)-->
<!DOCTYPE svg PUBLIC "-//W3C//DTD SVG 1.1//EN" "http://www.w3.org/Graphics/SVG/1.1/DTD/svg11.dtd">
<svg version="1.1" xmlns="http://www.w3.org/2000/svg" xmlns:xlink="http://www.w3.org/1999/xlink" x="0px" y="0px" width="250px" height="250px" viewBox="0 0 250 250" enable-background="new 0 0 250 250" xml:space="preserve">
    <g id="Layer_1" display="none">
        <g id="Layer_2"/>
    </g>
    <g id="Layer_2_1_">
        <path fill="#FFFFFF" d="M249.609,191.829l-11.287,47.753c0,0-2.604,10.418-19.101,10.418c0,0-92.902-0.868-159.757-73.8
		c0,0-56.436-56.436-58.172-150.206c0,0-0.001-9.55,13.023-12.155L59.465,2.552c0,0,10.419-3.473,15.628,8.682l21.706,50.358
		c0,0,6.078,10.418-4.341,17.365l-27.784,22.574c0,0,37.335,71.194,85.957,83.35l22.573-26.915c0,0,6.946-10.418,16.497-3.474
		l51.226,21.707C240.927,176.2,252.215,180.541,249.609,191.829z"/>
    </g>
</svg>
