<?xml version="1.0" encoding="utf-8"?>
<!--Generator: Adobe Illustrator 16.0.0, SVG Export Plug-In . SVG Version: 6.00 Build 0)-->
<!DOCTYPE svg PUBLIC "-//W3C//DTD SVG 1.1//EN" "http://www.w3.org/Graphics/SVG/1.1/DTD/svg11.dtd">
<svg version="1.1" id="Layer_1" xmlns="http://www.w3.org/2000/svg" xmlns:xlink="http://www.w3.org/1999/xlink" x="0px" y="0px" width="72px" height="72px" viewBox="0 0 72 72" enable-background="new 0 0 72 72" xml:space="preserve">
    <g id="Photoshop_Logo">
        <g>
            <rect fill="#37C5F3" width="72" height="72"/>
            <rect x="2.852" y="2.853" fill="#0A1F26" width="66.461" height="66.461"/>
            <path fill="#37C5F3" d="M17.141,51.733l0.071-32.836l10.302-0.143c0,0,9.658,0.644,9.658,10.587c0,9.944-9.444,10.73-9.444,10.73
			l-5.079,0.071v11.662L17.141,51.733z"/>
            <path fill="#0A1F26" d="M22.793,23.689l-0.072,11.233c0,0,9.158,1.43,9.015-5.795C31.735,29.127,32.165,22.689,22.793,23.689z"/>
            <path fill="#37C5F3" d="M40.034,45.869v4.864c0,0,9.729,5.149,14.594-3.436c0,0,1.788-4.363-2.146-8.153
			c0,0-5.366-3.076-6.297-3.72c0,0-2.218-2.792,1.431-3.435c0,0,3.362-0.571,6.368,1.074l0.144-5.008c0,0-4.508-2.577-11.233,0.285
			c0,0-2.862,1.933-2.79,5.652c0,0-0.786,3.934,3.792,6.653c0,0,5.079,2.289,5.652,3.791c0,0,1.215,3.29-3.721,3.078
			C45.828,47.515,41.393,46.796,40.034,45.869z"/>
        </g>
    </g>
</svg>
