<?xml version="1.0" encoding="utf-8"?>
<!--Generator: Adobe Illustrator 16.0.0, SVG Export Plug-In . SVG Version: 6.00 Build 0)-->
<!DOCTYPE svg PUBLIC "-//W3C//DTD SVG 1.1//EN" "http://www.w3.org/Graphics/SVG/1.1/DTD/svg11.dtd">
<svg version="1.1" xmlns="http://www.w3.org/2000/svg" xmlns:xlink="http://www.w3.org/1999/xlink" x="0px" y="0px" width="72px" height="72px" viewBox="0 0 72 72" enable-background="new 0 0 72 72" xml:space="preserve">
    <g id="Layer_1" display="none">
        <g id="Photoshop_Logo" display="inline">
            <g>
                <rect fill="#37C5F3" width="72" height="72"/>
                <rect x="2.852" y="2.853" fill="#0A1F26" width="66.461" height="66.461"/>
                <path fill="#37C5F3" d="M17.141,51.733l0.071-32.836l10.302-0.143c0,0,9.658,0.644,9.658,10.587c0,9.944-9.444,10.73-9.444,10.73
				l-5.079,0.071v11.662L17.141,51.733z"/>
                <path fill="#0A1F26" d="M22.793,23.689l-0.072,11.233c0,0,9.158,1.43,9.015-5.795C31.735,29.127,32.165,22.689,22.793,23.689z"/>
                <path fill="#37C5F3" d="M40.034,45.869v4.864c0,0,9.729,5.149,14.594-3.436c0,0,1.788-4.363-2.146-8.153
				c0,0-5.366-3.076-6.297-3.72c0,0-2.218-2.792,1.431-3.435c0,0,3.362-0.571,6.368,1.074l0.144-5.008c0,0-4.508-2.577-11.233,0.285
				c0,0-2.862,1.933-2.79,5.652c0,0-0.786,3.934,3.792,6.653c0,0,5.079,2.289,5.652,3.791c0,0,1.215,3.29-3.721,3.078
				C45.828,47.515,41.393,46.796,40.034,45.869z"/>
            </g>
        </g>
    </g>
    <g id="Layer_2" display="none">
        <g id="Illustrator_Logo" display="inline">
            <g>
                <rect fill="#F37D21" width="71.998" height="72"/>
                <rect x="2.852" y="2.852" fill="#281A11" width="66.46" height="66.463"/>
                <rect x="47.483" y="27.127" fill="#F37D21" width="5.15" height="25.752"/>
                <circle fill="#F37D21" cx="50.272" cy="17.469" r="3.219"/>
                <polygon fill="#F37D21" points="42.904,53.024 32.603,18.112 25.449,18.112 15.791,52.88 21.299,52.953 24.09,43.295 
				34.106,43.295 36.751,53.024 			"/>
                <polygon fill="#281A11" points="25.306,37.786 32.673,37.786 28.811,23.122 			"/>
            </g>
        </g>
    </g>
    <g id="Layer_3" display="none">
        <g id="After_Effects_Logo" display="inline">
            <g>
                <rect fill="#B894C5" width="72" height="71.999"/>
                <rect x="2.853" y="2.852" fill="#220C3F" width="66.462" height="66.461"/>
                <polygon fill="#B894C5" points="42.905,53.025 32.604,18.115 25.45,18.115 15.792,52.882 21.3,52.953 24.09,43.296 
				34.107,43.296 36.754,53.025 			"/>
                <polygon fill="#220C3F" points="25.308,37.787 32.675,37.787 28.812,23.121 			"/>
                <path fill="#B894C5" d="M61.375,46.579v4.828c0,0-9.228,4.509-15.772-2.786c0,0-5.903-9.446,0.857-19.212
				c0,0,6.01-7.188,14.166,0c0,0,4.186,4.294,2.254,10.839l-14.059,0.323c0,0-0.215,7.511,6.974,7.19
				C55.796,47.762,59.123,47.976,61.375,46.579z"/>
                <path fill="#220C3F" d="M49.036,36.171h8.583c0,0,1.074-5.258-4.077-5.258C53.543,30.913,49.895,30.377,49.036,36.171z"/>
            </g>
            <polygon fill="#B894C5" points="42.905,53.025 32.604,18.115 25.45,18.115 15.792,52.882 21.3,52.953 24.09,43.296 34.107,43.296 
			36.754,53.025 		"/>
            <polygon fill="#220C3F" points="25.308,37.787 32.675,37.787 28.812,23.121 		"/>
        </g>
    </g>
    <g id="Layer_4" display="none">
        <g id="Wordpress_Logo" display="inline">
            <g>
                <circle fill="#37C5F3" cx="35.941" cy="35.941" r="35.941"/>
                <path fill="#FFFFFF" d="M35.943,4.125c-17.57,0-31.816,14.245-31.816,31.816c0,17.57,14.247,31.815,31.816,31.815
				c17.572,0,31.817-14.245,31.817-31.815C67.759,18.37,53.515,4.125,35.943,4.125z M35.944,65.148
				c-16.131,0-29.208-13.078-29.208-29.208c0-16.13,13.076-29.209,29.208-29.209c16.132,0,29.209,13.079,29.209,29.209
				C65.153,52.07,52.076,65.148,35.944,65.148z"/>
                <path fill="#FFFFFF" d="M10.818,20.411c0,0,9.403-0.147,10.137-0.296c0,0,1.761,0.883,0.146,2.205l-3.674,0.735l10.577,31.291
				l6.465-18.802l-4.555-12.488l-3.673-0.588c0,0-1.468-1.764,0.883-2.352c0,0,12.779,0.588,15.571,0c0,0,2.939,0.442,0.294,2.352
				c0,0-2.057,0.588-3.673,0.293l10.725,31.292l4.701-15.132c0,0,0.881-5.289,0-7.493c0,0-2.056-4.994-3.966-7.932
				c0,0-3.674-7.491,4.406-8.667c0,0,5.288,1.176,6.024,7.787c0,0,0.879,4.995-0.736,9.842L50.188,61.839l-4.994,2.496
				l-9.403-24.974l-8.521,25.414l-4.995-1.908L8.614,24.669L10.818,20.411z"/>
            </g>
        </g>
    </g>
    <g id="Layer_5" display="none">
        <g id="HTML5_Logo" display="inline">
            <circle fill="#F15A30" cx="35.882" cy="35.882" r="35.882"/>
            <path fill="#F47A32" d="M35.826,0c-0.09,0-0.179,0.006-0.27,0.006v71.75c0.091,0.001,0.18,0.008,0.27,0.008
			c19.816,0,35.882-16.066,35.882-35.882C71.708,16.065,55.642,0,35.826,0z"/>
            <polygon fill="#FFFFFF" points="22.887,42.813 23.868,52.227 35.631,55.757 47.984,52.227 49.75,33.991 28.183,33.991 
			27.789,28.306 50.534,28.109 50.729,22.031 21.123,22.031 22.495,39.873 43.082,39.873 42.69,47.324 35.828,49.481 29.236,47.569 
			29.163,43.083 		"/>
            <path fill="#F15A30" d="M35.882,0.126c-19.816,0-35.881,16.066-35.881,35.88c0,19.816,16.065,35.882,35.881,35.882
			c19.816,0,35.881-16.065,35.881-35.882C71.764,16.192,55.697,0.126,35.882,0.126z M35.882,67.184
			c-17.217,0-31.177-13.96-31.177-31.177c0-17.216,13.959-31.175,31.177-31.175S67.058,18.79,67.058,36.007
			C67.058,53.225,53.1,67.184,35.882,67.184z"/>
            <g>
                <path fill="#FFFFFF" d="M28.073,19.471h-1.598v-3.262h-2.993v3.262h-1.603v-7.559h1.603v2.962h2.993v-2.962h1.598V19.471z"/>
                <path fill="#FFFFFF" d="M32.896,19.471h-1.602v-6.225h-2.053v-1.333h5.708v1.333h-2.052V19.471L32.896,19.471z"/>
                <path fill="#FFFFFF" d="M39.312,19.471l-1.819-5.93h-0.046c0.065,1.207,0.099,2.012,0.099,2.415v3.516h-1.433v-7.559h2.183
				l1.788,5.78h0.03l1.897-5.78h2.183v7.558h-1.494v-3.578c0-0.169,0.003-0.365,0.008-0.584c0.004-0.221,0.028-0.807,0.07-1.758
				h-0.046l-1.949,5.919h-1.471V19.471z"/>
                <path fill="#FFFFFF" d="M46.095,19.471v-7.559h1.603v6.234h3.065v1.324L46.095,19.471L46.095,19.471z"/>
            </g>
        </g>
    </g>
    <g id="Layer_6" display="none">
        <g id="CSS3_Logo" display="inline">
            <g>
                <circle fill="#167EC2" cx="36.045" cy="36.045" r="36.045"/>
                <path fill="#1D90CE" d="M35.988,0c-0.091,0-0.18,0.006-0.271,0.007v72.075c0.091,0,0.179,0.008,0.271,0.008
				c19.906,0,36.044-16.139,36.044-36.044S55.895,0,35.988,0z"/>
                <polygon fill="#FFFFFF" points="20.95,21.335 50.57,21.335 50.57,27.095 37.2,32.708 49.608,32.857 48.279,50.731 36.166,54.72 
				23.831,50.955 23.24,42.015 28.779,42.091 29.075,46.299 36.166,48.147 42.813,46.672 43.33,38.692 22.87,38.545 22.575,33.079 
				35.648,27.243 21.91,27.022 			"/>
                <path fill="#167EC2" d="M36.045,0.004C16.139,0.004,0,16.142,0,36.048c0,19.907,16.139,36.045,36.045,36.045
				c19.905,0,36.045-16.139,36.045-36.045C72.09,16.142,55.95,0.004,36.045,0.004z M36.045,67.364
				c-17.296,0-31.318-14.021-31.318-31.317S18.748,4.729,36.045,4.729c17.296,0,31.317,14.023,31.317,31.318
				C67.362,53.341,53.34,67.364,36.045,67.364z"/>
                <path fill="#FFFFFF" d="M30.64,12.617c-0.606,0-1.076,0.228-1.407,0.683c-0.334,0.455-0.5,1.09-0.5,1.904
				c0,1.692,0.636,2.539,1.907,2.539c0.534,0,1.179-0.133,1.937-0.4v1.351c-0.624,0.26-1.319,0.39-2.088,0.39
				c-1.104,0-1.949-0.335-2.534-1.006c-0.585-0.668-0.878-1.631-0.878-2.884c0-0.789,0.144-1.48,0.432-2.075
				c0.287-0.594,0.699-1.049,1.238-1.366c0.54-0.317,1.169-0.476,1.894-0.476c0.738,0,1.478,0.178,2.223,0.535l-0.52,1.309
				c-0.285-0.135-0.569-0.253-0.856-0.354C31.199,12.668,30.916,12.617,30.64,12.617z"/>
                <path fill="#FFFFFF" d="M38.675,16.87c0,0.686-0.247,1.227-0.741,1.62c-0.492,0.395-1.179,0.593-2.059,0.593
				c-0.811,0-1.528-0.152-2.15-0.457v-1.496c0.513,0.229,0.946,0.39,1.303,0.483c0.353,0.093,0.679,0.14,0.972,0.14
				c0.354,0,0.625-0.067,0.813-0.202c0.19-0.135,0.284-0.336,0.284-0.603c0-0.149-0.041-0.281-0.125-0.397
				c-0.082-0.116-0.204-0.228-0.365-0.335c-0.162-0.107-0.488-0.278-0.984-0.513c-0.464-0.219-0.812-0.429-1.044-0.628
				c-0.232-0.2-0.417-0.435-0.555-0.702c-0.14-0.267-0.209-0.578-0.209-0.935c0-0.672,0.228-1.199,0.683-1.583
				c0.457-0.384,1.085-0.577,1.889-0.577c0.395,0,0.771,0.046,1.13,0.14c0.357,0.094,0.731,0.226,1.123,0.396l-0.52,1.251
				c-0.404-0.166-0.739-0.282-1.004-0.348c-0.265-0.066-0.525-0.099-0.782-0.099c-0.304,0-0.538,0.07-0.702,0.213
				c-0.162,0.142-0.243,0.327-0.243,0.556c0,0.142,0.032,0.266,0.1,0.371c0.066,0.105,0.17,0.208,0.313,0.307
				c0.143,0.099,0.483,0.277,1.019,0.532c0.71,0.34,1.198,0.68,1.461,1.021C38.542,15.957,38.675,16.375,38.675,16.87z"/>
                <path fill="#FFFFFF" d="M44.533,16.87c0,0.686-0.248,1.227-0.741,1.62c-0.492,0.395-1.18,0.593-2.059,0.593
				c-0.811,0-1.527-0.152-2.15-0.457v-1.496c0.513,0.229,0.945,0.39,1.3,0.483c0.356,0.093,0.681,0.14,0.975,0.14
				c0.354,0,0.624-0.067,0.813-0.202c0.188-0.135,0.282-0.336,0.282-0.603c0-0.149-0.041-0.281-0.124-0.397
				c-0.083-0.115-0.205-0.228-0.366-0.335c-0.161-0.107-0.489-0.278-0.984-0.513c-0.464-0.219-0.813-0.429-1.043-0.628
				c-0.232-0.2-0.419-0.435-0.557-0.702c-0.139-0.267-0.207-0.578-0.207-0.935c0-0.672,0.228-1.199,0.683-1.583
				c0.456-0.384,1.085-0.577,1.889-0.577c0.394,0,0.771,0.046,1.129,0.14s0.733,0.226,1.124,0.396l-0.52,1.251
				c-0.404-0.166-0.74-0.282-1.004-0.348c-0.266-0.066-0.526-0.099-0.782-0.099c-0.305,0-0.538,0.07-0.701,0.213
				c-0.164,0.142-0.244,0.327-0.244,0.556c0,0.142,0.033,0.266,0.099,0.371c0.065,0.105,0.171,0.208,0.314,0.307
				c0.143,0.099,0.483,0.277,1.02,0.532c0.71,0.34,1.197,0.68,1.46,1.021S44.533,16.375,44.533,16.87z"/>
            </g>
        </g>
    </g>
    <g id="Layer_7" display="none">
        <g id="JS_Logo" display="inline">
            <circle fill="#F58231" cx="35.979" cy="35.982" r="35.982"/>
            <path fill="#F99F38" d="M35.923,0c-0.09,0-0.179,0.006-0.27,0.007v71.951c0.091,0,0.18,0.005,0.27,0.005
			c19.873,0,35.983-16.109,35.983-35.98S55.796,0,35.923,0z"/>
            <path fill="#F58231" d="M35.98,0.003c-19.873,0-35.982,16.11-35.982,35.982c0,19.871,16.109,35.983,35.982,35.983
			c19.872,0,35.981-16.112,35.981-35.983C71.962,16.114,55.853,0.003,35.98,0.003z M35.98,67.248
			c-17.266,0-31.264-13.998-31.264-31.264S18.715,4.721,35.98,4.721c17.267,0,31.264,13.998,31.264,31.263
			S53.246,67.248,35.98,67.248z"/>
            <polygon fill="#FFFFFF" points="33.016,17.49 33.016,56.102 20.201,52.515 19.347,41.75 23.789,42.434 23.959,46.021 
			28.06,47.218 27.206,17.319 		"/>
            <polygon fill="#FFFFFF" points="37.736,49.371 37.736,56.479 50.741,53.187 52.821,31.512 43.806,31.338 43.806,24.055 
			53.342,24.229 53.688,17.466 37.736,17.466 37.736,38.274 46.232,38.1 45.886,47.116 		"/>
        </g>
    </g>
    <g id="Layer_8" display="none">
        <g id="Bootstrap" display="inline">
            <circle fill="#573F7E" cx="35.92" cy="35.919" r="35.919"/>
            <path fill="#573F7E" d="M35.92,0.003C16.083,0.003,0,16.087,0,35.923c0,19.838,16.083,35.921,35.92,35.921
			c19.837,0,35.92-16.083,35.92-35.921C71.84,16.087,55.757,0.003,35.92,0.003z M35.92,67.132
			c-17.236,0-31.208-13.974-31.208-31.209S18.684,4.714,35.92,4.714c17.236,0,31.209,13.974,31.209,31.209
			S53.156,67.132,35.92,67.132z"/>
            <path fill="#FFFFFF" d="M44.813,44.038c5.995-3.689,4.151-10.147,4.151-10.147c-1.383-5.073-9.686-5.997-9.686-5.997H22.672
			v34.134l17.066,0.461c5.535-0.923,10.61-1.845,10.61-9.225C50.349,45.884,44.813,44.038,44.813,44.038z M27.284,31.584H39.27
			v0.001c0.009,0,0.019,0,0.027,0c2.791,0,5.052,2.26,5.052,5.051c0,2.789-2.261,5.051-5.052,5.051
			c-0.009,0-0.019-0.003-0.027-0.003v0.003H27.284V31.584z M40.07,58.02c-0.011,0-0.021-0.002-0.031-0.002v0.002H27.284V47.268
			h12.755v0.001c0.01,0,0.021-0.001,0.031-0.001c2.97,0,5.376,2.406,5.376,5.376S43.04,58.02,40.07,58.02z"/>
            <g>
                <path fill="#FFFFFF" d="M24.438,7.728h1.831c0.835,0,1.441,0.118,1.818,0.357c0.376,0.237,0.565,0.615,0.565,1.131
				c0,0.353-0.083,0.641-0.248,0.866c-0.165,0.226-0.384,0.362-0.658,0.406v0.042c0.372,0.082,0.641,0.239,0.808,0.466
				c0.164,0.227,0.248,0.53,0.248,0.909c0,0.537-0.193,0.956-0.582,1.256c-0.388,0.299-0.914,0.45-1.58,0.45h-2.202V7.728
				L24.438,7.728z M25.686,10.059h0.726c0.337,0,0.582-0.053,0.734-0.158c0.15-0.105,0.227-0.278,0.227-0.519
				c0-0.227-0.083-0.387-0.248-0.486c-0.165-0.099-0.426-0.146-0.784-0.146h-0.655L25.686,10.059L25.686,10.059z M25.686,11.048
				v1.534H26.5c0.343,0,0.597-0.067,0.76-0.199c0.164-0.131,0.246-0.332,0.246-0.604c0-0.488-0.349-0.731-1.047-0.731H25.686z"/>
                <path fill="#FFFFFF" d="M35.319,10.662c0,0.974-0.24,1.722-0.726,2.247c-0.483,0.523-1.175,0.785-2.077,0.785
				s-1.593-0.262-2.077-0.785c-0.481-0.523-0.724-1.275-0.724-2.254s0.242-1.727,0.726-2.245c0.484-0.517,1.179-0.775,2.083-0.775
				c0.905,0,1.595,0.261,2.076,0.782C35.079,8.937,35.319,9.685,35.319,10.662z M31.024,10.662c0,0.657,0.126,1.153,0.375,1.485
				c0.249,0.333,0.622,0.5,1.117,0.5c0.997,0,1.494-0.661,1.494-1.985c0-1.324-0.494-1.988-1.485-1.988
				c-0.496,0-0.871,0.167-1.123,0.501C31.15,9.509,31.024,10.004,31.024,10.662z"/>
                <path fill="#FFFFFF" d="M41.88,10.662c0,0.974-0.241,1.722-0.723,2.247c-0.484,0.523-1.177,0.785-2.078,0.785
				c-0.902,0-1.594-0.262-2.077-0.785c-0.483-0.523-0.725-1.275-0.725-2.254s0.243-1.727,0.727-2.245
				c0.484-0.517,1.179-0.775,2.085-0.775c0.903,0,1.595,0.261,2.072,0.782C41.643,8.937,41.88,9.685,41.88,10.662z M37.586,10.662
				c0,0.657,0.124,1.153,0.374,1.485c0.249,0.333,0.621,0.5,1.119,0.5c0.995,0,1.493-0.661,1.493-1.985
				c0-1.324-0.495-1.988-1.485-1.988c-0.497,0-0.872,0.167-1.123,0.501C37.711,9.509,37.586,10.004,37.586,10.662z"/>
                <path fill="#FFFFFF" d="M45.371,13.612h-1.25V8.767h-1.596V7.728h4.445v1.039h-1.6V13.612L45.371,13.612z"/>
                <path fill="#FFFFFF" d="M27.912,21.871c0,0.531-0.19,0.95-0.574,1.257c-0.383,0.305-0.915,0.459-1.595,0.459
				c-0.628,0-1.183-0.119-1.667-0.354v-1.16c0.397,0.178,0.733,0.301,1.009,0.375c0.275,0.072,0.526,0.108,0.754,0.108
				c0.275,0,0.484-0.052,0.631-0.158c0.146-0.104,0.219-0.26,0.219-0.466c0-0.116-0.032-0.219-0.096-0.309
				c-0.065-0.089-0.16-0.176-0.284-0.259c-0.126-0.083-0.38-0.216-0.763-0.399c-0.36-0.168-0.63-0.332-0.81-0.488
				c-0.18-0.154-0.323-0.336-0.432-0.542c-0.105-0.208-0.161-0.449-0.161-0.725c0-0.521,0.177-0.93,0.53-1.229
				c0.352-0.297,0.841-0.446,1.462-0.446c0.306,0,0.599,0.035,0.876,0.107c0.278,0.073,0.569,0.175,0.873,0.308l-0.403,0.968
				c-0.314-0.128-0.574-0.217-0.779-0.269c-0.206-0.051-0.407-0.077-0.606-0.077c-0.235,0-0.417,0.056-0.543,0.165
				c-0.126,0.109-0.189,0.253-0.189,0.431c0,0.11,0.024,0.205,0.076,0.288c0.051,0.082,0.132,0.16,0.243,0.237
				c0.112,0.077,0.375,0.215,0.791,0.413c0.551,0.263,0.928,0.526,1.131,0.79C27.811,21.163,27.912,21.487,27.912,21.871z"/>
                <path fill="#FFFFFF" d="M31.25,23.505h-1.248v-4.847h-1.597v-1.037h4.443v1.037H31.25V23.505L31.25,23.505z"/>
                <path fill="#FFFFFF" d="M35.001,21.246v2.259h-1.248v-5.886h1.715c0.799,0,1.392,0.145,1.775,0.438
				c0.383,0.29,0.575,0.732,0.575,1.326c0,0.346-0.096,0.653-0.285,0.925c-0.192,0.269-0.461,0.48-0.81,0.633
				c0.886,1.323,1.463,2.177,1.732,2.565h-1.384l-1.406-2.259H35.001z M35.001,20.233h0.401c0.395,0,0.687-0.066,0.874-0.197
				c0.188-0.132,0.282-0.338,0.282-0.619c0-0.279-0.097-0.478-0.288-0.597c-0.19-0.117-0.49-0.177-0.893-0.177h-0.377V20.233
				L35.001,20.233z"/>
                <path fill="#FFFFFF" d="M42.798,23.505l-0.427-1.4h-2.145l-0.428,1.4h-1.344l2.077-5.909h1.524l2.085,5.909H42.798z
				 M42.073,21.058c-0.395-1.27-0.616-1.986-0.666-2.152c-0.049-0.167-0.084-0.299-0.106-0.396c-0.09,0.344-0.343,1.192-0.76,2.548
				L42.073,21.058L42.073,21.058z"/>
                <path fill="#FFFFFF" d="M48.949,19.457c0,0.632-0.198,1.116-0.594,1.453c-0.396,0.335-0.96,0.502-1.689,0.502h-0.534v2.093
				h-1.248v-5.884h1.88c0.714,0,1.257,0.152,1.628,0.46C48.763,18.39,48.949,18.847,48.949,19.457z M46.132,20.391h0.41
				c0.384,0,0.67-0.077,0.86-0.229c0.19-0.151,0.286-0.373,0.286-0.662c0-0.293-0.08-0.508-0.238-0.648
				c-0.162-0.138-0.411-0.209-0.753-0.209h-0.566L46.132,20.391L46.132,20.391z"/>
            </g>
        </g>
    </g>
    <g id="Layer_9" display="none">
        <g id="MySql_Logo" display="inline">
            <g>
                <circle fill="#0A1F26" cx="35.919" cy="35.919" r="35.919"/>
                <path fill="#FFFFFF" d="M45.245,10.001C45.084,7.678,39.156,5.81,31.86,5.81c-7.056,0-12.833,1.747-13.35,3.963
				c-0.001-0.002-0.004-0.006-0.004-0.006v0.021c-0.023,0.102-0.039,0.203-0.039,0.309c0,0.104,0.015,0.207,0.039,0.309v0.555v0.022
				c-0.023,0.103-0.039,0.205-0.039,0.31c0,0.1,0.015,0.2,0.037,0.299c-0.021,0.099-0.037,0.198-0.037,0.299
				c0,0.075,0.008,0.148,0.019,0.224c-0.013,0.074-0.019,0.148-0.019,0.224c0,0.101,0.015,0.199,0.037,0.298
				c-0.021,0.1-0.037,0.199-0.037,0.298c0,0.025,0.005,0.05,0.006,0.076c-0.001,0.024-0.006,0.049-0.006,0.074
				c0,0.104,0.015,0.208,0.039,0.311v0.107v0.021c-0.023,0.102-0.039,0.204-0.039,0.31c0,0.049,0.008,0.1,0.012,0.148
				c-0.005,0.05-0.012,0.1-0.012,0.15c0,0.1,0.015,0.2,0.037,0.299c-0.021,0.099-0.037,0.199-0.037,0.299
				c0,0.074,0.008,0.151,0.019,0.224c-0.013,0.075-0.019,0.149-0.019,0.223c0,0.076,0.008,0.152,0.019,0.224
				c-0.013,0.076-0.019,0.149-0.019,0.226c0,0.049,0.008,0.099,0.012,0.148c-0.005,0.049-0.012,0.099-0.012,0.149
				c0,0.075,0.008,0.15,0.019,0.224c-0.013,0.075-0.019,0.149-0.019,0.224c0,0.026,0.005,0.049,0.006,0.075
				c-0.001,0.024-0.006,0.049-0.006,0.074c0,0.075,0.008,0.149,0.019,0.224c-0.013,0.075-0.019,0.149-0.019,0.224l0,0l0,0
				c0,0.075,0.008,0.15,0.019,0.224c-0.013,0.074-0.019,0.149-0.019,0.224c0,0,0,0,0,0.001l0,0c0,0.024,0.005,0.049,0.006,0.073
				c-0.001,0.025-0.006,0.05-0.006,0.075c0,0.026,0.005,0.05,0.006,0.074c-0.001,0.027-0.006,0.051-0.006,0.076
				c0,0.051,0.008,0.1,0.012,0.15c-0.005,0.05-0.012,0.099-0.012,0.15c0,0.024,0.005,0.048,0.006,0.074
				c-0.001,0.025-0.006,0.05-0.006,0.075c0,0.05,0.008,0.099,0.012,0.148c-0.005,0.05-0.012,0.101-0.012,0.15
				c0,0.05,0.008,0.1,0.012,0.149c-0.005,0.049-0.012,0.1-0.012,0.149c0,0.025,0.005,0.049,0.006,0.075
				c-0.001,0.026-0.006,0.049-0.006,0.075c0,0.049,0.008,0.1,0.012,0.149c-0.005,0.049-0.012,0.1-0.012,0.149
				c0,0.024,0.005,0.048,0.006,0.074c-0.001,0.025-0.006,0.049-0.006,0.074c0,0.077,0.008,0.15,0.019,0.225
				c-0.013,0.074-0.019,0.149-0.019,0.223c0,0.077,0.008,0.15,0.019,0.225c-0.013,0.074-0.019,0.149-0.019,0.224
				c0,0.076,0.008,0.149,0.019,0.224c-0.013,0.074-0.019,0.149-0.019,0.224c0,0.049,0.008,0.101,0.012,0.149
				c-0.005,0.05-0.012,0.1-0.012,0.149c0,0.025,0.005,0.05,0.006,0.075c-0.001,0.024-0.006,0.05-0.006,0.075
				c0,0.075,0.008,0.149,0.019,0.225c-0.013,0.074-0.019,0.147-0.019,0.224c0,0.074,0.008,0.15,0.019,0.224
				c-0.013,0.075-0.019,0.149-0.019,0.224l0,0l0,0c0,0.074,0.008,0.15,0.019,0.224c-0.013,0.075-0.019,0.148-0.019,0.224
				c0,0.025,0.005,0.05,0.006,0.074c-0.001,0.026-0.006,0.05-0.006,0.075c0,0.024,0.005,0.049,0.006,0.074
				c-0.001,0.026-0.006,0.05-0.006,0.075c0,0.104,0.015,0.208,0.039,0.311v0.107v0.021c-0.023,0.103-0.039,0.205-0.039,0.31
				c0,0.05,0.008,0.099,0.012,0.149c-0.005,0.049-0.012,0.101-0.012,0.15c0,0.1,0.015,0.201,0.037,0.299
				c-0.021,0.098-0.037,0.199-0.037,0.299c0,0.104,0.015,0.207,0.039,0.309v0.219v0.038v0.022c-0.023,0.102-0.039,0.204-0.039,0.309
				c0,0.104,0.015,0.208,0.039,0.309v0.072v0.148V25.9v0.022c-0.023,0.102-0.039,0.205-0.039,0.309s0.015,0.207,0.039,0.31v0.22
				v0.037v0.023c-0.023,0.102-0.039,0.205-0.039,0.307c0,0.104,0.015,0.208,0.039,0.311v0.071v0.148v0.448v0.45l0,0v0.449v0.149
				v0.149v0.747v0.299v0.598v0.904v0.896v0.896c2.845,4.932,13.772,4.372,13.772,4.372c11.608-0.113,12.975-4.146,12.975-4.146
				v-0.899v-0.896v-0.897v-0.598V30.28v-0.747v-0.15v-0.15v-0.447l0,0v-0.449v-0.449V27.74V27.44V27.03v-0.037v-0.449v-0.411v-0.038
				v-0.149v-0.301v-0.149v-0.261v-0.038v-0.298v-0.151v-0.298v-0.112v-0.038v-0.149l0,0V23.74v-0.037l0,0v-0.261v-0.188v-0.149
				v-0.411v-0.038v-0.112v-0.15v-0.036v-0.411l0,0V21.91v-0.412V21.46v-0.41v-0.149v-0.038v-0.261v-0.038v-0.411v-0.336v-0.113
				v-0.036v-0.413v-0.149v-0.038v-0.261v-0.149V18.62v-0.261v-0.298v-0.039v-0.112v-0.299v-0.15v-0.149l0,0v-0.448l0,0v-0.037
				v-0.412v-0.149v-0.449v-0.298v-0.448v-0.45v-0.598v-0.299v-0.747v-0.15v-0.597v-0.45v-0.597V9.988
				C45.251,9.994,45.247,9.998,45.245,10.001z"/>
                <ellipse fill="#4E4F4F" cx="31.854" cy="11.472" rx="11.856" ry="4.141"/>
                <path fill="#4E4F4F" d="M20.032,10.907c0,0,1.512,3.852,11.99,3.953c0,0,9.168,0.203,11.687-3.75v6.182
				c0,0-1.209,3.647-11.487,3.75c0,0-9.672,0.505-12.19-3.953V10.907L20.032,10.907z"/>
                <path fill="#4E4F4F" d="M19.897,18.677c0,0,1.52,3.85,12.058,3.951c0,0,9.221,0.204,11.754-3.748v6.18
				c0,0-1.216,3.648-11.553,3.75c0,0-9.727,0.507-12.26-3.952V18.677z"/>
                <path fill="#4E4F4F" d="M19.863,26.412c0,0,1.52,3.851,12.059,3.953c0,0,9.222,0.202,11.754-3.75v6.18
				c0,0-1.214,3.647-11.551,3.75c0,0-9.728,0.506-12.262-3.953V26.412L19.863,26.412z"/>
                <path fill="#FFFFFF" d="M59.225,18.718c-0.159-2.323-6.09-4.191-13.386-4.191c-7.056,0-12.833,1.748-13.35,3.964
				c-0.001-0.004-0.003-0.007-0.003-0.007v0.021c-0.022,0.101-0.038,0.204-0.038,0.308c0,0.104,0.014,0.207,0.038,0.31v0.555v0.022
				c-0.022,0.102-0.038,0.205-0.038,0.31c0,0.101,0.014,0.199,0.035,0.298c-0.021,0.1-0.035,0.198-0.035,0.299
				c0,0.075,0.006,0.149,0.018,0.223c-0.012,0.074-0.018,0.149-0.018,0.226c0,0.101,0.014,0.198,0.035,0.296
				c-0.021,0.101-0.035,0.199-0.035,0.299c0,0.026,0.004,0.05,0.005,0.075c-0.001,0.025-0.005,0.051-0.005,0.074
				c0,0.105,0.014,0.208,0.038,0.311v0.106v0.022c-0.022,0.103-0.038,0.205-0.038,0.309c0,0.05,0.006,0.1,0.01,0.149
				c-0.004,0.05-0.01,0.101-0.01,0.151c0,0.1,0.014,0.199,0.035,0.299c-0.021,0.099-0.035,0.198-0.035,0.298
				c0,0.074,0.006,0.149,0.018,0.224c-0.012,0.075-0.018,0.148-0.018,0.225c0,0.074,0.006,0.148,0.018,0.223
				c-0.012,0.075-0.018,0.148-0.018,0.224c0,0.049,0.006,0.1,0.01,0.15c-0.004,0.049-0.01,0.099-0.01,0.149
				c0,0.074,0.006,0.149,0.018,0.223c-0.012,0.075-0.018,0.15-0.018,0.225c0,0.026,0.004,0.049,0.005,0.075
				c-0.001,0.025-0.005,0.049-0.005,0.075c0,0.074,0.006,0.15,0.018,0.223c-0.012,0.075-0.018,0.149-0.018,0.224l0,0l0,0
				c0,0.075,0.006,0.151,0.018,0.225c-0.012,0.075-0.018,0.148-0.018,0.224c0,0,0,0,0,0.001l0,0c0,0.025,0.004,0.05,0.005,0.074
				c-0.001,0.025-0.005,0.05-0.005,0.076c0,0.024,0.004,0.05,0.005,0.074c-0.001,0.026-0.005,0.051-0.005,0.075
				c0,0.05,0.006,0.101,0.01,0.15c-0.004,0.05-0.01,0.099-0.01,0.149c0,0.027,0.004,0.049,0.005,0.075
				c-0.001,0.026-0.005,0.05-0.005,0.075c0,0.05,0.006,0.101,0.01,0.15c-0.004,0.049-0.01,0.099-0.01,0.149
				c0,0.049,0.006,0.1,0.01,0.15c-0.004,0.049-0.01,0.099-0.01,0.148c0,0.025,0.004,0.05,0.005,0.076
				c-0.001,0.025-0.005,0.049-0.005,0.074c0,0.049,0.006,0.101,0.01,0.15c-0.004,0.049-0.01,0.099-0.01,0.148
				c0,0.026,0.004,0.05,0.005,0.076c-0.001,0.025-0.005,0.049-0.005,0.074c0,0.076,0.006,0.15,0.018,0.225
				c-0.012,0.074-0.018,0.147-0.018,0.224c0,0.075,0.006,0.149,0.018,0.223c-0.012,0.075-0.018,0.149-0.018,0.225
				c0,0.075,0.006,0.149,0.018,0.224c-0.012,0.074-0.018,0.147-0.018,0.224c0,0.049,0.006,0.1,0.01,0.149
				c-0.004,0.05-0.01,0.1-0.01,0.148c0,0.026,0.004,0.05,0.005,0.074c-0.001,0.026-0.005,0.05-0.005,0.075
				c0,0.076,0.006,0.15,0.018,0.224c-0.012,0.074-0.018,0.15-0.018,0.225s0.006,0.149,0.018,0.223
				c-0.012,0.074-0.018,0.15-0.018,0.225l0,0l0,0c0,0.076,0.006,0.15,0.018,0.223c-0.012,0.075-0.018,0.15-0.018,0.225
				c0,0.024,0.004,0.049,0.005,0.075c-0.001,0.026-0.005,0.05-0.005,0.075c0,0.026,0.004,0.049,0.005,0.075
				c-0.001,0.024-0.005,0.049-0.005,0.075c0,0.104,0.014,0.207,0.038,0.309v0.108v0.021c-0.022,0.103-0.038,0.205-0.038,0.31
				c0,0.05,0.006,0.1,0.01,0.148c-0.004,0.05-0.01,0.101-0.01,0.151c0,0.1,0.014,0.199,0.035,0.298
				c-0.021,0.099-0.035,0.198-0.035,0.3s0.014,0.206,0.038,0.309v0.22v0.037v0.021c-0.022,0.102-0.038,0.205-0.038,0.309
				c0,0.104,0.014,0.207,0.038,0.309v0.072v0.149v0.037v0.021c-0.022,0.103-0.038,0.206-0.038,0.309
				c0,0.104,0.014,0.207,0.038,0.312v0.218v0.038v0.021c-0.022,0.103-0.038,0.205-0.038,0.31c0,0.104,0.014,0.207,0.038,0.31v0.07
				v0.149v0.448v0.449l0,0v0.449v0.149v0.149v0.747v0.299v0.599v0.896v0.896v0.898c2.846,4.933,13.771,4.371,13.771,4.371
				c11.609-0.112,12.975-4.147,12.975-4.147v-0.897v-0.897v-0.896v-0.598v-0.298v-0.749v-0.148v-0.149v-0.449l0,0v-0.448v-0.448
				v-0.15v-0.299v-0.411v-0.037v-0.448V34.85v-0.037v-0.149v-0.3v-0.149v-0.26v-0.039v-0.299v-0.149v-0.298v-0.111v-0.038v-0.148
				V32.87v-0.411v-0.037l0,0v-0.263v-0.187v-0.148v-0.412v-0.037v-0.113v-0.149v-0.037v-0.411l0,0v-0.037v-0.411v-0.039v-0.41V29.62
				v-0.038V29.32v-0.036v-0.413v-0.336v-0.112v-0.037v-0.412v-0.149v-0.039v-0.26v-0.15v-0.038v-0.261V26.78v-0.038V26.63v-0.3
				V26.18v-0.148v-0.001v-0.448l0,0v-0.037v-0.412v-0.148v-0.45v-0.298V23.79v-0.449v-0.599v-0.298v-0.747v-0.151V20.95v-0.449v-0.6
				v-1.195C59.23,18.712,59.227,18.714,59.225,18.718z"/>
                <ellipse fill="#4E4F4F" cx="45.834" cy="20.069" rx="11.855" ry="4.02"/>
                <path fill="#4E4F4F" d="M34.011,19.625c0,0,1.512,3.852,11.991,3.953c0,0,9.169,0.202,11.687-3.75v6.181
				c0,0-1.208,3.646-11.485,3.749c0,0-9.673,0.507-12.192-3.951V19.625L34.011,19.625z"/>
                <path fill="#4E4F4F" d="M33.877,27.395c0,0,1.52,3.85,12.059,3.951c0,0,9.22,0.203,11.754-3.75v6.182
				c0,0-1.216,3.646-11.551,3.749c0,0-9.729,0.507-12.262-3.953V27.395L33.877,27.395z"/>
                <path fill="#4E4F4F" d="M33.843,35.128c0,0,1.52,3.852,12.06,3.952c0,0,9.221,0.203,11.753-3.748v6.181
				c0,0-1.215,3.647-11.551,3.748c0,0-9.728,0.509-12.262-3.951V35.128L33.843,35.128z"/>
                <g>
                    <path fill="#FFFFFF" d="M41.789,26.421c-0.16-2.325-6.089-4.192-13.385-4.192c-7.056,0-12.833,1.747-13.35,3.963
					c-0.002-0.003-0.004-0.007-0.004-0.007v0.022c-0.021,0.102-0.038,0.205-0.038,0.309c0,0.104,0.016,0.207,0.038,0.309v0.555V27.4
					c-0.021,0.104-0.038,0.206-0.038,0.311c0,0.101,0.016,0.2,0.036,0.299c-0.021,0.1-0.036,0.199-0.036,0.299
					c0,0.075,0.006,0.149,0.019,0.224c-0.013,0.074-0.019,0.149-0.019,0.224c0,0.101,0.016,0.2,0.036,0.299
					c-0.021,0.099-0.036,0.199-0.036,0.298c0,0.026,0.005,0.05,0.006,0.075c-0.001,0.024-0.006,0.049-0.006,0.075
					c0,0.104,0.016,0.207,0.038,0.31v0.107v0.021c-0.021,0.101-0.038,0.204-0.038,0.309c0,0.05,0.006,0.1,0.011,0.148
					c-0.005,0.051-0.011,0.101-0.011,0.15c0,0.102,0.016,0.2,0.036,0.298c-0.021,0.101-0.036,0.199-0.036,0.299
					c0,0.075,0.006,0.15,0.019,0.225c-0.013,0.074-0.019,0.149-0.019,0.224s0.006,0.15,0.019,0.224
					c-0.013,0.075-0.019,0.148-0.019,0.223c0,0.05,0.006,0.101,0.011,0.15c-0.005,0.049-0.011,0.099-0.011,0.149
					c0,0.075,0.006,0.149,0.019,0.223c-0.013,0.075-0.019,0.15-0.019,0.225c0,0.025,0.005,0.049,0.006,0.075
					c-0.001,0.025-0.006,0.049-0.006,0.075c0,0.075,0.006,0.15,0.019,0.224c-0.013,0.075-0.019,0.148-0.019,0.223l0,0l0,0
					c0,0.075,0.006,0.151,0.019,0.225c-0.013,0.075-0.019,0.148-0.019,0.225c0,0,0,0,0,0.001l0,0c0,0.023,0.005,0.048,0.006,0.074
					c-0.001,0.024-0.006,0.049-0.006,0.075c0,0.025,0.005,0.05,0.006,0.074c-0.001,0.024-0.006,0.05-0.006,0.076
					c0,0.049,0.006,0.1,0.011,0.149c-0.005,0.05-0.011,0.1-0.011,0.149c0,0.026,0.005,0.05,0.006,0.074
					c-0.001,0.026-0.006,0.05-0.006,0.076c0,0.049,0.006,0.1,0.011,0.15c-0.005,0.048-0.011,0.099-0.011,0.148
					c0,0.05,0.006,0.101,0.011,0.15c-0.005,0.049-0.011,0.099-0.011,0.149c0,0.024,0.005,0.05,0.006,0.074
					c-0.001,0.025-0.006,0.05-0.006,0.075c0,0.05,0.006,0.101,0.011,0.15c-0.005,0.05-0.011,0.099-0.011,0.149
					c0,0.025,0.005,0.049,0.006,0.075c-0.001,0.025-0.006,0.049-0.006,0.075c0,0.076,0.006,0.149,0.019,0.225
					c-0.013,0.074-0.019,0.148-0.019,0.223c0,0.075,0.006,0.149,0.019,0.225c-0.013,0.073-0.019,0.148-0.019,0.224
					c0,0.075,0.006,0.148,0.019,0.223c-0.013,0.075-0.019,0.148-0.019,0.225c0,0.049,0.006,0.101,0.011,0.149
					c-0.005,0.049-0.011,0.1-0.011,0.148c0,0.025,0.005,0.05,0.006,0.075c-0.001,0.024-0.006,0.049-0.006,0.073
					c0,0.076,0.006,0.151,0.019,0.225c-0.013,0.075-0.019,0.148-0.019,0.225c0,0.075,0.006,0.149,0.019,0.225
					c-0.013,0.073-0.019,0.148-0.019,0.223l0,0l0,0c0,0.076,0.006,0.151,0.019,0.225c-0.013,0.074-0.019,0.148-0.019,0.224
					c0,0.024,0.005,0.049,0.006,0.074c-0.001,0.026-0.006,0.05-0.006,0.074s0.005,0.05,0.006,0.075
					c-0.001,0.025-0.006,0.049-0.006,0.074c0,0.104,0.016,0.206,0.038,0.31v0.108v0.02c-0.021,0.104-0.038,0.206-0.038,0.311
					c0,0.051,0.006,0.101,0.011,0.15c-0.005,0.048-0.011,0.099-0.011,0.148c0,0.102,0.016,0.198,0.036,0.299
					c-0.021,0.099-0.036,0.198-0.036,0.299c0,0.104,0.016,0.207,0.038,0.309v0.221v0.038v0.021
					c-0.021,0.103-0.038,0.205-0.038,0.309c0,0.104,0.016,0.208,0.038,0.309v0.072v0.148v0.038v0.021
					c-0.021,0.103-0.038,0.205-0.038,0.31c0,0.104,0.016,0.207,0.038,0.31v0.219v0.037v0.022c-0.021,0.103-0.038,0.205-0.038,0.31
					s0.016,0.207,0.038,0.31v0.07v0.148v0.449v0.449l0,0v0.447v0.149v0.15v0.747v0.298v0.6v0.896v0.896v0.896
					c2.847,4.933,13.773,4.371,13.773,4.371c11.607-0.11,12.974-4.146,12.974-4.146v-0.896v-0.897v-0.897v-0.597v-0.3v-0.747v-0.149
					v-0.15v-0.448l0,0v-0.448v-0.448v-0.149v-0.299v-0.411v-0.038v-0.449v-0.41v-0.037v-0.148v-0.301v-0.149v-0.261v-0.038v-0.299
					v-0.149v-0.299V40.75v-0.036v-0.15l0,0v-0.411v-0.037l0,0v-0.262v-0.187v-0.149v-0.412v-0.036v-0.113v-0.149V38.77v-0.411l0,0
					v-0.036v-0.411v-0.039v-0.41v-0.149v-0.038v-0.26v-0.038v-0.411v-0.337v-0.113V36.08v-0.413v-0.149v-0.037v-0.262V35.07v-0.038
					v-0.261v-0.299v-0.037v-0.112v-0.3v-0.149v-0.149v-0.001v-0.448l0,0V33.24v-0.413v-0.15v-0.449V31.93v-0.447v-0.45v-0.598
					v-0.299V29.39v-0.15v-0.598v-0.448v-0.598V26.4C41.795,26.413,41.79,26.416,41.789,26.421z"/>
                    <g>
                        <ellipse fill="#5EB2E3" cx="28.397" cy="27.625" rx="11.856" ry="3.875"/>
                        <path fill="#5EB2E3" d="M16.576,27.327c0,0,1.511,3.85,11.99,3.951c0,0,9.169,0.203,11.687-3.749v6.181
						c0,0-1.208,3.647-11.485,3.749c0,0-9.672,0.506-12.191-3.951V27.327L16.576,27.327z"/>
                    </g>
                    <path fill="#5EB2E3" d="M16.44,35.095c0,0,1.521,3.852,12.059,3.952c0,0,9.222,0.203,11.756-3.749v6.183
					c0,0-1.217,3.646-11.553,3.748c0,0-9.729,0.506-12.262-3.951V35.095z"/>
                    <path fill="#5EB2E3" d="M16.408,42.829c0,0,1.52,3.852,12.059,3.953c0,0,9.22,0.202,11.753-3.75v6.183
					c0,0-1.216,3.646-11.552,3.747c0,0-9.728,0.507-12.26-3.95V42.829L16.408,42.829z"/>
                </g>
                <polygon fill="#5EB2E3" points="18.866,63.541 18.866,55.861 21.297,55.861 23.473,61.236 25.776,55.99 27.825,55.99 
				28.081,63.67 26.545,63.67 26.417,57.269 24.113,63.67 22.833,63.67 20.401,57.397 20.401,63.541 			"/>
                <polygon fill="#5EB2E3" points="30.963,65.632 32.5,65.632 35.201,57.701 33.78,57.697 			"/>
                <polygon fill="#5EB2E3" points="29.552,57.686 31.089,57.686 32.625,61.91 32.498,63.573 31.729,63.573 			"/>
                <path fill="#5EB2E3" d="M36.256,61.062l-0.047,1.439c0,0,3.072,1.92,4.944-0.769c0,0,1.057-2.447-1.824-3.455
				c0,0-1.919-0.432-0.96-1.729c0,0,0.768-0.718,2.399,0.433l0.048-1.392c0,0-2.256-1.632-4.224,0.721c0,0-1.201,1.968,1.152,3.119
				c0,0,2.064,0.624,1.919,1.488C39.665,60.917,39.521,62.885,36.256,61.062z"/>
                <polygon fill="#5EB2E3" points="50.353,55.414 50.368,63.125 54.641,63.136 54.641,61.84 52.048,61.84 52.048,55.408 			"/>
                <ellipse fill="#5EB2E3" cx="45.487" cy="59.167" rx="3.464" ry="4.032"/>
                <ellipse fill="#0A1F26" cx="45.556" cy="59.165" rx="2.134" ry="2.715"/>
                <path fill="#5EB2E3" d="M47.817,61.59c0,0,0.997,0.938,1.634,1.059l0.029,1.209c0,0-1.178,0.03-2.751-1.513L47.817,61.59z"/>
            </g>
        </g>
    </g>
    <g id="Layer_10" display="none">
        <circle display="inline" fill="#0C6AAB" cx="35.92" cy="35.92" r="35.92"/>
        <path display="inline" fill="#1E99D2" d="M35.864,0c-0.092,0-0.18,0.006-0.271,0.006v71.827c0.092,0,0.18,0.008,0.271,0.008
		c19.837,0,35.92-16.084,35.92-35.92C71.784,16.083,55.701,0,35.864,0z"/>
        <path display="inline" fill="#0C6AAB" d="M35.92,0.003C16.083,0.003,0,16.087,0,35.923C0,55.76,16.083,71.844,35.92,71.844
		c19.838,0,35.921-16.084,35.921-35.921C71.841,16.087,55.758,0.003,35.92,0.003z M35.92,67.131
		c-17.236,0-31.21-13.974-31.21-31.209c0-17.234,13.974-31.208,31.21-31.208c17.235,0,31.209,13.973,31.209,31.208
		C67.129,53.157,53.155,67.131,35.92,67.131z"/>
        <polygon display="inline" fill="#FFFFFF" points="33.878,34.464 33.878,64.87 23.786,62.044 23.114,53.57 26.612,54.107 
		26.746,56.933 29.975,57.874 29.302,34.331 	"/>
        <polygon display="inline" fill="#FFFFFF" points="37.594,59.57 37.594,65.167 47.835,62.573 49.473,45.506 42.373,45.369 
		42.373,39.635 49.883,39.771 50.156,34.447 37.594,34.447 37.594,50.83 44.285,50.694 44.012,57.794 	"/>
        <path display="inline" fill="#FFFFFF" d="M18.871,30.073c-3.062-0.188-5.393-2.824-5.203-5.886c0.029-0.484,0.122-0.951,0.267-1.39
		c-0.469,0.729-0.766,1.584-0.822,2.512c-0.178,2.894,2.025,5.386,4.919,5.564c1.628,0.1,3.127-0.552,4.159-1.658
		C21.236,29.825,20.088,30.148,18.871,30.073z"/>
        <path display="inline" fill="#FFFFFF" d="M17.405,34.339c-4.351-0.111-7.79-3.727-7.68-8.078c0.018-0.688,0.123-1.354,0.305-1.985
		c-0.626,1.057-1.001,2.285-1.035,3.603c-0.104,4.114,3.146,7.535,7.26,7.638c2.313,0.059,4.405-0.943,5.815-2.563
		C20.745,33.866,19.133,34.382,17.405,34.339z"/>
        <path display="inline" fill="#FFFFFF" d="M16.359,38.234c-5.625,0.264-10.401-4.082-10.665-9.71c-0.04-0.89,0.034-1.758,0.207-2.59
		c-0.708,1.424-1.078,3.044-0.999,4.747c0.25,5.32,4.765,9.43,10.083,9.18c2.99-0.14,5.599-1.628,7.265-3.849
		C20.627,37.312,18.597,38.13,16.359,38.234z"/>
        <polygon display="inline" fill="#FFFFFF" points="19.537,15.951 21.351,15.905 21.025,17.625 19.282,17.595 	"/>
        <path display="inline" fill="#FFFFFF" d="M21.069,19.364l-1.743,6.345c0,0,0.07,1.325-2.929,0.906l0.209-1.674
		c0,0,1.347,0.515,1.765-1.342l0.884-4.236H21.069z"/>
        <path display="inline" fill="#FFFFFF" d="M36.543,23.036l1.465-6.765l-1.675-0.069l-1.045,5.159c0,0-1.67,0.295-2.161,0
		c-0.348-0.208,0.906-5.021,0.906-5.021l-1.814-0.139c0,0-2.09,6.416,0.139,6.625C32.359,22.828,34.592,23.174,36.543,23.036z"/>
        <path display="inline" fill="#FFFFFF" d="M44.981,22.965l1.464-6.764l4.88-0.07c0,0,0.627,0.488,0.697,1.675h-4.252l-1.046,5.159
		H44.981L44.981,22.965z"/>
        <path display="inline" fill="#FFFFFF" d="M52.441,19.548c0,0-0.07-1.116-0.419-1.116h-1.811c0,0,1.186,2.929,0.417,4.604
		l1.884,0.069c0,0,2.789-5.858,5.09-7.88l-2.232-0.07L52.441,19.548z"/>
        <path display="inline" fill="#FFFFFF" d="M30.547,16.899c0,0,0-2.509-3.557-2.58c0,0-3.555-0.557-4.533,4.603
		c0,0-0.767,3.834,2.023,4.043l5.716,0.071l0.28-1.605l-0.953-0.042C29.524,21.389,30.825,18.502,30.547,16.899z M28.685,17.992
		l-0.741,3.394l-2.604-0.042c0,0-1.209-0.051-1.209-1.399c0,0,0-3.998,2.695-3.998C26.826,15.946,28.919,15.806,28.685,17.992z"/>
        <path display="inline" fill="#FFFFFF" d="M44.632,17.316c-0.837-2.301-4.045-0.976-4.045-0.976
		c-2.578,1.255-2.369,4.672-2.369,4.672c0.045,1.771,1.464,1.953,1.464,1.953l4.182-0.069l0.211-1.465h-3.07
		c-1.462,0-0.904-1.326-0.904-1.326l4.324,0.071C45.283,19.67,44.632,17.316,44.632,17.316z M42.912,18.829h-2.744
		c0.466-1.396,1.537-1.256,1.537-1.256C43.099,17.486,42.912,18.829,42.912,18.829z"/>
    </g>
    <g id="Layer_11">
        <g id="PHP_Logo">
            <g>
                <circle fill="#37C5F3" cx="36.019" cy="35.981" r="35.981"/>
                <g>
                    <path fill="#023942" d="M8.586,48.239l3.864-20.044h9.781c0,0,5.554,0.725,5.19,6.883c0,0,0,6.036-7.124,7.606l-6.52,0.121
					l-1.087,5.434H8.586L8.586,48.239z"/>
                    <path fill="#37C5F3" d="M14.139,39.908l1.785-9.055l4.846,0.128c0,0,3.189,0.509,2.424,4.591c0,0-0.765,4.337-4.592,4.337
					L14.139,39.908L14.139,39.908z"/>
                </g>
                <g>
                    <path fill="#023942" d="M44.524,48.12l3.863-20.045h9.779c0,0,5.554,0.727,5.192,6.882c0,0,0,6.038-7.124,7.61l-6.52,0.119
					l-1.088,5.435H44.524z"/>
                    <path fill="#37C5F3" d="M50.075,39.788l1.786-9.054l4.848,0.127c0,0,3.188,0.51,2.423,4.593c0,0-0.765,4.335-4.592,4.335
					L50.075,39.788L50.075,39.788z"/>
                </g>
                <path fill="#023942" d="M27.89,42.442l3.983-20.164H36.1l-1.208,5.675c0,0,6.641,0,7.487,0.362c0,0,3.499,0,2.171,5.795
				l-1.447,8.452h-4.469l1.691-8.211c0,0,0.845-3.38-1.448-3.26l-4.71-0.121l-2.052,11.591L27.89,42.442z"/>
            </g>
        </g>
    </g>
</svg>
