<?xml version="1.0" encoding="utf-8"?>
<!--Generator: Adobe Illustrator 16.0.0, SVG Export Plug-In . SVG Version: 6.00 Build 0)-->
<!DOCTYPE svg PUBLIC "-//W3C//DTD SVG 1.1//EN" "http://www.w3.org/Graphics/SVG/1.1/DTD/svg11.dtd">
<svg version="1.1" id="Layer_1" xmlns="http://www.w3.org/2000/svg" xmlns:xlink="http://www.w3.org/1999/xlink" x="0px" y="0px" width="75px" height="75px" viewBox="0 0 75 75" enable-background="new 0 0 75 75" xml:space="preserve">
    <circle fill="#6FCFF0" cx="37.648" cy="37.765" r="6.459"/>
    <path fill="#6FCFF0" d="M37.647,22.93c-19.874,0-35.984,6.673-35.984,14.904c0,8.233,16.11,14.905,35.984,14.905
	s35.983-6.672,35.983-14.905C73.631,29.604,57.521,22.93,37.647,22.93z M37.477,49.475c-18.076,0-32.728-5.212-32.728-11.64
	c0-6.428,14.652-11.639,32.728-11.639s32.729,5.211,32.729,11.639C70.205,44.263,55.553,49.475,37.477,49.475z"/>
    <path fill="#6FCFF0" d="M50.547,30.365C40.584,13.167,26.735,2.572,19.613,6.697c-7.124,4.125-4.823,21.41,5.137,38.609
	c9.96,17.194,23.809,27.792,30.934,23.666C62.805,64.847,60.506,47.562,50.547,30.365z M27.49,43.521
	c-9.06-15.643-11.895-30.934-6.332-34.156c5.563-3.221,17.416,6.846,26.476,22.488c9.059,15.641,11.893,30.933,6.33,34.153
	C48.402,69.229,36.548,59.161,27.49,43.521z"/>
    <path fill="#6FCFF0" d="M50.586,45.233c9.865-17.253,12.068-34.551,4.922-38.637c-7.145-4.086-20.935,6.587-30.8,23.841
	c-9.863,17.252-12.067,34.55-4.921,38.636C26.933,73.159,40.723,62.484,50.586,45.233z M27.627,31.91
	C36.6,16.217,48.396,6.083,53.979,9.274c5.578,3.191,2.832,18.497-6.143,34.19c-8.969,15.691-20.767,25.824-26.348,22.634
	C15.908,62.906,18.656,47.6,27.627,31.91z"/>
</svg>
