<?xml version="1.0" encoding="utf-8"?>
<!--Generator: Adobe Illustrator 16.0.0, SVG Export Plug-In . SVG Version: 6.00 Build 0)-->
<!DOCTYPE svg PUBLIC "-//W3C//DTD SVG 1.1//EN" "http://www.w3.org/Graphics/SVG/1.1/DTD/svg11.dtd">
<svg version="1.1" id="Layer_1" xmlns="http://www.w3.org/2000/svg" xmlns:xlink="http://www.w3.org/1999/xlink" x="0px" y="0px" width="250px" height="250px" viewBox="0 0 250 250" enable-background="new 0 0 250 250" xml:space="preserve">
    <g id="Layer_2_1_">
        <path fill="#37C5F3" d="M231.494,56.982l-24.854-13.916c-23.438-2.49-42.627,51.709-42.627,51.709
		c-5.469,14.404,13.721,33.643,13.721,33.643c14.404,13.037,14.404,19.922,14.404,19.922c-1.367,24.707-23.34,15.82-23.34,15.82
		c-9.619-5.518-8.252-18.555-8.252-18.555c-0.684-13.037-10.303-14.404-10.303-14.404c-15.137,4.102-19.922,39.844-19.922,39.844
		c6.885,12.354,1.367,18.555,1.367,18.555c-13.037,20.605-30.908,2.051-30.908,2.051c-8.252-19.922,8.936-26.807,8.936-26.807
		c2.734-4.785,15.088-53.564,15.088-53.564l-8.936,19.238l-2.734-3.418c-4.785,0.684-19.238,13.721-19.238,13.721
		c-2.734,10.986-10.986,13.037-10.986,13.037c-19.238,7.568-21.289-16.504-21.289-16.504c-1.367-9.619,15.137-14.404,15.137-14.404
		c8.252-1.367,48.096-32.959,48.096-32.959l-19.238,9.619l-10.303,1.367c-7.568-0.684-14.404,6.885-14.404,6.885
		c-20.605,4.102-19.922-15.82-19.922-15.82c8.252-16.504,20.605-10.303,20.605-10.303c31.592,4.102,41.895-6.885,41.895-6.885
		c15.137-6.885,25.439-34.326,25.439-34.326c12.354-15.82,2.734-28.174,2.734-28.174l-10.84-6.201
		c-2.148-1.465-5.273-2.197-8.398-2.588V3.418c0,0-2.441-0.244-5.762-0.195c-3.32-0.049-5.762,0.195-5.762,0.195v0.146
		c-3.125,0.391-6.201,1.172-8.398,2.588l-90.674,50.83c0,0-7.568,8.936-8.252,20.605v99.609c0,0,4.102,13.721,13.037,17.188
		l86.572,48.096c0,0,5.713,4.932,13.477,4.639c7.764,0.293,13.477-4.639,13.477-4.639l86.572-48.096
		c8.936-3.418,13.037-17.188,13.037-17.188V77.588C239.063,65.918,231.494,56.982,231.494,56.982z"/>
    </g>
</svg>
