<?xml version="1.0" encoding="utf-8"?>
<!--Generator: Adobe Illustrator 16.0.0, SVG Export Plug-In . SVG Version: 6.00 Build 0)-->
<!DOCTYPE svg PUBLIC "-//W3C//DTD SVG 1.1//EN" "http://www.w3.org/Graphics/SVG/1.1/DTD/svg11.dtd">
<svg version="1.1" xmlns="http://www.w3.org/2000/svg" xmlns:xlink="http://www.w3.org/1999/xlink" x="0px" y="0px" width="250px" height="250px" viewBox="0 0 250 250" enable-background="new 0 0 250 250" xml:space="preserve">
    <g id="Layer_2" display="none">
        <image display="inline" overflow="visible" width="1600" height="900" xlink:href="46631B6E.jpg" transform="matrix(1 0 0 1 -1103.002 -268.7231)"/>
    </g>
    <g id="Layer_1">
        <path fill="#4D5864" d="M2.543,238.114L0.6,88.501c0,0,48.582,5.832,60.236,5.832c0,0,29.146-15.546,3.889-42.748
		c0,0-9.717-48.577,33.027-40.8c0,0,31.092,7.771,13.599,38.86c0,0-23.319,33.03,7.776,40.8c0,0,42.75,0,50.517-7.77
		c0,0-9.716,56.348,5.826,68c0,0,9.72,13.604,36.921-5.826c0,0,38.862-15.542,36.918,27.208c0,0,3.882,27.194-38.862,23.313
		c0,0-23.313-25.264-40.803-5.833c0,0-5.828,33.035,3.889,44.694c0,0-54.405,9.708-68.008,1.946c0,0-1.944-15.544,13.603-36.926
		c0,0,15.543-42.737-33.034-40.799c0,0-50.514,17.492-15.542,56.348c0,0,17.487,25.258-31.09,25.258L2.543,238.114z"/>
    </g>
</svg>
