<?xml version="1.0" encoding="utf-8"?>
<!--Generator: Adobe Illustrator 16.0.0, SVG Export Plug-In . SVG Version: 6.00 Build 0)-->
<!DOCTYPE svg PUBLIC "-//W3C//DTD SVG 1.1//EN" "http://www.w3.org/Graphics/SVG/1.1/DTD/svg11.dtd">
<svg version="1.1" id="Layer_1" xmlns="http://www.w3.org/2000/svg" xmlns:xlink="http://www.w3.org/1999/xlink" x="0px" y="0px" width="72px" height="72px" viewBox="0 0 72 72" enable-background="new 0 0 72 72" xml:space="preserve">
    <g id="Layer_1_2_" display="none">
        <g id="Layer_1_1_" display="inline">
            <g id="Photoshop_Logo">
                <g>
                    <rect fill="#37C5F3" width="72" height="72"/>
                    <rect x="2.852" y="2.853" fill="#0A1F26" width="66.46" height="66.461"/>
                    <path fill="#37C5F3" d="M17.141,51.732l0.071-32.835l10.302-0.143c0,0,9.658,0.644,9.658,10.587
					c0,9.944-9.444,10.729-9.444,10.729l-5.079,0.072v11.662L17.141,51.732z"/>
                    <path fill="#0A1F26" d="M22.793,23.689l-0.072,11.233c0,0,9.158,1.43,9.015-5.795C31.735,29.127,32.165,22.689,22.793,23.689z"/>
                    <path fill="#37C5F3" d="M40.034,45.869v4.863c0,0,9.729,5.148,14.594-3.437c0,0,1.788-4.362-2.146-8.151
					c0,0-5.366-3.078-6.297-3.722c0,0-2.22-2.792,1.431-3.435c0,0,3.362-0.571,6.368,1.074l0.144-5.008
					c0,0-4.508-2.577-11.233,0.285c0,0-2.86,1.933-2.789,5.652c0,0-0.787,3.934,3.791,6.651c0,0,5.08,2.289,5.652,3.791
					c0,0,1.215,3.291-3.721,3.078C45.828,47.516,41.393,46.796,40.034,45.869z"/>
                </g>
            </g>
        </g>
        <g id="Layer_2" display="inline">
            <g id="Illustrator_Logo">
                <g>
                    <rect fill="#F37D21" width="71.998" height="72"/>
                    <rect x="2.852" y="2.852" fill="#281A11" width="66.46" height="66.462"/>
                    <rect x="47.482" y="27.127" fill="#F37D21" width="5.149" height="25.752"/>
                    <circle fill="#F37D21" cx="50.271" cy="17.469" r="3.219"/>
                    <polygon fill="#F37D21" points="42.904,53.023 32.603,18.112 25.449,18.112 15.791,52.88 21.299,52.953 24.09,43.295 
					34.106,43.295 36.751,53.023 				"/>
                    <polygon fill="#281A11" points="25.306,37.786 32.673,37.786 28.811,23.122 				"/>
                </g>
            </g>
        </g>
        <g id="Layer_3" display="inline">
            <g id="After_Effects_Logo">
                <g>
                    <rect fill="#B894C5" width="72" height="71.999"/>
                    <rect x="2.853" y="2.852" fill="#220C3F" width="66.461" height="66.46"/>
                    <polygon fill="#B894C5" points="42.904,53.025 32.604,18.115 25.45,18.115 15.792,52.882 21.3,52.953 24.09,43.296 
					34.107,43.296 36.754,53.025 				"/>
                    <polygon fill="#220C3F" points="25.308,37.787 32.675,37.787 28.812,23.121 				"/>
                    <path fill="#B894C5" d="M61.375,46.579v4.828c0,0-9.229,4.509-15.771-2.786c0,0-5.902-9.446,0.856-19.212
					c0,0,6.011-7.188,14.166,0c0,0,4.187,4.294,2.254,10.839L48.82,40.57c0,0-0.215,7.512,6.975,7.189
					C55.796,47.762,59.123,47.977,61.375,46.579z"/>
                    <path fill="#220C3F" d="M49.036,36.171h8.583c0,0,1.074-5.258-4.077-5.258C53.543,30.913,49.895,30.377,49.036,36.171z"/>
                </g>
                <polygon fill="#B894C5" points="42.904,53.025 32.604,18.115 25.45,18.115 15.792,52.882 21.3,52.953 24.09,43.296 
				34.107,43.296 36.754,53.025 			"/>
                <polygon fill="#220C3F" points="25.308,37.787 32.675,37.787 28.812,23.121 			"/>
            </g>
        </g>
        <g id="Layer_4" display="inline">
            <g id="Wordpress_Logo">
                <g>
                    <circle fill="#37C5F3" cx="35.941" cy="35.941" r="35.941"/>
                    <path fill="#FFFFFF" d="M35.943,4.125c-17.57,0-31.816,14.245-31.816,31.816c0,17.57,14.247,31.815,31.816,31.815
					c17.573,0,31.817-14.244,31.817-31.815C67.759,18.37,53.516,4.125,35.943,4.125z M35.944,65.148
					c-16.131,0-29.208-13.078-29.208-29.208c0-16.13,13.076-29.209,29.208-29.209c16.132,0,29.208,13.079,29.208,29.209
					C65.152,52.07,52.076,65.148,35.944,65.148z"/>
                    <path fill="#FFFFFF" d="M10.818,20.411c0,0,9.403-0.147,10.137-0.296c0,0,1.761,0.883,0.146,2.205l-3.674,0.735l10.577,31.291
					l6.465-18.802l-4.555-12.488l-3.673-0.588c0,0-1.468-1.764,0.883-2.352c0,0,12.778,0.588,15.571,0c0,0,2.938,0.442,0.293,2.352
					c0,0-2.057,0.588-3.672,0.293l10.725,31.292l4.701-15.132c0,0,0.881-5.289,0-7.493c0,0-2.057-4.994-3.967-7.932
					c0,0-3.674-7.491,4.406-8.667c0,0,5.289,1.176,6.023,7.787c0,0,0.879,4.995-0.734,9.842L50.188,61.839l-4.994,2.496
					l-9.401-24.974L27.27,64.775l-4.995-1.908L8.614,24.669L10.818,20.411z"/>
                </g>
            </g>
        </g>
        <g id="Layer_5" display="inline">
            <g id="HTML5_Logo">
                <circle fill="#F15A30" cx="35.882" cy="35.882" r="35.882"/>
                <path fill="#F47A32" d="M35.826,0c-0.09,0-0.179,0.006-0.27,0.006v71.75c0.091,0.001,0.18,0.008,0.27,0.008
				c19.816,0,35.882-16.064,35.882-35.882C71.708,16.065,55.643,0,35.826,0z"/>
                <polygon fill="#FFFFFF" points="22.887,42.813 23.868,52.227 35.631,55.757 47.984,52.227 49.75,33.991 28.183,33.991 
				27.789,28.306 50.534,28.109 50.729,22.031 21.123,22.031 22.495,39.873 43.082,39.873 42.689,47.324 35.828,49.48 
				29.236,47.568 29.163,43.083 			"/>
                <path fill="#F15A30" d="M35.882,0.126c-19.816,0-35.881,16.066-35.881,35.88c0,19.816,16.065,35.883,35.881,35.883
				c19.816,0,35.882-16.064,35.882-35.883C71.764,16.192,55.697,0.126,35.882,0.126z M35.882,67.184
				c-17.217,0-31.177-13.959-31.177-31.177c0-17.216,13.959-31.175,31.177-31.175S67.059,18.79,67.059,36.007
				C67.059,53.225,53.1,67.184,35.882,67.184z"/>
                <g>
                    <path fill="#FFFFFF" d="M28.073,19.471h-1.598v-3.262h-2.993v3.262h-1.603v-7.559h1.603v2.962h2.993v-2.962h1.598V19.471z"/>
                    <path fill="#FFFFFF" d="M32.896,19.471h-1.602v-6.225h-2.053v-1.333h5.708v1.333h-2.052L32.896,19.471L32.896,19.471z"/>
                    <path fill="#FFFFFF" d="M39.313,19.471l-1.818-5.93h-0.046c0.063,1.207,0.099,2.012,0.099,2.415v3.516h-1.433v-7.559h2.183
					l1.788,5.78h0.028l1.898-5.78h2.182v7.558H42.7v-3.578c0-0.169,0.003-0.365,0.008-0.584c0.004-0.221,0.028-0.807,0.069-1.758
					h-0.045l-1.949,5.919L39.313,19.471L39.313,19.471L39.313,19.471z"/>
                    <path fill="#FFFFFF" d="M46.096,19.471v-7.559h1.604v6.234h3.064v1.324L46.096,19.471L46.096,19.471z"/>
                </g>
            </g>
        </g>
    </g>
    <path fill="#0E66AD" d="M65.473,0H6.527C2.922,0,0,2.922,0,6.527v58.946C0,69.077,2.922,72,6.527,72h58.946
	C69.077,72,72,69.077,72,65.473V6.527C72,2.922,69.077,0,65.473,0"/>
    <g>
        <path fill="#FFFFFF" d="M10.245,20.143H5.546l9.9,32.216l6.208-19.967l6.208,20.135l8.557-28.524l6.711,0.167l-5.369,9.396v2.181
		c0,0,6.543-1.51,7.215,5.035c0,0,0.84,4.697-3.02,7.213c0,0-3.357,1.848-5.537-3.857l-3.188,1.679c0,0,3.356,10.066,12.584,4.864
		c0,0,4.697-3.522,3.521-10.57c0,0,0-5.537-6.039-8.054l5.703-9.899v-2.014H33.399l-5.704,19.128L21.99,20.143h-4.195l1.847,6.209
		l-4.028,12.919L10.245,20.143z"/>
        <path fill="#FFFFFF" d="M52.695,37.93c0,0-3.859-8.726,2.014-16.611c0,0,4.193-4.531,8.557,2.685l2.35-4.531l0.67,4.195
		l-2.516,4.195c0,0-5.957-11.663-9.982,1.763C53.787,29.623,52.221,34.098,52.695,37.93z"/>
        <path fill="#FFFFFF" d="M65.783,42.796l0.67,3.188c0,0-3.523,7.886-10.568,5.033c0,0-4.699-3.355-5.705-9.061
		c0,0,3.857,8.557,9.898,6.209C60.078,48.165,62.764,47.828,65.783,42.796z"/>
    </g>
</svg>
