<?xml version="1.0" encoding="utf-8"?>
<!--Generator: Adobe Illustrator 16.0.0, SVG Export Plug-In . SVG Version: 6.00 Build 0)-->
<!DOCTYPE svg PUBLIC "-//W3C//DTD SVG 1.1//EN" "http://www.w3.org/Graphics/SVG/1.1/DTD/svg11.dtd">
<svg version="1.1" xmlns="http://www.w3.org/2000/svg" xmlns:xlink="http://www.w3.org/1999/xlink" x="0px" y="0px" width="72px" height="72px" viewBox="0 0 72 72" enable-background="new 0 0 72 72" xml:space="preserve">
    <g id="Layer_1" display="none">
        <g id="Photoshop_Logo" display="inline">
            <g>
                <rect fill="#37C5F3" width="72" height="72"/>
                <rect x="2.852" y="2.853" fill="#0A1F26" width="66.461" height="66.461"/>
                <path fill="#37C5F3" d="M17.141,51.733l0.071-32.836l10.302-0.143c0,0,9.658,0.644,9.658,10.587c0,9.944-9.444,10.73-9.444,10.73
				l-5.079,0.071v11.662L17.141,51.733z"/>
                <path fill="#0A1F26" d="M22.793,23.689l-0.072,11.233c0,0,9.158,1.43,9.015-5.795C31.735,29.127,32.165,22.689,22.793,23.689z"/>
                <path fill="#37C5F3" d="M40.034,45.869v4.864c0,0,9.729,5.149,14.594-3.436c0,0,1.788-4.363-2.146-8.153
				c0,0-5.366-3.076-6.297-3.72c0,0-2.218-2.792,1.431-3.435c0,0,3.362-0.571,6.368,1.074l0.144-5.008c0,0-4.508-2.577-11.233,0.285
				c0,0-2.862,1.933-2.79,5.652c0,0-0.786,3.934,3.792,6.653c0,0,5.079,2.289,5.652,3.791c0,0,1.215,3.29-3.721,3.078
				C45.828,47.515,41.393,46.796,40.034,45.869z"/>
            </g>
        </g>
    </g>
    <g id="Layer_2" display="none">
        <g id="Illustrator_Logo" display="inline">
            <g>
                <rect fill="#F37D21" width="71.998" height="72"/>
                <rect x="2.852" y="2.852" fill="#281A11" width="66.46" height="66.463"/>
                <rect x="47.483" y="27.127" fill="#F37D21" width="5.15" height="25.752"/>
                <circle fill="#F37D21" cx="50.272" cy="17.469" r="3.219"/>
                <polygon fill="#F37D21" points="42.904,53.024 32.603,18.112 25.449,18.112 15.791,52.88 21.299,52.953 24.09,43.295 
				34.106,43.295 36.751,53.024 			"/>
                <polygon fill="#281A11" points="25.306,37.786 32.673,37.786 28.811,23.122 			"/>
            </g>
        </g>
    </g>
    <g id="Layer_3" display="none">
        <g id="After_Effects_Logo" display="inline">
            <g>
                <rect fill="#B894C5" width="72" height="71.999"/>
                <rect x="2.853" y="2.852" fill="#220C3F" width="66.462" height="66.461"/>
                <polygon fill="#B894C5" points="42.905,53.025 32.604,18.115 25.45,18.115 15.792,52.882 21.3,52.953 24.09,43.296 
				34.107,43.296 36.754,53.025 			"/>
                <polygon fill="#220C3F" points="25.308,37.787 32.675,37.787 28.812,23.121 			"/>
                <path fill="#B894C5" d="M61.375,46.579v4.828c0,0-9.228,4.509-15.772-2.786c0,0-5.903-9.446,0.857-19.212
				c0,0,6.01-7.188,14.166,0c0,0,4.186,4.294,2.254,10.839l-14.059,0.323c0,0-0.215,7.511,6.974,7.19
				C55.796,47.762,59.123,47.976,61.375,46.579z"/>
                <path fill="#220C3F" d="M49.036,36.171h8.583c0,0,1.074-5.258-4.077-5.258C53.543,30.913,49.895,30.377,49.036,36.171z"/>
            </g>
            <polygon fill="#B894C5" points="42.905,53.025 32.604,18.115 25.45,18.115 15.792,52.882 21.3,52.953 24.09,43.296 34.107,43.296 
			36.754,53.025 		"/>
            <polygon fill="#220C3F" points="25.308,37.787 32.675,37.787 28.812,23.121 		"/>
        </g>
    </g>
    <g id="Layer_4">
        <g id="Wordpress_Logo">
            <g>
                <circle fill="#37C5F3" cx="35.941" cy="35.941" r="35.941"/>
                <path fill="#FFFFFF" d="M35.943,4.125c-17.57,0-31.816,14.245-31.816,31.816c0,17.57,14.247,31.815,31.816,31.815
				c17.572,0,31.817-14.245,31.817-31.815C67.759,18.37,53.515,4.125,35.943,4.125z M35.944,65.148
				c-16.131,0-29.208-13.078-29.208-29.208c0-16.13,13.076-29.209,29.208-29.209c16.132,0,29.209,13.079,29.209,29.209
				C65.153,52.07,52.076,65.148,35.944,65.148z"/>
                <path fill="#FFFFFF" d="M10.818,20.411c0,0,9.403-0.147,10.137-0.296c0,0,1.761,0.883,0.146,2.205l-3.674,0.735l10.577,31.291
				l6.465-18.802l-4.555-12.488l-3.673-0.588c0,0-1.468-1.764,0.883-2.352c0,0,12.779,0.588,15.571,0c0,0,2.939,0.442,0.294,2.352
				c0,0-2.057,0.588-3.673,0.293l10.725,31.292l4.701-15.132c0,0,0.881-5.289,0-7.493c0,0-2.056-4.994-3.966-7.932
				c0,0-3.674-7.491,4.406-8.667c0,0,5.288,1.176,6.024,7.787c0,0,0.879,4.995-0.736,9.842L50.188,61.839l-4.994,2.496
				l-9.403-24.974l-8.521,25.414l-4.995-1.908L8.614,24.669L10.818,20.411z"/>
            </g>
        </g>
    </g>
</svg>
